<svg width="24" height="23" viewBox="0 0 24 23" fill="none" xmlns="http://www.w3.org/2000/svg">
<path d="M6.1559 11.9891L14.7268 3.94929C15.0028 3.69037 14.8812 3.08084 14.4551 2.58787L14.3566 2.47392C13.9306 1.98095 13.3614 1.79122 13.0854 2.05015L4.51451 10.09C4.23849 10.3489 4.36011 10.9585 4.78617 11.4514L4.88466 11.5654C5.31072 12.0583 5.87987 12.2481 6.1559 11.9891Z" fill="#F99D1C"/>
<path d="M3.93171 11.6881L12.0869 20.1843C12.3496 20.4579 12.9275 20.2994 13.3777 19.8304L13.4818 19.722C13.932 19.2529 14.0841 18.6508 13.8215 18.3772L5.66625 9.88105C5.40361 9.60743 4.8257 9.76587 4.37546 10.2349L4.27139 10.3434C3.82115 10.8124 3.66906 11.4145 3.93171 11.6881Z" fill="#F99D1C"/>
</svg>
