<svg width="17" height="27" viewBox="0 0 17 27" fill="none" xmlns="http://www.w3.org/2000/svg">
<path d="M12.4232 1.11904L1.39134 12.1181C1.2604 12.2491 1.16787 12.3909 1.11374 12.5437C1.05875 12.6964 1.03125 12.8601 1.03125 13.0347C1.03125 13.2093 1.05875 13.373 1.11374 13.5257C1.16787 13.6785 1.2604 13.8204 1.39134 13.9513L12.4232 24.9831C12.7287 25.2886 13.1106 25.4414 13.5689 25.4414C14.0272 25.4414 14.42 25.2777 14.7474 24.9504C15.0747 24.623 15.2384 24.2411 15.2384 23.8046C15.2384 23.3682 15.0747 22.9863 14.7474 22.6589L5.12317 13.0347L14.7474 3.41052C15.0529 3.10499 15.2057 2.72875 15.2057 2.2818C15.2057 1.83398 15.042 1.4464 14.7146 1.11904C14.3873 0.791689 14.0054 0.628012 13.5689 0.628012C13.1324 0.628012 12.7505 0.791689 12.4232 1.11904Z" fill="#4D4D4D"/>
</svg>
