<svg width="44" height="44" viewBox="0 0 44 44" fill="none" xmlns="http://www.w3.org/2000/svg">
<g filter="url(#filter0_d_3243_9725)">
<circle cx="20" cy="20" r="20" transform="matrix(-1 0 0 1 42 1)" fill="#F5F5F5" fill-opacity="0.75" shape-rendering="crispEdges"/>
</g>
<g clip-path="url(#clip0_3243_9725)">
<path d="M25.6905 9.05368L15.3077 19.4057C15.1844 19.529 15.0973 19.6625 15.0464 19.8063C14.9946 19.9501 14.9687 20.1041 14.9687 20.2684C14.9687 20.4327 14.9946 20.5868 15.0464 20.7306C15.0973 20.8743 15.1844 21.0079 15.3077 21.1311L25.6905 31.514C25.9781 31.8015 26.3375 31.9453 26.7689 31.9453C27.2002 31.9453 27.5699 31.7913 27.878 31.4832C28.1861 31.1751 28.3402 30.8156 28.3402 30.4048C28.3402 29.994 28.1861 29.6346 27.878 29.3265L18.82 20.2684L27.878 11.2104C28.1656 10.9228 28.3094 10.5687 28.3094 10.148C28.3094 9.72656 28.1553 9.36177 27.8472 9.05368C27.5391 8.74558 27.1797 8.59153 26.7689 8.59153C26.3581 8.59153 25.9986 8.74558 25.6905 9.05368Z" fill="#4D4D4D"/>
</g>
<defs>
<filter id="filter0_d_3243_9725" x="0" y="0" width="44" height="44" filterUnits="userSpaceOnUse" color-interpolation-filters="sRGB">
<feFlood flood-opacity="0" result="BackgroundImageFix"/>
<feColorMatrix in="SourceAlpha" type="matrix" values="0 0 0 0 0 0 0 0 0 0 0 0 0 0 0 0 0 0 127 0" result="hardAlpha"/>
<feOffset dy="1"/>
<feGaussianBlur stdDeviation="1"/>
<feComposite in2="hardAlpha" operator="out"/>
<feColorMatrix type="matrix" values="0 0 0 0 0 0 0 0 0 0 0 0 0 0 0 0 0 0 0.1 0"/>
<feBlend mode="normal" in2="BackgroundImageFix" result="effect1_dropShadow_3243_9725"/>
<feBlend mode="normal" in="SourceGraphic" in2="effect1_dropShadow_3243_9725" result="shape"/>
</filter>
<clipPath id="clip0_3243_9725">
<rect width="16" height="25.1429" fill="white" transform="matrix(1 0 0 -1 14 33.1445)"/>
</clipPath>
</defs>
</svg>
