<svg width="49" height="44" viewBox="0 0 49 44" fill="none" xmlns="http://www.w3.org/2000/svg">
<path d="M34.0244 23.5V7.5C34.0244 5.29086 32.2336 3.5 30.0244 3.5H24M14.5 3.5H8.52441C6.31528 3.5 4.52441 5.29086 4.52441 7.5C4.52441 7.5 4.52441 7.5 4.52441 7.5C4.52441 7.5 4.52441 17.6658 4.52441 24.5M34.0244 35.5V38.5C34.0244 40.7091 32.2336 42.5 30.0244 42.5H21.5" stroke="#0683F2" stroke-width="1.5" stroke-linecap="round"/>
<path d="M31 23L31 8C31 7.44772 30.5523 7 30 7L24.5 7" stroke="#0583F2" stroke-width="1.5" stroke-linecap="round"/>
<path d="M7.52452 24.5C7.52452 24.5 7.52429 16 7.52452 11.5C9.52452 9.5 12.0245 7 12.0245 7H14.5" stroke="#0583F2" stroke-width="1.5" stroke-linecap="round"/>
<path d="M31.0244 31V38.5C31.0244 39.0523 30.5767 39.5 30.0244 39.5H21.5244" stroke="#0583F2" stroke-width="1.5" stroke-linecap="round"/>
<path d="M11.7744 18.396H12.9643C13.4932 18.396 13.9098 18.2607 14.2143 17.99C14.5188 17.7193 14.6711 17.3227 14.6711 16.8C14.6711 16.2773 14.5148 15.8807 14.2023 15.61C13.8898 15.3393 13.4331 15.204 12.8321 15.204C12.6478 15.204 12.4635 15.2133 12.2792 15.232C12.0949 15.2507 11.9267 15.2787 11.7744 15.316V18.396ZM13.0124 19.572H10.5244V14.84C10.5244 14.672 10.5605 14.546 10.6326 14.462C10.7127 14.378 10.8209 14.308 10.9571 14.252C11.1975 14.168 11.49 14.1073 11.8345 14.07C12.1791 14.0233 12.5236 14 12.8682 14C13.8938 14 14.663 14.2473 15.1759 14.742C15.6887 15.2367 15.9451 15.918 15.9451 16.786C15.9451 17.346 15.8289 17.836 15.5965 18.256C15.3642 18.676 15.0316 19.0027 14.5989 19.236C14.1662 19.46 13.6374 19.572 13.0124 19.572ZM12.9283 19.166L13.9379 18.746C14.1542 19.054 14.3746 19.376 14.5989 19.712C14.8233 20.048 15.0396 20.3747 15.248 20.692C15.4643 21 15.6526 21.2847 15.8129 21.546C15.9812 21.798 16.1134 21.9987 16.2095 22.148C16.1614 22.344 16.0693 22.5027 15.9331 22.624C15.8049 22.736 15.6646 22.792 15.5124 22.792C15.3201 22.792 15.1678 22.7407 15.0557 22.638C14.9515 22.526 14.8433 22.3813 14.7311 22.204L12.9283 19.166ZM10.5244 19.11H11.7864V22.652C11.7303 22.6707 11.6502 22.694 11.546 22.722C11.4419 22.75 11.3297 22.764 11.2095 22.764C10.9691 22.764 10.7928 22.7127 10.6807 22.61C10.5765 22.498 10.5244 22.3207 10.5244 22.078V19.11Z" fill="#0583F2"/>
<path d="M15.0394 22.313L14.799 22.229L12.8004 18.6797C12.6802 18.8197 12.8484 18.5024 12.8004 18.6797C12.9286 18.5304 13.0213 18.6797 13.2296 18.6797C13.3819 18.6797 13.3019 18.2764 13.414 18.379C13.5262 18.4817 13.6589 18.281 13.8855 18.281L15.7124 21.389L16.061 21.683L18.5249 25.687C18.4849 25.8924 18.4007 26.0604 18.2725 26.191C18.1523 26.3124 17.9921 26.373 17.7918 26.373C17.6395 26.373 17.5113 26.331 17.4072 26.247C17.303 26.1537 17.1908 26.0044 17.0706 25.799L15.0394 22.313ZM16.037 22.201L15.6884 22.523L13.3687 26.345C13.3286 26.3544 13.2846 26.359 13.2365 26.359C13.1884 26.3684 13.1443 26.373 13.1043 26.373C12.8719 26.373 12.6916 26.3124 12.5634 26.191C12.4352 26.0697 12.3711 25.911 12.3711 25.715C12.3711 25.5564 12.4031 25.4117 12.4672 25.281C12.5314 25.1504 12.6155 25.0057 12.7197 24.847L14.799 21.697L15.2798 21.221L17.3951 17.749C17.4432 17.7397 17.4953 17.7304 17.5514 17.721C17.6155 17.7117 17.6796 17.707 17.7437 17.707C17.96 17.707 18.1243 17.7677 18.2365 17.889C18.3487 18.0104 18.4048 18.1597 18.4048 18.337C18.4048 18.4677 18.3727 18.5984 18.3086 18.729C18.2525 18.8597 18.1764 18.9997 18.0802 19.149C17.7517 19.653 17.4152 20.1617 17.0706 20.675C16.7341 21.179 16.3895 21.6877 16.037 22.201Z" fill="#0583F2"/>
<line x1="19.2744" y1="11.25" x2="27.7744" y2="11.25" stroke="#0583F2" stroke-width="1.5" stroke-linecap="round"/>
<line x1="19.2744" y1="13.75" x2="26.7744" y2="13.75" stroke="#0583F2" stroke-width="1.5" stroke-linecap="round"/>
<line x1="19.2744" y1="16.25" x2="22.7744" y2="16.25" stroke="#0583F2" stroke-width="1.5" stroke-linecap="round"/>
<line x1="23.7744" y1="34.75" x2="27.2744" y2="34.75" stroke="#0583F2" stroke-width="1.5" stroke-linecap="round"/>
<line x1="21.2744" y1="32.25" x2="27.7744" y2="32.25" stroke="#0583F2" stroke-width="1.5" stroke-linecap="round"/>
<path d="M2.52441 30.5L2.6746 29.5989C2.89108 28.3 3.78383 27.2152 5.01677 26.7529V26.7529C6.25789 26.2874 7.65332 26.5241 8.67161 27.3727L10.0244 28.5L12.5244 30.5" stroke="#F99D1C" stroke-width="2" stroke-linecap="round"/>
<path d="M15.0244 34.5C16.5244 34.5 17.5244 35.5 17.5244 37.0033M1.02477 37.0033C1.14551 35.4337 1.76845 34.4519 3.02477 33.5033C3.4153 33.2084 3.98378 32.9714 4.48001 32.8023C5.16408 32.5691 5.88891 32.5031 6.61162 32.5028C8.30143 32.5022 11.6562 32.5012 14.4617 32.5023C15.4913 32.5028 16.9127 32.9635 17.7562 33.5539V33.5539C18.852 34.3211 19.3278 35.168 19.4899 36.4959C19.5114 36.6725 19.5244 36.8444 19.5248 37.0033C19.5261 37.6103 19.344 38.3372 19.1347 38.9709C18.7946 40.0012 18.391 40.6447 17.4764 41.2284V41.2284C16.7673 41.6809 15.5935 42.0033 14.7523 42.0033C13.2679 42.0033 11.856 42.0033 10.0248 42.0033C8.76179 42.0033 7.66819 42.0033 6.64744 42.0033C5.57262 42.0033 4.45993 41.9125 3.54277 41.3522C3.37943 41.2524 3.21043 41.1383 3.02477 41.0033C2.35479 40.516 1.93579 40.2226 1.52477 39.5033C1.03079 38.6388 0.94841 37.996 1.02477 37.0033Z" stroke="#F99D1C" stroke-width="1.5" stroke-linecap="round"/>
<path d="M3.02441 37C3.02441 38.5 3.52441 39.5 5.52441 40" stroke="#F99D1C" stroke-width="1.5" stroke-linecap="round"/>
<line x1="10.2744" y1="33" x2="10.2744" y2="42" stroke="#F99D1C" stroke-width="1.5"/>
<path d="M12.5244 9V10.5C12.5244 11.0523 12.0767 11.5 11.5244 11.5H8.52441" stroke="#0583F2" stroke-width="1.5" stroke-linecap="round"/>
<path d="M14.5 7V4C14.5 3.44772 14.9477 3 15.5 3H16.2192C16.6781 3 17.0781 2.6877 17.1894 2.24254L17.3106 1.75746C17.4219 1.3123 17.8219 1 18.2808 1H20.382C20.7607 1 21.107 1.214 21.2764 1.55279L21.7236 2.44721C21.893 2.786 22.2393 3 22.618 3H23C23.5523 3 24 3.44772 24 4V7C24 7.55228 23.5523 8 23 8H15.5C14.9477 8 14.5 7.55228 14.5 7Z" stroke="#F99D1C" stroke-width="1.5" stroke-linecap="round"/>
<path d="M40.5 36C40.5 36 37.9827 36.0272 37 35C36.4034 34.3764 36.1125 33.0923 36.0274 32.652C36.0078 32.551 35.9766 32.4532 35.9306 32.3612L35.5903 31.6806C35.5307 31.5614 35.4479 31.4554 35.3478 31.3673C34.6911 30.7894 32.0893 28.4433 31.1108 26.7079C31.0345 26.5727 30.9972 26.4182 31.007 26.2633C31.0646 25.3554 31.4685 25.283 31.9612 25.1704C32.3037 25.0922 32.6786 25.1191 32.9709 25.3139C34.4172 26.2781 36.5945 27.7297 36.9501 27.9667C36.9846 27.9897 37.0186 28.0093 37.0557 28.0278L40 29.5" stroke="#0683F2" stroke-width="1.5" stroke-linecap="round"/>
<path d="M38 26L42.7585 27.4276C42.917 27.4751 43.0613 27.5613 43.1783 27.6783L44.3468 28.8468C44.4478 28.9478 44.5259 29.0692 44.5761 29.2028L46 33L46.5 35L47.5 37.5" stroke="#0683F2" stroke-width="1.5" stroke-linecap="round"/>
<path d="M39 38C39 38 40.5 38.5 40.5 39.5" stroke="#0683F2" stroke-linecap="round"/>
</svg>
