<svg width="44" height="44" viewBox="0 0 44 44" fill="none" xmlns="http://www.w3.org/2000/svg">
<g filter="url(#filter0_d_3243_9720)">
<circle cx="22" cy="21" r="20" fill="#F5F5F5" fill-opacity="0.75" shape-rendering="crispEdges"/>
</g>
<g clip-path="url(#clip0_3243_9720)">
<path d="M18.3095 9.05367L28.6923 19.4057C28.8156 19.529 28.9027 19.6625 28.9536 19.8063C29.0054 19.9501 29.0313 20.1041 29.0313 20.2684C29.0313 20.4327 29.0054 20.5868 28.9536 20.7306C28.9027 20.8743 28.8156 21.0079 28.6923 21.1311L18.3095 31.514C18.0219 31.8015 17.6625 31.9453 17.2311 31.9453C16.7998 31.9453 16.4301 31.7913 16.122 31.4832C15.8139 31.1751 15.6598 30.8156 15.6598 30.4048C15.6598 29.994 15.8139 29.6346 16.122 29.3265L25.18 20.2684L16.122 11.2104C15.8344 10.9228 15.6906 10.5687 15.6906 10.148C15.6906 9.72656 15.8447 9.36177 16.1528 9.05367C16.4609 8.74558 16.8203 8.59153 17.2311 8.59153C17.6419 8.59153 18.0014 8.74558 18.3095 9.05367Z" fill="#4D4D4D"/>
</g>
<defs>
<filter id="filter0_d_3243_9720" x="0" y="0" width="44" height="44" filterUnits="userSpaceOnUse" color-interpolation-filters="sRGB">
<feFlood flood-opacity="0" result="BackgroundImageFix"/>
<feColorMatrix in="SourceAlpha" type="matrix" values="0 0 0 0 0 0 0 0 0 0 0 0 0 0 0 0 0 0 127 0" result="hardAlpha"/>
<feOffset dy="1"/>
<feGaussianBlur stdDeviation="1"/>
<feComposite in2="hardAlpha" operator="out"/>
<feColorMatrix type="matrix" values="0 0 0 0 0 0 0 0 0 0 0 0 0 0 0 0 0 0 0.1 0"/>
<feBlend mode="normal" in2="BackgroundImageFix" result="effect1_dropShadow_3243_9720"/>
<feBlend mode="normal" in="SourceGraphic" in2="effect1_dropShadow_3243_9720" result="shape"/>
</filter>
<clipPath id="clip0_3243_9720">
<rect width="16" height="25.1429" fill="white" transform="matrix(-1 0 0 -1 30 33.1445)"/>
</clipPath>
</defs>
</svg>
