<svg width="17" height="27" viewBox="0 0 17 27" fill="none" xmlns="http://www.w3.org/2000/svg">
<path d="M4.57685 1.11904L15.6087 12.1181C15.7396 12.2491 15.8321 12.3909 15.8863 12.5437C15.9413 12.6964 15.9688 12.8601 15.9688 13.0347C15.9688 13.2093 15.9413 13.373 15.8863 13.5257C15.8321 13.6785 15.7396 13.8204 15.6087 13.9513L4.57685 24.9831C4.27132 25.2886 3.8894 25.4414 3.43111 25.4414C2.97281 25.4414 2.57999 25.2777 2.25264 24.9504C1.92528 24.623 1.76161 24.2411 1.76161 23.8046C1.76161 23.3682 1.92528 22.9863 2.25264 22.6589L11.8768 13.0347L2.25264 3.41052C1.94711 3.10499 1.79434 2.72875 1.79434 2.2818C1.79434 1.83398 1.95802 1.4464 2.28537 1.11904C2.61273 0.791689 2.99464 0.628012 3.43111 0.628012C3.86758 0.628012 4.24949 0.791689 4.57685 1.11904Z" fill="#4D4D4D"/>
</svg>
