<svg width="245" height="245" viewBox="0 0 245 245" fill="none" xmlns="http://www.w3.org/2000/svg">
<path opacity="0.2" d="M121.883 232.606C182.928 232.606 232.415 183.077 232.415 121.981C232.415 60.8841 182.928 11.3555 121.883 11.3555C60.8382 11.3555 11.3516 60.8841 11.3516 121.981C11.3516 183.077 60.8382 232.606 121.883 232.606Z" fill="#3399FF" stroke="#3399FF" stroke-width="2.59718" stroke-linecap="round" stroke-linejoin="round"/>
<path d="M121.978 200.378C165.173 200.378 200.19 165.331 200.19 122.099C200.19 78.8669 165.173 43.8203 121.978 43.8203C78.7825 43.8203 43.7656 78.8669 43.7656 122.099C43.7656 165.331 78.7825 200.378 121.978 200.378Z" fill="#0583F2" stroke="#0583F2" stroke-width="2.59718" stroke-linecap="round" stroke-linejoin="round"/>
<path d="M158.641 100.59L111.24 145.875L87.5391 123.232" stroke="#F5F5F5" stroke-width="15.5831" stroke-linecap="round" stroke-linejoin="round"/>
</svg>
