<svg width="71" height="70" viewBox="0 0 71 70" fill="none" xmlns="http://www.w3.org/2000/svg">
<ellipse cx="35.3959" cy="34.9923" rx="35.3959" ry="34.9923" fill="#0583F2"/>
<g clip-path="url(#clip0_3377_9734)">
<path fill-rule="evenodd" clip-rule="evenodd" d="M14.4375 21.4859C14.4375 17.9427 17.3198 15.0703 20.8754 15.0703H50.9187C54.4743 15.0703 57.3565 17.9427 57.3565 21.4859V51.4254C57.3565 54.9687 54.4743 57.841 50.9187 57.841H20.8754C17.3198 57.841 14.4375 54.9687 14.4375 51.4254V21.4859ZM26.2402 32.1786C29.2032 32.1786 31.6051 29.7849 31.6051 26.8322C31.6051 23.8796 29.2032 21.4859 26.2402 21.4859C23.2773 21.4859 20.8754 23.8796 20.8754 26.8322C20.8754 29.7849 23.2773 32.1786 26.2402 32.1786ZM32.3639 39.3504L36.97 43.9405L49.0869 31.8654C49.7629 31.1918 50.9187 31.6689 50.9187 32.6215V51.4254H20.8754V49.2868L30.8464 39.3504C31.2654 38.9327 31.9448 38.9327 32.3639 39.3504Z" fill="#F5F5F5"/>
</g>
<defs>
<clipPath id="clip0_3377_9734">
<rect width="42.919" height="42.7707" fill="white" transform="translate(14.4375 15.0703)"/>
</clipPath>
</defs>
</svg>
