<svg width="148" height="148" viewBox="0 0 148 148" fill="none" xmlns="http://www.w3.org/2000/svg">
<circle cx="74" cy="74" r="74" fill="#F5F5F5" fill-opacity="0.7"/>
<path d="M39.222 109.318C32.9724 109.318 27.8945 103.906 27.8945 97.3214V51.6768C27.8945 45.0365 32.9724 39.6797 39.222 39.6797H109.754C116.003 39.6797 121.081 45.0923 121.081 51.6768V97.3214C121.081 103.962 116.003 109.318 109.754 109.318H39.222ZM30.9635 97.8794C30.9635 102.343 34.4232 105.97 38.664 105.97H109.977C114.218 105.97 117.621 102.343 117.621 97.8794V61.944H30.9635V97.8794ZM38.664 43.0835C34.4232 43.0835 30.9635 46.7105 30.9635 51.1746V58.4286H117.621V51.1746C117.621 46.7105 114.218 43.0835 109.977 43.0835H38.664Z" fill="#4D4D4D" fill-opacity="0.3"/>
<path d="M41.1193 74.1103C40.1707 74.1103 39.4453 73.3291 39.4453 72.3247C39.4453 71.3203 40.1707 70.5391 41.1193 70.5391H76.2177C77.1105 70.5391 77.8917 71.3761 77.8917 72.3247C77.8917 73.3291 77.1663 74.1103 76.2177 74.1103H41.1193ZM100.1 84.5449C99.2074 84.5449 98.4262 83.7079 98.4262 82.7593C98.4262 81.7549 99.1516 80.9737 100.1 80.9737H107.577C108.47 80.9737 109.251 81.8107 109.251 82.7593C109.251 83.7637 108.526 84.5449 107.577 84.5449H100.1ZM100.1 92.636C99.2074 92.636 98.4262 91.799 98.4262 90.8504C98.4262 89.846 99.1516 89.0648 100.1 89.0648H107.577C108.47 89.0648 109.251 89.9018 109.251 90.8504C109.251 91.8548 108.526 92.636 107.577 92.636H100.1Z" fill="#4D4D4D" fill-opacity="0.3"/>
</svg>
