<svg width="35" height="35" viewBox="0 0 35 35" fill="none" xmlns="http://www.w3.org/2000/svg">
<circle cx="17.5" cy="17.4844" r="17" fill="#0583F2"/>
<path d="M26.875 17.4844C26.875 17.7827 26.7565 18.0689 26.5455 18.2799C26.3345 18.4908 26.0484 18.6094 25.75 18.6094H18.625V25.7344C18.625 26.0327 18.5065 26.3189 18.2955 26.5299C18.0845 26.7408 17.7984 26.8594 17.5 26.8594C17.2016 26.8594 16.9155 26.7408 16.7045 26.5299C16.4935 26.3189 16.375 26.0327 16.375 25.7344V18.6094H9.25C8.95163 18.6094 8.66548 18.4908 8.4545 18.2799C8.24353 18.0689 8.125 17.7827 8.125 17.4844C8.125 17.186 8.24353 16.8999 8.4545 16.6889C8.66548 16.4779 8.95163 16.3594 9.25 16.3594H16.375V9.23438C16.375 8.93601 16.4935 8.64986 16.7045 8.43888C16.9155 8.2279 17.2016 8.10938 17.5 8.10938C17.7984 8.10938 18.0845 8.2279 18.2955 8.43888C18.5065 8.64986 18.625 8.93601 18.625 9.23438V16.3594H25.75C26.0484 16.3594 26.3345 16.4779 26.5455 16.6889C26.7565 16.8999 26.875 17.186 26.875 17.4844Z" fill="#F5F5F5"/>
</svg>
