<svg width="500" height="500" viewBox="0 0 500 500" fill="none" xmlns="http://www.w3.org/2000/svg">
<g filter="url(#filter0_d_1952_6797)">
<path d="M62.6 318.93C62.6 318.93 11.51 261.51 27.75 161.6C43.99 61.6902 127.42 24.8802 182.75 44.1102C238.08 63.3402 250.56 96.8102 295.75 115.95C340.94 135.09 426.81 121.95 469.75 186.24C512.69 250.53 457.87 357.06 388.08 423.86C318.29 490.66 140.2 448.84 62.6 318.93Z" fill="#0597F2"/>
<path opacity="0.7" d="M62.6 318.93C62.6 318.93 11.51 261.51 27.75 161.6C43.99 61.6902 127.42 24.8802 182.75 44.1102C238.08 63.3402 250.56 96.8102 295.75 115.95C340.94 135.09 426.81 121.95 469.75 186.24C512.69 250.53 457.87 357.06 388.08 423.86C318.29 490.66 140.2 448.84 62.6 318.93Z" fill="white"/>
<path d="M461.75 330.859L449.1 452.039" stroke="#263238" stroke-linecap="round" stroke-linejoin="round"/>
<path d="M450.91 434.9L456.54 428.97" stroke="#263238" stroke-linecap="round" stroke-linejoin="round"/>
<path d="M454.68 430.91C454.694 429.921 454.918 428.946 455.339 428.051C455.76 427.156 456.367 426.361 457.12 425.72C458.69 424.32 466.96 420.84 467.74 423.72C468.59 426.92 460.13 433.14 454.68 430.91Z" fill="#0597F2" stroke="#263238" stroke-linecap="round" stroke-linejoin="round"/>
<path d="M454.68 430.91L462.55 426.01" stroke="#263238" stroke-linecap="round" stroke-linejoin="round"/>
<path d="M449.51 448.26L455.01 443.68" stroke="#263238" stroke-linecap="round" stroke-linejoin="round"/>
<path d="M453.15 445.62C453.161 444.631 453.383 443.656 453.802 442.761C454.221 441.866 454.828 441.071 455.58 440.43C457.15 439.02 465.42 435.55 466.2 438.43C467.06 441.62 458.6 447.84 453.15 445.62Z" fill="#0597F2" stroke="#263238" stroke-linecap="round" stroke-linejoin="round"/>
<path d="M453.15 445.62L461.02 440.71" stroke="#263238" stroke-linecap="round" stroke-linejoin="round"/>
<path d="M454.73 398.08L460.29 393.08" stroke="#263238" stroke-linecap="round" stroke-linejoin="round"/>
<path d="M458.43 395C458.441 394.011 458.663 393.036 459.082 392.141C459.501 391.246 460.108 390.451 460.86 389.81C462.44 388.41 470.7 384.93 471.49 387.81C472.34 391 463.88 397.24 458.43 395Z" fill="#0597F2" stroke="#263238" stroke-linecap="round" stroke-linejoin="round"/>
<path d="M458.43 395.02L466.3 390.12" stroke="#263238" stroke-linecap="round" stroke-linejoin="round"/>
<path d="M453.18 413.72L458.75 407.79" stroke="#263238" stroke-linecap="round" stroke-linejoin="round"/>
<path d="M456.89 409.73C456.904 408.741 457.128 407.766 457.549 406.871C457.97 405.976 458.577 405.181 459.33 404.54C460.9 403.13 469.17 399.66 469.95 402.54C470.8 405.73 462.34 412 456.89 409.73Z" fill="#0597F2" stroke="#263238" stroke-linecap="round" stroke-linejoin="round"/>
<path d="M456.89 409.729L464.76 404.819" stroke="#263238" stroke-linecap="round" stroke-linejoin="round"/>
<path d="M457.21 374.869L462.78 369.189" stroke="#263238" stroke-linecap="round" stroke-linejoin="round"/>
<path d="M460.92 371.129C460.933 370.14 461.158 369.166 461.579 368.271C462 367.376 462.607 366.581 463.36 365.939C464.93 364.529 473.19 361.059 473.98 363.939C474.83 367.129 466.37 373.349 460.92 371.129Z" fill="#0597F2" stroke="#263238" stroke-linecap="round" stroke-linejoin="round"/>
<path d="M460.92 371.13L468.79 366.22" stroke="#263238" stroke-linecap="round" stroke-linejoin="round"/>
<path d="M459.89 349.319L465.29 345.189" stroke="#263238" stroke-linecap="round" stroke-linejoin="round"/>
<path d="M463.43 347.13C463.44 346.141 463.663 345.166 464.082 344.271C464.501 343.376 465.107 342.581 465.86 341.94C467.43 340.54 475.7 337.06 476.48 339.94C477.34 343.14 468.88 349.36 463.43 347.13Z" fill="#0597F2" stroke="#263238" stroke-linecap="round" stroke-linejoin="round"/>
<path d="M463.43 347.129L471.3 342.229" stroke="#263238" stroke-linecap="round" stroke-linejoin="round"/>
<path d="M451.45 426.729L446.8 419.149" stroke="#263238" stroke-linecap="round" stroke-linejoin="round"/>
<path d="M448.22 421.43C448.409 420.458 448.39 419.458 448.164 418.494C447.939 417.531 447.511 416.626 446.91 415.84C445.66 414.15 438.29 409.04 436.91 411.73C435.44 414.65 442.43 422.48 448.22 421.43Z" fill="#0597F2" stroke="#263238" stroke-linecap="round" stroke-linejoin="round"/>
<path d="M448.22 421.429L442.68 416.229" stroke="#263238" stroke-linecap="round" stroke-linejoin="round"/>
<path d="M455.49 388.029L450.84 380.439" stroke="#263238" stroke-linecap="round" stroke-linejoin="round"/>
<path d="M452.26 382.72C452.452 381.75 452.434 380.751 452.208 379.788C451.982 378.826 451.554 377.923 450.95 377.14C449.7 375.44 443.95 371.19 442.57 373.88C441.08 376.8 446.47 383.77 452.26 382.72Z" fill="#0597F2" stroke="#263238" stroke-linecap="round" stroke-linejoin="round"/>
<path d="M452.26 382.719L445.17 375.949" stroke="#263238" stroke-linecap="round" stroke-linejoin="round"/>
<path d="M457.27 371.02L452.61 363.43" stroke="#263238" stroke-linecap="round" stroke-linejoin="round"/>
<path d="M454 365.71C454.195 364.74 454.179 363.74 453.953 362.777C453.727 361.814 453.296 360.912 452.69 360.13C451.45 358.43 444.08 353.33 442.69 356.01C441.25 358.93 448.24 366.76 454 365.71Z" fill="#0597F2" stroke="#263238" stroke-linecap="round" stroke-linejoin="round"/>
<path d="M454.03 365.709L446.95 358.939" stroke="#263238" stroke-linecap="round" stroke-linejoin="round"/>
<path d="M459.87 346.08L455.22 338.5" stroke="#263238" stroke-linecap="round" stroke-linejoin="round"/>
<path d="M456.64 340.779C456.832 339.81 456.814 338.81 456.588 337.848C456.362 336.885 455.933 335.982 455.33 335.199C454.08 333.499 446.71 328.389 445.33 331.079C443.85 333.999 450.85 341.829 456.64 340.779Z" fill="#0597F2" stroke="#263238" stroke-linecap="round" stroke-linejoin="round"/>
<path d="M456.64 340.78L449.55 334" stroke="#263238" stroke-linecap="round" stroke-linejoin="round"/>
<path d="M461.86 330.14C462.052 329.17 462.034 328.17 461.808 327.208C461.582 326.246 461.153 325.343 460.55 324.56C459.3 322.86 451.93 317.76 450.55 320.44C449.07 323.36 456.07 331.19 461.86 330.14Z" fill="#0597F2" stroke="#263238" stroke-linecap="round" stroke-linejoin="round"/>
<path d="M461.86 330.14L454.77 323.37" stroke="#263238" stroke-linecap="round" stroke-linejoin="round"/>
<path d="M461.45 330.429C462.434 330.52 463.425 330.399 464.358 330.074C465.291 329.75 466.144 329.23 466.86 328.549C468.42 327.129 472.73 319.259 469.91 318.179C466.85 316.999 459.79 324.789 461.45 330.429Z" fill="#0597F2" stroke="#263238" stroke-linecap="round" stroke-linejoin="round"/>
<path d="M461.45 330.43L467.44 322.68" stroke="#263238" stroke-linecap="round" stroke-linejoin="round"/>
<path d="M441.53 296.01V451.74" stroke="#263238" stroke-linecap="round" stroke-linejoin="round"/>
<path d="M426.15 348.67L436.91 452.34" stroke="#263238" stroke-linecap="round" stroke-linejoin="round"/>
<path d="M436.73 451.579L439.84 448.029" stroke="#263238" stroke-linecap="round" stroke-linejoin="round"/>
<path d="M439.84 448C439.649 447.03 439.666 446.031 439.892 445.068C440.118 444.106 440.547 443.203 441.15 442.42C442.4 440.72 449.77 435.62 451.15 438.31C452.63 441.26 445.63 449.09 439.84 448Z" fill="#0597F2" stroke="#263238" stroke-linecap="round" stroke-linejoin="round"/>
<path d="M439.84 448.029L446.53 441.609" stroke="#263238" stroke-linecap="round" stroke-linejoin="round"/>
<path d="M432.94 414.66L437.55 410.81" stroke="#263238" stroke-linecap="round" stroke-linejoin="round"/>
<path d="M436.11 412.14C435.919 411.169 435.937 410.169 436.165 409.206C436.393 408.244 436.824 407.341 437.43 406.56C438.68 404.86 446.05 399.76 447.43 402.44C448.9 405.37 441.9 413.19 436.11 412.14Z" fill="#0597F2" stroke="#263238" stroke-linecap="round" stroke-linejoin="round"/>
<path d="M436.11 412.14L442.8 405.72" stroke="#263238" stroke-linecap="round" stroke-linejoin="round"/>
<path d="M434.4 432.149L439.06 424.569" stroke="#263238" stroke-linecap="round" stroke-linejoin="round"/>
<path d="M437.64 426.85C437.449 425.88 437.466 424.88 437.692 423.918C437.918 422.956 438.347 422.053 438.95 421.27C440.2 419.57 447.57 414.47 448.95 417.15C450.43 420.08 443.43 427.9 437.64 426.85Z" fill="#0597F2" stroke="#263238" stroke-linecap="round" stroke-linejoin="round"/>
<path d="M437.64 426.85L444.33 420.43" stroke="#263238" stroke-linecap="round" stroke-linejoin="round"/>
<path d="M430.61 391.09L435.05 385.97" stroke="#263238" stroke-linecap="round" stroke-linejoin="round"/>
<path d="M433.63 388.24C433.439 387.27 433.457 386.269 433.685 385.307C433.913 384.344 434.344 383.442 434.95 382.66C436.2 380.97 443.57 375.86 444.95 378.55C446.42 381.47 439.42 389.3 433.63 388.24Z" fill="#0597F2" stroke="#263238" stroke-linecap="round" stroke-linejoin="round"/>
<path d="M433.63 388.24L440.32 381.83" stroke="#263238" stroke-linecap="round" stroke-linejoin="round"/>
<path d="M428.28 368.63L432.56 361.97" stroke="#263238" stroke-linecap="round" stroke-linejoin="round"/>
<path d="M431.14 364.25C430.948 363.28 430.967 362.279 431.195 361.317C431.423 360.354 431.854 359.452 432.46 358.67C433.71 356.97 441.08 351.87 442.46 354.55C443.93 357.48 436.93 365.3 431.14 364.25Z" fill="#0597F2" stroke="#263238" stroke-linecap="round" stroke-linejoin="round"/>
<path d="M431.14 364.25L437.83 357.83" stroke="#263238" stroke-linecap="round" stroke-linejoin="round"/>
<path d="M435.82 444.61L429.7 438.14" stroke="#263238" stroke-linecap="round" stroke-linejoin="round"/>
<path d="M431.56 440.079C431.55 439.091 431.328 438.116 430.908 437.221C430.489 436.325 429.883 435.53 429.13 434.889C427.56 433.489 419.29 429.999 418.51 432.889C417.65 436.079 426.11 442.299 431.56 440.079Z" fill="#0597F2" stroke="#263238" stroke-linecap="round" stroke-linejoin="round"/>
<path d="M431.56 440.08L423.23 434.91" stroke="#263238" stroke-linecap="round" stroke-linejoin="round"/>
<path d="M431.8 405.899L425.69 399.439" stroke="#263238" stroke-linecap="round" stroke-linejoin="round"/>
<path d="M427.54 401.37C427.53 400.381 427.308 399.407 426.888 398.511C426.469 397.616 425.863 396.821 425.11 396.18C423.54 394.78 415.28 391.3 414.49 394.18C413.64 397.37 422.09 403.6 427.54 401.37Z" fill="#0597F2" stroke="#263238" stroke-linecap="round" stroke-linejoin="round"/>
<path d="M427.54 401.37L419.21 396.21" stroke="#263238" stroke-linecap="round" stroke-linejoin="round"/>
<path d="M430.03 388.89L423.92 382.43" stroke="#263238" stroke-linecap="round" stroke-linejoin="round"/>
<path d="M425.78 384.359C425.764 383.372 425.54 382.399 425.121 381.504C424.702 380.61 424.099 379.814 423.35 379.169C421.78 377.769 413.51 374.289 412.73 377.169C411.87 380.359 420.33 386.589 425.78 384.359Z" fill="#0597F2" stroke="#263238" stroke-linecap="round" stroke-linejoin="round"/>
<path d="M425.78 384.359L417.45 379.199" stroke="#263238" stroke-linecap="round" stroke-linejoin="round"/>
<path d="M427.52 362.679L421.33 357.489" stroke="#263238" stroke-linecap="round" stroke-linejoin="round"/>
<path d="M423.19 359.43C423.18 358.441 422.958 357.466 422.539 356.571C422.12 355.676 421.513 354.881 420.76 354.24C419.19 352.83 410.92 349.35 410.14 352.24C409.28 355.43 417.74 361.65 423.19 359.43Z" fill="#0597F2" stroke="#263238" stroke-linecap="round" stroke-linejoin="round"/>
<path d="M423.19 359.43L414.86 354.26" stroke="#263238" stroke-linecap="round" stroke-linejoin="round"/>
<path d="M426.11 347.939C426.1 346.951 425.877 345.976 425.458 345.081C425.039 344.186 424.433 343.391 423.68 342.749C422.11 341.349 413.85 337.869 413.06 340.749C412.21 343.939 420.66 350.169 426.11 347.939Z" fill="#0597F2" stroke="#263238" stroke-linecap="round" stroke-linejoin="round"/>
<path d="M426.11 347.939L417.78 342.779" stroke="#263238" stroke-linecap="round" stroke-linejoin="round"/>
<path d="M425.77 348.31C426.756 348.191 427.704 347.862 428.552 347.345C429.399 346.827 430.125 346.133 430.68 345.31C431.91 343.6 434.51 335.02 431.53 334.54C428.29 334.07 423 343.13 425.77 348.31Z" fill="#0597F2" stroke="#263238" stroke-linecap="round" stroke-linejoin="round"/>
<path d="M425.77 348.309L430.04 339.489" stroke="#263238" stroke-linecap="round" stroke-linejoin="round"/>
<path d="M441.75 434.659L446.81 427.899" stroke="#263238" stroke-linecap="round" stroke-linejoin="round"/>
<path d="M445.16 430C445.066 429.022 445.182 428.036 445.499 427.107C445.817 426.177 446.328 425.326 447 424.61C448.41 423.05 456.27 418.73 457.36 421.55C458.58 424.61 450.81 431.67 445.16 430Z" fill="#0597F2" stroke="#263238" stroke-linecap="round" stroke-linejoin="round"/>
<path d="M445.16 430.02L452.48 424.33" stroke="#263238" stroke-linecap="round" stroke-linejoin="round"/>
<path d="M441.57 402.05L446.81 397.17" stroke="#263238" stroke-linecap="round" stroke-linejoin="round"/>
<path d="M445.16 399.289C445.063 398.307 445.177 397.315 445.495 396.381C445.812 395.446 446.325 394.59 447 393.869C448.41 392.309 456.27 387.999 457.36 390.809C458.58 393.869 450.81 400.929 445.16 399.289Z" fill="#0597F2" stroke="#263238" stroke-linecap="round" stroke-linejoin="round"/>
<path d="M445.16 399.29L452.48 393.59" stroke="#263238" stroke-linecap="round" stroke-linejoin="round"/>
<path d="M441.4 368.14L446.81 361.08" stroke="#263238" stroke-linecap="round" stroke-linejoin="round"/>
<path d="M445.16 363.2C445.064 362.219 445.178 361.229 445.495 360.295C445.812 359.362 446.326 358.508 447 357.79C448.41 356.23 456.27 351.91 457.36 354.73C458.58 357.79 450.81 364.85 445.16 363.2Z" fill="#0597F2" stroke="#263238" stroke-linecap="round" stroke-linejoin="round"/>
<path d="M445.16 363.2L452.48 357.51" stroke="#263238" stroke-linecap="round" stroke-linejoin="round"/>
<path d="M441.75 341.62L446.81 337.06" stroke="#263238" stroke-linecap="round" stroke-linejoin="round"/>
<path d="M445.16 339.18C445.063 338.197 445.177 337.206 445.495 336.271C445.812 335.336 446.325 334.48 447 333.76C448.41 332.21 456.27 327.89 457.36 330.7C458.58 333.76 450.81 340.83 445.16 339.18Z" fill="#0597F2" stroke="#263238" stroke-linecap="round" stroke-linejoin="round"/>
<path d="M445.16 339.179L452.48 333.479" stroke="#263238" stroke-linecap="round" stroke-linejoin="round"/>
<path d="M441.46 317.589L446.71 313.739" stroke="#263238" stroke-linecap="round" stroke-linejoin="round"/>
<path d="M445.16 315.05C445.064 314.069 445.178 313.079 445.495 312.146C445.812 311.213 446.326 310.359 447 309.64C448.41 308.08 456.27 303.76 457.36 306.58C458.58 309.64 450.81 316.7 445.16 315.05Z" fill="#0597F2" stroke="#263238" stroke-linecap="round" stroke-linejoin="round"/>
<path d="M445.16 315.049L452.48 309.359" stroke="#263238" stroke-linecap="round" stroke-linejoin="round"/>
<path d="M440.47 442.83L436.1 437.29" stroke="#263238" stroke-linecap="round" stroke-linejoin="round"/>
<path d="M437.75 439.409C437.836 438.426 437.713 437.436 437.389 436.503C437.065 435.571 436.547 434.718 435.87 433.999C434.45 432.439 426.59 428.129 425.51 430.939C424.33 433.999 432.1 441.049 437.75 439.409Z" fill="#0597F2" stroke="#263238" stroke-linecap="round" stroke-linejoin="round"/>
<path d="M437.75 439.41L430 433.41" stroke="#263238" stroke-linecap="round" stroke-linejoin="round"/>
<path d="M441.52 395.469L436.1 388.399" stroke="#263238" stroke-linecap="round" stroke-linejoin="round"/>
<path d="M437.75 390.52C437.841 389.536 437.72 388.545 437.395 387.612C437.071 386.679 436.551 385.826 435.87 385.11C434.45 383.55 426.59 379.23 425.51 382.05C424.33 385.11 432.1 392.17 437.75 390.52Z" fill="#0597F2" stroke="#263238" stroke-linecap="round" stroke-linejoin="round"/>
<path d="M437.75 390.52L430 384.52" stroke="#263238" stroke-linecap="round" stroke-linejoin="round"/>
<path d="M441.52 371.339L436.1 364.279" stroke="#263238" stroke-linecap="round" stroke-linejoin="round"/>
<path d="M437.75 366.399C437.835 365.418 437.711 364.429 437.387 363.499C437.063 362.568 436.546 361.716 435.87 360.999C434.45 359.439 426.59 355.129 425.51 357.939C424.33 360.999 432.1 367.999 437.75 366.399Z" fill="#0597F2" stroke="#263238" stroke-linecap="round" stroke-linejoin="round"/>
<path d="M437.75 366.399L430 360.399" stroke="#263238" stroke-linecap="round" stroke-linejoin="round"/>
<path d="M441.52 339.45L436.1 332.39" stroke="#263238" stroke-linecap="round" stroke-linejoin="round"/>
<path d="M437.75 334.51C437.837 333.525 437.715 332.533 437.391 331.599C437.067 330.664 436.548 329.81 435.87 329.09C434.45 327.53 426.59 323.22 425.51 326.03C424.33 329.09 432.1 336.16 437.75 334.51Z" fill="#0597F2" stroke="#263238" stroke-linecap="round" stroke-linejoin="round"/>
<path d="M437.75 334.51L430 328.51" stroke="#263238" stroke-linecap="round" stroke-linejoin="round"/>
<path d="M441.28 311.93L435.98 307.79" stroke="#263238" stroke-linecap="round" stroke-linejoin="round"/>
<path d="M437.75 309.439C437.84 308.451 437.719 307.455 437.395 306.517C437.071 305.579 436.551 304.721 435.87 303.999C434.45 302.439 426.59 298.129 425.51 300.939C424.33 303.999 432.1 311.079 437.75 309.439Z" fill="#0597F2" stroke="#263238" stroke-linecap="round" stroke-linejoin="round"/>
<path d="M437.75 309.439L430 303.439" stroke="#263238" stroke-linecap="round" stroke-linejoin="round"/>
<path d="M441.84 298.32C441.933 297.338 441.817 296.347 441.5 295.413C441.182 294.479 440.672 293.622 440 292.9C438.58 291.34 430.72 287.03 429.64 289.84C428.42 292.9 436.19 300 441.84 298.32Z" fill="#0597F2" stroke="#263238" stroke-linecap="round" stroke-linejoin="round"/>
<path d="M441.84 298.319L434.09 292.319" stroke="#263238" stroke-linecap="round" stroke-linejoin="round"/>
<path d="M441.46 298.65C442.449 298.636 443.424 298.412 444.319 297.991C445.214 297.57 446.009 296.963 446.65 296.21C448.05 294.64 451.52 286.37 448.65 285.59C445.44 284.74 439.23 293.2 441.46 298.65Z" fill="#0597F2" stroke="#263238" stroke-linecap="round" stroke-linejoin="round"/>
<path d="M441.46 298.65L446.62 290.31" stroke="#263238" stroke-linecap="round" stroke-linejoin="round"/>
<path opacity="0.2" d="M406.69 157.58L350.19 166.73L257.87 154L189.04 172.28L119.61 156.79L55.2402 279.91L158.98 304.39L258.53 294.13L374.88 305.1L448.22 275.85L406.69 157.58Z" fill="black"/>
<path d="M422.67 107.16L360.35 117.25L258.5 103.21L182.58 123.37L105.99 106.28L34.97 242.11L149.41 269.11L259.23 257.79L387.58 269.89L468.48 237.63L422.67 107.16Z" fill="white" stroke="#263238" stroke-linecap="round" stroke-linejoin="round"/>
<path d="M410.82 115.93L362.14 124.7L259.06 111.55L180.99 129.97L113.44 114.62L55.5302 237.15L153.24 261.45L258.52 251.35L386.7 260.24L447.93 233.09L410.82 115.93Z" fill="#0597F2" stroke="#263238" stroke-linecap="round" stroke-linejoin="round"/>
<g opacity="0.64">
<path d="M133.55 170.12L171.29 180H182.77C182.77 180 168 194.22 139.57 196.95C111.14 199.68 104.57 194.22 104.57 194.22L133.55 170.12Z" fill="white"/>
<path d="M297.61 120.36L322.77 125.83L326.05 134.58L310.19 131.3L314.02 150.98L295.42 148.8L292.14 126.37L297.61 120.36Z" fill="white"/>
<path d="M313.47 154.261L315.11 164.111L304.17 161.921V153.721L313.47 154.261Z" fill="white"/>
<path d="M320.03 154.261L322.22 165.201L343.55 167.941L343 160.281L320.03 154.261Z" fill="white"/>
<path d="M194 202.94C204.42 202.94 212.87 208.32 212.87 214.94C212.87 221.56 204.42 226.94 194 226.94C183.58 226.94 175.13 221.55 175.13 214.94C175.13 208.33 183.56 202.94 194 202.94ZM194 220.43C198.74 220.43 202.58 217.99 202.58 214.97C202.58 211.95 198.74 209.5 194 209.5C189.26 209.5 185.4 212 185.4 215C185.4 218 189.24 220.43 194 220.43Z" fill="white"/>
<path d="M343.55 246.14L328.78 210.04L361.59 211.69L366.52 224.26H351.21L362.69 250.51L343.55 246.14Z" fill="white"/>
<path d="M280.11 167.391L258.24 162.471L229.8 171.221L251.68 175.041L257.69 170.121L280.11 174.501V167.391Z" fill="white"/>
<path d="M279.02 146.611L278.47 160.831L268.63 158.641L270.27 146.061L279.02 146.611Z" fill="white"/>
<path d="M415.19 154.261L423.94 179.421L388.39 188.721L382.92 169.031L398.23 154.811L415.19 154.261Z" fill="white"/>
</g>
<path d="M63.0002 221.33L77.1501 207.33C74.7101 207.02 72.3502 206.68 70.0901 206.33L71.8601 202.57C74.6901 202.99 77.6602 203.39 80.7602 203.75L122.94 162C111.73 160.33 101.08 158.89 92.9402 158.05L94.7502 154.23C103.55 155.17 114.75 156.72 126.29 158.46L126.17 157.73L127.52 157.52L142.39 142.8L109 123.93L110.71 120.31L145.31 139.87L160.11 125.23L164.73 126.23L134.2 156.43L231.3 141.24C231.77 140.17 232.24 139.1 232.67 138C235.446 130.951 237.601 123.673 239.11 116.25L243.41 115.25C241.83 123.483 239.487 131.551 236.41 139.35L235.93 140.52L258.68 136.95L282.16 139L283 114.6L287 115.11L284.81 181.86C286.17 181.86 287.53 181.86 288.81 181.8C325.76 180.73 365.67 169.95 371.58 166.73C375.58 164.52 384.58 154.11 389.37 148.2C379.58 147.69 370.11 146.37 364.51 143.46C356.83 139.46 338.66 128.91 323.05 119.71L333.13 121C346.46 128.81 360.01 136.63 366.34 139.91C377.67 145.79 408.01 144.57 419.66 143.85L420.91 147.79C416.57 148.08 408.99 148.48 400.59 148.48C398.59 148.48 396.44 148.48 394.33 148.4C392.83 150.3 379.68 166.86 373.49 170.24C367.3 173.62 327.12 184.69 288.92 185.79C287.513 185.83 286.083 185.85 284.63 185.85L284.33 194.98L314.9 195.87L315.36 195.71L315.42 195.88L376.14 197.65L432.2 183.45L433.41 187.27L398.88 196L430.88 240.63L427.14 242.28L394.68 197.06L376.54 201.65L316.81 199.91L334.2 249L354.63 258L342.85 257.19L258.53 220.07L198.36 187.84C191.512 192.405 184.122 196.101 176.36 198.84C169.318 201.308 162.127 203.329 154.83 204.89L163.65 222.54L200 257L194.72 257.5L160.64 225.2L160.39 224.96L150.77 205.72C140.643 207.64 130.389 208.816 120.09 209.24L128.19 255.24L123.94 254.19L116 209.35C113.91 209.4 111.84 209.44 109.79 209.44C100.58 209.43 91.3765 208.926 82.2202 207.93L57.9901 231.93L63.0002 221.33ZM329.18 246.81L312.56 199.81L284.2 199L283.29 226.63L329.18 246.81ZM136.82 160.13C160.02 163.79 182.17 167.75 186.99 168.71L190.99 169.52C195.27 170.41 201.94 171.8 210.04 173.32C218.023 165.255 224.562 155.878 229.37 145.6L136.82 160.13ZM282 143L258.85 141L234.11 144.88C229.279 155.668 222.685 165.576 214.6 174.2C228.2 176.67 245 179.33 261.37 180.78L261.54 180.53L262 180.84C268.4 181.39 274.72 181.76 280.76 181.84L282 143ZM280.6 185.8C276.72 185.74 272.72 185.56 268.67 185.3L280.35 193.18L280.6 185.8ZM260.18 216.42L279.32 224.84L280.2 197.91L260.6 184.68C243.08 183.1 225.15 180.18 211.13 177.58C208.252 180.327 205.203 182.889 202 185.25L260.18 216.42ZM175 195C186.568 191.013 197.237 184.788 206.4 176.68C199.55 175.37 193.92 174.2 190.14 173.41L186.21 172.6C179.07 171.17 152.81 166.6 127.88 162.75L85.8802 204.28C111.13 206.71 143.53 206.12 175 195Z" fill="white" stroke="#263238" stroke-linecap="round" stroke-linejoin="round"/>
<path d="M380.73 225.81L387.14 263.31" stroke="#263238" stroke-linecap="round" stroke-linejoin="round"/>
<path d="M363.01 122.07L379.43 218.19" stroke="#263238" stroke-linecap="round" stroke-linejoin="round"/>
<path d="M259.33 107.229L258.78 146.059" stroke="#263238" stroke-linecap="round" stroke-linejoin="round"/>
<path d="M178.41 153.3L155.97 247.78" stroke="#263238" stroke-linecap="round" stroke-linejoin="round"/>
<path d="M184.41 128.01L179.48 148.79" stroke="#263238" stroke-linecap="round" stroke-linejoin="round"/>
<path d="M258.24 254.89L258.78 231.92" stroke="#263238" stroke-linecap="round" stroke-linejoin="round"/>
<path d="M76.0801 64.1295C77.7812 71.2923 84.9668 75.7198 92.1295 74.0187C99.2922 72.3175 103.72 65.132 102.019 57.9692C100.318 50.8065 93.1319 46.379 85.9692 48.0801C78.8065 49.7813 74.379 56.9668 76.0801 64.1295Z" fill="#263238"/>
<path d="M90.2623 67.4915C91.661 67.4935 93.0289 67.0806 94.1929 66.3049C95.3569 65.5292 96.2646 64.4258 96.8012 63.1341C97.3379 61.8424 97.4793 60.4205 97.2077 59.0484C96.936 57.6763 96.2634 56.4156 95.2751 55.4259C94.2867 54.4361 93.027 53.7618 91.6553 53.4882C90.2835 53.2145 88.8615 53.3539 87.569 53.8888C86.2766 54.4236 85.1718 55.3298 84.3945 56.4926C83.6172 57.6555 83.2023 59.0228 83.2023 60.4216C83.2023 62.2949 83.9458 64.0917 85.2695 65.4173C86.5932 66.7429 88.3889 67.4889 90.2623 67.4915Z" stroke="white" stroke-width="2" stroke-linecap="round" stroke-linejoin="round"/>
<path d="M84.6924 65.2617L80.6024 69.7217" stroke="white" stroke-width="2" stroke-linecap="round" stroke-linejoin="round"/>
<path d="M347.693 76H135.093C133.19 76 131.306 75.6247 129.549 74.8957C127.791 74.1666 126.195 73.0981 124.851 71.7512C123.507 70.4044 122.441 68.8057 121.716 67.0466C120.991 65.2876 120.619 63.4028 120.623 61.5C120.619 59.5973 120.991 57.7124 121.716 55.9534C122.441 54.1943 123.507 52.5956 124.851 51.2488C126.195 49.9019 127.791 48.8334 129.549 48.1043C131.306 47.3753 133.19 47 135.093 47H347.693C349.597 46.9987 351.482 47.373 353.241 48.1015C354.999 48.8299 356.597 49.8983 357.942 51.2452C359.287 52.5922 360.353 54.1914 361.079 55.951C361.805 57.7107 362.177 59.5964 362.173 61.5C362.177 63.4036 361.805 65.2893 361.079 67.049C360.353 68.8087 359.287 70.4078 357.942 71.7548C356.597 73.1018 354.999 74.1701 353.241 74.8986C351.482 75.627 349.597 76.0013 347.693 76Z" fill="white" stroke="#263238" stroke-linecap="round" stroke-linejoin="round"/>
<path d="M58.4903 360.17H117.49C120.429 360.162 123.26 361.28 125.4 363.295C127.541 365.309 128.829 368.066 129 371L133.57 452H51.4903L47.0003 372.32C46.9118 370.757 47.1434 369.192 47.681 367.722C48.2185 366.251 49.0507 364.906 50.1264 363.768C51.2022 362.631 52.4989 361.725 53.9371 361.106C55.3753 360.487 56.9246 360.169 58.4903 360.17Z" fill="#263238" stroke="#263238" stroke-linecap="round" stroke-linejoin="round"/>
<path d="M172.3 330.9C172.3 330.9 202.3 337.25 204.88 340.64C207.46 344.03 258.2 427.81 258.2 427.81C258.2 427.81 256.09 448.55 252.7 448.12C249.31 447.69 250.16 450.66 238.7 443.05C227.24 435.44 204.84 416.81 204.84 416.81L193 451.93H94.0002C94.0002 451.93 93.1602 341.48 96.1202 333.87C99.0802 326.26 123.62 320.75 132.12 320.75C140.62 320.75 172.3 330.9 172.3 330.9Z" fill="white" stroke="#263238" stroke-linecap="round" stroke-linejoin="round"/>
<path d="M174.7 369L167.93 375.77L138.62 321.63C150.97 324.09 172.3 330.91 172.3 330.91C172.3 330.91 187.37 334.1 197.06 337.16L209.89 348.56C221.17 366.78 247.89 410.76 255.89 423.99L252.69 448.13C249.33 447.72 250.15 450.66 238.75 443.06C227.35 435.46 204.89 416.82 204.89 416.82L199.28 433.47C200.64 426.47 206.02 398.2 204.05 393.26C201.78 387.61 174.7 369 174.7 369Z" fill="#263238" stroke="#263238" stroke-linecap="round" stroke-linejoin="round"/>
<path d="M178.65 344.159L204.6 381.969V360.529L178.65 344.159Z" fill="white" stroke="#263238" stroke-linecap="round" stroke-linejoin="round"/>
<path d="M167.48 388.109C167.48 388.109 170.58 412.539 170.19 416.809C169.8 421.079 162.83 447.049 162.83 447.049" fill="white"/>
<path d="M167.48 388.109C167.48 388.109 170.58 412.539 170.19 416.809C169.8 421.079 162.83 447.049 162.83 447.049" stroke="#263238" stroke-linecap="round" stroke-linejoin="round"/>
<path d="M171 328.469C171 328.469 178.24 342.329 183.74 354.599C189.24 366.869 189.25 375.759 189.25 375.759C189.25 375.759 170.63 363.489 168.51 362.219C166.39 360.949 162.16 358.829 162.16 358.829L138.46 375.759C138.46 375.759 136.35 356.289 135.46 335.559C134.57 314.829 141.81 306.779 147.73 306.359C153.65 305.939 171 328.469 171 328.469Z" fill="white" stroke="#263238" stroke-linecap="round" stroke-linejoin="round"/>
<path d="M227.72 286.49C227.72 286.49 238.6 312.14 235.5 318.62C232.4 325.1 224.87 314.48 224.87 314.48C224.87 314.48 221.5 337.54 215.54 335.72C209.58 333.9 200.54 326.65 200.54 326.65C200.54 326.65 190.95 341.94 184.47 341.94C177.99 341.94 171 328.47 171 328.47C171 328.47 161.15 289.34 160.63 285.2C160.11 281.06 161.93 254.1 176.96 248.92C191.99 243.74 214 257.73 220.21 266C226.42 274.27 227.72 286.49 227.72 286.49Z" fill="#263238" stroke="#263238" stroke-linecap="round" stroke-linejoin="round"/>
<path d="M212.5 308.05C212.5 308.05 215.89 319.9 215.89 323.71C215.89 327.52 216.73 341.06 217.16 343.6C217.59 346.14 260.74 399.04 267.09 409.6C273.44 420.16 276.82 429.92 270.48 438.38C264.14 446.84 257.78 449.81 252.7 448.11C247.62 446.41 248.05 447.69 240.01 438.8C231.97 429.91 207.85 357.55 207.85 357.55C207.85 357.55 200.23 353.75 196.85 351.21C193.47 348.67 187.54 334.7 187.54 334.7L212.5 308.05Z" fill="#ADADAD" stroke="#263238" stroke-linecap="round" stroke-linejoin="round"/>
<path d="M270.48 438.389C264.13 446.849 257.78 449.819 252.7 448.119C247.62 446.419 248.05 447.699 240.01 438.809C238.28 436.899 235.8 432.049 233.01 425.609C242.74 428.009 254.19 429.609 256.54 428.229C263.31 424.229 267.12 409.609 267.12 409.609C273.44 420.189 276.82 429.929 270.48 438.389Z" fill="white" stroke="#263238" stroke-linecap="round" stroke-linejoin="round"/>
<path d="M216.57 280.25C216.57 280.25 212.57 289.17 212.57 294.53C212.57 299.89 218.37 307.47 214.8 313.27C211.23 319.07 200.08 341.82 200.08 341.82C200.08 341.82 194.28 344.95 188.47 341.82C182.66 338.69 170.63 332.9 170.63 332.9C170.63 332.9 172.41 364.13 170.18 371.72C167.95 379.31 166.61 382.87 166.61 382.87C166.61 382.87 160.81 357.44 154.61 345.87C148.41 334.3 145.24 313.74 145.24 313.74C145.24 313.74 145.69 305.74 145.24 297.68C144.79 289.62 157.29 258.86 177.37 252.17C197.45 245.48 208.6 252.17 213.96 260.17C219.32 268.17 216.57 280.25 216.57 280.25Z" fill="#ADADAD" stroke="#263238" stroke-linecap="round" stroke-linejoin="round"/>
<path d="M204.07 307C204.07 307 197.38 315.48 188.45 308.34" stroke="#263238" stroke-linecap="round" stroke-linejoin="round"/>
<path d="M197.38 318.62C197.38 318.62 183.55 322.19 176.38 308.8" stroke="#263238" stroke-linecap="round" stroke-linejoin="round"/>
<path d="M184.71 294C184.71 295.78 185.64 297.23 186.78 297.23C187.92 297.23 188.86 295.78 188.86 294C188.86 292.22 187.93 290.76 186.78 290.76C185.63 290.76 184.71 292.22 184.71 294Z" fill="#263238"/>
<path d="M204.4 294C204.4 295.78 205.33 297.23 206.47 297.23C207.61 297.23 208.55 295.78 208.55 294C208.55 292.22 207.62 290.76 206.47 290.76C205.32 290.76 204.4 292.22 204.4 294Z" fill="#263238"/>
<path d="M188.34 278.199C188.34 278.199 182.12 277.419 177.97 280.789" stroke="#263238" stroke-width="2" stroke-linecap="round" stroke-linejoin="round"/>
<path d="M202.85 278.199C205.898 278.202 208.843 279.306 211.14 281.309" stroke="#263238" stroke-width="2" stroke-linecap="round" stroke-linejoin="round"/>
<path d="M170.61 332.899L158.02 326.649L170.98 345.569L170.61 332.899Z" fill="#263238" stroke="#263238" stroke-linecap="round" stroke-linejoin="round"/>
<path d="M161.24 219.56C161.24 219.56 177.75 208.41 186.67 210.19C195.59 211.97 217.46 227.19 221.47 228.49C225.48 229.79 246.91 240.09 246.91 247.67C246.91 255.25 237.09 258.38 237.09 258.38C237.09 258.38 261.19 279.38 254.94 283.38C248.69 287.38 233.07 278.92 233.07 278.92C233.07 278.92 242.89 294.54 236.64 295.87C230.39 297.2 221 286.94 221 286.94C221 286.94 218.77 290.51 212.07 283.82C205.37 277.13 196.9 263.74 196.9 263.74C196.9 263.74 197.79 272.66 192.9 271.32C188.01 269.98 181.74 261.06 181.74 261.06C181.74 261.06 177.74 302.11 171.48 298.99C165.22 295.87 165.23 291.85 165.23 291.85C165.23 291.85 164.79 308.36 160.77 307.02C156.75 305.68 154.52 301.22 154.52 301.22C154.52 301.22 150.06 318.17 144.71 317.73C143.227 317.638 141.815 317.065 140.687 316.097C139.559 315.13 138.777 313.821 138.46 312.37C138.46 312.37 137.12 331.11 125.52 327.1C113.92 323.09 112.13 310.59 112.13 310.59C112.13 310.59 103.66 320.41 98.7502 313.27C93.8402 306.13 97.0002 297.2 97.0002 297.2C97.0002 297.2 89.0002 296.31 89.8602 289.62C90.7202 282.93 106.37 262.85 106.37 262.85C106.37 262.85 96.5602 264.18 103.25 253.03C109.94 241.88 121.99 232.03 130.47 226.7C135.436 223.53 140.85 221.123 146.53 219.56C146.53 219.56 133.15 214.66 143.41 213.32C153.67 211.98 161.24 219.56 161.24 219.56Z" fill="#263238" stroke="#263238" stroke-linecap="round" stroke-linejoin="round"/>
<path d="M125.61 371.25L123.61 406.65C123.61 406.65 131.61 405.38 131.61 406.65C131.61 407.92 130 424 130 424C130 424 114.77 432.89 106.73 435C98.6904 437.11 99.9604 444.31 96.1504 443C92.3404 441.69 83.8804 440.46 82.1504 432.84C80.4204 425.22 85.1504 410.84 85.5404 409.14C85.9304 407.44 88.5404 341.86 94.0004 330.43C99.4604 319 109.24 319 115.58 321.54C121.92 324.08 128.7 335.54 128.7 335.54" fill="white"/>
<path d="M125.61 371.25L123.61 406.65C123.61 406.65 131.61 405.38 131.61 406.65C131.61 407.92 130 424 130 424C130 424 114.77 432.89 106.73 435C98.6904 437.11 99.9604 444.31 96.1504 443C92.3404 441.69 83.8804 440.46 82.1504 432.84C80.4204 425.22 85.1504 410.84 85.5404 409.14C85.9304 407.44 88.5404 341.86 94.0004 330.43C99.4604 319 109.24 319 115.58 321.54C121.92 324.08 128.7 335.54 128.7 335.54" stroke="#263238" stroke-linecap="round" stroke-linejoin="round"/>
<path d="M88.6201 417.449C86.6201 420.199 85.1201 422.309 85.1201 422.309" stroke="#263238" stroke-linecap="round" stroke-linejoin="round"/>
<path d="M119.83 405C119.83 405 103.32 404.15 99.9401 405C98.2001 405.43 94.3501 410 91.0101 414.31" stroke="#263238" stroke-linecap="round" stroke-linejoin="round"/>
<path d="M98.2402 399C93.1702 400.69 91.9002 402.8 91.9002 402.8" stroke="#263238" stroke-linecap="round" stroke-linejoin="round"/>
<path d="M118.13 401.15C114.431 400.234 110.686 399.516 106.91 399" stroke="#263238" stroke-linecap="round" stroke-linejoin="round"/>
<path d="M89.32 435.32C88.86 427.8 97.43 413.71 107.55 412.15C118.55 410.46 137.18 418.92 162.14 421.89C187.1 424.86 198.54 425.7 207 425.7C215.46 425.7 234.93 420.19 238.31 421.04C241.69 421.89 257.36 438.39 260.74 442.2C264.12 446.01 263.39 447.2 262.64 447.57C261.89 447.94 260 447 260 447C260 447 258.51 449.05 256.65 449.05C255.423 448.988 254.248 448.532 253.3 447.75C252.076 448.496 250.618 448.76 249.21 448.49C247.16 447.93 235.21 439.93 234.32 439.56C233.43 439.19 227.62 437.51 227.62 437.51C230.84 440.026 234.265 442.267 237.86 444.21C242.14 446.21 245.48 448.12 243.25 449.21C241.02 450.3 237.25 449.03 234.32 447.73C231.39 446.43 227.62 444.73 226.32 444.56C225.02 444.39 215 439.38 215 439.38C215 439.38 206.63 441.24 202.72 441.62C198.81 442 190.25 438.45 190.25 438.45C190.25 438.45 159.36 443.85 143.73 444.78C128.1 445.71 103.17 449.24 94.8 444.96C94.81 445 89.79 443 89.32 435.32Z" fill="#ADADAD" stroke="#263238" stroke-linecap="round" stroke-linejoin="round"/>
<path d="M253.34 447.759C253.34 447.759 240.43 434.859 239.02 433.759C237.61 432.659 229.43 430.369 229.43 430.369" stroke="#263238" stroke-linecap="round" stroke-linejoin="round"/>
<path d="M260 446.999C260 446.999 246.32 432.599 244.62 430.619C242.92 428.639 236.72 426.109 236.72 426.109" stroke="#263238" stroke-linecap="round" stroke-linejoin="round"/>
<path d="M396.9 144.67C398.121 144.67 399.33 144.911 400.457 145.378C401.585 145.846 402.61 146.531 403.472 147.394C404.335 148.258 405.019 149.283 405.486 150.412C405.952 151.54 406.191 152.749 406.19 153.97C406.19 159.1 396.9 168.67 396.9 168.67C396.9 168.67 387.6 159.1 387.6 153.97C387.6 151.503 388.58 149.138 390.324 147.394C392.068 145.65 394.433 144.67 396.9 144.67ZM396.9 157.67C397.523 157.67 398.133 157.485 398.651 157.138C399.169 156.792 399.573 156.299 399.811 155.723C400.049 155.147 400.111 154.513 399.989 153.902C399.866 153.29 399.565 152.729 399.124 152.289C398.682 151.849 398.12 151.55 397.508 151.429C396.897 151.309 396.263 151.373 395.688 151.613C395.112 151.853 394.621 152.258 394.276 152.777C393.931 153.296 393.748 153.906 393.75 154.53C393.755 155.362 394.089 156.158 394.68 156.744C395.27 157.331 396.068 157.66 396.9 157.66V157.67Z" fill="#263238" stroke="#263238" stroke-linecap="round" stroke-linejoin="round"/>
<path d="M300.4 101.67C301.621 101.67 302.83 101.911 303.957 102.378C305.085 102.846 306.11 103.531 306.972 104.394C307.835 105.258 308.519 106.283 308.986 107.412C309.452 108.54 309.691 109.749 309.69 110.97C309.69 116.1 300.4 125.67 300.4 125.67C300.4 125.67 291.1 116.1 291.1 110.97C291.1 108.503 292.08 106.138 293.824 104.394C295.568 102.65 297.933 101.67 300.4 101.67ZM300.4 114.67C301.023 114.67 301.633 114.485 302.151 114.138C302.669 113.792 303.073 113.299 303.311 112.723C303.549 112.147 303.611 111.513 303.489 110.902C303.366 110.29 303.065 109.729 302.624 109.289C302.182 108.849 301.62 108.55 301.008 108.429C300.397 108.309 299.763 108.373 299.188 108.613C298.612 108.853 298.121 109.258 297.776 109.777C297.431 110.296 297.248 110.906 297.25 111.53C297.255 112.362 297.589 113.158 298.18 113.744C298.77 114.331 299.568 114.66 300.4 114.66V114.67Z" fill="#263238" stroke="#263238" stroke-linecap="round" stroke-linejoin="round"/>
<path d="M316.14 167.16C317.361 167.159 318.57 167.398 319.698 167.864C320.826 168.331 321.852 169.015 322.715 169.878C323.579 170.74 324.264 171.765 324.732 172.893C325.199 174.02 325.44 175.229 325.44 176.45C325.44 181.59 316.14 191.15 316.14 191.15C316.14 191.15 306.85 181.59 306.85 176.45C306.85 173.986 307.829 171.623 309.571 169.881C311.313 168.139 313.676 167.16 316.14 167.16ZM316.14 180.16C316.76 180.16 317.366 179.976 317.882 179.632C318.398 179.288 318.801 178.799 319.039 178.226C319.277 177.654 319.341 177.023 319.221 176.415C319.101 175.806 318.804 175.247 318.367 174.807C317.93 174.367 317.372 174.066 316.765 173.943C316.157 173.82 315.526 173.879 314.952 174.113C314.378 174.348 313.886 174.747 313.539 175.261C313.191 175.775 313.004 176.38 313 177C313 177.833 313.331 178.632 313.92 179.22C314.508 179.809 315.307 180.14 316.14 180.14V180.16Z" fill="#263238" stroke="#263238" stroke-linecap="round" stroke-linejoin="round"/>
<path d="M129.64 161.16C130.861 161.159 132.07 161.398 133.198 161.864C134.326 162.331 135.352 163.015 136.215 163.878C137.079 164.74 137.764 165.765 138.232 166.893C138.699 168.02 138.94 169.229 138.94 170.45C138.94 175.59 129.64 185.15 129.64 185.15C129.64 185.15 120.35 175.59 120.35 170.45C120.35 167.986 121.329 165.623 123.071 163.881C124.813 162.139 127.176 161.16 129.64 161.16ZM129.64 174.16C130.26 174.16 130.866 173.976 131.382 173.632C131.898 173.288 132.301 172.799 132.539 172.226C132.777 171.654 132.841 171.023 132.721 170.415C132.601 169.806 132.304 169.247 131.867 168.807C131.43 168.367 130.872 168.066 130.265 167.943C129.657 167.82 129.026 167.879 128.452 168.113C127.878 168.348 127.386 168.747 127.039 169.261C126.691 169.775 126.504 170.38 126.5 171C126.5 171.833 126.831 172.632 127.42 173.22C128.008 173.809 128.807 174.14 129.64 174.14V174.16Z" fill="#263238" stroke="#263238" stroke-linecap="round" stroke-linejoin="round"/>
<path d="M236.14 190.66C237.361 190.659 238.57 190.898 239.698 191.364C240.826 191.831 241.852 192.515 242.715 193.378C243.579 194.24 244.264 195.265 244.732 196.393C245.199 197.52 245.44 198.729 245.44 199.95C245.44 205.09 236.14 214.65 236.14 214.65C236.14 214.65 226.85 205.09 226.85 199.95C226.85 198.73 227.09 197.522 227.557 196.395C228.024 195.268 228.708 194.244 229.571 193.381C230.434 192.518 231.458 191.834 232.585 191.367C233.712 190.9 234.92 190.66 236.14 190.66ZM236.14 203.66C236.76 203.66 237.366 203.476 237.882 203.132C238.398 202.788 238.801 202.299 239.039 201.726C239.277 201.154 239.341 200.523 239.221 199.915C239.101 199.306 238.804 198.747 238.367 198.307C237.93 197.867 237.372 197.566 236.765 197.443C236.157 197.32 235.526 197.379 234.952 197.613C234.378 197.848 233.886 198.247 233.539 198.761C233.191 199.275 233.004 199.88 233 200.5C233 201.333 233.331 202.132 233.92 202.72C234.508 203.309 235.307 203.64 236.14 203.64V203.66Z" fill="#263238" stroke="#263238" stroke-linecap="round" stroke-linejoin="round"/>
<path d="M197.14 110.16C198.361 110.159 199.57 110.398 200.698 110.864C201.826 111.331 202.852 112.015 203.715 112.878C204.579 113.74 205.264 114.765 205.732 115.893C206.199 117.02 206.44 118.229 206.44 119.45C206.44 124.59 197.14 134.15 197.14 134.15C197.14 134.15 187.85 124.59 187.85 119.45C187.85 116.986 188.829 114.623 190.571 112.881C192.313 111.139 194.676 110.16 197.14 110.16ZM197.14 123.16C197.76 123.16 198.366 122.976 198.882 122.632C199.398 122.288 199.801 121.799 200.039 121.226C200.277 120.654 200.341 120.023 200.221 119.415C200.101 118.806 199.804 118.247 199.367 117.807C198.93 117.367 198.372 117.066 197.765 116.943C197.157 116.82 196.526 116.879 195.952 117.113C195.378 117.348 194.886 117.747 194.539 118.261C194.191 118.775 194.004 119.38 194 120C194 120.833 194.331 121.632 194.92 122.22C195.508 122.809 196.307 123.14 197.14 123.14V123.16Z" fill="#263238" stroke="#263238" stroke-linecap="round" stroke-linejoin="round"/>
<path d="M227.82 447.149H417.38V452.569H227.82V447.149Z" fill="#263238" stroke="#263238" stroke-linecap="round" stroke-linejoin="round"/>
<path d="M227.82 447.149H294.36V452.569H227.82V447.149Z" fill="#0597F2" stroke="#263238" stroke-linecap="round" stroke-linejoin="round"/>
<path d="M289 447.15H412.08L419.19 365.29C419.288 364.39 419.194 363.48 418.913 362.62C418.632 361.76 418.171 360.97 417.56 360.302C416.95 359.634 416.205 359.104 415.373 358.746C414.542 358.389 413.645 358.213 412.74 358.23H303.74C301.819 358.264 299.977 359.001 298.564 360.303C297.15 361.604 296.263 363.378 296.07 365.29L289 447.15Z" fill="white" stroke="#263238" stroke-linecap="round" stroke-linejoin="round"/>
<path d="M291.36 447.15H414.44L421.55 365.29C421.648 364.39 421.553 363.48 421.272 362.62C420.991 361.76 420.53 360.97 419.92 360.302C419.31 359.634 418.564 359.104 417.733 358.746C416.902 358.389 416.004 358.213 415.1 358.23H306.1C304.179 358.264 302.337 359.001 300.924 360.303C299.51 361.604 298.623 363.378 298.43 365.29L291.36 447.15Z" fill="#0597F2" stroke="#263238" stroke-linecap="round" stroke-linejoin="round"/>
<path d="M296.84 384.02L414.44 447.15H291.36L296.84 384.02Z" fill="#263238" stroke="#263238" stroke-linecap="round" stroke-linejoin="round"/>
<path d="M355.618 405.702C352.795 402.754 353.113 397.868 356.328 394.79C359.543 391.711 364.438 391.605 367.261 394.552C370.084 397.5 369.766 402.385 366.551 405.464C363.336 408.543 358.441 408.649 355.618 405.702Z" fill="#263238" stroke="#263238" stroke-linecap="round" stroke-linejoin="round"/>
<path d="M29.7499 416.1C32.2099 412.76 40.1299 410.87 42.6299 412.1V418.46C30.8999 416.83 29.0399 428.41 32.8599 434.34C33.9087 435.915 35.3854 437.157 37.1162 437.92C38.847 438.684 40.76 438.937 42.6299 438.65V444.13C40.6299 444.83 36.9599 445.13 32.4099 441.44C25.2999 435.65 24.1899 423.62 29.7499 416.1Z" fill="white" stroke="#263238" stroke-linecap="round" stroke-linejoin="round"/>
<path d="M41.7499 402.841H76.3999V452.081H41.7499V402.841Z" fill="white" stroke="#263238" stroke-linecap="round" stroke-linejoin="round"/>
<path d="M69.3999 374C69.6901 372.486 69.5516 370.92 68.9999 369.48" stroke="white" stroke-linecap="round" stroke-linejoin="round"/>
<path d="M69 397.5C69 397.5 62 393 64.5 386.5C65.8 383.13 67.5 380.02 68.56 377.12" stroke="white" stroke-linecap="round" stroke-linejoin="round"/>
<path d="M61 397.5C61 397.5 54 393 56.5 386.5C57.26 384.5 58.15 382.66 58.97 380.87" stroke="white" stroke-linecap="round" stroke-linejoin="round"/>
<path d="M50.0001 383C52.2801 378 54.6301 373.6 53.0001 369.53" stroke="white" stroke-linecap="round" stroke-linejoin="round"/>
<path d="M53 397.5C53 397.5 47.09 393.7 48.07 388.04" stroke="white" stroke-linecap="round" stroke-linejoin="round"/>
<path d="M485 452.06H13" stroke="#263238" stroke-linecap="round" stroke-linejoin="round"/>
<path d="M231.78 67C230.968 67 230.329 66.8787 229.862 66.636C229.395 66.384 229.059 66.0013 228.854 65.488C228.658 64.9653 228.56 64.3073 228.56 63.514C228.56 62.7113 228.658 62.0487 228.854 61.526C229.059 61.0033 229.395 60.616 229.862 60.364C230.329 60.112 230.968 59.986 231.78 59.986H234.748V66.356H233.446V60.7L233.978 61.162H231.78C231.285 61.162 230.898 61.2227 230.618 61.344C230.338 61.456 230.142 61.6847 230.03 62.03C229.918 62.366 229.862 62.8607 229.862 63.514C229.862 64.158 229.918 64.648 230.03 64.984C230.142 65.3107 230.333 65.5347 230.604 65.656C230.884 65.7773 231.276 65.838 231.78 65.838H236.246V67H231.78ZM236.246 67V65.838C236.367 65.838 236.442 65.8893 236.47 65.992C236.507 66.0947 236.526 66.2347 236.526 66.412C236.526 66.5893 236.507 66.734 236.47 66.846C236.442 66.9487 236.367 67 236.246 67ZM230.324 58.852V57.494H231.64V58.852H230.324ZM232.242 58.852V57.494H233.558V58.852H232.242ZM239.254 67V65.838H240.836V67H239.254ZM240.836 67V65.838C240.957 65.838 241.032 65.8893 241.06 65.992C241.097 66.0947 241.116 66.2347 241.116 66.412C241.116 66.5893 241.097 66.734 241.06 66.846C241.032 66.9487 240.957 67 240.836 67ZM236.244 67V65.838H238.624L237.952 66.37V59.986H239.254V67H236.244ZM236.244 67C236.123 67 236.048 66.9487 236.02 66.846C235.983 66.734 235.964 66.5893 235.964 66.412C235.964 66.2347 235.983 66.0947 236.02 65.992C236.048 65.8893 236.123 65.838 236.244 65.838V67ZM236.804 69.632V68.274H238.12V69.632H236.804ZM238.722 69.632V68.274H240.038V69.632H238.722ZM242.504 67V57.004H243.806V67H242.504ZM240.838 67V65.838H242.504V67H240.838ZM240.838 67C240.717 67 240.642 66.9487 240.614 66.846C240.577 66.734 240.558 66.5893 240.558 66.412C240.558 66.2347 240.577 66.0947 240.614 65.992C240.642 65.8893 240.717 65.838 240.838 65.838V67ZM250.905 67V65.838H252.417V67H250.905ZM245.417 67V65.838H250.597L249.603 66.72V63.85C249.603 63.1687 249.524 62.632 249.365 62.24C249.216 61.848 248.969 61.5727 248.623 61.414C248.278 61.246 247.811 61.162 247.223 61.162H246.089V59.986H247.223C247.998 59.986 248.661 60.112 249.211 60.364C249.762 60.6067 250.182 61.0127 250.471 61.582C250.761 62.142 250.905 62.898 250.905 63.85V67H245.417ZM252.417 67V65.838C252.529 65.838 252.604 65.8893 252.641 65.992C252.679 66.0947 252.697 66.2347 252.697 66.412C252.697 66.5893 252.679 66.734 252.641 66.846C252.604 66.9487 252.529 67 252.417 67ZM255.428 67V65.838H257.01V67H255.428ZM257.01 67V65.838C257.131 65.838 257.206 65.8893 257.234 65.992C257.271 66.0947 257.29 66.2347 257.29 66.412C257.29 66.5893 257.271 66.734 257.234 66.846C257.206 66.9487 257.131 67 257.01 67ZM252.418 67V65.838H254.798L254.126 66.37V59.986H255.428V67H252.418ZM252.418 67C252.297 67 252.222 66.9487 252.194 66.846C252.157 66.734 252.138 66.5893 252.138 66.412C252.138 66.2347 252.157 66.0947 252.194 65.992C252.222 65.8893 252.297 65.838 252.418 65.838V67ZM252.978 69.632V68.274H254.294V69.632H252.978ZM254.896 69.632V68.274H256.212V69.632H254.896ZM257.012 67V65.838H267.428L266.252 66.874V63.668C266.252 63.0987 266.172 62.632 266.014 62.268C265.864 61.8947 265.636 61.6193 265.328 61.442C265.02 61.2553 264.637 61.162 264.18 61.162C263.778 61.162 263.4 61.232 263.046 61.372C262.691 61.512 262.364 61.6987 262.066 61.932C261.767 62.156 261.487 62.4033 261.226 62.674C260.964 62.9447 260.726 63.2153 260.512 63.486C260.306 63.7567 260.12 63.9993 259.952 64.214L259.574 63.122C259.844 62.7953 260.106 62.478 260.358 62.17C260.61 61.8527 260.866 61.5633 261.128 61.302C261.398 61.0407 261.683 60.812 261.982 60.616C262.29 60.42 262.626 60.266 262.99 60.154C263.363 60.042 263.783 59.986 264.25 59.986C264.903 59.986 265.444 60.098 265.874 60.322C266.303 60.546 266.639 60.84 266.882 61.204C267.134 61.568 267.311 61.9693 267.414 62.408C267.516 62.8373 267.568 63.2573 267.568 63.668V67H257.012ZM258.944 65.838V59.986H260.246V65.838H258.944ZM257.012 67C256.89 67 256.816 66.9487 256.788 66.846C256.75 66.734 256.732 66.5893 256.732 66.412C256.732 66.2347 256.75 66.0947 256.788 65.992C256.816 65.8893 256.89 65.838 257.012 65.838V67ZM276.498 67C275.08 67 274.011 66.7433 273.292 66.23C272.574 65.7167 272.214 64.9327 272.214 63.878C272.214 63.654 272.228 63.416 272.256 63.164C272.294 62.9027 272.331 62.6507 272.368 62.408C272.415 62.1653 272.457 61.9553 272.494 61.778C272.532 61.6007 272.56 61.4747 272.578 61.4L273.852 61.638C273.824 61.7873 273.782 61.988 273.726 62.24C273.68 62.492 273.633 62.7627 273.586 63.052C273.54 63.3413 273.516 63.6167 273.516 63.878C273.516 64.3447 273.614 64.7227 273.81 65.012C274.016 65.3013 274.338 65.5113 274.776 65.642C275.215 65.7727 275.798 65.838 276.526 65.838H280.53V59.986H281.846V67H276.498ZM276.414 69.646V68.288H277.73V69.646H276.414ZM285.539 67V65.838H287.331V67H285.539ZM283.131 70.206C283.009 70.206 282.883 70.1967 282.753 70.178C282.613 70.1687 282.473 70.1593 282.333 70.15L282.445 68.988C282.585 68.9973 282.715 69.0067 282.837 69.016C282.949 69.0253 283.042 69.03 283.117 69.03C283.537 69.03 283.873 68.8713 284.125 68.554C284.386 68.2367 284.517 67.7933 284.517 67.224V59.986H285.833V67.224C285.833 67.812 285.716 68.33 285.483 68.778C285.249 69.226 284.932 69.576 284.531 69.828C284.129 70.08 283.663 70.206 283.131 70.206ZM287.331 67V65.838C287.452 65.838 287.527 65.8893 287.555 65.992C287.592 66.0947 287.611 66.2347 287.611 66.412C287.611 66.5893 287.592 66.734 287.555 66.846C287.527 66.9487 287.452 67 287.331 67ZM287.336 67V65.838H294.252L293.58 66.426V60.7L294.126 61.162H291.914C291.41 61.162 291.018 61.2227 290.738 61.344C290.458 61.4653 290.262 61.694 290.15 62.03C290.047 62.366 289.996 62.856 289.996 63.5C289.996 64.144 290.047 64.634 290.15 64.97C290.262 65.306 290.458 65.5347 290.738 65.656C291.018 65.7773 291.41 65.838 291.914 65.838V66.748C291.102 66.748 290.463 66.6453 289.996 66.44C289.529 66.2347 289.193 65.894 288.988 65.418C288.792 64.942 288.694 64.3027 288.694 63.5C288.694 62.7067 288.792 62.0533 288.988 61.54C289.193 61.0173 289.529 60.63 289.996 60.378C290.463 60.1167 291.102 59.986 291.914 59.986H294.882V67H287.336ZM287.336 67C287.215 67 287.14 66.9487 287.112 66.846C287.075 66.734 287.056 66.5893 287.056 66.412C287.056 66.2347 287.075 66.0947 287.112 65.992C287.14 65.8893 287.215 65.838 287.336 65.838V67ZM290.584 58.852V57.494H291.9V58.852H290.584ZM292.502 58.852V57.494H293.818V58.852H292.502ZM297.238 67V57.004H298.54V67H297.238ZM297.196 56.024C297.037 55.828 296.916 55.6413 296.832 55.464C296.748 55.2773 296.706 55.0813 296.706 54.876C296.706 54.596 296.776 54.344 296.916 54.12C297.065 53.896 297.257 53.7187 297.49 53.588C297.733 53.4573 297.989 53.392 298.26 53.392C298.419 53.392 298.577 53.4153 298.736 53.462C298.895 53.5087 299.035 53.5693 299.156 53.644L298.764 54.33C298.689 54.2833 298.615 54.2553 298.54 54.246C298.465 54.2273 298.391 54.218 298.316 54.218C298.092 54.218 297.919 54.2787 297.798 54.4C297.677 54.5213 297.616 54.68 297.616 54.876C297.616 54.9973 297.639 55.114 297.686 55.226C297.733 55.3287 297.807 55.4453 297.91 55.576L297.196 56.024ZM296.426 56.052V55.24H299.352V56.052H296.426ZM307.962 67C306.543 67 305.475 66.7433 304.756 66.23C304.037 65.7167 303.678 64.9327 303.678 63.878C303.678 63.654 303.692 63.416 303.72 63.164C303.757 62.9027 303.795 62.6507 303.832 62.408C303.879 62.1653 303.921 61.9553 303.958 61.778C303.995 61.6007 304.023 61.4747 304.042 61.4L305.316 61.638C305.288 61.7873 305.246 61.988 305.19 62.24C305.143 62.492 305.097 62.7627 305.05 63.052C305.003 63.3413 304.98 63.6167 304.98 63.878C304.98 64.3447 305.078 64.7227 305.274 65.012C305.479 65.3013 305.801 65.5113 306.24 65.642C306.679 65.7727 307.262 65.838 307.99 65.838H315.648L314.962 66.426V60.7L315.508 61.162H313.296C312.792 61.162 312.4 61.2227 312.12 61.344C311.849 61.4653 311.658 61.694 311.546 62.03C311.443 62.366 311.392 62.856 311.392 63.5C311.392 64.144 311.443 64.634 311.546 64.97C311.658 65.306 311.849 65.5347 312.12 65.656C312.4 65.7773 312.792 65.838 313.296 65.838V66.748C312.493 66.748 311.854 66.6453 311.378 66.44C310.911 66.2347 310.575 65.894 310.37 65.418C310.174 64.942 310.076 64.3027 310.076 63.5C310.076 62.7067 310.174 62.0533 310.37 61.54C310.575 61.0173 310.911 60.63 311.378 60.378C311.854 60.1167 312.493 59.986 313.296 59.986H316.278V67H307.962ZM312.848 58.726V57.368H314.164V58.726H312.848ZM320.101 67V65.838H321.893V67H320.101ZM317.693 70.206C317.572 70.206 317.446 70.1967 317.315 70.178C317.175 70.1687 317.035 70.1593 316.895 70.15L317.007 68.988C317.147 68.9973 317.278 69.0067 317.399 69.016C317.511 69.0253 317.604 69.03 317.679 69.03C318.099 69.03 318.435 68.8713 318.687 68.554C318.948 68.2367 319.079 67.7933 319.079 67.224V59.986H320.395V67.224C320.395 67.812 320.278 68.33 320.045 68.778C319.812 69.226 319.494 69.576 319.093 69.828C318.692 70.08 318.225 70.206 317.693 70.206ZM321.893 67V65.838C322.014 65.838 322.089 65.8893 322.117 65.992C322.154 66.0947 322.173 66.2347 322.173 66.412C322.173 66.5893 322.154 66.734 322.117 66.846C322.089 66.9487 322.014 67 321.893 67ZM324.824 66.902C324.33 66.4727 323.952 65.9873 323.69 65.446C323.429 64.9047 323.298 64.3307 323.298 63.724C323.298 63.1827 323.396 62.6833 323.592 62.226C323.788 61.7687 324.05 61.372 324.376 61.036C324.712 60.7 325.109 60.4433 325.566 60.266C326.024 60.0793 326.509 59.986 327.022 59.986C327.293 59.986 327.582 60.014 327.89 60.07C328.208 60.126 328.511 60.2053 328.8 60.308L328.366 61.414C328.142 61.33 327.918 61.2693 327.694 61.232C327.47 61.1853 327.256 61.162 327.05 61.162C326.574 61.162 326.15 61.274 325.776 61.498C325.412 61.7127 325.128 62.0113 324.922 62.394C324.717 62.7767 324.614 63.2153 324.614 63.71C324.614 64.6527 324.978 65.432 325.706 66.048L324.824 66.902ZM321.898 67V65.838H328.954V67H321.898ZM321.898 67C321.777 67 321.702 66.9487 321.674 66.846C321.637 66.734 321.618 66.5893 321.618 66.412C321.618 66.2347 321.637 66.0947 321.674 65.992C321.702 65.8893 321.777 65.838 321.898 65.838V67ZM331.445 67V57.004H332.747V67H331.445ZM331.403 56.024C331.244 55.828 331.123 55.6413 331.039 55.464C330.955 55.2773 330.913 55.0813 330.913 54.876C330.913 54.596 330.983 54.344 331.123 54.12C331.272 53.896 331.464 53.7187 331.697 53.588C331.94 53.4573 332.196 53.392 332.467 53.392C332.626 53.392 332.784 53.4153 332.943 53.462C333.102 53.5087 333.242 53.5693 333.363 53.644L332.971 54.33C332.896 54.2833 332.822 54.2553 332.747 54.246C332.672 54.2273 332.598 54.218 332.523 54.218C332.299 54.218 332.126 54.2787 332.005 54.4C331.884 54.5213 331.823 54.68 331.823 54.876C331.823 54.9973 331.846 55.114 331.893 55.226C331.94 55.3287 332.014 55.4453 332.117 55.576L331.403 56.024ZM330.633 56.052V55.24H333.559V56.052H330.633Z" fill="#1F1F1F"/>
</g>
<defs>
<filter id="filter0_d_1952_6797" x="-4" y="0" width="508" height="508" filterUnits="userSpaceOnUse" color-interpolation-filters="sRGB">
<feFlood flood-opacity="0" result="BackgroundImageFix"/>
<feColorMatrix in="SourceAlpha" type="matrix" values="0 0 0 0 0 0 0 0 0 0 0 0 0 0 0 0 0 0 127 0" result="hardAlpha"/>
<feOffset dy="4"/>
<feGaussianBlur stdDeviation="2"/>
<feComposite in2="hardAlpha" operator="out"/>
<feColorMatrix type="matrix" values="0 0 0 0 0 0 0 0 0 0 0 0 0 0 0 0 0 0 0.25 0"/>
<feBlend mode="normal" in2="BackgroundImageFix" result="effect1_dropShadow_1952_6797"/>
<feBlend mode="normal" in="SourceGraphic" in2="effect1_dropShadow_1952_6797" result="shape"/>
</filter>
</defs>
</svg>
