<svg width="500" height="500" viewBox="0 0 500 500" fill="none" xmlns="http://www.w3.org/2000/svg">
<path d="M0 382.4H500V382.65H0V382.4Z" fill="#EBEBEB"/>
<path d="M50.1002 398.49H83.2202V398.74H50.1002V398.49Z" fill="#EBEBEB"/>
<path d="M226.78 395.36H239.67V395.61H226.78V395.36Z" fill="#EBEBEB"/>
<path d="M150.33 396.42H177.47V396.67H150.33V396.42Z" fill="#EBEBEB"/>
<path d="M84.2201 389.21H140.33V389.46H84.2201V389.21Z" fill="#EBEBEB"/>
<path d="M421.01 400.78H447.54V401.03H421.01V400.78Z" fill="#EBEBEB"/>
<path d="M389.11 400.78H412.11V401.03H389.11V400.78Z" fill="#EBEBEB"/>
<path d="M308.19 395.24H369V395.49H308.19V395.24Z" fill="#EBEBEB"/>
<path d="M263 337.8H456.09C457.603 337.797 459.052 337.195 460.121 336.124C461.19 335.053 461.79 333.603 461.79 332.09V60.66C461.777 59.156 461.171 57.718 460.104 56.6582C459.036 55.5985 457.594 55.0026 456.09 55H263C261.486 55 260.033 55.6016 258.962 56.6724C257.892 57.7433 257.29 59.1956 257.29 60.71V332.09C257.29 333.604 257.892 335.057 258.962 336.128C260.033 337.198 261.486 337.8 263 337.8ZM456.09 55.2C457.536 55.2026 458.923 55.7791 459.944 56.8027C460.966 57.8264 461.54 59.2136 461.54 60.66V332.09C461.54 333.536 460.966 334.924 459.944 335.947C458.923 336.971 457.536 337.547 456.09 337.55H263C261.553 337.547 260.166 336.971 259.142 335.948C258.119 334.924 257.543 333.537 257.54 332.09V60.66C257.543 59.2127 258.119 57.8255 259.142 56.8021C260.166 55.7787 261.553 55.2026 263 55.2H456.09Z" fill="#EBEBEB"/>
<path d="M46.69 337.8H239.79C241.304 337.797 242.754 337.195 243.825 336.125C244.895 335.054 245.497 333.604 245.5 332.09V60.66C245.484 59.1551 244.876 57.7171 243.807 56.6576C242.738 55.5981 241.295 55.0025 239.79 55H46.69C45.1877 55.0052 43.748 55.6022 42.6829 56.6617C41.6178 57.7212 41.0132 59.1578 41 60.66V332.09C41 333.601 41.5988 335.05 42.6653 336.121C43.7319 337.191 45.1791 337.795 46.69 337.8ZM239.79 55.2C241.237 55.2026 242.625 55.7787 243.648 56.8021C244.671 57.8255 245.247 59.2127 245.25 60.66V332.09C245.247 333.537 244.671 334.924 243.648 335.948C242.625 336.971 241.237 337.547 239.79 337.55H46.69C45.2427 337.547 43.8555 336.971 42.8321 335.948C41.8087 334.924 41.2327 333.537 41.23 332.09V60.66C41.2327 59.2127 41.8087 57.8255 42.8321 56.8021C43.8555 55.7787 45.2427 55.2026 46.69 55.2H239.79Z" fill="#EBEBEB"/>
<path d="M32.9399 194.17C29.8058 183.337 30.1556 171.793 33.9399 161.17C29.9213 155.417 27.257 148.829 26.1469 141.9C25.0369 134.971 25.5097 127.881 27.5301 121.161C29.5505 114.441 33.0659 108.265 37.8129 103.097C42.5599 97.9291 48.4152 93.9027 54.9399 91.3198C56.8479 77.5657 62.2924 64.5422 70.7413 53.5226C79.1901 42.5031 90.354 33.8646 103.141 28.452C115.929 23.0393 129.902 21.0378 143.695 22.643C157.487 24.2481 170.627 29.4052 181.83 37.6098C187.461 31.6968 194.729 27.5996 202.703 25.8434C210.677 24.0872 218.993 24.7518 226.587 27.7522C234.181 30.7526 240.706 35.952 245.326 42.6843C249.947 49.4165 252.451 57.375 252.52 65.5398C263.071 67.6563 272.889 72.4867 281.004 79.5545C289.119 86.6223 295.252 95.6835 298.798 105.844C302.343 116.005 303.179 126.915 301.222 137.497C299.265 148.079 294.584 157.968 287.64 166.19C291.037 172.315 293.009 179.126 293.41 186.118C293.81 193.11 292.63 200.103 289.956 206.576C287.281 213.048 283.182 218.835 277.963 223.505C272.744 228.175 266.539 231.609 259.81 233.55C251.954 235.826 243.637 235.984 235.7 234.01C224.944 248.833 208.939 258.996 190.948 262.426C172.957 265.856 154.336 262.295 138.88 252.47C131.35 269.96 125.17 296.2 138.48 321.93C90.1299 317.19 55.2199 270.82 62.3399 228.33C55.2682 225.089 48.98 220.359 43.9057 214.464C38.8315 208.568 35.0909 201.645 32.9399 194.17Z" fill="#EBEBEB"/>
<path d="M125.68 312.33C125.812 312.331 125.942 312.305 126.064 312.256C126.186 312.206 126.297 312.132 126.39 312.04C126.519 311.912 126.61 311.751 126.654 311.574C126.698 311.398 126.693 311.213 126.64 311.04C119.83 287.32 126.04 264.58 132.44 249.68L135.69 242.13L142.63 246.54C156.576 255.408 173.378 258.624 189.612 255.532C205.847 252.44 220.291 243.273 230 229.9L232.78 226.07L237.36 227.21C244.843 229.072 252.707 228.707 259.986 226.159C267.264 223.611 273.639 218.992 278.326 212.869C283.014 206.746 285.81 199.386 286.37 191.695C286.93 184.005 285.231 176.318 281.48 169.58L279.15 165.36L282.26 161.68C288.422 154.39 292.576 145.62 294.315 136.235C296.053 126.85 295.315 117.174 292.174 108.161C289.032 99.1476 283.595 91.1092 276.4 84.8381C269.204 78.5671 260.498 74.28 251.14 72.3998L245.58 71.2798L245.52 65.6198C245.469 58.8455 243.395 52.2409 239.565 46.6532C235.734 41.0655 230.322 36.7495 224.022 34.2587C217.722 31.7679 210.821 31.216 204.206 32.6736C197.59 34.1313 191.56 37.5321 186.89 42.4398L182.65 46.8798L177.65 43.2598C167.427 35.761 155.432 31.0449 142.84 29.5729C130.247 28.1009 117.488 29.9235 105.811 34.8624C94.134 39.8013 83.9393 47.6872 76.2247 57.7484C68.5101 67.8095 63.5398 79.7013 61.8002 92.2598L61.2302 96.2598L57.4402 97.7598C51.8981 99.9537 46.9249 103.374 42.8937 107.765C38.8625 112.155 35.8781 117.402 34.1644 123.111C32.4507 128.82 32.0522 134.843 32.9988 140.727C33.9454 146.612 36.2126 152.206 39.6302 157.09L41.6902 160.04L40.4802 163.44C36.5408 174.532 36.9 186.697 41.487 197.537C46.0739 208.377 54.5558 217.105 65.2602 222L70.1302 224.24L69.2402 229.52C66.2402 247.65 71.6702 267.45 84.2402 283.85C94.619 297.447 109.033 307.413 125.42 312.32C125.506 312.336 125.593 312.339 125.68 312.33ZM135.23 239.68C135.134 239.666 135.036 239.666 134.94 239.68C134.803 239.723 134.676 239.795 134.569 239.892C134.462 239.989 134.377 240.107 134.32 240.24L130.61 248.86C124.23 263.69 118.06 286.15 124.24 309.79C108.962 304.822 95.5579 295.32 85.8102 282.55C73.5902 266.55 68.2702 247.35 71.2102 229.77L72.2102 223.77C72.2486 223.553 72.2145 223.33 72.1133 223.135C72.0121 222.94 71.8493 222.783 71.6502 222.69L66.0902 220.14C55.8608 215.451 47.7567 207.103 43.3725 196.739C38.9883 186.376 38.6414 174.746 42.4002 164.14L43.7802 160.26C43.8329 160.109 43.8485 159.947 43.8259 159.789C43.8033 159.631 43.743 159.48 43.6502 159.35L41.3002 155.97C38.0544 151.335 35.9007 146.025 35.0009 140.439C34.101 134.852 34.4784 129.135 36.1047 123.715C37.7309 118.296 40.5638 113.315 44.3907 109.147C48.2175 104.979 52.9388 101.732 58.2002 99.6498L62.5402 97.9298C62.704 97.8645 62.8476 97.757 62.9565 97.6183C63.0654 97.4795 63.1357 97.3145 63.1602 97.1398L63.8102 92.5298C65.4957 80.3091 70.3272 68.7359 77.8312 58.9441C85.3351 49.1524 95.2541 41.4781 106.616 36.6731C117.979 31.8681 130.394 30.0973 142.647 31.5342C154.899 32.9711 166.568 37.5664 176.51 44.8698L182.18 48.9998C182.375 49.1429 182.615 49.2105 182.856 49.1903C183.097 49.1701 183.322 49.0633 183.49 48.8898L188.34 43.8198C191.335 40.6957 194.931 38.2085 198.91 36.5074C202.89 34.8062 207.172 33.9261 211.5 33.9198C219.937 33.9194 228.033 37.251 234.026 43.1896C240.019 49.1282 243.424 57.1932 243.5 65.6298L243.57 72.1098C243.565 72.3437 243.643 72.5719 243.789 72.7547C243.935 72.9374 244.141 73.063 244.37 73.1098L250.72 74.3898C259.733 76.2024 268.118 80.3321 275.049 86.3721C281.981 92.412 287.218 100.154 290.246 108.834C293.274 117.515 293.988 126.834 292.318 135.875C290.647 144.915 286.65 153.365 280.72 160.39L277.17 164.6C277.039 164.755 276.959 164.946 276.939 165.148C276.92 165.349 276.962 165.552 277.06 165.73L279.72 170.55C281.094 173.024 282.188 175.643 282.98 178.36C284.81 184.7 284.938 191.409 283.352 197.814C281.767 204.22 278.523 210.094 273.947 214.849C269.371 219.603 263.625 223.069 257.285 224.898C250.945 226.727 244.235 226.856 237.83 225.27L232.59 223.97C232.397 223.922 232.194 223.932 232.007 224C231.82 224.067 231.658 224.189 231.54 224.35L228.37 228.72C218.97 241.703 204.966 250.605 189.221 253.607C173.475 256.609 157.178 253.484 143.66 244.87L135.73 239.87C135.584 239.762 135.411 239.697 135.23 239.68Z" fill="white"/>
<path d="M195.81 146.19L222.61 142L222.2 139.32C221.731 135.537 220.622 131.861 218.92 128.45C217.427 125.75 215.447 123.349 213.08 121.37C210.674 119.37 205.434 115.95 197.36 111.11C193.07 108.59 190.72 106.05 190.36 103.46C190.123 102.36 190.121 101.222 190.353 100.121C190.586 99.0197 191.048 97.9801 191.71 97.0698C193.01 95.3998 195.22 94.3198 198.32 93.8398C199.847 93.5499 201.418 93.5779 202.934 93.922C204.449 94.2661 205.878 94.919 207.13 95.8398C209.664 97.7132 211.664 101.353 213.13 106.76L239.97 99.1098C237.464 89.1965 232.544 81.6665 225.21 76.5198C217.877 71.3732 207.63 69.8265 194.47 71.8798C184.217 73.4732 176.274 76.8998 170.64 82.1598C162.987 89.2798 159.91 97.6598 161.41 107.3C162.082 111.363 163.849 115.166 166.52 118.3C169.307 121.673 174.53 125.507 182.19 129.8C187.524 132.833 190.99 135.39 192.59 137.47C194.379 140.06 195.487 143.059 195.81 146.19ZM224.64 149L195.93 153.47L199.87 178.79L228.58 174.32L224.64 149Z" fill="white"/>
<path d="M127.41 185.42L142.29 173.42L141.08 171.93C139.452 169.79 137.475 167.94 135.23 166.46C133.361 165.346 131.304 164.583 129.16 164.21C124.766 163.698 120.344 163.467 115.92 163.52C112.413 163.52 110.08 162.797 108.92 161.35C108.381 160.765 107.973 160.072 107.725 159.316C107.476 158.561 107.393 157.76 107.48 156.97C107.853 155.212 108.888 153.666 110.37 152.65C111.2 151.933 112.17 151.396 113.218 151.072C114.266 150.748 115.37 150.646 116.46 150.77C118.673 151.01 121.183 152.52 123.99 155.3L137.66 141.11C132.62 135.95 126.953 133.1 120.66 132.56C114.367 132.02 107.56 134.71 100.24 140.63C94.5468 145.237 90.9168 150.147 89.3501 155.36C87.2035 162.42 88.2934 168.623 92.6201 173.97C94.461 176.222 96.8811 177.93 99.6201 178.91C102.52 179.97 107.067 180.457 113.26 180.37C117.59 180.37 120.61 180.65 122.33 181.37C124.33 182.283 126.075 183.674 127.41 185.42ZM146 176.91L130.06 189.82L141.45 203.88L157.39 191L146 176.91Z" fill="white"/>
<path d="M123.25 98.8L129.69 90L128.81 89.35C127.605 88.4141 126.253 87.6843 124.81 87.19C123.619 86.8469 122.375 86.7282 121.14 86.84C118.649 87.1896 116.183 87.7041 113.76 88.38C111.82 88.88 110.43 88.82 109.58 88.2C109.2 87.9547 108.876 87.6319 108.63 87.2528C108.384 86.8737 108.22 86.4467 108.15 86C108.111 84.9729 108.469 83.9702 109.15 83.2C109.505 82.6866 109.962 82.2514 110.491 81.9211C111.021 81.5909 111.613 81.3727 112.23 81.28C113.48 81.1 115.08 81.56 117.03 82.68L122.5 72.89C119.361 70.859 115.582 70.0611 111.89 70.65C108.343 71.27 104.987 73.7367 101.82 78.05C99.3601 81.4233 98.0734 84.6533 97.9601 87.74C97.8005 89.6212 98.1322 91.5115 98.9228 93.2259C99.7134 94.9403 100.936 96.42 102.47 97.52C103.799 98.4855 105.364 99.073 107 99.22C109.621 99.2717 112.232 98.876 114.72 98.05C116.373 97.4867 118.114 97.2226 119.86 97.27C121.099 97.4914 122.264 98.0171 123.25 98.8ZM132.25 91.42L125.35 100.84L133.66 106.92L140.56 97.51L132.25 91.42Z" fill="white"/>
<path d="M371.66 223.57C380.113 223.555 388.405 221.258 395.66 216.92C405.81 210.92 412.98 201.5 415.42 191.13C422.496 190.637 429.148 187.573 434.122 182.514C439.095 177.456 442.047 170.754 442.42 163.67C444.55 162.192 446.433 160.386 448 158.32C451.805 153.472 453.685 147.389 453.279 141.239C452.873 135.089 450.209 129.306 445.8 125C447.473 117.89 447.297 110.469 445.288 103.446C443.279 96.4229 439.505 90.0316 434.325 84.8815C429.144 79.7314 422.731 75.9942 415.697 74.0263C408.662 72.0584 401.241 71.9254 394.14 73.64C392.591 70.1016 390.148 67.0273 387.05 64.7191C383.953 62.4109 380.309 60.9484 376.475 60.4753C372.642 60.0021 368.751 60.5347 365.186 62.0205C361.62 63.5064 358.503 65.8944 356.14 68.95C355.043 70.3683 354.12 71.9125 353.39 73.55C347.799 72.6312 342.066 73.1604 336.737 75.0871C331.409 77.0138 326.663 80.2737 322.952 84.5558C319.242 88.838 316.69 93.9995 315.542 99.5479C314.393 105.096 314.685 110.847 316.39 116.25C312.729 119.368 310.039 123.471 308.637 128.071C307.236 132.672 307.182 137.577 308.483 142.207C309.783 146.837 312.384 150.997 315.976 154.195C319.568 157.393 324.001 159.494 328.75 160.25C330.892 168.356 335.652 175.527 342.29 180.65C346.468 183.893 351.269 186.24 356.395 187.545C361.521 188.849 366.86 189.082 372.08 188.23C372.18 197.94 369.93 211.11 359.08 220.53C358.975 220.624 358.897 220.743 358.853 220.876C358.809 221.01 358.801 221.152 358.83 221.29C358.86 221.428 358.927 221.555 359.024 221.657C359.121 221.759 359.244 221.833 359.38 221.87C363.373 223.012 367.507 223.584 371.66 223.57ZM404.27 74C410.511 74.019 416.665 75.4548 422.27 78.1991C427.875 80.9434 432.784 84.9246 436.626 89.8423C440.468 94.7601 443.144 100.486 444.45 106.588C445.757 112.691 445.661 119.01 444.17 125.07C444.136 125.206 444.139 125.348 444.179 125.482C444.22 125.616 444.296 125.736 444.4 125.83C448.67 129.837 451.286 135.298 451.732 141.137C452.178 146.976 450.422 152.771 446.81 157.38C445.221 159.421 443.31 161.187 441.15 162.61C441.045 162.678 440.958 162.769 440.896 162.877C440.833 162.985 440.797 163.106 440.79 163.23C440.519 170.089 437.691 176.599 432.863 181.479C428.035 186.359 421.556 189.256 414.7 189.6C414.528 189.61 414.365 189.676 414.235 189.788C414.104 189.9 414.015 190.052 413.98 190.22C411.77 200.39 404.78 209.63 394.82 215.57C384.728 221.656 372.639 223.504 361.19 220.71C371.92 210.71 373.92 197.05 373.66 187.25C373.656 187.136 373.627 187.025 373.577 186.923C373.526 186.822 373.455 186.732 373.367 186.66C373.279 186.588 373.176 186.536 373.067 186.506C372.957 186.477 372.842 186.471 372.73 186.49C363.511 188.233 353.975 186.394 346.066 181.347C338.157 176.3 332.472 168.425 330.17 159.33C330.135 159.177 330.053 159.039 329.937 158.933C329.821 158.828 329.675 158.76 329.52 158.74C324.971 158.111 320.705 156.169 317.244 153.15C313.784 150.132 311.279 146.169 310.038 141.748C308.797 137.327 308.873 132.64 310.257 128.262C311.641 123.883 314.273 120.004 317.83 117.1C317.953 117 318.043 116.866 318.087 116.714C318.132 116.562 318.129 116.4 318.08 116.25C316.34 111.039 315.99 105.464 317.063 100.076C318.136 94.6877 320.596 89.6726 324.2 85.5257C327.803 81.3788 332.426 78.2434 337.612 76.4291C342.798 74.6147 348.367 74.1842 353.77 75.18C353.947 75.2142 354.13 75.1861 354.289 75.1004C354.448 75.0148 354.572 74.8768 354.64 74.71C356.206 70.9101 358.869 67.6629 362.288 65.3824C365.708 63.1019 369.729 61.8914 373.839 61.9054C377.949 61.9193 381.961 63.1571 385.365 65.4607C388.769 67.7644 391.409 71.0296 392.95 74.84C393.023 75.0144 393.155 75.1573 393.324 75.2434C393.492 75.3294 393.686 75.353 393.87 75.31C397.268 74.4379 400.762 73.9978 404.27 74Z" fill="#E6E6E6"/>
<path d="M399.41 140L413.22 143.25L413.54 141.87C414.063 139.943 414.249 137.94 414.09 135.95C413.901 134.351 413.416 132.801 412.66 131.38C410.969 128.572 409.099 125.876 407.06 123.31C405.47 121.24 404.83 119.55 405.15 118.22C405.248 117.639 405.47 117.086 405.799 116.598C406.129 116.11 406.559 115.698 407.06 115.39C408.257 114.807 409.633 114.71 410.9 115.12C411.697 115.281 412.452 115.605 413.118 116.071C413.784 116.538 414.346 117.136 414.77 117.83C415.63 119.24 415.88 121.39 415.53 124.3L430 125.84C430.846 121.056 429.899 116.129 427.34 112C424.8 108.06 420.134 105.293 413.34 103.7C408.06 102.453 403.537 102.55 399.77 103.99C394.664 105.93 391.524 109.386 390.35 114.36C389.862 116.467 389.966 118.668 390.65 120.72C391.317 122.9 393.094 125.786 395.98 129.38C397.98 131.9 399.157 133.82 399.51 135.14C399.884 136.743 399.85 138.414 399.41 140ZM412.83 147L398.03 143.52L395 156.56L409.75 160L412.83 147Z" fill="#EBEBEB"/>
<path d="M364.25 110.79L373.83 107.87L373.54 106.87C373.173 105.509 372.578 104.221 371.78 103.06C371.097 102.15 370.249 101.377 369.28 100.78C367.252 99.6802 365.154 98.7148 363 97.8897C361.3 97.223 360.3 96.413 360 95.4597C359.853 95.0698 359.792 94.653 359.819 94.2373C359.847 93.8217 359.963 93.4167 360.16 93.0497C360.687 92.271 361.492 91.7235 362.41 91.5197C362.954 91.3383 363.529 91.2705 364.1 91.3204C364.671 91.3703 365.226 91.5368 365.73 91.8097C367.029 92.7005 367.999 93.9935 368.49 95.4897L377.91 91.2997C376.72 88.0806 374.384 85.4137 371.35 83.8097C368.403 82.2963 364.577 82.2597 359.87 83.6997C356.699 84.4976 353.846 86.2415 351.69 88.6997C350.531 89.9887 349.73 91.5584 349.365 93.2529C349 94.9474 349.084 96.7079 349.61 98.3597C350.062 99.8192 350.906 101.127 352.05 102.14C353.955 103.62 356.095 104.769 358.38 105.54C359.901 106.043 361.322 106.808 362.58 107.8C363.376 108.643 363.95 109.67 364.25 110.79ZM374.93 110.32L364.67 113.44L367.42 122.5L377.69 119.38L374.93 110.32Z" fill="#EBEBEB"/>
<path d="M250 427.56C142.918 427.56 56.1101 422.492 56.1101 416.24C56.1101 409.988 142.918 404.92 250 404.92C357.083 404.92 443.89 409.988 443.89 416.24C443.89 422.492 357.083 427.56 250 427.56Z" fill="#F5F5F5"/>
<path d="M342.39 247.44L343.31 247.05C342.587 245.462 342.098 243.778 341.86 242.05L340.86 242.16C341.11 243.985 341.626 245.764 342.39 247.44ZM342.78 236C343.71 233.922 345.157 232.117 346.983 230.757C348.809 229.396 350.953 228.527 353.21 228.23L353.05 227.23C350.629 227.552 348.33 228.488 346.373 229.95C344.416 231.412 342.866 233.35 341.87 235.58L342.78 236Z" fill="#0597F2"/>
<path d="M348 257.5L357.86 262L358.3 261C358.974 259.641 359.411 258.177 359.59 256.67C359.685 255.443 359.553 254.209 359.2 253.03C358.346 250.682 357.344 248.391 356.2 246.17C355.32 244.39 355.097 243.027 355.53 242.08C355.691 241.661 355.939 241.281 356.258 240.966C356.577 240.65 356.959 240.406 357.38 240.25C358.362 240.001 359.402 240.133 360.29 240.62C360.861 240.863 361.376 241.22 361.804 241.668C362.232 242.117 362.564 242.649 362.78 243.23C363.213 244.397 363.08 246.043 362.38 248.17L373 251.49C374.328 248.03 374.328 244.2 373 240.74C371.667 237.407 368.593 234.65 363.78 232.47C360.02 230.75 356.62 230.16 353.59 230.67C351.733 230.894 349.967 231.598 348.465 232.711C346.962 233.824 345.775 235.309 345.02 237.02C344.345 238.524 344.096 240.184 344.3 241.82C344.783 244.375 345.696 246.83 347 249.08C347.877 250.571 348.48 252.207 348.78 253.91C348.822 255.153 348.554 256.387 348 257.5ZM357 264.74L346.46 260L342.23 269.29L352.77 274L357 264.74Z" fill="#0597F2"/>
<path d="M372.36 279.73L377.36 286.53L378 286C378.975 285.324 379.83 284.489 380.53 283.53C381.061 282.731 381.438 281.838 381.64 280.9C381.963 278.979 382.153 277.037 382.21 275.09C382.29 273.54 382.66 272.53 383.31 272.09C383.583 271.858 383.904 271.689 384.249 271.594C384.594 271.499 384.956 271.481 385.31 271.54C386.075 271.74 386.734 272.227 387.15 272.9C387.448 273.281 387.664 273.719 387.786 274.187C387.908 274.654 387.933 275.142 387.86 275.62C387.512 276.899 386.758 278.029 385.71 278.84L391.71 285.15C393.931 283.297 395.394 280.692 395.82 277.83C396.186 275.07 395.14 272.02 392.68 268.68C391.154 266.391 388.972 264.617 386.42 263.59C385.07 263.032 383.598 262.837 382.149 263.023C380.7 263.209 379.325 263.77 378.16 264.65C377.125 265.417 376.322 266.456 375.84 267.65C375.198 269.584 374.887 271.612 374.92 273.65C374.954 275.01 374.744 276.365 374.3 277.65C373.837 278.495 373.17 279.21 372.36 279.73ZM375.73 288.09L370.37 280.81L363.95 285.54L369.31 292.82L375.73 288.09Z" fill="#0597F2"/>
<path d="M265.91 412.64C266.736 412.641 267.545 412.415 268.251 411.986C268.956 411.557 269.53 410.943 269.91 410.21C273.91 402.45 278.98 393.34 288.06 383.48C288.583 382.914 288.95 382.222 289.125 381.472C289.301 380.722 289.278 379.939 289.06 379.2C285.69 367.49 280.39 351.48 280.34 351.32C280.171 350.742 279.887 350.203 279.505 349.737C279.123 349.27 278.651 348.886 278.117 348.606C277.583 348.326 276.999 348.156 276.398 348.107C275.797 348.058 275.193 348.13 274.62 348.319C274.048 348.509 273.52 348.811 273.067 349.209C272.614 349.607 272.246 350.092 271.985 350.635C271.724 351.179 271.574 351.769 271.546 352.371C271.518 352.973 271.611 353.575 271.82 354.14C271.87 354.29 276.44 368.08 279.75 379.29C272.694 387.429 266.705 396.435 261.93 406.09C261.579 406.776 261.41 407.54 261.439 408.309C261.468 409.079 261.694 409.828 262.096 410.485C262.497 411.143 263.06 411.686 263.732 412.063C264.403 412.44 265.16 412.639 265.93 412.64H265.91Z" fill="#0597F2"/>
<path d="M258.44 416.24H293.23L274.79 405.78L259.34 406.38L258.44 416.24Z" fill="#263238"/>
<path d="M261.761 374.093C245.926 369.143 236.416 354.489 240.519 341.364C244.622 328.238 260.785 321.611 276.62 326.561C292.455 331.511 301.966 346.165 297.862 359.29C293.759 372.416 277.596 379.043 261.761 374.093Z" fill="#263238"/>
<path d="M348.35 334C349.386 333.996 350.388 333.634 351.187 332.976C351.986 332.318 352.533 331.403 352.736 330.388C352.938 329.372 352.783 328.318 352.297 327.404C351.812 326.489 351.025 325.771 350.07 325.37C349.293 325.045 348.611 324.529 348.086 323.87C347.562 323.211 347.212 322.43 347.07 321.6C346.98 320.624 346.573 319.704 345.91 318.981C345.247 318.259 344.365 317.773 343.4 317.6C342.286 317.373 341.185 317.089 340.1 316.75C334.02 314.98 326.49 312.75 302.79 319.41C279.41 306.34 279.14 281.82 279.14 280.76C279.14 279.572 278.67 278.432 277.833 277.589C276.995 276.746 275.858 276.268 274.67 276.26C273.486 276.26 272.35 276.728 271.509 277.561C270.668 278.395 270.191 279.526 270.18 280.71C270.18 282.02 270.32 312.8 300.18 328.21C301.198 328.738 302.38 328.853 303.48 328.53C326.08 322.01 332.48 323.87 337.55 325.36L338.93 325.76C339.597 327.527 340.619 329.139 341.933 330.496C343.247 331.853 344.825 332.927 346.57 333.65C347.134 333.886 347.739 334.005 348.35 334Z" fill="#263238"/>
<path d="M295.92 301.89C304.43 268.07 327.1 180.83 254.45 175.5C189.27 170.71 171.39 257.5 167.04 287.5C164.862 302.68 163.68 317.986 163.5 333.32C163.417 341.077 166.046 348.619 170.931 354.644C175.817 360.669 182.654 364.799 190.26 366.32C225.77 373.54 259.37 374.56 282.01 365.63C284.984 364.43 287.489 362.301 289.153 359.559C290.817 356.818 291.549 353.612 291.24 350.42C290.37 340.74 290.35 324 295.92 301.89Z" fill="#0597F2"/>
<path opacity="0.1" d="M167 287.52C171.1 259.2 187.22 180.52 243.66 175.52C246.88 175.194 250.124 175.828 252.983 177.342C255.843 178.857 258.191 181.184 259.73 184.03C262.25 188.91 262.17 194.82 258.4 200.67C246 220 216.33 286.67 220.81 323C222.81 339.53 233.22 352.73 224.2 371.31C212.798 370.312 201.465 368.642 190.26 366.31C182.654 364.789 175.817 360.659 170.931 354.634C166.045 348.609 163.417 341.067 163.5 333.31C163.668 317.987 164.837 302.691 167 287.52Z" fill="black"/>
<path d="M176.76 333.79C176.877 333.79 176.99 333.744 177.075 333.662C177.159 333.58 177.207 333.468 177.21 333.35C177.38 318.036 178.559 302.749 180.74 287.59C191.54 212.93 220.61 175.18 264.84 178.44C264.899 178.444 264.958 178.437 265.014 178.418C265.071 178.399 265.122 178.369 265.167 178.33C265.212 178.291 265.248 178.243 265.274 178.19C265.301 178.137 265.316 178.079 265.32 178.02C265.325 177.901 265.285 177.785 265.206 177.696C265.128 177.606 265.018 177.55 264.9 177.54C220.15 174.24 190.73 212.26 179.9 287.46C177.721 302.66 176.538 317.986 176.36 333.34C176.36 333.46 176.407 333.574 176.492 333.658C176.576 333.743 176.69 333.79 176.81 333.79H176.76Z" fill="#263238"/>
<path d="M177.439 376.475C161.604 371.525 152.094 356.872 156.197 343.746C160.3 330.621 176.463 323.993 192.298 328.944C208.133 333.894 217.643 348.547 213.54 361.673C209.437 374.798 193.274 381.425 177.439 376.475Z" fill="#263238"/>
<path d="M174.7 412.64C175.526 412.642 176.336 412.416 177.042 411.987C177.747 411.559 178.321 410.944 178.7 410.21C182.7 402.45 187.77 393.34 196.86 383.48C197.379 382.912 197.743 382.22 197.918 381.47C198.093 380.721 198.073 379.939 197.86 379.2C194.48 367.49 189.19 351.48 189.13 351.32C188.945 350.761 188.651 350.244 188.267 349.799C187.882 349.354 187.413 348.989 186.887 348.724C186.361 348.46 185.788 348.302 185.201 348.259C184.614 348.217 184.024 348.29 183.465 348.475C182.906 348.66 182.389 348.954 181.944 349.339C181.499 349.723 181.133 350.192 180.869 350.718C180.605 351.244 180.447 351.817 180.404 352.404C180.362 352.992 180.435 353.581 180.62 354.14C180.67 354.29 185.23 368.08 188.54 379.29C181.483 387.426 175.498 396.433 170.73 406.09C170.379 406.776 170.21 407.54 170.239 408.309C170.268 409.079 170.494 409.828 170.895 410.485C171.297 411.143 171.86 411.686 172.532 412.063C173.203 412.44 173.96 412.639 174.73 412.64H174.7Z" fill="#0597F2"/>
<path d="M184.12 275.91C185.123 275.911 186.098 275.575 186.888 274.958C187.678 274.34 188.239 273.475 188.481 272.502C188.722 271.528 188.631 270.502 188.221 269.586C187.812 268.671 187.107 267.919 186.22 267.45C185.36 266.99 165.83 256.32 160.35 230.68C173.35 225.24 196.77 212.95 201.89 206.77C202.394 206.173 202.738 205.457 202.89 204.69C203.482 200.997 203.138 197.216 201.89 193.69L204.25 189.13C204.797 188.069 204.899 186.835 204.535 185.698C204.171 184.562 203.371 183.616 202.31 183.07C201.249 182.524 200.015 182.421 198.878 182.785C197.742 183.149 196.797 183.949 196.25 185.01L192.86 191.57C192.495 192.257 192.316 193.027 192.341 193.804C192.366 194.581 192.593 195.338 193 196C193.915 197.828 194.303 199.874 194.12 201.91C188.35 207.12 165.12 219.45 153.69 223.68C152.721 224.039 151.906 224.722 151.383 225.613C150.86 226.504 150.661 227.549 150.82 228.57C155.89 261.34 180.96 274.84 182.02 275.4C182.668 275.739 183.389 275.914 184.12 275.91Z" fill="#263238"/>
<path d="M198.43 206.15C198.833 206.148 199.229 206.038 199.575 205.83C199.921 205.623 200.206 205.327 200.398 204.972C200.59 204.617 200.683 204.217 200.668 203.814C200.652 203.411 200.529 203.019 200.31 202.68C200.15 202.44 196.45 196.85 190.81 195.34C190.526 195.264 190.229 195.244 189.937 195.283C189.645 195.321 189.364 195.417 189.109 195.564C188.854 195.711 188.631 195.907 188.452 196.141C188.273 196.374 188.141 196.641 188.065 196.925C187.989 197.209 187.969 197.506 188.008 197.798C188.046 198.089 188.142 198.371 188.289 198.626C188.436 198.881 188.632 199.104 188.866 199.283C189.099 199.462 189.366 199.594 189.65 199.67C193.58 200.73 196.53 205.09 196.55 205.13C196.753 205.443 197.032 205.701 197.36 205.879C197.689 206.057 198.056 206.15 198.43 206.15Z" fill="#263238"/>
<path d="M167.23 416.24H202.02L183.58 405.78L168.13 406.38L167.23 416.24Z" fill="#263238"/>
<path d="M240.082 282.254C226.923 281.089 217.106 270.542 218.155 258.698C219.203 246.854 230.721 238.196 243.88 239.361C257.039 240.527 266.857 251.073 265.808 262.917C264.759 274.762 253.242 283.419 240.082 282.254Z" fill="white"/>
<path d="M244.552 274.447C241.062 273.453 239.7 267.497 241.51 261.144C243.32 254.792 247.616 250.448 251.105 251.442C254.595 252.436 255.957 258.392 254.147 264.744C252.338 271.097 248.042 275.441 244.552 274.447Z" fill="#263238"/>
<path d="M269.2 264.86C254.1 262.92 224.2 254.39 219.27 250.95C223.15 239.59 241.27 229.87 257.39 235.35C272 240.28 269.2 264.86 269.2 264.86Z" fill="#263238"/>
<path d="M266.27 272.16C247.52 268.6 223.15 262.62 216.18 258.79C216.61 271.01 220.18 283.4 239.3 287.59C254.94 291 266.27 272.16 266.27 272.16Z" fill="#263238"/>
<path d="M281.715 283.906C274.935 279.421 274.041 268.828 279.718 260.247C285.396 251.666 295.495 248.346 302.275 252.832C309.055 257.318 309.948 267.911 304.271 276.492C298.593 285.073 288.495 288.392 281.715 283.906Z" fill="white"/>
<path d="M291.66 268.68C290.53 274.04 291.51 278.51 293.86 278.68C296.21 278.85 299.03 274.62 300.17 269.26C301.31 263.9 300.32 259.44 297.98 259.26C295.64 259.08 292.8 263.32 291.66 268.68Z" fill="#263238"/>
<path d="M310.25 266.63C300.12 267.82 280 266.49 276.66 264.63C279.13 255 291.11 244 302 245.4C311.82 246.66 310.25 266.63 310.25 266.63Z" fill="#263238"/>
<path d="M308.37 272.94C295.78 273.51 279.37 273.19 274.69 271.42C275.12 281.03 277.64 290.19 290.5 290.04C301 289.92 308.37 272.94 308.37 272.94Z" fill="#263238"/>
<path d="M235.91 229.3C247.353 229.363 258.544 225.945 268 219.5C268.948 218.783 269.572 217.718 269.735 216.541C269.899 215.363 269.587 214.169 268.87 213.22C268.152 212.272 267.088 211.648 265.91 211.485C264.732 211.322 263.538 211.633 262.59 212.35C252.007 219.253 239.166 221.8 226.75 219.46C226.171 219.351 225.577 219.356 225.001 219.476C224.424 219.596 223.877 219.829 223.39 220.16C222.904 220.492 222.487 220.916 222.165 221.408C221.842 221.901 221.619 222.452 221.51 223.03C221.4 223.609 221.405 224.203 221.526 224.78C221.646 225.356 221.878 225.903 222.21 226.39C222.541 226.876 222.965 227.293 223.458 227.616C223.95 227.938 224.501 228.161 225.08 228.27C228.65 228.95 232.276 229.295 235.91 229.3Z" fill="#263238"/>
<path d="M316.12 221.57C316.838 221.567 317.544 221.391 318.181 221.059C318.817 220.726 319.365 220.246 319.778 219.659C320.191 219.072 320.458 218.394 320.555 217.683C320.653 216.972 320.579 216.247 320.34 215.57C317.97 208.95 314.02 204.66 308.62 202.8C298.84 199.43 288.3 205.98 287.85 206.26C286.868 206.906 286.178 207.911 285.928 209.059C285.678 210.208 285.889 211.408 286.515 212.403C287.14 213.398 288.131 214.108 289.275 214.38C290.418 214.653 291.623 214.466 292.63 213.86C294.63 212.59 301 209.65 305.73 211.29C308.45 212.24 310.47 214.63 311.9 218.61C312.214 219.477 312.788 220.227 313.543 220.756C314.298 221.286 315.198 221.57 316.12 221.57Z" fill="#263238"/>
<path d="M280.77 297.25C280.896 297.25 281.02 297.229 281.14 297.19C281.479 297.094 281.767 296.868 281.939 296.56C282.112 296.253 282.155 295.889 282.06 295.55C281.662 294.468 281.055 293.476 280.272 292.63C279.49 291.783 278.547 291.1 277.5 290.62C272.36 287.97 264.5 288.52 254.19 292.25C254.023 292.31 253.87 292.403 253.739 292.523C253.609 292.642 253.503 292.787 253.429 292.948C253.354 293.109 253.312 293.283 253.306 293.46C253.299 293.637 253.328 293.814 253.39 293.98C253.449 294.146 253.541 294.299 253.659 294.43C253.778 294.56 253.922 294.666 254.082 294.741C254.242 294.815 254.416 294.857 254.592 294.864C254.768 294.87 254.944 294.842 255.11 294.78C266.94 290.5 273.11 291.42 276.11 292.96C277.608 293.595 278.799 294.79 279.43 296.29C279.516 296.576 279.694 296.825 279.936 296.998C280.179 297.172 280.472 297.26 280.77 297.25Z" fill="#263238"/>
<path d="M323.12 292.32C338.767 293.711 353.985 298.18 367.9 305.47C360.18 304.01 332.55 338.2 325.45 364.56C312.34 359.71 297.06 356.4 280.77 353.81C290.64 326.64 308.69 295.85 323.12 292.32Z" fill="#0597F2"/>
<path opacity="0.6" d="M323.12 292.32C338.767 293.711 353.985 298.18 367.9 305.47C360.18 304.01 332.55 338.2 325.45 364.56C312.34 359.71 297.06 356.4 280.77 353.81C290.64 326.64 308.69 295.85 323.12 292.32Z" fill="white"/>
<path d="M323.12 292.32C340.2 290.39 367.93 304.69 367.93 304.69C372.84 307.82 371.51 313.69 368.83 316.18C366.26 312.49 337.6 302.89 326.83 301.6C332.18 296.64 327.2 293 323.12 292.32Z" fill="#0597F2"/>
<path opacity="0.2" d="M323.12 292.32C340.2 290.39 367.93 304.69 367.93 304.69C372.84 307.82 371.51 313.69 368.83 316.18C366.26 312.49 337.6 302.89 326.83 301.6C332.18 296.64 327.2 293 323.12 292.32Z" fill="white"/>
<path d="M348.34 334C349.084 334.003 349.818 333.822 350.476 333.473C351.133 333.124 351.695 332.618 352.11 332C355.36 327 353.33 319.41 352.89 317.93C352.515 316.832 351.73 315.922 350.699 315.39C349.668 314.858 348.471 314.746 347.36 315.077C346.248 315.408 345.307 316.157 344.735 317.166C344.163 318.175 344.003 319.366 344.29 320.49C345.02 323 345.17 326.21 344.59 327.09C343.941 328.087 343.714 329.302 343.96 330.466C344.205 331.631 344.903 332.65 345.9 333.3C346.626 333.769 347.475 334.013 348.34 334Z" fill="#263238"/>
<path d="M117 108.51H141.76V114.88H126.26V119.64H140.64V125.74H126.26V131.63H142.21V138.4H117V108.51Z" fill="#263238"/>
<path d="M147.31 138.41V108.51H162.71C164.918 108.432 167.125 108.681 169.26 109.25C170.749 109.718 172.036 110.677 172.91 111.97C173.572 112.92 174.031 113.995 174.258 115.13C174.486 116.265 174.478 117.434 174.234 118.566C173.99 119.697 173.516 120.766 172.841 121.706C172.166 122.646 171.304 123.437 170.31 124.03C169.298 124.591 168.205 124.992 167.07 125.22C167.921 125.464 168.73 125.835 169.47 126.32C170.025 126.782 170.521 127.309 170.95 127.89C171.444 128.465 171.88 129.088 172.25 129.75L176.72 138.41H166.28L161.34 129.27C160.951 128.395 160.382 127.611 159.67 126.97C159.006 126.511 158.217 126.27 157.41 126.28H156.59V138.41H147.31ZM156.59 120.63H160.49C161.314 120.565 162.13 120.428 162.93 120.22C163.529 120.104 164.064 119.769 164.43 119.28C164.879 118.69 165.093 117.955 165.032 117.217C164.972 116.478 164.639 115.788 164.1 115.28C163.062 114.66 161.853 114.39 160.65 114.51H156.59V120.63Z" fill="#263238"/>
<path d="M179.8 138.41V108.51H195.2C197.408 108.431 199.615 108.68 201.75 109.25C203.239 109.718 204.525 110.677 205.4 111.97C206.059 112.92 206.516 113.995 206.743 115.129C206.97 116.262 206.962 117.431 206.719 118.561C206.476 119.692 206.004 120.76 205.332 121.701C204.659 122.642 203.801 123.434 202.81 124.03C201.794 124.592 200.698 124.993 199.56 125.22C201.154 125.564 202.549 126.523 203.44 127.89C203.934 128.465 204.369 129.088 204.74 129.75L209.21 138.41H198.77L193.83 129.27C193.44 128.395 192.871 127.611 192.16 126.97C191.496 126.511 190.706 126.27 189.9 126.28H189.11V138.41H179.8ZM189.11 120.63H193.01C193.834 120.565 194.65 120.427 195.45 120.22C196.051 120.108 196.587 119.772 196.95 119.28C197.399 118.69 197.613 117.955 197.552 117.217C197.491 116.478 197.159 115.788 196.62 115.28C195.583 114.657 194.373 114.387 193.17 114.51H189.11V120.63Z" fill="#263238"/>
<path d="M210.29 123.48C210.29 118.6 211.65 114.8 214.37 112.08C217.09 109.36 220.877 108 225.73 108C230.71 108 234.547 109.333 237.24 112C239.933 114.667 241.267 118.41 241.24 123.23C241.376 126.211 240.783 129.181 239.51 131.88C238.367 134.091 236.591 135.911 234.41 137.11C231.839 138.398 228.982 139.007 226.11 138.88C223.235 138.978 220.374 138.428 217.74 137.27C215.476 136.148 213.601 134.371 212.36 132.17C210.905 129.511 210.19 126.51 210.29 123.48ZM219.53 123.48C219.53 126.5 220.093 128.67 221.22 129.99C221.813 130.61 222.525 131.104 223.314 131.441C224.103 131.778 224.952 131.952 225.81 131.952C226.668 131.952 227.517 131.778 228.306 131.441C229.095 131.104 229.807 130.61 230.4 129.99C231.487 128.697 232.033 126.363 232.04 122.99C232.04 120.183 231.47 118.127 230.33 116.82C229.753 116.174 229.038 115.664 228.239 115.328C227.44 114.993 226.576 114.84 225.71 114.88C224.86 114.851 224.015 115.016 223.239 115.362C222.463 115.709 221.775 116.228 221.23 116.88C220.11 118.29 219.53 120.48 219.53 123.52V123.48Z" fill="#263238"/>
<path d="M246.38 138.41V108.51H261.77C263.978 108.431 266.185 108.68 268.32 109.25C269.81 109.715 271.098 110.675 271.97 111.97C272.929 113.397 273.416 115.091 273.36 116.81C273.401 118.313 273.034 119.798 272.3 121.11C271.59 122.315 270.585 123.32 269.38 124.03C268.367 124.59 267.275 124.992 266.14 125.22C266.991 125.464 267.8 125.835 268.54 126.32C269.092 126.784 269.589 127.311 270.02 127.89C270.512 128.465 270.944 129.088 271.31 129.75L275.79 138.41H265.35L260.41 129.27C260.016 128.397 259.448 127.614 258.74 126.97C258.073 126.511 257.28 126.27 256.47 126.28H255.66V138.41H246.38ZM255.66 120.63H259.55C260.377 120.565 261.197 120.428 262 120.22C262.599 120.103 263.134 119.768 263.5 119.28C263.885 118.786 264.09 118.176 264.08 117.55C264.105 117.133 264.035 116.716 263.875 116.329C263.716 115.943 263.471 115.598 263.16 115.32C262.123 114.697 260.913 114.427 259.71 114.55H255.66V120.63Z" fill="#263238"/>
</svg>
