<svg width="715" height="421" viewBox="0 0 715 421" fill="none" xmlns="http://www.w3.org/2000/svg">
<path d="M413.402 41.9238V75.5176" stroke="#BDC4CB" stroke-width="1.36396"/>
<path fill-rule="evenodd" clip-rule="evenodd" d="M412.834 73.3066H413.529C415.802 73.3066 417.633 75.1379 417.633 77.4111H408.793C408.793 75.1379 410.624 73.3066 412.834 73.3066Z" fill="#9A9BAB"/>
<path d="M418.327 103.998H408.098V132.666H418.327V103.998Z" fill="#BDC4CB"/>
<path fill-rule="evenodd" clip-rule="evenodd" d="M408.098 76.7188H419.022C420.159 76.7188 421.043 77.6659 421.043 78.7394V103.303C421.043 104.44 420.096 105.324 419.022 105.324H408.098C406.961 105.324 406.077 104.377 406.077 103.303V78.7394C406.014 77.6028 406.961 76.7188 408.098 76.7188Z" fill="#CED4DA"/>
<path fill-rule="evenodd" clip-rule="evenodd" d="M405.006 108.734H421.361C422.308 108.734 423.066 109.492 423.066 110.439C423.066 111.387 422.308 112.144 421.361 112.144H405.006C404.059 112.144 403.301 111.387 403.301 110.439C403.301 109.555 404.059 108.734 405.006 108.734Z" fill="#9A9BAB"/>
<path fill-rule="evenodd" clip-rule="evenodd" d="M405.006 115.553H421.361C422.308 115.553 423.066 116.31 423.066 117.258C423.066 118.205 422.308 118.963 421.361 118.963H405.006C404.059 118.963 403.301 118.205 403.301 117.258C403.301 116.374 404.059 115.553 405.006 115.553Z" fill="#9A9BAB"/>
<path fill-rule="evenodd" clip-rule="evenodd" d="M405.006 122.371H421.361C422.308 122.371 423.066 123.129 423.066 124.076C423.066 125.023 422.308 125.781 421.361 125.781H405.006C404.059 125.781 403.301 125.023 403.301 124.076C403.301 123.192 404.059 122.371 405.006 122.371Z" fill="#9A9BAB"/>
<path d="M374.694 141.98L363.77 161.303L378.104 185.741" stroke="#9A9BAB" stroke-width="2.72792" stroke-linecap="round"/>
<path d="M363.769 165.408C366.035 165.408 367.873 163.571 367.873 161.304C367.873 159.037 366.035 157.199 363.769 157.199C361.502 157.199 359.664 159.037 359.664 161.304C359.664 163.571 361.502 165.408 363.769 165.408Z" fill="#CED4DA"/>
<path d="M414.916 136.738H378.102V142.863H414.916V136.738Z" fill="#BDC4CB"/>
<path fill-rule="evenodd" clip-rule="evenodd" d="M392.999 132.635V151.326H364.836V145.58L375.002 132.635H392.999Z" fill="#CED4DA"/>
<path d="M378.735 146.275C381.001 146.272 382.837 144.433 382.835 142.166C382.832 139.899 380.992 138.063 378.726 138.066C376.459 138.068 374.623 139.908 374.626 142.175C374.628 144.442 376.468 146.277 378.735 146.275Z" fill="#9A9BAB"/>
<path d="M453.076 141.98L464 161.303L449.666 185.741" stroke="#9A9BAB" stroke-width="2.72792" stroke-linecap="round"/>
<path d="M464.001 157.199C461.734 157.199 459.896 159.037 459.896 161.304C459.896 163.571 461.734 165.408 464.001 165.408C466.268 165.408 468.105 163.571 468.105 161.304C468.105 159.037 466.268 157.199 464.001 157.199Z" fill="#CED4DA"/>
<path d="M412.854 142.863H449.668V136.738H412.854V142.863Z" fill="#BDC4CB"/>
<path fill-rule="evenodd" clip-rule="evenodd" d="M434.766 132.635V151.326H462.93V145.58L452.763 132.635H434.766Z" fill="#CED4DA"/>
<path d="M453.124 142.208C453.122 139.941 451.282 138.105 449.016 138.108C446.749 138.11 444.913 139.95 444.915 142.217C444.918 144.484 446.758 146.319 449.024 146.317C451.291 146.314 453.127 144.475 453.124 142.208Z" fill="#9A9BAB"/>
<path fill-rule="evenodd" clip-rule="evenodd" d="M403.301 132.602H423.066V136.011L417.193 151.356H409.237L403.301 136.011V132.602Z" fill="#9A9BAB"/>
<path fill-rule="evenodd" clip-rule="evenodd" d="M405.006 129.191H421.361C422.308 129.191 423.066 129.949 423.066 130.896C423.066 131.844 422.308 132.601 421.361 132.601H405.006C404.059 132.601 403.301 131.844 403.301 130.896C403.301 130.012 404.059 129.191 405.006 129.191Z" fill="#9A9BAB"/>
<path d="M394.852 206.555H424.909V221.394H394.852V206.555Z" fill="#D0D0D8"/>
<path d="M384.875 216.469H434.887V276.268H384.875V216.469Z" fill="#CED4DA"/>
<path d="M389.863 191.652H429.898V211.48H389.863V191.652Z" fill="#0583F2"/>
<path d="M384.875 227.33H434.887V265.344H384.875V227.33Z" fill="#3399FF"/>
<path opacity="0.2" d="M414.871 191.652H419.86V201.503H414.871V191.652Z" fill="#D0D0D8"/>
<path opacity="0.2" d="M399.902 191.652H404.891V201.503H399.902V191.652Z" fill="#D0D0D8"/>
<path d="M419.039 243.874H412.409V237.244H407.357V243.874H400.727V248.863H407.357V255.43H412.409V248.863H419.039V243.874Z" fill="#F9F9F9"/>
<path d="M459.072 272.605H439.055C434.003 272.605 429.898 268.501 429.898 263.512C429.898 258.524 434.003 254.482 439.055 254.482H459.072C464.124 254.482 468.228 258.587 468.228 263.575C468.228 268.564 464.124 272.605 459.072 272.605Z" fill="#EBEDEF"/>
<path d="M459.072 254.482H449.031V272.669H459.072C464.123 272.669 468.228 268.564 468.228 263.575C468.228 258.587 464.123 254.482 459.072 254.482Z" fill="#F99D1C"/>
<path d="M459.703 234.087L445.559 248.105C441.959 251.641 436.15 251.641 432.614 248.105C429.014 244.569 429.014 238.823 432.614 235.223L446.758 221.205C450.358 217.669 456.167 217.669 459.703 221.205C463.24 224.804 463.24 230.551 459.703 234.087Z" fill="#EBEDEF"/>
<path d="M446.697 221.268L439.625 228.277L452.57 241.159L459.706 234.086C463.305 230.55 463.305 224.804 459.706 221.204C456.106 217.731 450.297 217.731 446.697 221.268Z" fill="#0583F2"/>
<path d="M263.312 234.656H281.246V243.497H263.312V234.656Z" fill="#D0D0D8"/>
<path d="M257.316 240.529H287.248V276.27H257.316V240.529Z" fill="#CED4DA"/>
<path d="M260.285 225.752H284.281V237.56H260.285V225.752Z" fill="#0583F2"/>
<path d="M257.316 247.033H287.248V269.766H257.316V247.033Z" fill="#3399FF"/>
<path opacity="0.2" d="M275.25 225.752H278.281V231.625H275.25V225.752Z" fill="#D0D0D8"/>
<path opacity="0.2" d="M266.281 225.752H269.312V231.625H266.281V225.752Z" fill="#D0D0D8"/>
<path d="M277.777 256.947H273.798V252.969H270.767V256.947H266.789V259.915H270.767V263.83H273.798V259.915H277.777V256.947Z" fill="#F9F9F9"/>
<path d="M301.71 274.123H289.712C286.681 274.123 284.219 271.66 284.219 268.692C284.219 265.724 286.681 263.262 289.712 263.262H301.71C304.741 263.262 307.204 265.724 307.204 268.692C307.204 271.66 304.741 274.123 301.71 274.123Z" fill="#EBEDEF"/>
<path d="M301.706 263.262H295.707V274.123H301.706C304.737 274.123 307.2 271.66 307.2 268.692C307.2 265.724 304.737 263.262 301.706 263.262Z" fill="#F99D1C"/>
<path d="M302.085 251.074L293.623 259.472C291.476 261.619 288.003 261.619 285.856 259.472C283.709 257.325 283.709 253.915 285.856 251.768L294.318 243.37C296.465 241.223 299.938 241.223 302.085 243.37C304.232 245.517 304.232 248.99 302.085 251.074Z" fill="#EBEDEF"/>
<path d="M294.321 243.432L290.09 247.6L297.857 255.304L302.088 251.136C304.235 248.989 304.235 245.579 302.088 243.432C299.941 241.286 296.468 241.286 294.321 243.432Z" fill="#0583F2"/>
<path d="M582.207 234.656H600.141V243.497H582.207V234.656Z" fill="#D0D0D8"/>
<path d="M576.211 240.529H606.142V276.27H576.211V240.529Z" fill="#CED4DA"/>
<path d="M579.18 225.752H603.175V237.56H579.18V225.752Z" fill="#0583F2"/>
<path d="M576.211 247.033H606.142V269.766H576.211V247.033Z" fill="#3399FF"/>
<path opacity="0.2" d="M594.145 225.752H597.176V231.625H594.145V225.752Z" fill="#D0D0D8"/>
<path opacity="0.2" d="M585.176 225.752H588.207V231.625H585.176V225.752Z" fill="#D0D0D8"/>
<path d="M596.671 256.947H592.693V252.969H589.662V256.947H585.684V259.915H589.662V263.83H592.693V259.915H596.671V256.947Z" fill="#F9F9F9"/>
<path d="M620.605 274.123H608.607C605.576 274.123 603.113 271.66 603.113 268.692C603.113 265.724 605.576 263.262 608.607 263.262H620.605C623.636 263.262 626.099 265.724 626.099 268.692C626.099 271.66 623.636 274.123 620.605 274.123Z" fill="#EBEDEF"/>
<path d="M620.6 263.262H614.602V274.123H620.6C623.631 274.123 626.094 271.66 626.094 268.692C626.094 265.724 623.631 263.262 620.6 263.262Z" fill="#F99D1C"/>
<path d="M620.979 251.074L612.518 259.472C610.371 261.619 606.898 261.619 604.751 259.472C602.604 257.325 602.604 253.915 604.751 251.768L613.212 243.37C615.359 241.223 618.832 241.223 620.979 243.37C623.126 245.517 623.126 248.99 620.979 251.074Z" fill="#EBEDEF"/>
<path d="M613.215 243.432L608.984 247.6L616.751 255.304L620.982 251.136C623.129 248.989 623.129 245.579 620.982 243.432C618.835 241.286 615.362 241.286 613.215 243.432Z" fill="#0583F2"/>
<path fill-rule="evenodd" clip-rule="evenodd" d="M149.172 16.5488V31.1988C149.172 40.6076 156.813 48.2483 166.221 48.2483H547.246C556.655 48.2483 564.295 40.6076 564.295 31.1988V16.5488H149.172Z" fill="#BDC4CB"/>
<path d="M163.947 10.0449H136.668V25.7052H163.947V10.0449Z" fill="#BDC4CB"/>
<path fill-rule="evenodd" clip-rule="evenodd" d="M543.521 22.9902C550.467 22.9902 556.15 28.6103 556.15 35.6195C556.15 42.6287 550.53 48.2487 543.521 48.2487C536.575 48.2487 530.892 42.6287 530.892 35.6195C530.892 28.6103 536.512 22.9902 543.521 22.9902ZM499.824 22.9902C506.77 22.9902 512.453 28.6103 512.453 35.6195C512.453 42.6287 506.833 48.2487 499.824 48.2487C492.815 48.2487 487.195 42.6287 487.195 35.6195C487.195 28.6103 492.878 22.9902 499.824 22.9902ZM456.19 22.9902C463.136 22.9902 468.819 28.6103 468.819 35.6195C468.819 42.6287 463.199 48.2487 456.19 48.2487C449.244 48.2487 443.561 42.6287 443.561 35.6195C443.561 28.6103 449.244 22.9902 456.19 22.9902ZM412.556 22.9902C419.502 22.9902 425.185 28.6103 425.185 35.6195C425.185 42.6287 419.565 48.2487 412.556 48.2487C405.547 48.2487 399.927 42.6287 399.927 35.6195C399.927 28.6103 405.61 22.9902 412.556 22.9902ZM368.922 22.9902C375.868 22.9902 381.551 28.6103 381.551 35.6195C381.551 42.6287 375.931 48.2487 368.922 48.2487C361.976 48.2487 356.292 42.6287 356.292 35.6195C356.292 28.6103 361.913 22.9902 368.922 22.9902ZM325.225 22.9902C332.171 22.9902 337.854 28.6103 337.854 35.6195C337.854 42.6287 332.234 48.2487 325.225 48.2487C318.278 48.2487 312.595 42.6287 312.595 35.6195C312.595 28.6103 318.278 22.9902 325.225 22.9902ZM281.59 22.9902C288.537 22.9902 294.22 28.6103 294.22 35.6195C294.22 42.6287 288.6 48.2487 281.59 48.2487C274.644 48.2487 268.961 42.6287 268.961 35.6195C268.961 28.6103 274.644 22.9902 281.59 22.9902ZM245.471 22.9902C252.417 22.9902 258.1 28.6103 258.1 35.6195C258.1 42.6287 252.48 48.2487 245.471 48.2487C238.525 48.2487 232.842 42.6287 232.842 35.6195C232.842 28.6103 238.462 22.9902 245.471 22.9902ZM209.288 22.9902C216.234 22.9902 221.917 28.6103 221.917 35.6195C221.917 42.6287 216.297 48.2487 209.288 48.2487C202.279 48.2487 196.659 42.6287 196.659 35.6195C196.659 28.6103 202.342 22.9902 209.288 22.9902ZM173.168 22.9902C180.114 22.9902 185.798 28.6103 185.798 35.6195C185.798 42.6287 180.178 48.2487 173.168 48.2487C166.159 48.2487 160.539 42.6287 160.539 35.6195C160.539 28.6103 166.159 22.9902 173.168 22.9902Z" fill="#9A9BAB"/>
<path fill-rule="evenodd" clip-rule="evenodd" d="M149.172 6.63477V27.7888L155.739 31.325C165.653 36.6292 176.704 39.4077 187.944 39.4077H524.766C535.059 39.4077 545.288 37.0713 554.571 32.5247L564.359 27.7888V6.63477H149.172Z" fill="#CED4DA"/>
<path d="M172.156 32.5249C174.039 32.5249 175.566 30.9982 175.566 29.115C175.566 27.2317 174.039 25.7051 172.156 25.7051C170.273 25.7051 168.746 27.2317 168.746 29.115C168.746 30.9982 170.273 32.5249 172.156 32.5249Z" fill="#9A9BAB"/>
<path d="M209.668 32.5249C211.551 32.5249 213.078 30.9982 213.078 29.115C213.078 27.2317 211.551 25.7051 209.668 25.7051C207.784 25.7051 206.258 27.2317 206.258 29.115C206.258 30.9982 207.784 32.5249 209.668 32.5249Z" fill="#9A9BAB"/>
<path d="M245.785 32.5249C247.668 32.5249 249.195 30.9982 249.195 29.115C249.195 27.2317 247.668 25.7051 245.785 25.7051C243.902 25.7051 242.375 27.2317 242.375 29.115C242.375 30.9982 243.902 32.5249 245.785 32.5249Z" fill="#9A9BAB"/>
<path d="M281.965 32.5249C283.848 32.5249 285.374 30.9982 285.374 29.115C285.374 27.2317 283.848 25.7051 281.965 25.7051C280.081 25.7051 278.555 27.2317 278.555 29.115C278.555 30.9982 280.081 32.5249 281.965 32.5249Z" fill="#9A9BAB"/>
<path d="M325.601 32.5249C327.485 32.5249 329.011 30.9982 329.011 29.115C329.011 27.2317 327.485 25.7051 325.601 25.7051C323.718 25.7051 322.191 27.2317 322.191 29.115C322.191 30.9982 323.718 32.5249 325.601 32.5249Z" fill="#9A9BAB"/>
<path d="M367.215 32.5249C369.098 32.5249 370.624 30.9982 370.624 29.115C370.624 27.2317 369.098 25.7051 367.215 25.7051C365.331 25.7051 363.805 27.2317 363.805 29.115C363.805 30.9982 365.331 32.5249 367.215 32.5249Z" fill="#9A9BAB"/>
<path d="M415.648 32.5249C417.531 32.5249 419.058 30.9982 419.058 29.115C419.058 27.2317 417.531 25.7051 415.648 25.7051C413.765 25.7051 412.238 27.2317 412.238 29.115C412.238 30.9982 413.765 32.5249 415.648 32.5249Z" fill="#9A9BAB"/>
<path d="M460.605 29.2977C460.675 27.4158 459.206 25.8337 457.324 25.7641C455.442 25.6945 453.86 27.1637 453.79 29.0456C453.72 30.9275 455.19 32.5096 457.072 32.5792C458.953 32.6488 460.536 31.1796 460.605 29.2977Z" fill="#9A9BAB"/>
<path d="M500.203 32.5249C502.086 32.5249 503.613 30.9982 503.613 29.115C503.613 27.2317 502.086 25.7051 500.203 25.7051C498.32 25.7051 496.793 27.2317 496.793 29.115C496.793 30.9982 498.32 32.5249 500.203 32.5249Z" fill="#9A9BAB"/>
<path d="M543.14 32.5249C545.024 32.5249 546.55 30.9982 546.55 29.115C546.55 27.2317 545.024 25.7051 543.14 25.7051C541.257 25.7051 539.73 27.2317 539.73 29.115C539.73 30.9982 541.257 32.5249 543.14 32.5249Z" fill="#9A9BAB"/>
<path d="M278.887 370.834H270.047V404.238H278.887V370.834Z" fill="#BDC4CB"/>
<path fill-rule="evenodd" clip-rule="evenodd" d="M256.411 401.521H293.225C294.74 401.521 295.94 402.721 295.94 404.237C295.94 405.752 294.74 406.952 293.225 406.952H256.411C254.895 406.952 253.695 405.752 253.695 404.237C253.695 402.721 254.895 401.521 256.411 401.521Z" fill="#BDC4CB"/>
<path d="M652.645 370.834H643.805V404.238H652.645V370.834Z" fill="#BDC4CB"/>
<path fill-rule="evenodd" clip-rule="evenodd" d="M630.168 401.521H666.983C668.498 401.521 669.698 402.721 669.698 404.237C669.698 405.752 668.498 406.952 666.983 406.952H630.168C628.653 406.952 627.453 405.752 627.453 404.237C627.453 402.721 628.653 401.521 630.168 401.521Z" fill="#BDC4CB"/>
<path d="M676.584 298.512H178.676V363.994H676.584V298.512Z" fill="#CED4DA"/>
<path fill-rule="evenodd" clip-rule="evenodd" d="M178.676 363.996H677.91C682.836 363.996 686.751 367.974 686.751 372.837H178.676V363.996Z" fill="#BDC4CB"/>
<path fill-rule="evenodd" clip-rule="evenodd" d="M194.02 276.033H695.97C704.432 276.033 711.315 282.916 711.315 291.378C711.315 299.839 704.432 306.722 695.97 306.722H194.02C185.559 306.722 178.676 299.839 178.676 291.378C178.676 282.916 185.559 276.033 194.02 276.033Z" fill="#6C757D"/>
<path fill-rule="evenodd" clip-rule="evenodd" d="M196.736 280.137H695.276C701.464 280.137 706.516 285.188 706.516 291.377C706.516 297.565 701.464 302.617 695.276 302.617H196.736C190.548 302.617 185.496 297.565 185.496 291.377C185.496 285.188 190.548 280.137 196.736 280.137Z" fill="#CED4DA"/>
<path d="M692.94 295.165C695.59 295.165 697.739 293.016 697.739 290.366C697.739 287.715 695.59 285.566 692.94 285.566C690.289 285.566 688.141 287.715 688.141 290.366C688.141 293.016 690.289 295.165 692.94 295.165Z" fill="#9A9BAB"/>
<path d="M645.897 295.165C648.547 295.165 650.696 293.016 650.696 290.366C650.696 287.715 648.547 285.566 645.897 285.566C643.246 285.566 641.098 287.715 641.098 290.366C641.098 293.016 643.246 295.165 645.897 295.165Z" fill="#9A9BAB"/>
<path d="M598.787 295.165C601.438 295.165 603.587 293.016 603.587 290.366C603.587 287.715 601.438 285.566 598.787 285.566C596.137 285.566 593.988 287.715 593.988 290.366C593.988 293.016 596.137 295.165 598.787 295.165Z" fill="#9A9BAB"/>
<path d="M551.744 295.165C554.395 295.165 556.544 293.016 556.544 290.366C556.544 287.715 554.395 285.566 551.744 285.566C549.094 285.566 546.945 287.715 546.945 290.366C546.945 293.016 549.094 295.165 551.744 295.165Z" fill="#CCE6D3"/>
<path d="M504.698 295.165C507.348 295.165 509.497 293.016 509.497 290.366C509.497 287.715 507.348 285.566 504.698 285.566C502.047 285.566 499.898 287.715 499.898 290.366C499.898 293.016 502.047 295.165 504.698 295.165Z" fill="#9A9BAB"/>
<path d="M457.655 295.165C460.305 295.165 462.454 293.016 462.454 290.366C462.454 287.715 460.305 285.566 457.655 285.566C455.004 285.566 452.855 287.715 452.855 290.366C452.855 293.016 455.004 295.165 457.655 295.165Z" fill="#9A9BAB"/>
<path d="M410.549 295.165C413.2 295.165 415.348 293.016 415.348 290.366C415.348 287.715 413.2 285.566 410.549 285.566C407.899 285.566 405.75 287.715 405.75 290.366C405.75 293.016 407.899 295.165 410.549 295.165Z" fill="#9A9BAB"/>
<path d="M363.506 295.165C366.157 295.165 368.305 293.016 368.305 290.366C368.305 287.715 366.157 285.566 363.506 285.566C360.856 285.566 358.707 287.715 358.707 290.366C358.707 293.016 360.856 295.165 363.506 295.165Z" fill="#9A9BAB"/>
<path d="M316.459 295.165C319.11 295.165 321.258 293.016 321.258 290.366C321.258 287.715 319.11 285.566 316.459 285.566C313.809 285.566 311.66 287.715 311.66 290.366C311.66 293.016 313.809 295.165 316.459 295.165Z" fill="#9A9BAB"/>
<path d="M269.42 295.165C272.071 295.165 274.219 293.016 274.219 290.366C274.219 287.715 272.071 285.566 269.42 285.566C266.77 285.566 264.621 287.715 264.621 290.366C264.621 293.016 266.77 295.165 269.42 295.165Z" fill="#9A9BAB"/>
<path d="M694.265 298.512H178.676V314.867H694.265V298.512Z" fill="#BDC4CB"/>
<path d="M465.106 316.256H369.629V352.376H465.106V316.256Z" fill="#BDC4CB"/>
<path d="M275.05 352.393C284.083 352.393 291.405 345.071 291.405 336.038C291.405 327.006 284.083 319.684 275.05 319.684C266.018 319.684 258.695 327.006 258.695 336.038C258.695 345.071 266.018 352.393 275.05 352.393Z" fill="#0583F2"/>
<path d="M275.051 339.449C276.934 339.449 278.46 337.922 278.46 336.039C278.46 334.156 276.934 332.629 275.051 332.629C273.167 332.629 271.641 334.156 271.641 336.039C271.641 337.922 273.167 339.449 275.051 339.449Z" fill="#F9F9F9"/>
<path d="M275.047 336.039L280.983 328.398" stroke="#F9F9F9" stroke-width="2.04594" stroke-linecap="round"/>
<path d="M378.536 327.183C380.035 327.183 381.251 325.967 381.251 324.467C381.251 322.968 380.035 321.752 378.536 321.752C377.036 321.752 375.82 322.968 375.82 324.467C375.82 325.967 377.036 327.183 378.536 327.183Z" fill="white"/>
<path d="M378.536 347.642C380.035 347.642 381.251 346.426 381.251 344.926C381.251 343.427 380.035 342.211 378.536 342.211C377.036 342.211 375.82 343.427 375.82 344.926C375.82 346.426 377.036 347.642 378.536 347.642Z" fill="white"/>
<path d="M455.571 327.183C457.07 327.183 458.286 325.967 458.286 324.467C458.286 322.968 457.07 321.752 455.571 321.752C454.071 321.752 452.855 322.968 452.855 324.467C452.855 325.967 454.071 327.183 455.571 327.183Z" fill="white"/>
<path d="M455.571 347.642C457.07 347.642 458.286 346.426 458.286 344.926C458.286 343.427 457.07 342.211 455.571 342.211C454.071 342.211 452.855 343.427 452.855 344.926C452.855 346.426 454.071 347.642 455.571 347.642Z" fill="white"/>
<path d="M518.527 344.926H577.443" stroke="#9A9BAB" stroke-width="2.72792" stroke-linecap="round"/>
<path d="M535.706 351.681C539.647 351.681 542.841 348.487 542.841 344.546C542.841 340.605 539.647 337.41 535.706 337.41C531.765 337.41 528.57 340.605 528.57 344.546C528.57 348.487 531.765 351.681 535.706 351.681Z" fill="#0583F2"/>
<path d="M518.527 325.793H577.443" stroke="#9A9BAB" stroke-width="2.72792" stroke-linecap="round"/>
<path d="M560.964 332.611C564.905 332.611 568.099 329.416 568.099 325.475C568.099 321.535 564.905 318.34 560.964 318.34C557.023 318.34 553.828 321.535 553.828 325.475C553.828 329.416 557.023 332.611 560.964 332.611Z" fill="#3FAC92"/>
<path opacity="0.43" d="M644.505 318.34H603.586V352.439H644.505V318.34Z" fill="#BDC4CB"/>
<path d="M197.773 170.309H178.703V319.018H197.773V170.309Z" fill="#9A9BAB"/>
<path d="M223.663 170.309H190.953V319.018H223.663V170.309Z" fill="#CED4DA"/>
<path fill-rule="evenodd" clip-rule="evenodd" d="M190.668 164.182V189.188H233.986V176.685L221.483 164.182H190.668Z" fill="#BDC4CB"/>
<path d="M195.719 175.737C197.219 175.737 198.434 174.522 198.434 173.022C198.434 171.522 197.219 170.307 195.719 170.307C194.22 170.307 193.004 171.522 193.004 173.022C193.004 174.522 194.22 175.737 195.719 175.737Z" fill="#9A9BAB"/>
<path d="M195.719 186.663C197.219 186.663 198.434 185.447 198.434 183.948C198.434 182.448 197.219 181.232 195.719 181.232C194.22 181.232 193.004 182.448 193.004 183.948C193.004 185.447 194.22 186.663 195.719 186.663Z" fill="#9A9BAB"/>
<path fill-rule="evenodd" clip-rule="evenodd" d="M190.668 323.549V298.543H233.986V311.046L221.483 323.549H190.668Z" fill="#BDC4CB"/>
<path d="M195.719 317.424C197.219 317.424 198.434 316.208 198.434 314.709C198.434 313.209 197.219 311.993 195.719 311.993C194.22 311.993 193.004 313.209 193.004 314.709C193.004 316.208 194.22 317.424 195.719 317.424Z" fill="#9A9BAB"/>
<path d="M195.719 306.498C197.219 306.498 198.434 305.282 198.434 303.783C198.434 302.283 197.219 301.067 195.719 301.067C194.22 301.067 193.004 302.283 193.004 303.783C193.004 305.282 194.22 306.498 195.719 306.498Z" fill="#9A9BAB"/>
<path d="M115.568 125.303H45.9805V162.812H115.568V125.303Z" fill="#9A9BAB"/>
<path fill-rule="evenodd" clip-rule="evenodd" d="M39.7941 132.121H121.695C122.831 132.121 123.716 133.068 123.716 134.142V139.572C123.716 140.709 122.768 141.593 121.695 141.593H39.7941C38.6575 141.593 37.7734 140.646 37.7734 139.572V134.142C37.7734 133.068 38.7206 132.121 39.7941 132.121Z" fill="#BDC4CB"/>
<path fill-rule="evenodd" clip-rule="evenodd" d="M39.7941 147.15H121.695C122.831 147.15 123.716 148.098 123.716 149.171V154.602C123.716 155.738 122.768 156.622 121.695 156.622H39.7941C38.6575 156.622 37.7734 155.675 37.7734 154.602V149.171C37.7734 148.034 38.7206 147.15 39.7941 147.15Z" fill="#BDC4CB"/>
<path fill-rule="evenodd" clip-rule="evenodd" d="M37.7734 170.325L46.1087 161.043H115.506L123.716 170.325H37.7734Z" fill="#BDC4CB"/>
<path fill-rule="evenodd" clip-rule="evenodd" d="M37.7734 116.715L46.1087 126.692H115.506L123.716 116.715H37.7734Z" fill="#BDC4CB"/>
<path d="M115.568 46.8574H45.9805V84.3663H115.568V46.8574Z" fill="#9A9BAB"/>
<path fill-rule="evenodd" clip-rule="evenodd" d="M39.7941 53.6777H121.695C122.831 53.6777 123.716 54.6249 123.716 55.6984V61.129C123.716 62.2656 122.768 63.1497 121.695 63.1497H39.7941C38.6575 63.1497 37.7734 62.2025 37.7734 61.129V55.6984C37.7734 54.6249 38.7206 53.6777 39.7941 53.6777Z" fill="#BDC4CB"/>
<path fill-rule="evenodd" clip-rule="evenodd" d="M39.7941 68.707H121.695C122.831 68.707 123.716 69.6542 123.716 70.7277V76.1583C123.716 77.2949 122.768 78.179 121.695 78.179H39.7941C38.6575 78.179 37.7734 77.2318 37.7734 76.1583V70.7277C37.7734 69.5911 38.7206 68.707 39.7941 68.707Z" fill="#BDC4CB"/>
<path fill-rule="evenodd" clip-rule="evenodd" d="M37.7734 91.8821L46.1087 82.5996H115.506L123.716 91.8821H37.7734Z" fill="#BDC4CB"/>
<path fill-rule="evenodd" clip-rule="evenodd" d="M37.7734 38.9648L46.1087 48.2473H115.506L123.716 38.9648H37.7734Z" fill="#BDC4CB"/>
<path fill-rule="evenodd" clip-rule="evenodd" d="M28.9322 91.2031H129.903C130.661 91.2031 131.292 91.8346 131.292 92.5923V115.767C131.292 116.525 130.661 117.156 129.903 117.156H28.9322C28.1744 117.156 27.543 116.525 27.543 115.767V92.5923C27.543 91.8346 28.1744 91.2031 28.9322 91.2031Z" fill="#CED4DA"/>
<path d="M69.8516 98.3398H88.9217" stroke="#9A9BAB" stroke-width="2.04594" stroke-linecap="round"/>
<path d="M69.8516 103.832H88.9217" stroke="#9A9BAB" stroke-width="2.04594" stroke-linecap="round"/>
<path d="M69.8516 109.262H88.9217" stroke="#9A9BAB" stroke-width="2.04594" stroke-linecap="round"/>
<path d="M34.3637 101.433C35.8633 101.433 37.079 100.217 37.079 98.7172C37.079 97.2176 35.8633 96.002 34.3637 96.002C32.8641 96.002 31.6484 97.2176 31.6484 98.7172C31.6484 100.217 32.8641 101.433 34.3637 101.433Z" fill="#9A9BAB"/>
<path d="M34.3637 112.358C35.8633 112.358 37.079 111.143 37.079 109.643C37.079 108.143 35.8633 106.928 34.3637 106.928C32.8641 106.928 31.6484 108.143 31.6484 109.643C31.6484 111.143 32.8641 112.358 34.3637 112.358Z" fill="#9A9BAB"/>
<path d="M125.106 101.433C126.606 101.433 127.821 100.217 127.821 98.7172C127.821 97.2176 126.606 96.002 125.106 96.002C123.606 96.002 122.391 97.2176 122.391 98.7172C122.391 100.217 123.606 101.433 125.106 101.433Z" fill="#9A9BAB"/>
<path d="M125.106 112.358C126.606 112.358 127.821 111.143 127.821 109.643C127.821 108.143 126.606 106.928 125.106 106.928C123.606 106.928 122.391 108.143 122.391 109.643C122.391 111.143 123.606 112.358 125.106 112.358Z" fill="#9A9BAB"/>
<path fill-rule="evenodd" clip-rule="evenodd" d="M19.3853 6.63477H140.121C140.879 6.63477 141.51 7.26623 141.51 8.02398V31.8933C141.51 32.3353 141.321 32.7142 141.005 32.9668L132.922 39.4077H28.731L18.6276 32.9668C18.2487 32.7142 17.9961 32.2722 17.9961 31.8301V8.02398C17.9961 7.26623 18.6276 6.63477 19.3853 6.63477Z" fill="#CED4DA"/>
<path d="M27.5317 19.579C29.0313 19.579 30.247 18.3633 30.247 16.8637C30.247 15.3641 29.0313 14.1484 27.5317 14.1484C26.0321 14.1484 24.8164 15.3641 24.8164 16.8637C24.8164 18.3633 26.0321 19.579 27.5317 19.579Z" fill="#9A9BAB"/>
<path d="M27.5317 30.5028C29.0313 30.5028 30.247 29.2872 30.247 27.7876C30.247 26.2879 29.0313 25.0723 27.5317 25.0723C26.0321 25.0723 24.8164 26.2879 24.8164 27.7876C24.8164 29.2872 26.0321 30.5028 27.5317 30.5028Z" fill="#9A9BAB"/>
<path d="M131.915 19.579C133.414 19.579 134.63 18.3633 134.63 16.8637C134.63 15.3641 133.414 14.1484 131.915 14.1484C130.415 14.1484 129.199 15.3641 129.199 16.8637C129.199 18.3633 130.415 19.579 131.915 19.579Z" fill="#9A9BAB"/>
<path d="M131.915 30.5028C133.414 30.5028 134.63 29.2872 134.63 27.7876C134.63 26.2879 133.414 25.0723 131.915 25.0723C130.415 25.0723 129.199 26.2879 129.199 27.7876C129.199 29.2872 130.415 30.5028 131.915 30.5028Z" fill="#9A9BAB"/>
<path d="M223.664 189.189V298.559" stroke="#9A9BAB" stroke-width="0.68198"/>
<path d="M33.7871 212.449H16.8008V344.362H33.7871V212.449Z" fill="#9A9BAB"/>
<path d="M16.7965 207.02H3.47266V349.225H16.7965V207.02Z" fill="#BDC4CB"/>
<path d="M10.1691 217.819C11.4943 217.819 12.5686 216.744 12.5686 215.419C12.5686 214.094 11.4943 213.02 10.1691 213.02C8.84385 213.02 7.76953 214.094 7.76953 215.419C7.76953 216.744 8.84385 217.819 10.1691 217.819Z" fill="#9A9BAB"/>
<path d="M10.1691 227.481C11.4943 227.481 12.5686 226.406 12.5686 225.081C12.5686 223.756 11.4943 222.682 10.1691 222.682C8.84385 222.682 7.76953 223.756 7.76953 225.081C7.76953 226.406 8.84385 227.481 10.1691 227.481Z" fill="#9A9BAB"/>
<path d="M10.1691 332.742C11.4943 332.742 12.5686 331.668 12.5686 330.343C12.5686 329.018 11.4943 327.943 10.1691 327.943C8.84385 327.943 7.76953 329.018 7.76953 330.343C7.76953 331.668 8.84385 332.742 10.1691 332.742Z" fill="#9A9BAB"/>
<path d="M10.1691 342.467C11.4943 342.467 12.5686 341.393 12.5686 340.068C12.5686 338.742 11.4943 337.668 10.1691 337.668C8.84385 337.668 7.76953 338.742 7.76953 340.068C7.76953 341.393 8.84385 342.467 10.1691 342.467Z" fill="#9A9BAB"/>
<path fill-rule="evenodd" clip-rule="evenodd" d="M23.1105 170.182H185.838C186.975 170.182 187.859 171.066 187.859 172.202V396.119C187.859 397.256 186.975 398.14 185.838 398.14H23.1105C21.9739 398.14 21.0898 397.256 21.0898 396.119V172.202C21.0898 171.066 21.9739 170.182 23.1105 170.182Z" fill="#CED4DA"/>
<path fill-rule="evenodd" clip-rule="evenodd" d="M23.1105 343.203H185.838C186.975 343.203 187.859 344.087 187.859 345.224V396.12C187.859 397.256 186.975 398.14 185.838 398.14H23.1105C21.9739 398.14 21.0898 397.256 21.0898 396.12V345.224C21.0898 344.087 21.9739 343.203 23.1105 343.203Z" fill="#BDC4CB"/>
<path fill-rule="evenodd" clip-rule="evenodd" d="M49.6965 285.172H155.34C156.477 285.172 157.361 286.056 157.361 287.193V316.429C157.361 317.566 156.477 318.45 155.34 318.45H49.6965C48.5598 318.45 47.6758 317.566 47.6758 316.429V287.193C47.6758 286.119 48.623 285.172 49.6965 285.172Z" fill="#BDC4CB"/>
<path fill-rule="evenodd" clip-rule="evenodd" d="M165.95 285.172H167.466C168.603 285.172 169.487 286.056 169.487 287.193V316.429C169.487 317.566 168.603 318.45 167.466 318.45H165.95C164.814 318.45 163.93 317.566 163.93 316.429V287.193C163.93 286.119 164.814 285.172 165.95 285.172Z" fill="#9A9BAB"/>
<path d="M167.402 302.853C170.331 302.853 172.706 300.478 172.706 297.548C172.706 294.619 170.331 292.244 167.402 292.244C164.472 292.244 162.098 294.619 162.098 297.548C162.098 300.478 164.472 302.853 167.402 302.853Z" fill="#0583F2"/>
<path d="M53.2316 292.748C54.3476 292.748 55.2523 291.844 55.2523 290.728C55.2523 289.612 54.3476 288.707 53.2316 288.707C52.1156 288.707 51.2109 289.612 51.2109 290.728C51.2109 291.844 52.1156 292.748 53.2316 292.748Z" fill="#9A9BAB"/>
<path d="M53.2316 314.471C54.3476 314.471 55.2523 313.566 55.2523 312.45C55.2523 311.334 54.3476 310.43 53.2316 310.43C52.1156 310.43 51.2109 311.334 51.2109 312.45C51.2109 313.566 52.1156 314.471 53.2316 314.471Z" fill="#9A9BAB"/>
<path d="M151.298 292.748C152.414 292.748 153.319 291.844 153.319 290.728C153.319 289.612 152.414 288.707 151.298 288.707C150.182 288.707 149.277 289.612 149.277 290.728C149.277 291.844 150.182 292.748 151.298 292.748Z" fill="#9A9BAB"/>
<path d="M151.298 314.471C152.414 314.471 153.319 313.566 153.319 312.45C153.319 311.334 152.414 310.43 151.298 310.43C150.182 310.43 149.277 311.334 149.277 312.45C149.277 313.566 150.182 314.471 151.298 314.471Z" fill="#9A9BAB"/>
<path d="M117.438 302.609H143.706" stroke="#6C757D" stroke-width="1.21241" stroke-linecap="round"/>
<path d="M125.268 305.388C127.081 305.388 128.552 303.917 128.552 302.104C128.552 300.29 127.081 298.82 125.268 298.82C123.454 298.82 121.984 300.29 121.984 302.104C121.984 303.917 123.454 305.388 125.268 305.388Z" fill="#0583F2"/>
<path d="M117.438 294.02H143.706" stroke="#6C757D" stroke-width="1.21241" stroke-linecap="round"/>
<path d="M136.381 297.304C138.195 297.304 139.665 295.833 139.665 294.02C139.665 292.206 138.195 290.736 136.381 290.736C134.568 290.736 133.098 292.206 133.098 294.02C133.098 295.833 134.568 297.304 136.381 297.304Z" fill="#0583F2"/>
<path d="M117.438 310.186H143.706" stroke="#6C757D" stroke-width="1.21241" stroke-linecap="round"/>
<path d="M136.381 313.47C138.195 313.47 139.665 311.999 139.665 310.186C139.665 308.372 138.195 306.902 136.381 306.902C134.568 306.902 133.098 308.372 133.098 310.186C133.098 311.999 134.568 313.47 136.381 313.47Z" fill="#0583F2"/>
<path d="M70.9159 304.429C72.0667 304.429 72.9997 303.496 72.9997 302.346C72.9997 301.195 72.0667 300.262 70.9159 300.262C69.765 300.262 68.832 301.195 68.832 302.346C68.832 303.496 69.765 304.429 70.9159 304.429Z" fill="#F9F9F9"/>
<path d="M70.918 302.345L74.5805 297.609" stroke="#F9F9F9" stroke-width="1.27303" stroke-linecap="round"/>
<path d="M96.1893 304.429C97.3402 304.429 98.2731 303.496 98.2731 302.346C98.2731 301.195 97.3402 300.262 96.1893 300.262C95.0384 300.262 94.1055 301.195 94.1055 302.346C94.1055 303.496 95.0384 304.429 96.1893 304.429Z" fill="#F9F9F9"/>
<path d="M96.1914 302.345L99.8539 297.609" stroke="#F9F9F9" stroke-width="1.27303" stroke-linecap="round"/>
<path fill-rule="evenodd" clip-rule="evenodd" d="M48.4301 206.906H118.017C119.533 206.906 120.733 208.106 120.733 209.622V258.749C120.733 260.265 119.533 261.465 118.017 261.465H48.4301C46.9146 261.465 45.7148 260.265 45.7148 258.749V209.622C45.7148 208.106 46.9146 206.906 48.4301 206.906Z" fill="#6C757D" stroke="white" stroke-width="1.36396"/>
<path d="M53.2305 217.072H113.219" stroke="white" stroke-width="2.04594" stroke-linecap="round"/>
<path opacity="0.6" d="M53.2305 228.691H99.5798" stroke="white" stroke-width="2.04594" stroke-linecap="round"/>
<path opacity="0.4" d="M53.2305 240.311H113.219" stroke="white" stroke-width="2.04594" stroke-linecap="round"/>
<path opacity="0.3" d="M53.2305 251.867H99.5798" stroke="white" stroke-width="2.04594" stroke-linecap="round"/>
<path d="M169.149 206.219H127.914V262.419H169.149V206.219Z" fill="#6C757D"/>
<path d="M137.32 215.311H144.266M137.32 224.151H144.266M137.32 231.729H144.266M137.32 239.306H144.266M137.32 246.884H144.266M137.32 255.093H144.266M153.738 215.311H160.684M153.738 224.151H160.684M153.738 231.729H160.684M153.738 239.306H160.684M153.738 246.884H160.684M153.738 255.093H160.684" stroke="white" stroke-width="3.53619" stroke-linecap="round"/>
<path fill-rule="evenodd" clip-rule="evenodd" d="M567.477 374.184H550.238L547.712 400.074H565.014L567.477 374.184Z" fill="#C97C67"/>
<path fill-rule="evenodd" clip-rule="evenodd" d="M547.774 391.045C541.712 398.875 536.661 403.485 532.556 404.874C528.451 406.263 526.557 408.473 526.81 411.631C532.619 413.588 538.176 414.093 543.607 413.209C549.037 412.325 554.152 411.252 558.951 409.989L567.16 408.221L565.771 393.381C562.298 396.033 558.888 396.412 555.541 394.392C552.194 392.371 549.605 391.298 547.774 391.045Z" fill="#2B3545"/>
<path fill-rule="evenodd" clip-rule="evenodd" d="M581.787 362.343L588.732 373.438L584.737 387.854C584.03 390.484 582.433 392.814 580.211 394.406L578.155 395.907C577.744 396.207 577.173 396.09 576.873 395.679C576.781 395.513 576.689 395.347 576.683 395.206L576.193 388.98C575.799 383.711 574.369 378.656 571.938 374.011L569.471 369.17L581.787 362.343Z" fill="#C97C67"/>
<path fill-rule="evenodd" clip-rule="evenodd" d="M574.216 380.33C574.342 389.285 573.386 395.374 571.291 398.629C569.196 401.884 569.083 404.546 570.983 406.67C576.136 404.896 580.402 402.171 583.668 398.555C586.934 394.94 589.974 391.305 592.651 387.8L597.465 382.027L588.171 372.162C587.204 376.019 584.976 378.12 581.516 378.522C578.081 378.837 575.676 379.448 574.216 380.33Z" fill="#2B3545"/>
<path fill-rule="evenodd" clip-rule="evenodd" d="M578.224 189.922L541.662 189.164L532.569 212.086C530.422 217.517 529.285 223.326 529.285 229.136V277.569C529.285 283.441 530.422 289.251 532.569 294.681L550.439 339.452L547.534 387.443C550.755 388.896 554.354 389.653 558.269 389.653C562.184 389.653 565.594 388.896 568.31 387.443L570.33 370.646L581.318 365.595C583.844 364.395 584.98 361.364 583.78 358.838C583.78 358.775 583.717 358.775 583.717 358.712L574.245 339.452L580.118 286.914L589.337 231.598C589.779 229.072 589.969 226.61 589.969 224.021V220.043C589.969 214.928 588.706 209.939 586.369 205.393L578.224 189.922Z" fill="#42455E"/>
<path fill-rule="evenodd" clip-rule="evenodd" d="M574.562 340.082L569.889 374.307H569.952L570.394 370.708C573.425 370.14 575.951 369.445 577.972 368.498C579.993 367.551 582.708 365.846 586.055 363.446L574.562 340.082Z" fill="#31364A"/>
<path opacity="0.4" fill-rule="evenodd" clip-rule="evenodd" d="M551.195 221.496L538.819 310.469L550.501 339.706L551.195 221.496Z" fill="#1A212D"/>
<path opacity="0.2" d="M563.509 387.508L581.001 241.261C581.443 237.662 581.569 233.999 581.38 230.4L580.874 221.433C580.622 216.318 579.675 211.267 578.159 206.404" stroke="white" stroke-width="0.76407"/>
<path fill-rule="evenodd" clip-rule="evenodd" d="M521.218 167.673L524.604 157.602L536.367 160.175C531.478 181.325 524.133 191.177 514.33 189.731C511.758 188.223 510.371 185.893 510.054 182.878C509.737 179.864 508.973 164.134 507.837 135.808C502.301 129.66 499.311 125.974 498.809 124.82C498.052 123.058 497.15 121.121 496.922 120.764C496.757 120.401 494.298 115.135 495.855 114.845C495.512 113.992 495.508 113.357 495.852 113.004C496.196 112.65 496.698 112.597 497.554 112.888C497.35 112.148 497.422 111.632 497.773 111.341C498.298 110.905 499.495 111.414 500.423 112.396C499.845 111.123 499.759 110.307 500.103 109.953C500.609 109.329 502.261 110.552 503.064 111.547C503.867 112.542 511.22 122.69 511.99 122.165C512.76 121.639 512.156 118.909 512.226 117.759C512.302 116.672 512.553 115.439 514.328 114.808C514.424 116.322 514.714 117.878 515.256 119.409C516.009 121.742 516.362 128.118 515.886 129.629C515.8 130.019 516.923 133.456 517.356 136.966C517.778 140.986 519.105 151.196 521.218 167.673Z" fill="#C97C67"/>
<path d="M504.032 127.382L511.004 123.03C509.03 126.603 508.567 129.446 509.677 131.551" stroke="#A65C48" stroke-width="0.76407"/>
<path d="M499.15 121.419C500.736 119.602 502.997 118.158 505.933 117.087" stroke="#A65C48" stroke-width="0.76407"/>
<path d="M495.848 114.781L499.787 120.844" stroke="#A65C48" stroke-width="0.76407"/>
<path d="M497.488 112.832L501.999 118.898" stroke="#A65C48" stroke-width="0.76407"/>
<path d="M500.293 112.348L504.361 117.825" stroke="#A65C48" stroke-width="0.76407"/>
<path d="M520.422 163.121L523.094 175.857" stroke="#CC8271" stroke-width="0.76407"/>
<path fill-rule="evenodd" clip-rule="evenodd" d="M535.463 205.057C543.988 207.014 551.502 207.961 557.88 207.961C564.257 207.961 573.856 207.014 586.485 205.057L579.223 180.619L583.959 162.938L584.717 170.768L602.84 169.063L600.314 150.309C599.177 141.91 593.557 134.901 585.601 131.933L571.456 126.629C568.93 126.187 565.962 125.998 562.489 126.061C559.016 126.124 555.985 126.818 553.333 128.144L544.24 131.554C539.504 133.322 535.589 136.732 533.126 141.089L523.212 158.518L534.705 161.991C530.285 167.99 531.232 174.178 537.61 180.619C537.61 189.838 536.915 197.984 535.463 205.057Z" fill="#3399FF"/>
<path fill-rule="evenodd" clip-rule="evenodd" d="M584.026 156.623C580.679 166.726 574.301 171.904 564.892 172.22H564.261C556.115 172.41 545.317 171.778 531.993 170.326C532.246 173.736 534.14 177.146 537.613 180.682C537.613 189.901 536.855 198.047 535.403 205.119C546.012 207.077 554.031 208.024 559.335 208.024C565.397 208.024 574.427 207.077 586.488 205.119L582.763 192.68C580.426 184.849 580.3 176.451 582.447 168.558L583.962 162.938L584.026 164.137V156.623Z" fill="#3399FF"/>
<path fill-rule="evenodd" clip-rule="evenodd" d="M538.18 146.773L540.012 152.267C536.602 158.203 534.707 162.307 534.392 164.581C534.076 166.854 535.023 168.938 537.36 170.769L528.772 170.453L534.707 162.118L538.244 152.646V146.773H538.18Z" fill="#3085C0"/>
<path d="M571.269 126.312C571.269 138.247 568.932 149.866 564.26 161.169C559.65 172.472 557.503 206.382 557.945 262.772L564.638 266.939C568.996 269.655 574.047 271.233 579.162 271.486L589.96 271.928C592.928 242.186 592.107 220.085 587.434 205.624C580.425 183.902 584.214 177.966 585.098 170.136L604.547 175.819L604.294 172.788C604.105 170.389 603.789 167.989 603.347 165.589L600.063 147.466C599.179 142.667 596.464 138.31 592.549 135.406C588.445 132.438 583.898 130.164 579.036 128.649L571.269 126.312Z" fill="#EFEFEF"/>
<path d="M571.271 126.312C571.271 137.995 569.06 149.361 564.577 160.475L564.261 161.232C564.072 161.738 563.819 162.369 563.63 163L563.44 163.569L563.251 164.137C563.251 164.263 563.188 164.327 563.188 164.453L562.998 165.084L562.809 165.716L562.62 166.41L562.43 167.105C562.43 167.231 562.367 167.358 562.367 167.484L562.178 168.178C562.178 168.305 562.114 168.431 562.114 168.557L561.988 169.315L561.862 170.073L561.735 170.894L561.609 171.715L561.483 172.599L561.357 173.483L561.23 174.367L561.104 175.314L560.978 176.261L560.851 177.272L560.662 178.787L560.536 179.861L560.409 180.934L560.283 182.008L560.157 183.144L560.031 184.281C562.998 175.882 568.303 167.231 576.007 158.328L576.512 157.759L569.376 152.266L575.88 151.192C576.512 140.331 575.059 132.185 571.46 126.755L571.271 126.312Z" fill="#D5D1D1"/>
<path opacity="0.2" fill-rule="evenodd" clip-rule="evenodd" d="M583.015 155.109V157.256C582.952 165.844 575.942 172.79 567.354 172.727C566.028 172.727 564.702 172.538 563.376 172.222C572.848 184.22 583.709 195.586 588.445 209.099C588.13 207.9 587.814 206.763 587.435 205.626L587.119 204.616L586.677 203.164L586.361 202.216L585.919 200.827L585.667 199.943L585.288 198.617L585.035 197.796L584.72 196.596L584.53 195.839L584.215 194.702L584.025 193.944L583.836 193.25L583.583 192.176L583.457 191.482L583.33 190.85L583.141 189.903L582.952 188.956L583.457 188.514C583.141 185.609 583.141 182.641 583.457 179.673C583.772 176.705 584.404 173.864 585.225 171.149L584.215 163.697L583.015 155.109Z" fill="#E2E2E2"/>
<path d="M553.527 127.83C549.549 134.145 548.791 143.743 551.191 156.562C553.654 169.38 552.517 204.805 547.844 262.71L546.96 263.342C540.077 268.331 531.679 270.73 523.217 270.035L527.069 230.948C527.764 223.939 529.405 217.119 531.931 210.615L536.352 199.312L534.394 170.77L532.058 163.129L522.27 158.772L531.931 140.08C533.131 137.744 534.836 135.723 536.983 134.145C539.067 132.566 541.466 131.366 543.992 130.609L553.527 127.83Z" fill="#EFEFEF"/>
<path fill-rule="evenodd" clip-rule="evenodd" d="M553.527 127.83C546.518 131.619 542.666 138.628 542.035 148.984L546.96 150.058L541.024 156.562C544.434 164.076 546.897 171.78 548.539 179.673L548.728 180.62C548.728 180.747 548.791 180.936 548.791 181.062L548.981 182.01L549.17 183.02L549.36 184.03C549.36 184.22 549.423 184.346 549.423 184.535L549.612 185.609L549.802 186.682L549.991 187.819C549.991 188.008 550.054 188.198 550.054 188.387L550.244 189.524L550.433 190.724L550.623 191.924L550.749 193.186L550.875 194.449L551.128 196.407L551.254 197.733L551.38 199.122L551.507 200.511L551.633 201.901C551.633 202.153 551.696 202.406 551.696 202.595L551.822 204.048L551.949 200.511L552.012 198.428L552.138 195.775L552.264 192.555L552.328 190.029L552.391 187.63L552.454 185.861L552.517 183.588V181.946V179.799V177.716V176.2V174.748V173.359V171.969L552.454 170.643L552.391 169.38V168.559L552.328 167.36L552.264 166.16L552.201 165.023L552.138 163.95L552.075 163.255L552.012 162.245L551.949 161.613L551.886 160.666L551.822 160.098L551.759 159.53L551.696 158.961L551.633 158.393L551.57 157.888L551.444 157.13L551.38 156.688C548.981 144.059 549.675 134.524 553.527 128.209V127.83Z" fill="#D5D1D1"/>
<path d="M505.429 138.671L518.374 135.135L520.9 161.088L524.373 154.773L534.919 163.74L535.234 170.686L526.646 185.21C525.005 188.051 522.226 190.072 519.069 190.893L518.753 190.956C515.912 191.651 512.881 190.767 510.86 188.62C508.776 186.346 507.513 183.442 507.387 180.347L505.429 138.671Z" fill="#EFEFEF"/>
<path fill-rule="evenodd" clip-rule="evenodd" d="M547.02 108.359C547.02 117.831 550.304 122.503 556.871 122.314L551.125 106.906L547.02 108.359Z" fill="#0583F2"/>
<path fill-rule="evenodd" clip-rule="evenodd" d="M546.071 102.361C542.914 93.0782 544.24 86.7004 549.986 83.4168C558.637 78.4283 577.139 81.9013 579.16 95.6672C581.181 109.433 587.937 121.494 566.025 121.494L552.891 102.992L546.071 102.361Z" fill="#D8D8D8"/>
<path fill-rule="evenodd" clip-rule="evenodd" d="M545.884 98.445L546.263 110.443C546.326 113.284 547.336 115.936 549.104 118.147L549.294 118.399C550.873 120.357 553.272 121.557 555.798 121.557V133.996L555.545 134.565C554.598 136.964 555.735 139.743 558.197 140.69C558.766 140.942 559.334 141.006 559.966 141.006C564.196 141.006 567.985 138.417 569.564 134.501L569.816 133.933V112.59L566.975 103.181L563.565 98.0661L558.45 94.7825C557.755 94.3405 556.871 94.0879 556.051 94.0879H549.862C548.789 94.0879 547.715 94.5299 547.021 95.3508C546.263 96.2349 545.821 97.3083 545.884 98.445Z" fill="#C97C67"/>
<path fill-rule="evenodd" clip-rule="evenodd" d="M578.971 91.5616L578.592 90.6775C576.129 85.1206 570.888 81.3319 564.826 80.7635L561.037 80.3847C557.122 80.0058 553.144 80.7636 549.545 82.4685L549.229 82.6579C546.009 84.2366 543.799 87.2676 543.293 90.7407C542.788 94.4031 543.483 98.0656 545.377 101.286L546.009 102.36L545.882 97.9393C545.819 95.9187 547.461 94.2137 549.482 94.1506C549.545 94.1506 549.545 94.1506 549.608 94.1506H554.281C559.459 94.1506 564.068 97.2447 566.089 101.981L568.615 107.98L569.562 122.314L573.035 122.503C578.466 122.945 583.202 118.841 583.644 113.41C583.644 113.031 583.707 112.589 583.644 112.21L583.581 111.389C583.328 104.57 581.749 97.8762 578.971 91.5616Z" fill="#0583F2"/>
<path d="M546.069 102.36L545.942 97.9398C545.879 95.856 547.521 94.151 549.542 94.0879C549.605 94.0879 549.605 94.0879 549.668 94.0879H554.341C559.519 94.0879 564.129 97.1821 566.212 101.981L568.738 107.917" stroke="white" stroke-width="0.556634"/>
<path fill-rule="evenodd" clip-rule="evenodd" d="M568.741 108.359L569.625 122.315L573.098 122.567C573.919 122.63 574.74 122.567 575.498 122.441C576.319 118.652 574.298 114.232 569.499 109.18L569.12 108.738C569.057 108.675 568.994 108.612 568.931 108.549L568.741 108.359Z" fill="#0583F2"/>
<path fill-rule="evenodd" clip-rule="evenodd" d="M566.594 116.252C564.257 119.788 560.658 121.619 555.733 121.619V128.376C558.511 127.618 560.974 126.04 563.058 123.703C565.141 121.367 566.404 118.778 566.594 116.252Z" fill="#AE6551"/>
<path opacity="0.2" fill-rule="evenodd" clip-rule="evenodd" d="M538.832 166.582L535.927 149.027L525.508 188.873L538.832 166.582Z" fill="#E2E2E2"/>
<path fill-rule="evenodd" clip-rule="evenodd" d="M551.845 164.561H527.028C526.207 164.561 525.576 165.192 525.576 166.013V200.238C525.576 201.059 526.207 201.691 527.028 201.691H551.845C552.665 201.691 553.297 201.059 553.297 200.238V166.013C553.297 165.192 552.665 164.561 551.845 164.561Z" fill="#495057"/>
<path fill-rule="evenodd" clip-rule="evenodd" d="M551.024 164.561H526.208C525.387 164.561 524.755 165.192 524.755 166.013V200.238C524.755 201.059 525.387 201.691 526.208 201.691H551.024C551.845 201.691 552.477 201.059 552.477 200.238V166.013C552.477 165.192 551.782 164.561 551.024 164.561Z" fill="#6C757D"/>
<path d="M529.31 167.45C529.072 166.795 528.347 166.457 527.692 166.695C527.036 166.934 526.698 167.658 526.937 168.314C527.175 168.969 527.9 169.307 528.555 169.069C529.211 168.83 529.549 168.105 529.31 167.45Z" fill="#495057"/>
<path fill-rule="evenodd" clip-rule="evenodd" d="M601.753 169.156L585.777 170.672L588.808 190.689L557.55 186.585C556.035 184.375 554.646 182.922 553.32 182.228C553.509 184.564 553.32 185.637 552.625 185.385C551.615 185.006 543.658 179.26 543.027 178.881C542.395 178.502 541.89 178.312 541.511 178.628C541.259 178.818 541.385 179.323 541.953 180.081C541.385 179.702 541.006 179.575 540.753 179.765C540.501 179.954 540.627 180.523 541.132 181.407C540.69 181.091 540.311 181.028 540.059 181.217C539.806 181.407 539.869 181.975 540.311 182.922C540.059 182.606 539.806 182.543 539.554 182.733C539.175 182.922 539.427 183.932 540.88 186.143C542.332 188.353 547.005 193.404 549.594 193.846C551.299 194.162 553.762 194.541 556.982 194.92C582.493 203.76 597.396 207.233 601.69 205.213C605.984 203.192 605.984 191.131 601.753 169.156Z" fill="#C97C67"/>
<path d="M541.637 179.701L546.941 185.195" stroke="#A65C48" stroke-width="0.76407"/>
<path d="M540.689 181.029L545.867 186.712" stroke="#A65C48" stroke-width="0.76407"/>
<path d="M539.553 182.227L544.668 187.847" stroke="#A65C48" stroke-width="0.76407"/>
<path d="M588.619 190.373L597.648 195.298" stroke="#CC8271" stroke-width="0.76407"/>
<path d="M558.405 184.705L555.879 198.092L591.368 206.932C594.146 207.627 597.051 207.564 599.766 206.806L599.892 206.743C602.481 205.985 604.628 204.217 605.828 201.818C607.091 199.355 607.533 196.576 607.091 193.861L601.787 157.615L583.727 161.215L587.831 189.125L558.405 184.705Z" fill="#EFEFEF"/>
<path d="M583.789 161.215L587.83 189.125L558.404 184.705L555.878 198.092L591.43 206.933" stroke="#D5D1D1" stroke-width="0.382035"/>
<path d="M518.372 135.135L521.719 169.171" stroke="#D5D1D1" stroke-width="0.382035"/>
</svg>
