<svg width="636" height="529" viewBox="0 0 636 529" fill="none" xmlns="http://www.w3.org/2000/svg">
<path d="M317.844 513.372C465.057 513.372 584.398 502.688 584.398 489.508C584.398 476.329 465.057 465.645 317.844 465.645C170.63 465.645 51.2891 476.329 51.2891 489.508C51.2891 502.688 170.63 513.372 317.844 513.372Z" fill="#EBEBEB"/>
<path d="M47.4498 410.537L293.434 410.537L293.434 16.7825L47.4498 16.7825L47.4498 410.537Z" fill="#C7C7C7"/>
<path d="M59.9977 126.248L280.91 126.248V30.9084L59.9977 30.9084V126.248Z" fill="#A6A6A6"/>
<path d="M59.9977 238.764L280.91 238.764V143.424L59.9977 143.424V238.764Z" fill="#A6A6A6"/>
<path d="M59.9977 351.266H280.91V255.926L59.9977 255.926V351.266Z" fill="#A6A6A6"/>
<path d="M139.076 150.547H116.445V238.767H139.076V150.547Z" fill="white"/>
<path d="M139.076 179.658H116.445V197.457H139.076V179.658Z" fill="#0583F2"/>
<path d="M139.076 204.895H116.445V215.243H139.076V204.895Z" fill="#0583F2"/>
<path d="M113.38 150.547H90.75V238.767H113.38V150.547Z" fill="white"/>
<path d="M113.38 179.658H90.75V197.457H113.38V179.658Z" fill="#455A64"/>
<path d="M113.38 204.895H90.75V215.243H113.38V204.895Z" fill="#455A64"/>
<path d="M87.6889 150.547H65.0586V238.767H87.6889V150.547Z" fill="white"/>
<path d="M87.6889 179.658H65.0586V197.457H87.6889V179.658Z" fill="#0583F2"/>
<path d="M87.6889 204.895H65.0586V215.243H87.6889V204.895Z" fill="#0583F2"/>
<path d="M64.2167 126.262H84.6094V92.329H64.2167V126.262Z" fill="white"/>
<path d="M61.4234 92.3145H87.4102V86.5425H61.4234V92.3145Z" fill="#0583F2"/>
<path d="M66.8492 120.717H82.0039V99.7901H66.8492V120.717Z" fill="#455A64"/>
<path d="M64.2167 85.2188H84.6094V51.286H64.2167V85.2188Z" fill="white"/>
<path d="M61.4234 51.2715H87.4102V45.4995H61.4234V51.2715Z" fill="#0583F2"/>
<path d="M66.8492 79.666H82.0039V58.7393H66.8492V79.666Z" fill="#455A64"/>
<path d="M91.8807 126.262H112.273V92.329H91.8807V126.262Z" fill="white"/>
<path d="M89.0836 92.3145H115.07V86.5425H89.0836V92.3145Z" fill="#0583F2"/>
<path d="M94.5016 120.717H109.656V99.7901H94.5016V120.717Z" fill="#455A64"/>
<path d="M91.8807 85.2188H112.273V51.286H91.8807V85.2188Z" fill="white"/>
<path d="M89.0836 51.2715H115.07V45.4995H89.0836V51.2715Z" fill="#0583F2"/>
<path d="M94.5016 79.666H109.656V58.7393H94.5016V79.666Z" fill="#455A64"/>
<path d="M119.525 126.262H139.918V92.329H119.525V126.262Z" fill="white"/>
<path d="M116.728 92.3145H142.715V86.5425H116.728V92.3145Z" fill="#0583F2"/>
<path d="M122.142 120.717H137.297V99.7901H122.142V120.717Z" fill="#455A64"/>
<path d="M119.525 85.2188H139.918V51.286H119.525V85.2188Z" fill="white"/>
<path d="M116.728 51.2715H142.715V45.4995H116.728V51.2715Z" fill="#0583F2"/>
<path d="M122.142 79.666H137.297V58.7393H122.142V79.666Z" fill="#455A64"/>
<path d="M147.174 126.262H167.566V92.329H147.174V126.262Z" fill="white"/>
<path d="M144.377 92.3145H170.363V86.5425H144.377V92.3145Z" fill="#0583F2"/>
<path d="M149.795 120.717H164.949V99.7901H149.795V120.717Z" fill="#455A64"/>
<path d="M147.174 85.2188H167.566V51.286H147.174V85.2188Z" fill="white"/>
<path d="M144.377 51.2715H170.363V45.4995H144.377V51.2715Z" fill="#0583F2"/>
<path d="M149.795 79.666H164.949V58.7393H149.795V79.666Z" fill="#455A64"/>
<path d="M276.473 238.764H252.952V213.629C252.952 211.838 253.664 210.121 254.93 208.855C256.196 207.589 257.913 206.878 259.703 206.878H269.722C271.512 206.878 273.229 207.589 274.495 208.855C275.761 210.121 276.473 211.838 276.473 213.629V238.764Z" fill="white"/>
<path d="M257.926 206.967H271.555V203.712H257.926V206.967Z" fill="white"/>
<path d="M254.453 203.709H275.023V200.238H254.453V203.709Z" fill="#0583F2"/>
<path d="M256.756 231.811H276.5V214.596H256.756V231.811Z" fill="#455A64"/>
<path d="M250.957 238.764H227.437V213.629C227.437 211.838 228.148 210.121 229.414 208.855C230.68 207.589 232.397 206.878 234.188 206.878H244.206C245.997 206.878 247.714 207.589 248.98 208.855C250.246 210.121 250.957 211.838 250.957 213.629V238.764Z" fill="white"/>
<path d="M232.383 206.967H246.012V203.712H232.383V206.967Z" fill="white"/>
<path d="M228.91 203.709H249.48V200.238H228.91V203.709Z" fill="#0583F2"/>
<path d="M231.201 231.811H250.945V214.596H231.201V231.811Z" fill="#455A64"/>
<path d="M225.414 238.764H201.894V213.629C201.894 211.841 202.603 210.125 203.867 208.86C205.13 207.594 206.844 206.881 208.632 206.878H218.65C220.441 206.878 222.158 207.589 223.424 208.855C224.69 210.121 225.401 211.838 225.401 213.629V238.764H225.414Z" fill="white"/>
<path d="M206.84 206.967H220.469V203.712H206.84V206.967Z" fill="white"/>
<path d="M203.371 203.709H223.941V200.238H203.371V203.709Z" fill="#0583F2"/>
<path d="M205.67 231.811H225.414V214.596H205.67V231.811Z" fill="#455A64"/>
<path d="M199.889 238.764H176.368V213.629C176.368 211.838 177.08 210.121 178.346 208.855C179.612 207.589 181.329 206.878 183.119 206.878H193.163C194.954 206.878 196.671 207.589 197.937 208.855C199.203 210.121 199.914 211.838 199.914 213.629V238.764H199.889Z" fill="white"/>
<path d="M181.312 206.967H194.941V203.712H181.312V206.967Z" fill="white"/>
<path d="M177.839 203.709H198.41V200.238H177.839V203.709Z" fill="#0583F2"/>
<path d="M180.131 231.811H199.875V214.596H180.131V231.811Z" fill="#455A64"/>
<path d="M174.332 238.764H150.812V213.629C150.812 211.838 151.523 210.121 152.789 208.855C154.055 207.589 155.772 206.878 157.563 206.878H167.581C169.372 206.878 171.089 207.589 172.355 208.855C173.621 210.121 174.332 211.838 174.332 213.629V238.764Z" fill="white"/>
<path d="M155.769 206.967H169.398V203.712H155.769V206.967Z" fill="white"/>
<path d="M152.3 203.709H172.871V200.238H152.3V203.709Z" fill="#0583F2"/>
<path d="M154.588 231.811H174.332V214.596H154.588V231.811Z" fill="#455A64"/>
<path d="M276.473 198.916H252.952V173.781C252.952 171.991 253.664 170.274 254.93 169.007C256.196 167.741 257.913 167.03 259.703 167.03H269.722C271.512 167.03 273.229 167.741 274.495 169.007C275.761 170.274 276.473 171.991 276.473 173.781V198.916Z" fill="white"/>
<path d="M257.926 167.123H271.555V163.868H257.926V167.123Z" fill="white"/>
<path d="M254.453 163.879H275.023V160.408H254.453V163.879Z" fill="#0583F2"/>
<path d="M256.756 191.977H276.5V174.762H256.756V191.977Z" fill="#455A64"/>
<path d="M250.957 198.916H227.437V173.781C227.437 171.991 228.148 170.274 229.414 169.007C230.68 167.741 232.397 167.03 234.188 167.03H244.206C245.997 167.03 247.714 167.741 248.98 169.007C250.246 170.274 250.957 171.991 250.957 173.781V198.916Z" fill="white"/>
<path d="M232.383 167.123H246.012V163.868H232.383V167.123Z" fill="white"/>
<path d="M228.91 163.879H249.48V160.408H228.91V163.879Z" fill="#0583F2"/>
<path d="M231.201 191.977H250.945V174.762H231.201V191.977Z" fill="#455A64"/>
<path d="M225.414 198.916H201.894V173.781C201.894 171.991 202.605 170.274 203.871 169.007C205.137 167.741 206.854 167.03 208.645 167.03H218.663C220.454 167.03 222.171 167.741 223.437 169.007C224.703 170.274 225.414 171.991 225.414 173.781V198.916Z" fill="white"/>
<path d="M206.84 167.123H220.469V163.868H206.84V167.123Z" fill="white"/>
<path d="M203.371 163.879H223.941V160.408H203.371V163.879Z" fill="#0583F2"/>
<path d="M205.67 191.977H225.414V174.762H205.67V191.977Z" fill="#455A64"/>
<path d="M199.889 198.916H176.368V173.781C176.368 171.991 177.08 170.274 178.346 169.007C179.612 167.741 181.329 167.03 183.119 167.03H193.163C194.954 167.03 196.671 167.741 197.937 169.007C199.203 170.274 199.914 171.991 199.914 173.781V198.916H199.889Z" fill="white"/>
<path d="M181.312 167.123H194.941V163.868H181.312V167.123Z" fill="white"/>
<path d="M177.839 163.879H198.41V160.408H177.839V163.879Z" fill="#0583F2"/>
<path d="M180.131 191.977H199.875V174.762H180.131V191.977Z" fill="#455A64"/>
<path d="M174.332 198.916H150.812V173.781C150.812 171.991 151.523 170.274 152.789 169.007C154.055 167.741 155.772 167.03 157.563 167.03H167.581C169.372 167.03 171.089 167.741 172.355 169.007C173.621 170.274 174.332 171.991 174.332 173.781V198.916Z" fill="white"/>
<path d="M155.769 167.123H169.398V163.868H155.769V167.123Z" fill="white"/>
<path d="M152.3 163.879H172.871V160.408H152.3V163.879Z" fill="#0583F2"/>
<path d="M154.588 191.977H174.332V174.762H154.588V191.977Z" fill="#455A64"/>
<path d="M223.113 351.086H171.699V308.584C171.699 306.73 172.436 304.951 173.747 303.64C175.059 302.328 176.837 301.592 178.692 301.592H216.121C217.975 301.592 219.754 302.328 221.065 303.64C222.377 304.951 223.113 306.73 223.113 308.584V351.086Z" fill="white"/>
<path d="M171.699 301.594H223.113V293.012H171.699V301.594Z" fill="#263238"/>
<path d="M194.138 295.07H200.685C202.244 295.07 203.508 293.807 203.508 292.248V290.125C203.508 288.566 202.244 287.302 200.685 287.302H194.138C192.579 287.302 191.315 288.566 191.315 290.125V292.248C191.315 293.807 192.579 295.07 194.138 295.07Z" fill="#263238"/>
<path d="M174.495 340.23H220.328V317.32H174.495V340.23Z" fill="#455A64"/>
<path d="M169.285 351.086H117.871V308.584C117.871 306.73 118.608 304.951 119.919 303.64C121.231 302.328 123.009 301.592 124.864 301.592H162.293C164.147 301.592 165.926 302.328 167.237 303.64C168.548 304.951 169.285 306.73 169.285 308.584V351.086Z" fill="white"/>
<path d="M117.871 301.594H169.285V293.012H117.871V301.594Z" fill="#263238"/>
<path d="M140.298 295.07H146.846C148.404 295.07 149.668 293.807 149.668 292.248V290.125C149.668 288.566 148.404 287.302 146.846 287.302H140.298C138.739 287.302 137.476 288.566 137.476 290.125V292.248C137.476 293.807 138.739 295.07 140.298 295.07Z" fill="#263238"/>
<path d="M120.656 340.23H166.488V317.32H120.656V340.23Z" fill="#455A64"/>
<path d="M276.855 351.086H225.441V308.584C225.441 306.73 226.178 304.951 227.49 303.64C228.801 302.328 230.579 301.592 232.434 301.592H269.863C271.717 301.592 273.496 302.328 274.807 303.64C276.119 304.951 276.855 306.73 276.855 308.584V351.086Z" fill="white"/>
<path d="M225.441 301.594H276.855V293.012H225.441V301.594Z" fill="#263238"/>
<path d="M247.868 295.07H254.416C255.975 295.07 257.238 293.807 257.238 292.248V290.125C257.238 288.566 255.975 287.302 254.416 287.302H247.868C246.31 287.302 245.046 288.566 245.046 290.125V292.248C245.046 293.807 246.31 295.07 247.868 295.07Z" fill="#263238"/>
<path d="M228.226 340.23H274.059V317.32H228.226V340.23Z" fill="#455A64"/>
<path d="M115.441 351.086H64.0274V308.584C64.0274 306.73 64.7641 304.951 66.0754 303.64C67.3868 302.328 69.1654 301.592 71.0199 301.592H108.449C110.303 301.592 112.082 302.328 113.393 303.64C114.705 304.951 115.441 306.73 115.441 308.584V351.086Z" fill="white"/>
<path d="M64.0274 301.594H115.441V293.012H64.0274V301.594Z" fill="#263238"/>
<path d="M86.466 295.07H93.0135C94.5723 295.07 95.8359 293.807 95.8359 292.248V290.125C95.8359 288.566 94.5723 287.302 93.0135 287.302H86.466C84.9072 287.302 83.6435 288.566 83.6435 290.125V292.248C83.6435 293.807 84.9072 295.07 86.466 295.07Z" fill="#263238"/>
<path d="M66.8235 340.23H112.656V317.32H66.8235V340.23Z" fill="#455A64"/>
<path d="M175.272 126.262H204.742V88.1335H175.272V126.262Z" fill="white"/>
<path d="M175.262 88.1323H204.745L199.087 80.3516H180.919L175.262 88.1323Z" fill="white"/>
<path d="M177.56 80.3516H202.453V72.7869H177.56V80.3516Z" fill="#455A64"/>
<path d="M179.48 113.748H204.742V96.61H179.48V113.748Z" fill="#0583F2"/>
<path d="M208.928 126.262H238.398V88.1335H208.928V126.262Z" fill="white"/>
<path d="M208.938 88.1323H238.408L232.75 80.3516H214.582L208.938 88.1323Z" fill="white"/>
<path d="M211.228 80.3516H236.121V72.7869H211.228V80.3516Z" fill="#455A64"/>
<path d="M213.148 113.748H238.41V96.61H213.148V113.748Z" fill="#0583F2"/>
<path d="M242.588 126.262H272.059V88.1335H242.588V126.262Z" fill="white"/>
<path d="M242.605 88.1323H272.076L266.418 80.3516H248.25L242.605 88.1323Z" fill="white"/>
<path d="M244.892 80.3516H269.785V72.7869H244.892V80.3516Z" fill="#455A64"/>
<path d="M246.812 113.748H272.074V96.61H246.812V113.748Z" fill="#0583F2"/>
<path d="M43.2266 410.534L111.88 410.229L180.534 410.115L317.841 409.898L455.149 410.115L523.803 410.229L592.456 410.534L523.803 410.839L455.149 410.954L317.841 411.17L180.534 410.954L111.88 410.839L43.2266 410.534Z" fill="#263238"/>
<path d="M324.984 398.025C324.984 398.025 331.532 446.248 331.532 446.337C331.659 455.555 331.926 463.641 332.447 467.811C332.441 467.831 332.441 467.853 332.447 467.874C332.462 468.863 332.711 469.835 333.172 470.709C333.167 470.73 333.167 470.752 333.172 470.773C335.944 472.591 409.67 473.799 412.264 472.972C414.857 472.146 412.696 464.721 409.873 462.382C407.051 460.043 379.017 446.973 379.017 446.973L371.999 398.775L324.984 398.025Z" fill="#F7A9A0"/>
<path d="M331.637 452.211C331.789 458.898 332.044 464.518 332.463 467.76C332.455 467.78 332.455 467.803 332.463 467.823C332.47 468.812 332.714 469.784 333.175 470.658C333.175 470.658 333.175 470.658 333.175 470.722C335.947 472.54 409.673 473.735 412.267 472.921C414.86 472.108 412.699 464.67 409.877 462.344C408.516 461.225 401.397 457.652 394.34 454.232C396.578 455.987 398.828 458.148 397.799 459.025C396.057 460.564 351.343 458.962 331.637 452.211Z" fill="#263238"/>
<path d="M390.311 452.211C390.311 452.211 377.267 446.273 354.891 457.017L390.311 452.211Z" fill="#263238"/>
<path d="M329.484 431.257L376.652 430.228L345.885 189.139H297.242L329.484 431.257Z" fill="#F7A9A0"/>
<path d="M302.264 398.736C302.264 398.736 296.085 444.709 296.085 444.734C296.085 453.964 295.818 462.05 295.31 466.22C295.316 466.241 295.316 466.263 295.31 466.284C295.304 467.273 295.069 468.248 294.623 469.132C291.864 470.975 225.97 472.653 223.427 471.852C220.884 471.051 222.944 463.589 225.753 461.249C228.563 458.91 248.638 445.637 248.638 445.637L256.381 397.465L302.264 398.736Z" fill="#F7A9A0"/>
<path d="M223.365 471.904C225.908 472.705 291.79 471.026 294.562 469.196C294.562 469.196 294.562 469.196 294.562 469.119C295.023 468.245 295.267 467.273 295.274 466.284C295.28 466.259 295.28 466.233 295.274 466.208C295.807 461.366 296.036 456.496 295.96 451.625C285.204 458.44 257.374 461.478 248.525 459.533C240.681 457.817 242.398 451.498 244.05 448.65C237.986 452.693 227.624 459.648 225.641 461.3C222.882 463.64 220.772 471.103 223.365 471.904Z" fill="#263238"/>
<path d="M244.102 448.655C244.102 448.655 266.261 445.045 281.403 457.021L244.102 448.655Z" fill="#263238"/>
<path d="M341.462 189.092C341.272 189.982 338.22 204.119 335.105 216.261C332.804 225.16 330.44 232.928 329.092 233.729C327.473 234.722 325.772 235.573 324.007 236.272L297.994 430.588L251.145 429.545L275.974 220.151L281.848 189.092H341.462Z" fill="#F7A9A0"/>
<path d="M279.47 189.23H347.081L367.042 337.357C367.042 337.357 334.698 345.583 314.827 345.38C294.955 345.176 259.637 334.37 259.637 334.37L279.47 189.23Z" fill="#263238"/>
<path d="M348.964 124.961C348.953 125.095 348.894 125.221 348.799 125.317C348.703 125.412 348.577 125.471 348.443 125.482L346.269 125.279C345.125 119.583 343.65 114.968 343.955 116.723C344.411 119.484 344.471 122.297 344.133 125.075C343.179 124.986 340.967 124.732 339.861 124.618C339.543 114.854 338.412 107.467 338.234 109.666C337.509 118.566 336.619 121.249 335.627 124.16C325.291 123.016 311.764 121.338 302 119.914C301.631 114.485 301.466 108.649 301.237 109.018C299.483 111.764 298.504 116.011 297.995 119.316C294.893 118.833 292.426 118.388 290.926 118.045C290.926 118.045 290.837 113.506 290.926 112.044C291.178 108.293 292.081 104.614 293.596 101.174C295.261 97.8017 297.263 94.607 299.572 91.6385V91.575C301 89.5985 302.198 87.4658 303.144 85.2181C303.805 83.5689 304.328 81.868 304.708 80.1327C306.081 73.7758 310.289 68.6904 316.214 67.8767C327.72 60.5918 339.429 67.8767 341.132 76.7763C341.692 80.7048 341.984 85.6758 342.404 89.6171C342.534 91.141 342.75 92.6564 343.052 94.1558C344.858 101.314 350.49 106.158 348.964 124.961Z" fill="#263238"/>
<path d="M313.593 69.0837C311.616 69.7349 309.84 70.8859 308.439 72.4252C307.038 73.9644 306.059 75.8396 305.596 77.8689C305.037 80.5695 304.149 83.1912 302.951 85.6751C301.498 88.0412 299.708 90.1827 297.637 92.0319C294.419 94.898 292.141 98.669 291.102 102.851C289.856 107.712 289.571 112.769 290.263 117.739C289.847 112.549 290.425 107.328 291.967 102.355C293.518 97.3589 296.696 94.5619 300.027 91.1165C302.707 88.4052 304.639 85.0455 305.634 81.3651C306.04 79.0185 306.753 76.7357 307.757 74.576C309.226 72.3573 311.331 70.6337 313.796 69.6304C314.101 69.4524 313.898 68.9693 313.593 69.0837Z" fill="#263238"/>
<path d="M348.351 102.369C346.254 98.2751 343.965 94.7407 343.088 89.8968C342.274 85.5106 342.109 80.9972 341.27 76.6237C341.27 76.5475 341.168 76.6237 341.181 76.6237C342.312 84.3409 341.677 91.8801 345.224 98.7582C347.33 102.392 348.974 106.274 350.119 110.315C351.124 114.817 351.317 119.463 350.691 124.033C350.691 124.198 350.869 124.224 350.907 124.033C352.617 116.735 351.713 109.068 348.351 102.369Z" fill="#263238"/>
<path d="M323.016 137.308C326.83 149.73 342.85 190.159 355.258 193.948C363.395 196.49 397.15 195.969 403.57 188.532C406.367 185.29 404.117 160.867 399.578 161.452C395.039 162.036 367.895 163.346 364.679 162.113C361.462 160.88 339.112 130.329 330.466 122.548C315.553 109.033 320.944 130.608 323.016 137.308Z" fill="#F7A9A0"/>
<path d="M389.582 158.919L387.293 195.14C387.293 195.14 360.353 197.785 349.369 192.458C336.032 185.987 320.826 140.472 318.856 133.06C315.665 120.893 317.775 113.989 324.056 116.532C326.497 117.485 329.573 119.863 333.21 123.931C336.846 128 358.522 155.105 365.706 160.636C369.71 163.712 389.582 158.919 389.582 158.919Z" fill="#EBEBEB"/>
<path d="M380.695 192.994C380.873 187.629 382.412 165.711 383.06 160.994C383.06 160.676 383.327 160.625 383.327 160.994C383.174 177.077 381.356 187.769 380.911 193.02C380.899 193.122 380.695 193.134 380.695 192.994Z" fill="#263238"/>
<path d="M375.927 195.701C367.219 195.879 355.662 195.447 349.369 192.395C336.032 185.924 320.826 140.409 318.856 132.997C315.665 120.83 317.775 113.927 324.056 116.469L324.641 116.724L375.927 195.701Z" fill="#263238"/>
<path d="M345.25 169.472L350.577 206.075C350.577 206.075 290.925 206.952 276.113 205.909C276.113 205.909 288.191 137.485 304.083 120.194C312.042 111.549 321.387 112.197 327.349 118.249C328.862 119.774 346.852 143.549 348.746 152.639C350.437 160.649 345.25 169.472 345.25 169.472Z" fill="#0583F2"/>
<path d="M310.72 115.135C310.72 115.135 321.934 140.638 322.608 161.323C324.413 216.806 316.658 308.395 313.975 314.993C310.288 324.046 254.844 333.047 254.844 333.047C254.844 333.047 271.117 196.477 285.878 155.056C299.558 116.597 310.72 115.135 310.72 115.135Z" fill="#EBEBEB"/>
<path d="M273.342 244.52C273.088 252.67 273.456 261.9 275.198 263.591C278.453 266.769 287.098 266.502 289.819 266.49C292.54 266.477 302.227 266.49 304.503 261.404C305.507 259.205 305.774 247.813 305.774 243.783C305.774 242.143 305.393 234.095 305.266 233.192C305.266 232.989 304.668 233.002 304.643 233.192C304.503 234.121 304.643 237.464 304.541 238.1C288.942 240.096 279.279 238.43 274.27 237.464C274.27 235.951 274.27 234.782 274.27 233.281C279.149 234.176 284.096 234.644 289.056 234.68C294.475 234.568 299.886 234.181 305.266 233.523C305.393 233.523 305.266 232.913 305.113 232.913C303.079 232.913 296.023 233.637 288.929 233.637C283.85 233.535 278.782 233.14 273.749 232.455C273.444 232.519 273.431 240.605 273.342 244.52ZM276.139 262.663C274.423 260.692 274.206 255.035 274.206 251.589C274.206 246.898 274.206 243.147 274.206 238.456C284.171 240.508 294.436 240.646 304.452 238.863C304.452 239.066 304.554 248.957 304.452 252.11C304.338 256.141 304.211 259.739 302.66 261.874C301.388 263.667 297.574 265.472 289.005 265.46C282.801 265.447 277.563 264.316 276.114 262.663H276.139Z" fill="#A6A6A6"/>
<path d="M347.284 315.831C350.348 323.104 368.694 328.011 368.694 328.011L345.581 168.798C348.512 164.011 349.656 158.341 348.81 152.791C347.259 143.892 328.557 117.956 325.531 116.621C328.655 129.986 330.822 143.556 332.015 157.229C337.202 213.194 343.928 307.923 347.284 315.831Z" fill="#EBEBEB"/>
<path d="M342.912 140.704C341.246 138.047 339.542 135.415 337.902 132.745C337.902 132.669 337.979 132.58 338.029 132.656C339.695 134.843 341.322 137.068 342.937 139.293C342.403 138.098 341.882 136.902 341.399 135.682C341.399 135.542 341.538 135.428 341.615 135.568C342.352 137.131 343.026 138.733 343.674 140.335C345.114 142.348 346.39 144.474 347.488 146.692C349.866 151.229 350.581 156.456 349.51 161.465C349.167 162.876 348.668 164.245 348.022 165.546C347.577 166.424 346.141 168.343 346.153 168.394C347.094 173.607 347.794 178.883 348.531 184.134C349.268 189.384 350.031 194.762 350.641 200.089C350.997 203.102 351.226 206.154 351.659 209.154C351.659 209.269 351.506 209.307 351.493 209.154C351.112 206.535 350.54 203.942 350.069 201.335C349.599 198.729 349.167 196.123 348.798 193.504C347.946 188.215 347.196 182.913 346.433 177.612C346.001 174.611 345.518 171.623 345.162 168.61C345.664 167.475 346.242 166.375 346.891 165.317C347.412 164.207 347.837 163.055 348.162 161.872C348.845 159.465 349.057 156.948 348.785 154.46C348.2 149.476 345.581 144.937 342.912 140.704Z" fill="#263238"/>
<path d="M325.672 117.205C326.901 118.849 328.151 120.477 329.422 122.087C330.694 123.689 331.965 125.316 333.236 126.918V126.537L330.096 129.423L329.842 129.664L330.122 129.893C331.393 131.025 332.779 132.118 334.114 133.224L333.999 132.945C333.516 135.932 332.995 138.92 332.563 141.92C332.13 144.921 331.673 147.921 331.291 150.922C331.927 147.947 332.525 144.98 333.084 142.022C333.681 139.034 334.19 136.047 334.724 133.059V132.894L334.584 132.779C333.313 131.661 331.94 130.529 330.605 129.436V129.906L333.681 126.969L333.872 126.791L333.707 126.588C332.436 124.999 331.024 123.447 329.677 121.884C328.329 120.32 327.07 118.743 325.672 117.205Z" fill="#DBDBDB"/>
<path d="M311.928 115.273C312.246 116.443 315.742 124.364 321.057 124.936C324.413 125.292 324.871 113.697 324.871 113.697L324.998 112.985L326.74 102.979L314.865 95.974L313.149 95.0586C313.149 95.0586 312.831 97.8175 312.462 101.25C312.462 101.403 312.462 101.568 312.462 101.733L312.386 102.293C312.323 102.801 312.272 103.335 312.221 103.856C312.17 104.378 312.145 104.632 312.106 105.052C312.068 105.471 312.043 105.891 312.005 106.323C311.777 109.301 311.752 112.292 311.928 115.273Z" fill="#F7A9A0"/>
<path d="M312.512 101.301C313.615 104.033 315.298 106.492 317.444 108.51C319.591 110.527 322.151 112.054 324.946 112.985L326.738 102.979L314.864 95.974L313.147 95.0586C313.147 95.0586 312.88 97.8937 312.512 101.301Z" fill="#263238"/>
<path d="M340.649 91.1551C338.716 108.814 327.935 109.641 324.121 109.221C320.676 108.84 308.954 107.085 309.055 89.3243C309.157 71.5634 317.955 66.8847 325.939 67.3424C333.923 67.8001 342.594 73.4958 340.649 91.1551Z" fill="#F7A9A0"/>
<path d="M337.42 86.8831C337.03 86.7557 336.648 86.6072 336.275 86.4381C335.851 86.3393 335.47 86.1023 335.195 85.7643C335.127 85.6414 335.103 85.4992 335.126 85.3607C335.149 85.2223 335.218 85.0957 335.322 85.0014C335.553 84.8429 335.822 84.7488 336.101 84.7287C336.38 84.7086 336.66 84.7632 336.911 84.887C337.446 85.0713 337.897 85.4411 338.182 85.9295C338.239 86.0445 338.262 86.1732 338.248 86.3007C338.235 86.4281 338.185 86.549 338.105 86.6492C338.025 86.7493 337.918 86.8245 337.796 86.8659C337.675 86.9073 337.544 86.9133 337.42 86.8831Z" fill="#263238"/>
<path d="M325.39 84.9006C325.814 84.9281 326.238 84.9281 326.662 84.9006C327.106 84.9463 327.553 84.8435 327.933 84.6082C328.032 84.5105 328.097 84.3842 328.12 84.2473C328.142 84.1104 328.122 83.9697 328.06 83.8453C327.893 83.6226 327.669 83.4487 327.412 83.3414C327.155 83.2341 326.874 83.1974 326.598 83.2351C326.024 83.2154 325.465 83.4155 325.034 83.7945C324.956 83.8821 324.902 83.9887 324.878 84.1035C324.854 84.2184 324.86 84.3376 324.896 84.4494C324.932 84.5612 324.996 84.6616 325.083 84.7408C325.17 84.8199 325.276 84.875 325.39 84.9006Z" fill="#263238"/>
<path d="M327.16 89.7422C327.16 89.7422 327.058 89.7422 327.045 89.8312C326.918 91.1026 326.562 92.3739 325.418 92.6282V92.7045C326.74 92.7045 327.223 90.8991 327.16 89.7422Z" fill="#263238"/>
<path d="M326.266 88.3443C324.359 87.9121 323.724 91.7643 325.427 92.1584C327.131 92.5526 327.856 88.6876 326.266 88.3443Z" fill="#263238"/>
<path d="M325.468 88.4109C325.087 88.5635 324.693 88.8813 324.273 88.8559C323.854 88.8304 323.523 88.3473 323.282 87.9023C323.154 88.2419 323.162 88.6176 323.304 88.9514C323.446 89.2852 323.711 89.5515 324.044 89.695C324.744 89.9238 325.316 89.3644 325.697 88.6652C325.71 88.5635 325.621 88.3473 325.468 88.4109Z" fill="#263238"/>
<path d="M334.37 90.8672C334.37 90.8672 334.446 90.9435 334.433 90.9943C334.166 92.1767 334.064 93.5371 335.069 94.1727C335.069 94.1727 335.069 94.249 335.069 94.2363C333.785 93.804 333.937 91.9478 334.37 90.8672Z" fill="#263238"/>
<path d="M335.64 89.833C337.573 90.0491 336.988 93.9141 335.195 93.7107C333.403 93.5073 334.051 89.6423 335.64 89.833Z" fill="#263238"/>
<path d="M336.44 90.2654C336.72 90.5197 336.961 90.9392 337.317 91.0155C337.673 91.0918 338.118 90.7358 338.449 90.3798C338.36 91.1172 337.991 91.8419 337.266 91.88C336.542 91.9182 336.224 91.2062 336.16 90.4434C336.198 90.2654 336.325 90.1001 336.44 90.2654Z" fill="#263238"/>
<path d="M331.902 95.9108C331.88 96.7994 331.813 97.6864 331.698 98.5679C331.698 98.6442 331.482 98.6442 331.19 98.5679C330.446 98.5747 329.714 98.3767 329.075 97.9955C328.436 97.6143 327.914 97.0646 327.566 96.4066C327.566 96.3176 327.643 96.254 327.706 96.3176C328.655 97.2304 329.872 97.8143 331.177 97.9831C331.279 97.7542 331.177 94.8555 331.304 94.8682C331.947 95.0358 332.563 95.2926 333.135 95.6311C333.364 91.817 332.982 88.0029 333.275 84.265C333.275 84.1252 333.491 84.1252 333.504 84.265C334.032 88.3281 334.156 92.4336 333.872 96.521C333.834 97.0296 332.22 96.1015 331.902 95.9108Z" fill="#263238"/>
<path d="M330.707 98.0728C330.179 98.6043 329.522 98.9897 328.8 99.1916C328.404 99.2925 327.985 99.2658 327.605 99.1153C326.779 98.7847 326.868 97.9965 327.109 97.3481C327.235 97.0008 327.406 96.6716 327.618 96.3691C328.442 97.249 329.523 97.8453 330.707 98.0728Z" fill="#263238"/>
<path d="M328.8 99.1696C328.404 99.2705 327.985 99.2438 327.605 99.0934C326.779 98.7628 326.868 97.9746 327.109 97.3262C327.558 97.3969 327.97 97.6178 328.277 97.9526C328.584 98.2874 328.768 98.7164 328.8 99.1696Z" fill="#FF9CBD"/>
<path d="M340.888 84.826C338.714 85.0676 332.37 79.054 330.781 71.9471C329.497 75.6231 326.964 78.7321 323.623 80.7322C320.615 82.7212 317.055 83.709 313.452 83.5546C313.452 83.5546 310.427 91.1065 309.104 91.0048C307.782 90.9031 305.125 62.4245 328.01 66.8108C328.01 66.8108 334.811 67.51 338.18 72.2522C341.55 76.9944 340.888 84.826 340.888 84.826Z" fill="#263238"/>
<path d="M323.27 95.6553C322.24 95.3477 321.317 94.7575 320.606 93.9516C319.895 93.1457 319.424 92.1564 319.247 91.0963C319.069 90.0361 319.193 88.9474 319.604 87.954C320.014 86.9606 320.695 86.1023 321.569 85.4765C322.443 84.8508 323.475 84.4827 324.548 84.4141C325.62 84.3454 326.691 84.5791 327.637 85.0884C328.584 85.5977 329.369 86.3623 329.902 87.2953C330.436 88.2283 330.698 89.2923 330.657 90.3664C330.594 91.8908 329.93 93.3283 328.811 94.3647C327.691 95.401 326.206 95.9519 324.682 95.8968C324.203 95.8764 323.729 95.7952 323.27 95.6553ZM326.322 85.3699C325.909 85.2443 325.481 85.1759 325.05 85.1665C323.785 85.1296 322.553 85.5757 321.604 86.4141C320.656 87.2526 320.062 88.4205 319.943 89.6809C319.825 90.9413 320.19 92.1996 320.965 93.2003C321.741 94.2011 322.868 94.8693 324.118 95.0693C325.368 95.2693 326.647 94.9861 327.696 94.2772C328.745 93.5683 329.485 92.4868 329.765 91.2524C330.046 90.0179 329.846 88.723 329.206 87.6304C328.567 86.5379 327.535 85.7297 326.322 85.3699Z" fill="#37474F"/>
<path d="M336.286 97.897C334.175 97.2741 332.904 94.5533 333.413 91.5402C333.625 90.1033 334.283 88.7693 335.294 87.7261C335.698 87.2588 336.217 86.9039 336.798 86.6958C337.38 86.4877 338.006 86.4335 338.615 86.5384C339.223 86.6433 339.795 86.9037 340.273 87.2945C340.752 87.6852 341.121 88.193 341.346 88.7686C341.943 90.0725 342.121 91.5295 341.855 92.9387C341.308 96.0663 338.981 98.2784 336.655 97.8716C336.533 97.8931 336.409 97.9016 336.286 97.897ZM338.765 87.4845C338.674 87.4516 338.581 87.4261 338.485 87.4083C337.998 87.3467 337.504 87.4035 337.043 87.5739C336.583 87.7444 336.171 88.0233 335.841 88.3872C334.946 89.2923 334.363 90.4591 334.175 91.7182C333.705 94.4262 334.862 96.9054 336.718 97.2359C338.574 97.5665 340.532 95.634 341.028 92.926C341.274 91.6779 341.123 90.3841 340.596 89.2263C340.433 88.816 340.186 88.4444 339.871 88.1356C339.555 87.8268 339.179 87.5877 338.765 87.4337V87.4845Z" fill="#37474F"/>
<path d="M330.35 90.9895L329.969 90.3284C330.948 89.7563 333.109 89.1333 334.228 90.8497L333.592 91.2692C332.575 89.7309 330.439 90.9387 330.35 90.9895Z" fill="#37474F"/>
<path d="M304.849 88.078L304.238 87.6076C304.454 87.3279 306.4 84.8233 308.141 84.836C309.883 84.8487 319.762 87.5694 320.181 87.6838L319.978 88.4339C317.117 87.6457 309.387 85.6242 308.129 85.6115C306.87 85.5988 305.37 87.3787 304.849 88.078Z" fill="#37474F"/>
<path d="M312.054 89.2868C312.054 89.2868 309.334 83.0952 306.6 83.9597C303.867 84.8243 305.151 93.2661 307.871 94.9316C308.201 95.1672 308.574 95.3338 308.97 95.4212C309.365 95.5086 309.774 95.5151 310.172 95.4402C310.57 95.3654 310.949 95.2108 311.285 94.9857C311.622 94.7607 311.909 94.4698 312.13 94.1307L312.054 89.2868Z" fill="#F7A9A0"/>
<path d="M307.035 86.377C307.874 87.0285 308.567 87.8479 309.07 88.7827C309.574 89.7175 309.877 90.7471 309.959 91.8057C309.882 91.5791 309.757 91.3719 309.592 91.1985C309.427 91.0251 309.226 90.8896 309.004 90.8014C308.782 90.7131 308.543 90.6742 308.304 90.6874C308.065 90.7005 307.831 90.7654 307.62 90.8776C307.556 90.8776 307.62 90.992 307.62 90.992C308 90.9506 308.383 91.0272 308.717 91.2115C309.052 91.3958 309.321 91.6788 309.489 92.0218C309.763 92.5999 309.976 93.205 310.125 93.8272C310.188 94.0306 310.531 93.9924 310.506 93.8272C311.053 91.2081 309.756 87.1906 307.035 86.377Z" fill="#263238"/>
<path d="M322.761 139.849C322.761 139.849 318.463 134.192 322.557 131.585C326.651 128.979 329.982 135.247 329.982 135.247L322.761 139.849Z" fill="#455A64"/>
<path d="M356.719 177.059L357.304 183.988L357.52 186.276L355.524 185.145L349.485 181.674L322.621 139.566L329.842 134.951L356.719 177.072V177.059Z" fill="#455A64"/>
<path d="M357.313 183.99L357.517 186.279L355.508 185.147L357.313 183.99Z" fill="#37474F"/>
<path d="M330.286 134.335L321.852 139.717L322.918 141.389L331.353 136.007L330.286 134.335Z" fill="#263238"/>
<path d="M331.47 136.204L323.035 141.586L324.102 143.258L332.537 137.876L331.47 136.204Z" fill="#263238"/>
<path d="M324.109 143.246L326.83 141.504L335.056 157.701L334.013 158.286L324.109 143.246Z" fill="#263238"/>
<path d="M295.644 127.136C274.616 149.41 250.625 187.195 260.377 195.573C269.276 203.202 302.497 196.845 323.462 189.128C327.454 187.666 312.134 152.322 308.053 154.318C303.749 156.48 299.311 158.365 294.767 159.963C293.623 160.255 299.522 146.753 306.756 130.391C314.816 112.134 307.671 114.422 295.644 127.136Z" fill="#F7A9A0"/>
<path d="M358.636 152.763C358.636 156.832 348.554 155.827 348.554 155.827C350 156.824 351.052 158.295 351.529 159.985C352.216 162.998 347.791 165.413 347.791 165.413C349.075 166.76 349.926 168.46 350.232 170.295C350.601 173.245 346.418 176.309 346.418 176.309C346.915 178.197 346.716 180.2 345.859 181.954C343.38 186.544 335.345 186.467 330.374 187.395C324.802 188.567 319.335 190.187 314.024 192.239L305.633 155.484C305.633 155.484 327.399 143.177 333.399 143.584C338.447 143.94 358.738 146.546 358.636 152.763Z" fill="#F7A9A0"/>
<path d="M348.479 155.718C343.117 154.259 337.596 153.465 332.041 153.354C331.914 153.354 331.914 153.532 332.041 153.544C337.495 153.786 343.013 155.502 348.441 155.973C348.475 155.978 348.509 155.969 348.537 155.949C348.564 155.929 348.582 155.898 348.587 155.864C348.593 155.831 348.584 155.796 348.564 155.769C348.543 155.742 348.513 155.723 348.479 155.718Z" fill="#263238"/>
<path d="M347.652 164.998C346.399 164.73 345.116 164.632 343.838 164.705C342.498 164.705 341.163 164.705 339.833 164.705C337.15 164.705 334.468 164.896 331.798 165.112C331.683 165.112 331.671 165.303 331.798 165.303C334.468 165.239 337.137 165.214 339.807 165.303L343.825 165.404C345.092 165.547 346.372 165.547 347.639 165.404C347.693 165.406 347.745 165.386 347.785 165.349C347.824 165.312 347.847 165.261 347.849 165.207C347.85 165.153 347.831 165.101 347.794 165.062C347.757 165.022 347.706 164.999 347.652 164.998Z" fill="#263238"/>
<path d="M346.369 176.31C345.25 176.095 344.102 176.069 342.974 176.234L339.313 176.387C336.872 176.463 334.431 176.552 331.99 176.552C331.863 176.552 331.863 176.743 331.99 176.743C334.469 176.743 336.948 176.743 339.44 176.743H343.089C344.201 176.835 345.32 176.727 346.394 176.425C346.401 176.416 346.406 176.406 346.409 176.395C346.411 176.384 346.411 176.373 346.409 176.362C346.406 176.351 346.401 176.34 346.394 176.332C346.388 176.323 346.379 176.315 346.369 176.31Z" fill="#263238"/>
<path d="M305.977 117.36C290.911 125.992 251.207 178.385 257.665 193.349C264.124 208.313 312.334 193.616 312.334 193.616L309.41 153.428C309.41 153.428 296.696 160.077 296.264 159.429C295.831 158.781 303.752 140.727 306.969 133.379C310.185 126.03 314.025 112.757 305.977 117.36Z" fill="#EBEBEB"/>
<path d="M306.4 191.16C305.688 185.833 303.577 163.966 303.438 159.211C303.438 158.88 303.628 158.791 303.692 159.134C306.234 175.026 306.235 185.833 306.603 191.122C306.641 191.249 306.4 191.287 306.4 191.16Z" fill="#263238"/>
<path d="M309.169 153.467C307.761 153.93 306.392 154.504 305.075 155.183C303.88 155.73 302.685 156.289 301.502 156.861C298.96 158.133 296.417 159.404 293.874 160.675C291.331 161.947 288.789 163.333 286.246 164.706C283.703 166.079 281.326 167.604 278.821 168.99C278.707 169.054 278.821 169.219 278.923 169.155C281.466 167.884 284.097 166.613 286.678 165.341L294.243 161.591C296.786 160.319 299.328 159.048 301.807 157.853L305.494 155.997C306.845 155.394 308.149 154.693 309.397 153.899C309.425 153.857 309.44 153.809 309.443 153.759C309.445 153.709 309.434 153.66 309.41 153.616C309.387 153.571 309.352 153.534 309.31 153.508C309.267 153.482 309.219 153.468 309.169 153.467Z" fill="#263238"/>
<path d="M305.331 141.822C304.53 142.788 303.741 143.742 302.991 144.746C302.851 144.924 302.724 145.115 302.597 145.305L303.233 143.754C304.059 141.963 304.781 140.125 305.394 138.249C305.394 138.173 305.292 138.122 305.254 138.249C304.254 140.05 303.354 141.905 302.559 143.805C301.72 145.623 300.868 147.441 300.016 149.272C299.164 151.103 298.376 152.934 297.601 154.79C296.775 156.586 296.078 158.438 295.516 160.333C295.516 160.447 295.643 160.485 295.706 160.396C296.754 158.629 297.676 156.789 298.465 154.891C299.292 153.061 300.08 151.217 300.881 149.374L301.86 147.047L302.254 146.526C302.635 146.055 302.991 145.56 303.335 145.064C304.034 144.034 304.695 142.979 305.356 141.911C305.407 141.835 305.356 141.796 305.331 141.822Z" fill="#263238"/>
<path d="M312.502 192.735C312.502 192.468 312.349 192.418 312.285 192.735C312.222 193.053 312.285 193.18 312.196 193.333C310.556 193.714 304.568 195.342 303.119 195.723C300.042 196.528 296.949 197.223 293.838 197.808C290.71 198.393 287.583 198.876 284.417 199.27C281.251 199.664 278.06 200.071 274.945 200.173C274.918 200.173 274.893 200.184 274.874 200.203C274.854 200.222 274.844 200.248 274.844 200.275C274.844 200.302 274.854 200.327 274.874 200.346C274.893 200.366 274.918 200.376 274.945 200.376C278.175 200.313 281.379 200.313 284.595 200.058C287.812 199.804 290.952 199.372 293.991 198.787C297.029 198.202 300.347 197.516 303.411 196.677C304.975 196.257 306.513 195.799 308.052 195.316C309.545 194.927 310.997 194.395 312.387 193.727C312.436 193.696 312.476 193.653 312.503 193.601C312.529 193.55 312.542 193.492 312.54 193.435L312.502 192.735Z" fill="#263238"/>
<path d="M319.113 148.518L318.045 149.027L309.438 137.369L309.247 137.114L309.374 136.835L312.54 130.007L303.64 129.575H303.195L303.361 129.181C305.191 124.82 306.971 120.434 308.827 116.086C307.276 120.409 305.662 124.693 304.085 128.99L313.252 129.219H313.887L313.621 129.804L310.506 136.987L319.113 148.518Z" fill="#DBDBDB"/>
<path d="M303.562 128.951H303.982L303.829 129.358L303.562 128.951Z" fill="#DBDBDB"/>
<path d="M310.227 136.734L310.405 136.976L310.29 137.268L310.227 136.734Z" fill="#DBDBDB"/>
<path d="M312.744 129.439L313.125 130.05L312.477 130.012L312.744 129.439Z" fill="#DBDBDB"/>
<path d="M378.765 198.091L336.645 195.497L359.644 142.672L401.764 145.265L378.765 198.091Z" fill="white"/>
<path d="M381.648 198.266L339.527 195.673L362.526 142.848L404.647 145.441L381.648 198.266Z" fill="#455A64"/>
<path d="M367.004 143.129C366.65 144.049 365.953 144.797 365.059 145.214C364.639 145.405 364.563 144.871 364.983 144.693C365.536 144.423 365.984 143.975 366.254 143.421C366.254 143.32 366.343 143.218 366.381 143.129C366.509 142.802 366.552 142.448 366.508 142.099C366.478 141.952 366.403 141.819 366.292 141.718H366.216C366.116 141.692 366.011 141.692 365.911 141.718C365.723 141.765 365.552 141.862 365.415 141.997C365.162 142.249 364.94 142.531 364.754 142.837C364.748 142.87 364.748 142.905 364.754 142.938C364.754 142.938 364.754 142.938 364.754 143.015H364.156C364.316 142.652 364.526 142.314 364.779 142.01C364.979 141.744 365.233 141.524 365.525 141.364C365.816 141.204 366.139 141.108 366.47 141.082C366.706 141.095 366.929 141.196 367.094 141.366C367.259 141.535 367.354 141.761 367.36 141.997C367.332 142.397 367.21 142.785 367.004 143.129Z" fill="#0583F2"/>
<path d="M370.295 143.334C369.948 144.259 369.249 145.008 368.35 145.419C367.943 145.61 367.867 145.076 368.274 144.898C368.824 144.623 369.271 144.177 369.545 143.626C369.545 143.525 369.634 143.423 369.66 143.334C369.787 143.007 369.831 142.653 369.787 142.304C369.761 142.156 369.685 142.021 369.571 141.923H369.494C369.398 141.897 369.298 141.897 369.202 141.923C369.011 141.97 368.836 142.067 368.693 142.202C368.517 142.358 368.363 142.538 368.236 142.736C368.159 142.825 368.109 142.94 368.032 143.042C368.014 143.077 367.993 143.111 367.969 143.143C367.969 143.143 367.969 143.143 367.969 143.22H367.371C367.531 142.854 367.745 142.516 368.007 142.215C368.203 141.948 368.454 141.727 368.744 141.567C369.034 141.407 369.355 141.311 369.685 141.287C369.922 141.297 370.147 141.397 370.312 141.567C370.478 141.738 370.572 141.965 370.575 142.202C370.574 142.597 370.478 142.985 370.295 143.334Z" fill="#0583F2"/>
<path d="M373.591 143.533C373.422 143.991 373.164 144.41 372.832 144.768C372.501 145.126 372.102 145.415 371.659 145.618C371.239 145.809 371.163 145.275 371.57 145.097C372.12 144.822 372.566 144.376 372.841 143.826C372.841 143.724 372.93 143.622 372.955 143.533C373.089 143.207 373.133 142.852 373.083 142.503C373.057 142.355 372.98 142.22 372.866 142.122H372.777C372.681 142.097 372.581 142.097 372.485 142.122C372.295 142.172 372.12 142.268 371.976 142.402C371.807 142.561 371.658 142.741 371.531 142.936C371.456 143.032 371.388 143.134 371.328 143.241C371.326 143.275 371.326 143.309 371.328 143.343C371.328 143.343 371.328 143.343 371.328 143.419H370.73C370.895 143.056 371.109 142.718 371.366 142.414C371.563 142.149 371.815 141.928 372.105 141.768C372.394 141.608 372.715 141.512 373.044 141.486C373.282 141.496 373.506 141.596 373.672 141.767C373.837 141.937 373.931 142.164 373.934 142.402C373.914 142.801 373.796 143.19 373.591 143.533Z" fill="#0583F2"/>
<path d="M376.896 143.741C376.541 144.662 375.844 145.409 374.951 145.826C374.531 146.017 374.455 145.483 374.874 145.305C375.428 145.035 375.876 144.587 376.146 144.034C376.146 143.932 376.235 143.83 376.273 143.741C376.4 143.414 376.444 143.06 376.4 142.711C376.37 142.565 376.294 142.431 376.184 142.33H376.108C376.007 142.305 375.903 142.305 375.802 142.33C375.615 142.377 375.444 142.474 375.307 142.61C375.053 142.862 374.831 143.143 374.645 143.449V143.512C374.618 143.542 374.596 143.576 374.582 143.614C374.582 143.614 374.582 143.614 374.582 143.69H373.984C374.144 143.328 374.354 142.99 374.607 142.686C374.807 142.42 375.061 142.2 375.353 142.039C375.644 141.879 375.967 141.783 376.298 141.758C376.535 141.771 376.757 141.872 376.922 142.041C377.087 142.211 377.182 142.437 377.188 142.673C377.17 143.046 377.071 143.411 376.896 143.741Z" fill="#0583F2"/>
<path d="M380.138 143.942C379.791 144.867 379.091 145.617 378.193 146.027C377.786 146.218 377.71 145.684 378.116 145.506C378.667 145.231 379.113 144.785 379.388 144.235C379.388 144.133 379.477 144.031 379.502 143.942C379.636 143.617 379.68 143.261 379.629 142.913C379.604 142.764 379.527 142.629 379.413 142.531H379.337C379.241 142.506 379.14 142.506 379.045 142.531C378.854 142.579 378.678 142.675 378.536 142.811C378.359 142.967 378.205 143.146 378.078 143.345C378.002 143.434 377.951 143.548 377.875 143.65V143.713C377.877 143.747 377.877 143.781 377.875 143.815C377.875 143.815 377.875 143.815 377.875 143.891H377.277C377.437 143.526 377.651 143.188 377.913 142.887C378.109 142.62 378.36 142.399 378.65 142.239C378.94 142.079 379.261 141.983 379.591 141.959C379.829 141.969 380.053 142.069 380.219 142.239C380.384 142.41 380.478 142.637 380.481 142.874C380.451 143.252 380.334 143.618 380.138 143.942Z" fill="#0583F2"/>
<path d="M383.482 144.145C383.312 144.603 383.054 145.022 382.723 145.38C382.391 145.738 381.992 146.027 381.549 146.23C381.13 146.421 381.053 145.887 381.46 145.709C382.011 145.435 382.457 144.988 382.732 144.438C382.732 144.336 382.821 144.234 382.846 144.145C382.98 143.82 383.024 143.464 382.973 143.116C382.948 142.967 382.871 142.832 382.757 142.734H382.668C382.572 142.709 382.471 142.709 382.376 142.734C382.186 142.784 382.011 142.88 381.867 143.014C381.698 143.174 381.549 143.353 381.422 143.548C381.344 143.642 381.276 143.745 381.219 143.853V143.917C381.216 143.95 381.216 143.984 381.219 144.018C381.219 144.018 381.219 144.018 381.219 144.095H380.621C380.785 143.732 380.999 143.394 381.257 143.09C381.454 142.825 381.706 142.604 381.995 142.444C382.285 142.284 382.605 142.188 382.935 142.162C383.172 142.172 383.397 142.272 383.562 142.442C383.728 142.613 383.822 142.84 383.825 143.077C383.795 143.455 383.677 143.821 383.482 144.145Z" fill="#0583F2"/>
<path d="M386.785 144.347C386.431 145.267 385.734 146.014 384.84 146.432C384.421 146.622 384.344 146.088 384.764 145.91C385.318 145.64 385.765 145.193 386.035 144.639C386.035 144.537 386.124 144.436 386.162 144.347C386.29 144.019 386.334 143.665 386.29 143.317C386.259 143.17 386.184 143.037 386.073 142.935H385.997C385.898 142.904 385.791 142.904 385.692 142.935C385.505 142.983 385.333 143.079 385.196 143.215C385.02 143.371 384.866 143.551 384.738 143.749C384.661 143.844 384.592 143.946 384.535 144.054V144.118C384.53 144.151 384.53 144.186 384.535 144.219C384.535 144.219 384.535 144.219 384.535 144.296H383.938C384.097 143.933 384.307 143.595 384.56 143.291C384.76 143.025 385.014 142.805 385.306 142.645C385.597 142.485 385.92 142.389 386.251 142.363C386.488 142.376 386.71 142.477 386.875 142.647C387.04 142.817 387.135 143.042 387.141 143.279C387.104 143.657 386.982 144.022 386.785 144.347Z" fill="#0583F2"/>
<path d="M390.077 144.552C389.729 145.476 389.03 146.226 388.131 146.637C387.724 146.827 387.648 146.293 388.055 146.115C388.606 145.841 389.052 145.395 389.326 144.844C389.326 144.742 389.415 144.641 389.441 144.552C389.574 144.226 389.618 143.87 389.568 143.522C389.542 143.374 389.466 143.239 389.352 143.14H389.276C389.181 143.108 389.078 143.108 388.983 143.14C388.792 143.188 388.617 143.284 388.475 143.42C388.298 143.576 388.144 143.756 388.017 143.954C387.943 144.052 387.875 144.154 387.813 144.259V144.323C387.795 144.358 387.774 144.393 387.75 144.425C387.75 144.425 387.75 144.425 387.75 144.501H387.152C387.317 144.138 387.53 143.8 387.788 143.496C387.984 143.23 388.236 143.008 388.525 142.848C388.815 142.688 389.136 142.592 389.466 142.568C389.704 142.578 389.928 142.678 390.094 142.849C390.259 143.019 390.353 143.246 390.356 143.484C390.346 143.856 390.25 144.222 390.077 144.552Z" fill="#0583F2"/>
<path d="M393.372 144.752C393.203 145.209 392.945 145.629 392.614 145.987C392.282 146.345 391.883 146.633 391.44 146.837C391.02 147.028 390.944 146.494 391.351 146.316C391.901 146.041 392.348 145.595 392.622 145.044C392.622 144.943 392.711 144.841 392.737 144.752C392.87 144.426 392.914 144.071 392.864 143.722C392.838 143.574 392.762 143.439 392.648 143.341H392.559C392.464 143.31 392.361 143.31 392.266 143.341C392.076 143.391 391.902 143.487 391.758 143.62C391.589 143.78 391.439 143.959 391.313 144.154C391.235 144.249 391.167 144.351 391.109 144.46V144.561C391.109 144.561 391.109 144.561 391.109 144.638H390.512C390.676 144.275 390.89 143.937 391.147 143.633C391.345 143.367 391.596 143.147 391.886 142.987C392.175 142.827 392.496 142.731 392.826 142.705C393.063 142.715 393.287 142.815 393.453 142.985C393.619 143.156 393.712 143.383 393.716 143.62C393.696 144.02 393.578 144.409 393.372 144.752Z" fill="#0583F2"/>
<path d="M396.665 144.936C396.311 145.856 395.614 146.603 394.72 147.021C394.301 147.211 394.224 146.677 394.644 146.499C395.198 146.229 395.645 145.782 395.915 145.228C395.915 145.126 396.004 145.025 396.042 144.936C396.17 144.608 396.213 144.254 396.169 143.906C396.139 143.759 396.064 143.626 395.953 143.524H395.877C395.778 143.493 395.671 143.493 395.572 143.524C395.385 143.572 395.213 143.668 395.076 143.804C394.9 143.96 394.746 144.14 394.618 144.338C394.541 144.433 394.472 144.535 394.415 144.643C394.388 144.673 394.366 144.707 394.351 144.745C394.351 144.745 394.351 144.745 394.351 144.821H393.754C393.913 144.459 394.123 144.121 394.377 143.817C394.577 143.551 394.831 143.33 395.122 143.17C395.414 143.01 395.736 142.914 396.068 142.889C396.304 142.901 396.527 143.003 396.692 143.172C396.857 143.342 396.952 143.568 396.958 143.804C396.949 144.199 396.849 144.586 396.665 144.936Z" fill="#0583F2"/>
<path d="M399.97 145.166C399.623 146.091 398.923 146.84 398.025 147.251C397.618 147.442 397.542 146.908 397.948 146.73C398.499 146.455 398.945 146.009 399.22 145.458C399.22 145.357 399.309 145.255 399.334 145.166C399.468 144.84 399.512 144.485 399.461 144.136C399.436 143.988 399.359 143.853 399.245 143.755H399.169C399.074 143.723 398.971 143.723 398.877 143.755C398.686 143.802 398.51 143.899 398.368 144.035C398.191 144.19 398.037 144.37 397.91 144.568C397.837 144.666 397.769 144.768 397.707 144.874C397.709 144.907 397.709 144.941 397.707 144.975C397.707 144.975 397.707 144.975 397.707 145.052H397.109C397.274 144.689 397.488 144.351 397.745 144.047C397.941 143.78 398.193 143.559 398.482 143.399C398.772 143.239 399.093 143.143 399.423 143.119C399.661 143.129 399.885 143.229 400.051 143.399C400.216 143.57 400.31 143.797 400.313 144.035C400.293 144.434 400.175 144.823 399.97 145.166Z" fill="#0583F2"/>
<path d="M403.263 145.366C403.094 145.824 402.836 146.243 402.504 146.601C402.173 146.959 401.774 147.248 401.33 147.451C400.911 147.642 400.835 147.108 401.241 146.93C401.792 146.655 402.238 146.209 402.513 145.659C402.513 145.557 402.602 145.455 402.627 145.366C402.761 145.04 402.805 144.685 402.754 144.336C402.729 144.188 402.652 144.053 402.538 143.955H402.449C402.354 143.924 402.252 143.924 402.157 143.955C401.967 144.005 401.792 144.101 401.648 144.235C401.479 144.394 401.33 144.574 401.203 144.769C401.125 144.863 401.057 144.965 401 145.074V145.137C400.998 145.171 400.998 145.205 401 145.239C401 145.239 401 145.239 401 145.315H400.402C400.567 144.953 400.78 144.615 401.038 144.311C401.235 144.045 401.487 143.825 401.776 143.665C402.066 143.505 402.386 143.409 402.716 143.383C402.954 143.393 403.178 143.493 403.344 143.663C403.509 143.833 403.603 144.061 403.606 144.298C403.576 144.676 403.459 145.042 403.263 145.366Z" fill="#0583F2"/>
<path d="M400.939 157.521C402.528 162.327 407.295 168.646 407.295 172.422C407.337 173.368 407.066 174.302 406.524 175.079C405.981 175.856 405.198 176.432 404.295 176.719C404.295 176.719 407.779 179.02 407.207 182.44C406.901 184.207 403.837 185.275 403.837 185.275C404.598 185.842 405.187 186.606 405.541 187.485C405.896 188.364 406.001 189.324 405.846 190.259C405.287 192.662 402.299 193.374 402.299 193.374C402.299 193.374 404.015 196.476 402.668 198.739C399.922 203.316 378.957 200.735 376.668 192.611C375.6 188.797 380.686 189.738 380.686 189.738C380.686 189.738 373.681 186.661 374.1 182.326C374.52 177.99 381.067 179.567 381.067 179.567C381.067 179.567 374.304 176.528 375.194 172.079C376.122 167.438 382.389 170.146 382.389 170.146C382.389 170.146 378.118 166.408 379.58 163.154C381.995 157.788 389.967 165.887 394.709 165.366L398.18 158.081L400.939 157.521Z" fill="#F7A9A0"/>
<path d="M404.29 164.639C403.172 159.948 409.376 155.091 408.994 150.451C408.422 144.183 400.807 149.319 398.175 158.016L397.336 165.11L404.29 164.639Z" fill="#F7A9A0"/>
<path d="M403.951 185.277C404.04 185.277 404.04 185.416 403.951 185.429C395.802 186.333 387.598 184.29 380.825 179.67C380.583 179.492 380.545 179.11 380.825 179.288C385.567 182.213 397.136 185.022 403.951 185.277Z" fill="#263238"/>
<path d="M382.03 169.563C388.705 174.026 396.117 175.92 404.025 176.708C404.126 176.708 404.101 176.861 404.025 176.873C400.045 177.535 395.125 176.479 391.311 175.335C387.758 174.341 384.528 172.434 381.941 169.805C381.776 169.703 381.89 169.474 382.03 169.563Z" fill="#263238"/>
<path d="M561.524 246.648H74.1719V281.547H561.524V246.648Z" fill="#9BCDFA"/>
<path d="M551.913 281.547H83.7578V484.101H551.913V281.547Z" fill="#9BCDFA"/>
<path d="M551.913 281.547H83.7578V302.944H551.913V281.547Z" fill="#0583F2"/>
<path d="M208.57 385.925C208.574 385.683 208.671 385.452 208.842 385.282C209.013 385.111 209.244 385.013 209.486 385.01H217.038C219.061 385.01 221.001 385.813 222.432 387.244C223.862 388.675 224.666 390.615 224.666 392.638C224.666 394.661 223.862 396.601 222.432 398.032C221.001 399.462 219.061 400.266 217.038 400.266L210.439 400.342V410.831C210.412 411.06 210.302 411.272 210.13 411.425C209.958 411.578 209.735 411.663 209.505 411.663C209.274 411.663 209.052 411.578 208.879 411.425C208.707 411.272 208.597 411.06 208.57 410.831V385.925ZM217.038 398.435C218.523 398.366 219.925 397.726 220.952 396.65C221.978 395.574 222.551 394.144 222.551 392.657C222.551 391.17 221.978 389.74 220.952 388.664C219.925 387.588 218.523 386.948 217.038 386.879H210.439V398.435H217.038Z" fill="#1F1F1F"/>
<path d="M250.218 399.275H236.474V410.793C236.448 411.022 236.338 411.234 236.165 411.387C235.993 411.54 235.771 411.625 235.54 411.625C235.309 411.625 235.087 411.54 234.914 411.387C234.742 411.234 234.632 411.022 234.605 410.793V385.925C234.632 385.696 234.742 385.485 234.914 385.332C235.087 385.178 235.309 385.094 235.54 385.094C235.771 385.094 235.993 385.178 236.165 385.332C236.338 385.485 236.448 385.696 236.474 385.925V397.444H250.205V385.925C250.232 385.696 250.342 385.485 250.514 385.332C250.686 385.178 250.909 385.094 251.14 385.094C251.37 385.094 251.593 385.178 251.765 385.332C251.937 385.485 252.047 385.696 252.074 385.925V410.793C252.047 411.022 251.937 411.234 251.765 411.387C251.593 411.54 251.37 411.625 251.14 411.625C250.909 411.625 250.686 411.54 250.514 411.387C250.342 411.234 250.232 411.022 250.205 410.793L250.218 399.275Z" fill="#1F1F1F"/>
<path d="M277.604 404.809H265.437L263.072 411.166C263.005 411.344 262.885 411.499 262.728 411.608C262.572 411.716 262.385 411.775 262.195 411.776H261.851C261.613 411.677 261.422 411.488 261.322 411.25C261.222 411.012 261.221 410.744 261.317 410.505L270.586 385.751C270.669 385.58 270.799 385.435 270.961 385.334C271.123 385.232 271.31 385.179 271.501 385.179C271.694 385.169 271.885 385.218 272.049 385.321C272.213 385.423 272.341 385.573 272.416 385.751L281.685 410.505C281.737 410.62 281.766 410.746 281.769 410.873C281.773 411 281.751 411.126 281.704 411.245C281.658 411.363 281.589 411.471 281.5 411.562C281.412 411.654 281.306 411.726 281.189 411.776C281.036 411.776 280.96 411.776 280.845 411.776C280.656 411.77 280.472 411.709 280.316 411.601C280.161 411.493 280.04 411.342 279.968 411.166L277.604 404.809ZM266.161 402.94H276.955L271.577 388.599L266.161 402.94Z" fill="#1F1F1F"/>
<path d="M304.721 405.682C304.724 404.881 304.526 404.091 304.146 403.385C303.767 402.679 303.217 402.079 302.547 401.639C301.616 400.994 300.566 400.54 299.458 400.304C299.343 400.304 299.305 400.228 299.267 400.228H292.783V410.793C292.756 411.022 292.646 411.233 292.474 411.387C292.302 411.54 292.079 411.625 291.848 411.625C291.618 411.625 291.395 411.54 291.223 411.387C291.051 411.233 290.941 411.022 290.914 410.793V385.925C290.919 385.697 291.007 385.478 291.161 385.309C291.316 385.141 291.526 385.034 291.753 385.01H299.381C301.112 385.019 302.788 385.617 304.134 386.704C305.481 387.792 306.417 389.305 306.79 390.996C307.162 392.686 306.949 394.452 306.185 396.005C305.421 397.558 304.152 398.805 302.585 399.542C302.708 399.613 302.836 399.676 302.967 399.732C304.047 400.306 304.952 401.163 305.583 402.211C306.215 403.259 306.55 404.459 306.552 405.682C306.508 406.723 306.624 407.765 306.895 408.772C306.961 409.018 307.093 409.243 307.277 409.42C307.491 409.398 307.707 409.445 307.892 409.555C308.078 409.665 308.223 409.832 308.306 410.03C308.382 410.28 308.362 410.549 308.249 410.785C308.136 411.02 307.939 411.205 307.696 411.302C307.544 411.31 307.391 411.31 307.238 411.302H307.162C306.789 411.26 306.434 411.121 306.132 410.897C305.831 410.674 305.594 410.375 305.446 410.03C304.864 408.658 304.616 407.168 304.721 405.682ZM299.381 386.879H292.783V398.397H299.534C301.061 398.377 302.518 397.751 303.584 396.656C304.65 395.562 305.237 394.089 305.217 392.562C305.197 391.034 304.57 389.577 303.476 388.512C302.382 387.446 300.909 386.858 299.381 386.879Z" fill="#1F1F1F"/>
<path d="M339.698 388.827L331.154 400.689C331.074 400.818 330.961 400.925 330.828 400.998C330.694 401.071 330.544 401.109 330.391 401.108H330.315C330.156 401.119 329.997 401.085 329.855 401.011C329.714 400.937 329.596 400.826 329.514 400.689L320.971 388.865V410.796C320.944 411.025 320.834 411.236 320.662 411.39C320.489 411.543 320.267 411.628 320.036 411.628C319.805 411.628 319.583 411.543 319.411 411.39C319.238 411.236 319.128 411.025 319.102 410.796V386.081C319.1 385.938 319.134 385.797 319.201 385.67C319.268 385.544 319.364 385.436 319.483 385.356C319.483 385.356 319.483 385.356 319.559 385.28C319.762 385.154 320.004 385.108 320.239 385.15C320.474 385.193 320.684 385.32 320.831 385.508L330.328 398.667L339.787 385.508C339.931 385.318 340.142 385.188 340.378 385.146C340.613 385.104 340.856 385.151 341.058 385.28C341.158 385.372 341.247 385.474 341.325 385.585C341.409 385.738 341.461 385.907 341.478 386.081V410.796C341.474 411.038 341.377 411.269 341.206 411.44C341.035 411.61 340.804 411.708 340.562 411.711C340.442 411.713 340.322 411.69 340.21 411.645C340.098 411.6 339.996 411.532 339.911 411.447C339.826 411.362 339.758 411.26 339.713 411.148C339.668 411.036 339.645 410.917 339.647 410.796L339.698 388.827Z" fill="#1F1F1F"/>
<path d="M367.232 404.809H355.065L352.701 411.166C352.634 411.344 352.514 411.499 352.357 411.608C352.2 411.716 352.014 411.775 351.823 411.776H351.48C351.241 411.677 351.051 411.488 350.951 411.25C350.851 411.012 350.85 410.744 350.946 410.505L360.214 385.751C360.298 385.58 360.428 385.435 360.59 385.334C360.752 385.232 360.939 385.179 361.13 385.179C361.323 385.169 361.514 385.218 361.678 385.321C361.842 385.423 361.97 385.573 362.045 385.751L371.313 410.505C371.366 410.62 371.395 410.746 371.398 410.873C371.402 411 371.38 411.126 371.333 411.245C371.287 411.363 371.218 411.471 371.129 411.562C371.041 411.654 370.935 411.726 370.818 411.776C370.665 411.776 370.589 411.776 370.474 411.776C370.285 411.77 370.101 411.709 369.945 411.601C369.789 411.493 369.668 411.342 369.597 411.166L367.232 404.809ZM355.79 402.94H366.584L361.206 388.599L355.79 402.94Z" fill="#1F1F1F"/>
<path d="M392.254 384.631C395.372 384.634 398.402 385.667 400.874 387.568C400.973 387.645 401.055 387.74 401.116 387.85C401.177 387.959 401.216 388.079 401.23 388.203C401.245 388.327 401.234 388.453 401.199 388.573C401.164 388.694 401.105 388.805 401.026 388.903C400.957 389.001 400.869 389.084 400.766 389.147C400.664 389.21 400.55 389.252 400.431 389.269C400.313 389.287 400.191 389.281 400.075 389.251C399.959 389.22 399.85 389.167 399.755 389.093C397.615 387.438 394.985 386.544 392.279 386.551C389.184 386.551 386.215 387.78 384.027 389.969C381.838 392.158 380.608 395.126 380.608 398.222C380.608 401.317 381.838 404.286 384.027 406.474C386.215 408.663 389.184 409.893 392.279 409.893C394.969 409.949 397.591 409.048 399.679 407.35C399.879 407.216 400.123 407.164 400.361 407.207C400.598 407.25 400.809 407.383 400.95 407.579C401.036 407.671 401.102 407.781 401.143 407.9C401.185 408.019 401.2 408.146 401.189 408.272C401.179 408.398 401.142 408.52 401.081 408.63C401.02 408.741 400.936 408.838 400.836 408.914C398.361 410.804 395.33 411.823 392.216 411.813C388.625 411.813 385.181 410.386 382.642 407.847C380.102 405.308 378.676 401.864 378.676 398.273C378.676 394.682 380.102 391.238 382.642 388.698C385.181 386.159 388.625 384.733 392.216 384.733L392.254 384.631Z" fill="#1F1F1F"/>
<path d="M419.335 398.898L410.372 386.655C410.248 386.455 410.199 386.217 410.234 385.984C410.269 385.751 410.385 385.538 410.563 385.383C410.655 385.306 410.762 385.249 410.877 385.214C410.992 385.18 411.112 385.17 411.232 385.184C411.351 385.198 411.466 385.237 411.569 385.297C411.673 385.358 411.763 385.439 411.834 385.536L420.187 396.978L428.578 385.536C428.649 385.439 428.739 385.358 428.843 385.297C428.947 385.237 429.062 385.198 429.181 385.184C429.3 385.17 429.421 385.18 429.536 385.214C429.651 385.249 429.758 385.306 429.85 385.383C430.042 385.528 430.17 385.742 430.206 385.98C430.241 386.218 430.182 386.46 430.04 386.655L421.141 398.822V410.798C421.142 410.919 421.12 411.038 421.074 411.15C421.029 411.262 420.962 411.364 420.876 411.449C420.791 411.534 420.689 411.602 420.578 411.647C420.466 411.692 420.346 411.715 420.225 411.713C419.984 411.71 419.753 411.612 419.582 411.441C419.411 411.271 419.313 411.04 419.31 410.798L419.335 398.898Z" fill="#1F1F1F"/>
<path d="M551.913 373.277H83.7578V374.549H551.913V373.277Z" fill="white"/>
<path d="M551.913 369.615H83.7578V370.887H551.913V369.615Z" fill="white"/>
<path d="M551.913 425.785H83.7578V427.057H551.913V425.785Z" fill="white"/>
<path d="M551.913 422.105H83.7578V423.377H551.913V422.105Z" fill="white"/>
<circle cx="301.952" cy="340.094" r="24.7916" fill="#E0E0E0"/>
<circle cx="301.95" cy="340.093" r="23.5203" fill="#FAFAFA"/>
<path d="M305.971 323H298.023V357H305.971V323Z" fill="#0583F2"/>
<path d="M319 343.973V336.025H285V343.973H319Z" fill="#0583F2"/>
<path d="M543.914 409.826C543.914 409.826 564.116 405.236 575.19 395.04C586.263 384.844 592.455 366.549 592.455 366.549C584.774 368.029 577.201 370.021 569.786 372.512C567.01 375.367 564.697 378.641 562.934 382.212C562.759 379.906 562.759 377.589 562.934 375.283C560.347 376.4 557.925 377.868 555.738 379.644C546.508 387.666 543.914 409.826 543.914 409.826Z" fill="#0583F2"/>
<path d="M579.846 375.435C582.593 373.528 585.402 371.698 588.136 369.765C588.171 369.743 588.196 369.708 588.206 369.668C588.215 369.627 588.209 369.584 588.187 369.549C588.165 369.514 588.13 369.488 588.089 369.479C588.049 369.469 588.006 369.476 587.97 369.498C582.771 372.613 577.634 375.931 572.714 379.415C570.985 380.623 569.294 381.894 567.629 383.229L567.985 382.631C568.595 381.614 569.256 380.623 569.866 379.631C571.136 377.603 572.574 375.685 574.163 373.897C574.163 373.833 574.163 373.732 574.062 373.808C572.485 375.613 570.921 377.419 569.485 379.338C568.798 380.254 568.213 381.207 567.565 382.174C567.251 382.665 566.946 383.174 566.65 383.699C566.561 383.865 566.446 384.043 566.345 384.221C563.802 386.267 561.259 388.403 558.716 390.666C557.216 392.065 555.767 393.514 554.368 395.014C555.157 392.561 555.83 390.094 556.746 387.679C556.746 387.602 556.644 387.564 556.606 387.679C555.729 390.221 554.762 392.764 554.063 395.307C552.512 397.002 551.037 398.74 549.639 400.519L549.715 400.189C549.944 399.235 550.173 398.282 550.427 397.341C550.923 395.51 551.457 393.692 552.08 391.9C553.235 388.176 555.077 384.7 557.509 381.652C557.509 381.652 557.509 381.487 557.407 381.551C553.624 386.274 550.975 391.802 549.664 397.71C549.452 398.557 549.249 399.405 549.054 400.252C548.952 400.71 548.825 401.181 548.749 401.651C548.139 402.477 547.541 403.316 546.969 404.194C543.525 409.457 540.656 415.074 538.413 420.95C535.889 427.566 533.728 434.314 531.941 441.165C531.941 441.192 531.952 441.218 531.971 441.237C531.99 441.256 532.016 441.267 532.043 441.267C532.07 441.267 532.096 441.256 532.115 441.237C532.134 441.218 532.145 441.192 532.145 441.165C536.099 429.341 540.129 417.352 546.905 406.838C548.328 404.608 549.864 402.452 551.508 400.38C554.856 400.164 558.16 399.506 561.335 398.422C564.807 397.258 568.117 395.66 571.188 393.667C572.949 392.485 574.646 391.212 576.274 389.853C576.281 389.847 576.286 389.84 576.29 389.832C576.294 389.824 576.296 389.815 576.297 389.806C576.297 389.797 576.296 389.789 576.293 389.78C576.291 389.772 576.286 389.764 576.28 389.757C576.274 389.751 576.267 389.745 576.259 389.741C576.251 389.737 576.243 389.735 576.234 389.734C576.225 389.734 576.216 389.735 576.208 389.738C576.199 389.741 576.192 389.745 576.185 389.751C573.365 392.026 570.252 393.912 566.929 395.358C563.667 396.847 560.258 397.994 556.758 398.778C555.271 399.096 553.758 399.337 552.245 399.541C554.087 397.208 556.052 394.976 558.132 392.853C558.818 392.167 559.517 391.582 560.229 390.857C562.583 389.211 565.081 387.781 567.692 386.585C570.998 384.983 574.265 383.292 577.545 381.627C579.389 380.686 581.22 379.72 583.088 378.805C583.165 378.805 583.088 378.652 583.012 378.69C579.694 380.292 576.325 381.792 572.968 383.331C569.815 384.78 566.612 386.229 563.598 387.933C563.459 387.933 563.344 388.085 563.217 388.149C565.95 385.772 568.786 383.496 571.684 381.309C574.367 379.326 577.075 377.342 579.846 375.435Z" fill="#263238"/>
<path d="M578.689 385.848C577.049 386.572 575.371 387.208 573.743 387.971C572.116 388.734 570.489 389.674 568.899 390.615C568.836 390.615 568.899 390.755 568.899 390.717C570.514 389.941 572.141 389.23 573.743 388.416C575.345 387.602 576.998 386.725 578.663 385.988C578.679 385.985 578.692 385.977 578.703 385.966C578.714 385.955 578.721 385.941 578.724 385.926C578.727 385.911 578.725 385.896 578.719 385.882C578.712 385.868 578.702 385.856 578.689 385.848Z" fill="#263238"/>
<path d="M478.273 307.99C482.006 312.808 484.119 318.681 484.312 324.772C484.376 326.59 484.084 329.108 483.88 332.083C488.936 335.002 493.417 338.819 497.102 343.347C493.067 341.008 488.436 339.899 483.778 340.156C483.88 342.186 484.139 344.205 484.554 346.195C487.493 346.207 490.403 346.786 493.123 347.898C490.469 347.868 487.837 348.387 485.393 349.424C488.991 360.866 499.696 372.665 529.268 377.661C532.4 363.607 530.548 348.901 524.03 336.062C515.13 318.632 478.273 307.99 478.273 307.99Z" fill="#0583F2"/>
<path d="M539.466 426.696C538.949 421.797 538.309 416.915 537.546 412.05C536.05 402.31 534.06 392.652 531.584 383.114C530.427 378.649 529 374.259 527.312 369.968C527.401 369.179 527.439 368.384 527.426 367.59C527.426 366.65 527.426 365.696 527.426 364.755C527.426 362.861 527.325 360.941 527.159 359.085C526.86 355.346 526.251 351.638 525.341 347.999C524.794 345.888 524.171 343.816 523.549 341.731C523.549 341.655 523.396 341.731 523.421 341.731C524.404 345.367 525.135 349.067 525.608 352.804C526.135 356.48 526.466 360.18 526.6 363.891C526.6 364.908 526.6 365.925 526.6 366.942C526.6 367.374 526.6 367.806 526.6 368.213C525.145 364.68 523.481 361.237 521.616 357.903C518.596 352.616 515.197 347.556 511.445 342.761C511.434 342.202 511.353 341.646 511.204 341.108C511.064 340.447 510.924 339.836 510.771 339.124C510.466 337.777 510.123 336.442 509.767 335.094C509.03 332.424 508.063 329.831 507.224 327.186C507.218 327.173 507.208 327.161 507.196 327.153C507.184 327.145 507.169 327.141 507.154 327.141C507.139 327.141 507.125 327.145 507.112 327.153C507.1 327.161 507.09 327.173 507.084 327.186C507.873 329.805 508.356 332.526 508.991 335.183C509.284 336.455 509.576 337.828 509.856 339.15C510.009 339.798 510.148 340.421 510.288 341.121C510.282 341.171 510.282 341.222 510.288 341.273C509.093 339.764 507.873 338.277 506.627 336.811C500.982 330.2 494.79 324.097 488.561 318.02C487.798 317.282 487.01 316.545 486.234 315.82C486.17 315.757 486.081 315.82 486.132 315.922C492.095 322.126 497.956 328.407 503.499 334.993C504.77 336.544 506.118 338.133 507.402 339.735L505.381 338.463C503.664 337.332 501.923 336.238 500.13 335.234C498.337 334.23 496.519 333.251 494.676 332.335C492.832 331.42 490.76 330.632 488.929 329.564C488.853 329.564 488.777 329.653 488.866 329.691C490.736 330.549 492.538 331.548 494.256 332.679C496.062 333.73 497.85 334.815 499.621 335.933C501.363 337.039 503.105 338.12 504.834 339.252C506.271 340.18 507.682 341.197 509.182 342.061C512.631 346.471 515.815 351.082 518.717 355.868C520.504 358.878 522.137 361.975 523.612 365.149L522.544 364.692L519.836 363.42C518.107 362.645 516.353 361.895 514.611 361.145C511.293 359.695 507.923 358.373 504.669 356.784C502.837 355.925 501.066 354.944 499.367 353.847C499.291 353.847 499.227 353.91 499.304 353.961C505.368 358.144 512.157 361.081 518.87 364.056L521.781 365.327C522.57 365.683 523.371 366.077 524.197 366.383C526.203 370.842 527.89 375.439 529.244 380.139C531.896 389.553 534.043 399.102 535.677 408.744C537.381 418.394 538.525 428.12 539.415 437.884C539.517 439.156 539.631 440.312 539.771 441.533C539.788 441.624 539.836 441.706 539.906 441.765C539.977 441.824 540.067 441.857 540.159 441.857C540.251 441.857 540.341 441.824 540.411 441.765C540.482 441.706 540.53 441.624 540.547 441.533C540.483 436.587 539.975 431.616 539.466 426.696Z" fill="#263238"/>
<path d="M521.477 345.052C520.93 342.039 520.129 339.102 519.328 336.153C519.328 336.064 519.176 336.153 519.188 336.153C519.938 339.039 520.46 341.988 521.019 344.913C521.578 347.837 522.062 350.901 522.481 353.914C522.481 353.914 522.57 353.914 522.557 353.914C522.368 350.942 522.007 347.983 521.477 345.052Z" fill="#263238"/>
<path d="M508.737 353.199C506.678 351.847 504.529 350.636 502.304 349.576C501.224 349.016 500.13 348.495 499.05 347.961C497.969 347.427 496.748 346.97 495.63 346.41C495.553 346.41 495.49 346.486 495.63 346.525C496.71 347.071 497.74 347.72 498.795 348.304C499.851 348.889 500.982 349.576 502.075 350.097C504.249 351.254 506.373 352.551 508.636 353.492C508.669 353.491 508.702 353.48 508.729 353.46C508.756 353.44 508.777 353.413 508.788 353.381C508.799 353.349 508.8 353.315 508.791 353.282C508.782 353.25 508.763 353.221 508.737 353.199Z" fill="#263238"/>
<path opacity="0.1" d="M544.281 374.83C544.281 374.83 562.97 370.355 571.565 357.819C579.752 345.83 582.41 325.412 582.613 323.619C582.282 325.272 578.417 343.109 565.691 351.424C555.952 357.793 546.532 363.031 544.281 374.83Z" fill="#263238"/>
<path d="M561.535 342.522C558.208 345.576 555.818 349.514 554.645 353.876C556.021 349.621 558.397 345.758 561.573 342.611C561.688 342.56 561.599 342.459 561.535 342.522Z" fill="#263238"/>
<path d="M544.284 374.824C544.284 374.824 562.973 370.349 571.568 357.813C579.755 345.824 582.412 325.406 582.616 323.613C582.622 323.571 582.622 323.528 582.616 323.486C582.616 323.486 573.716 336.2 564.219 339.493C554.722 342.786 541.602 353.986 544.284 374.824Z" fill="#0583F2"/>
<path d="M579.323 330.557C577.651 333.994 575.721 337.301 573.551 340.448C571.367 343.429 568.778 346.09 565.86 348.356C563.317 350.377 560.634 352.17 558.066 354.179V354.09C558.549 353.365 559.07 352.679 559.604 351.992C560.672 350.632 561.842 349.335 563.012 348.064C565.338 345.521 567.716 343.067 569.801 340.334C570.955 338.826 571.955 337.208 572.788 335.502C572.788 335.426 572.699 335.388 572.661 335.502C569.635 341.859 563.571 345.864 559.248 351.204C558.632 351.962 558.055 352.752 557.519 353.569C557.094 354.159 556.736 354.794 556.451 355.463C554.094 357.362 551.961 359.525 550.095 361.909C550.254 360.684 550.505 359.473 550.845 358.285C551.279 356.619 551.947 355.023 552.828 353.543C552.828 353.467 552.752 353.391 552.714 353.467C551.804 354.944 551.07 356.523 550.527 358.171C550.139 359.486 549.913 360.844 549.853 362.214C548.922 363.467 548.072 364.779 547.31 366.142C547.387 365.748 547.463 365.341 547.552 364.947C547.921 363.078 548.327 361.222 548.823 359.391C549.698 355.643 551.221 352.076 553.324 348.852C553.334 348.837 553.338 348.818 553.334 348.8C553.331 348.782 553.32 348.767 553.305 348.756C553.29 348.746 553.271 348.743 553.253 348.746C553.235 348.75 553.22 348.76 553.209 348.775C551.065 351.957 549.387 355.429 548.226 359.086C547.628 360.917 547.145 362.786 546.725 364.668C546.522 365.583 546.344 366.511 546.166 367.439C546.077 367.91 545.975 368.405 545.899 368.889C544.039 372.972 542.591 377.231 541.576 381.602C539.743 389.391 538.414 397.29 537.597 405.25C536.64 413.58 536.215 421.962 536.326 430.346C536.326 431.402 536.402 432.457 536.466 433.499C536.466 433.779 536.885 433.817 536.898 433.499C537.089 429.355 537.19 425.197 537.432 421.053C537.673 416.908 538.042 412.763 538.487 408.631C539.344 400.515 540.643 392.451 542.377 384.475C543.903 377.636 545.861 370.757 549.599 364.769C551.458 361.789 553.731 359.088 556.35 356.747C558.969 354.395 561.829 352.335 564.601 350.149C567.397 348.028 569.936 345.587 572.166 342.876C574.448 339.854 576.44 336.623 578.116 333.227L579.463 330.684C579.489 330.557 579.374 330.442 579.323 330.557Z" fill="#263238"/>
<path d="M576.108 333.264C574.877 335.78 573.484 338.213 571.938 340.549C571.938 340.549 571.938 340.65 572.027 340.549C573.63 338.237 575.037 335.796 576.235 333.251C576.273 333.226 576.146 333.188 576.108 333.264Z" fill="#263238"/>
<path d="M475.668 366.549C475.668 366.549 475.363 393.12 491.255 400.787C507.147 408.453 515.666 402.058 526.459 404.601C526.04 403.965 518.335 392.892 506.118 389.84C493.455 386.725 479.482 377.597 475.668 366.549Z" fill="#0583F2"/>
<path opacity="0.1" d="M475.668 366.549C475.668 366.549 475.363 393.12 491.255 400.787C507.147 408.453 515.666 402.058 526.459 404.601C520.754 401.888 514.658 400.09 508.393 399.274C498.375 398.091 479.215 391.582 475.668 366.549Z" fill="black"/>
<path d="M527.502 405.118C525.601 403.39 523.46 401.947 521.145 400.833C520.802 400.668 520.459 400.541 520.103 400.388C519.747 400.236 519.76 399.981 519.569 399.778C519.098 399.282 518.603 398.812 518.081 398.354C517.081 397.497 516.009 396.727 514.877 396.053C512.246 394.502 509.372 393.421 506.677 391.985C506.662 391.983 506.647 391.986 506.633 391.994C506.62 392.001 506.609 392.013 506.602 392.026C506.595 392.04 506.593 392.056 506.595 392.071C506.597 392.086 506.603 392.1 506.614 392.112C507.885 392.798 509.233 393.561 510.517 394.311C511.801 395.061 513.059 395.748 514.331 396.536C515.436 397.244 516.485 398.034 517.471 398.901C517.751 399.142 518.018 399.409 518.297 399.676C516.537 399.087 514.741 398.612 512.92 398.252C510.008 397.668 507.071 397.248 504.173 396.625C502.746 396.324 501.337 395.946 499.952 395.494C498.68 394.426 497.32 393.37 496.074 392.226C494.558 390.849 493.182 389.324 491.967 387.675C491.967 387.598 491.789 387.675 491.853 387.738C493.777 390.349 495.957 392.759 498.362 394.934C497.676 394.667 497.002 394.387 496.328 394.082C490.873 391.638 486.19 387.747 482.788 382.831C482.788 382.754 482.623 382.831 482.674 382.894C485.561 387.114 489.288 390.693 493.62 393.409C495.793 394.771 498.119 395.871 500.549 396.689C503.365 397.558 506.237 398.237 509.144 398.723C511.994 399.183 514.807 399.85 517.56 400.719C520.096 401.579 522.482 402.831 524.629 404.431C528.676 407.577 531.936 411.62 534.151 416.242C536.987 422.374 538.758 428.943 539.389 435.669C539.389 435.961 539.86 435.961 539.847 435.669C539.059 424.493 536.109 412.873 527.502 405.118Z" fill="#263238"/>
<path d="M509.067 396.449C508.236 395.21 507.114 394.193 505.8 393.487C504.29 392.701 502.965 391.605 501.909 390.27C501.909 390.207 501.744 390.27 501.795 390.346C502.75 391.565 503.912 392.607 505.228 393.423C506.673 394.185 507.945 395.237 508.965 396.513C509.003 396.576 509.105 396.513 509.067 396.449Z" fill="#263238"/>
<path d="M517.496 424.73L518.221 439.338L520.433 483.989H553.768L555.98 439.338L556.705 424.73H517.496Z" fill="#455A64"/>
<path d="M517.496 424.73L518.221 439.338H555.98L556.705 424.73H517.496Z" fill="#263238"/>
<path d="M515.172 432.572H559.047V418.638H515.172V432.572Z" fill="#455A64"/>
<path d="M414.921 246.649H354.238V241.933L414.921 239.975V246.649Z" fill="#455A64"/>
<path d="M462.608 246.566H422.573C419.166 246.566 424.112 236.841 436.558 233.103C449.005 229.365 466.588 242.918 462.608 246.566Z" fill="#37474F"/>
<path d="M446.894 246.569C446.798 245.441 446.902 244.305 447.199 243.213C447.473 242.111 447.901 241.054 448.47 240.072C449.065 239.103 449.822 238.243 450.708 237.53C451.584 236.801 452.608 236.272 453.708 235.979C452.891 236.684 452.118 237.44 451.395 238.242C450.711 239.034 450.099 239.885 449.564 240.784C448.503 242.629 447.609 244.565 446.894 246.569Z" fill="#263238"/>
<path d="M451.648 237.311C452.881 237.558 454.081 237.95 455.221 238.48C456.374 239 457.476 239.626 458.514 240.349C459.57 241.085 460.509 241.976 461.298 242.994C462.141 243.991 462.592 245.261 462.569 246.566C462.119 245.445 461.414 244.443 460.51 243.642C459.65 242.817 458.723 242.064 457.738 241.392C455.819 239.98 453.721 238.734 451.648 237.311Z" fill="#263238"/>
<path d="M491.343 227.74H394.02L409.505 155.285H506.815L491.343 227.74Z" fill="#455A64"/>
<path d="M494.94 227.74H397.617L413.102 155.285H510.413L494.94 227.74Z" fill="#37474F"/>
<path d="M442.444 201.765H440.168L443.626 185.504H445.915L442.444 201.765Z" fill="#263238"/>
<path d="M446.96 201.765H444.672L448.143 185.504H450.418L446.96 201.765Z" fill="#263238"/>
<path d="M451.46 201.765H449.172L452.643 185.504H454.918L451.46 201.765Z" fill="#263238"/>
<path d="M455.96 201.765H453.672L457.143 185.504H459.418L455.96 201.765Z" fill="#263238"/>
<path d="M460.459 201.765H458.184L461.642 185.504H463.93L460.459 201.765Z" fill="#263238"/>
<path d="M464.963 201.765H462.688L466.146 185.504H468.434L464.963 201.765Z" fill="#263238"/>
<path d="M469.463 201.765H467.188L470.646 185.504H472.934L469.463 201.765Z" fill="#263238"/>
<path d="M467.414 246.656H419.547V242.944L467.414 241.393V246.656Z" fill="#455A64"/>
<path d="M480.421 246.659H454.726L439.254 206.064H464.948L480.421 246.659Z" fill="#455A64"/>
<path d="M484.655 246.659H458.961L443.488 206.064H469.183L484.655 246.659Z" fill="#263238"/>
</svg>
