<svg width="8" height="8" viewBox="0 0 8 8" fill="none" xmlns="http://www.w3.org/2000/svg">
<path fill-rule="evenodd" clip-rule="evenodd" d="M7.2095 0.772866C6.91403 0.476753 6.47082 0.476753 6.17534 0.772866L4.00852 2.94437L1.84171 0.772866C1.54623 0.476753 1.10302 0.476753 0.807544 0.772866C0.512069 1.06898 0.512069 1.51315 0.807544 1.80926L2.97436 3.98076L0.807544 6.15226C0.512069 6.44838 0.512069 6.89255 0.807544 7.18866C0.955281 7.33672 1.15226 7.38607 1.34925 7.38607C1.54623 7.38607 1.74321 7.33672 1.89095 7.18866L4.05777 5.01716L6.22459 7.18866C6.37233 7.33672 6.56931 7.38607 6.76629 7.38607C6.96328 7.38607 7.16026 7.33672 7.308 7.18866C7.60347 6.89255 7.60347 6.44838 7.308 6.15226L5.14118 3.98076L7.308 1.80926C7.50498 1.51315 7.50498 1.06898 7.2095 0.772866Z" fill="#4D4D4D"/>
</svg>
