<svg width="5" height="20" viewBox="0 0 5 20" fill="none" xmlns="http://www.w3.org/2000/svg">
<path d="M2.14286 7.80488C3.33333 7.80488 4.28571 8.78049 4.28571 10C4.28571 11.2195 3.33333 12.1951 2.14286 12.1951C0.952381 12.1951 0 11.2195 0 10C0 8.78049 0.952381 7.80488 2.14286 7.80488ZM0 2.19512C0 3.41463 0.952381 4.39024 2.14286 4.39024C3.33333 4.39024 4.28571 3.41463 4.28571 2.19512C4.28571 0.97561 3.33333 0 2.14286 0C0.952381 0 0 0.97561 0 2.19512ZM0 17.8049C0 19.0244 0.952381 20 2.14286 20C3.33333 20 4.28571 19.0244 4.28571 17.8049C4.28571 16.5854 3.33333 15.6098 2.14286 15.6098C0.952381 15.6098 0 16.5854 0 17.8049Z" fill="#4D4D4D"/>
</svg>
