<svg width="7" height="7" viewBox="0 0 7 7" fill="none" xmlns="http://www.w3.org/2000/svg">
<g clip-path="url(#clip0_4455_8926)">
<path d="M4.22915 1.89583C4.44416 1.93778 4.65758 2.0326 4.81248 2.1875C4.96739 2.3424 5.06221 2.55583 5.10415 2.77083M4.37498 0.875C4.82167 0.924624 5.22364 1.14073 5.54165 1.45833C5.85965 1.77594 6.07479 2.17837 6.12498 2.625M6.12484 4.8057V5.59603C6.12606 5.89817 5.8544 6.15046 5.54938 6.12293C2.91668 6.125 0.874998 4.06437 0.877061 1.44935C0.849588 1.14594 1.10063 0.875309 1.40236 0.875026H2.19428C2.32239 0.873766 2.44658 0.919042 2.54372 1.00241C2.81987 1.23943 2.9975 2.04393 2.92916 2.36375C2.8758 2.61344 2.62409 2.78813 2.45297 2.9589C2.82875 3.61847 3.37594 4.16456 4.03679 4.53962C4.20791 4.36882 4.38297 4.11763 4.63314 4.06438C4.95409 3.99607 5.76375 4.17392 5.99983 4.452C6.08356 4.55061 6.12804 4.6765 6.12484 4.8057Z" stroke="#0583F2" stroke-width="0.4375" stroke-linecap="round" stroke-linejoin="round"/>
</g>
<defs>
<clipPath id="clip0_4455_8926">
<rect width="7" height="7" fill="white"/>
</clipPath>
</defs>
</svg>
