<svg width="8" height="8" viewBox="0 0 8 8" fill="none" xmlns="http://www.w3.org/2000/svg">
<g clip-path="url(#clip0_4455_8914)">
<path d="M2.24438 6.84961C2.24204 6.8519 2.2389 6.85318 2.23563 6.85318C2.23235 6.85318 2.22921 6.8519 2.22688 6.84961C2.10187 6.71086 0.765625 5.19586 0.765625 4.19211C0.765625 2.94961 1.57813 2.66211 2.23563 2.66211C2.84063 2.66211 3.61813 2.98711 3.61813 4.19211C3.61813 5.22836 2.36063 6.71336 2.24438 6.84961Z" stroke="#0583F2" stroke-width="0.328125"/>
<path d="M2.1875 4.51563C2.51542 4.51563 2.78125 4.24979 2.78125 3.92188C2.78125 3.59396 2.51542 3.32812 2.1875 3.32812C1.85958 3.32812 1.59375 3.59396 1.59375 3.92188C1.59375 4.24979 1.85958 4.51563 2.1875 4.51563Z" stroke="#0583F2" stroke-width="0.328125"/>
<path d="M6.19875 4.34563C6.1962 4.348 6.19285 4.34932 6.18937 4.34932C6.1859 4.34932 6.18255 4.348 6.18 4.34563C6.07125 4.22063 5.03125 3.03938 5.03125 2.25313C5.03125 1.27313 5.67125 1.04688 6.19 1.04688C6.66625 1.04688 7.27875 1.29688 7.27875 2.25313C7.27875 3.06438 6.30125 4.22563 6.19875 4.34563Z" stroke="#0583F2" stroke-width="0.328125"/>
<path d="M6.15625 2.63672C6.41513 2.63672 6.625 2.42685 6.625 2.16797C6.625 1.90909 6.41513 1.69922 6.15625 1.69922C5.89737 1.69922 5.6875 1.90909 5.6875 2.16797C5.6875 2.42685 5.89737 2.63672 6.15625 2.63672Z" stroke="#0583F2" stroke-width="0.328125"/>
<path d="M2.23438 6.85938C2.39409 6.90774 2.55699 6.94491 2.72188 6.97062" stroke="#0583F2" stroke-width="0.328125"/>
<path d="M3.08594 7.00695C3.43469 7.02195 3.81719 6.97195 4.07344 6.74695C4.79844 6.1107 4.43469 5.3407 4.91719 4.9082C5.09932 4.74843 5.30784 4.62154 5.53344 4.5332" stroke="#0583F2" stroke-width="0.328125" stroke-dasharray="0.85 0.32"/>
<path d="M5.70312 4.47617C5.86104 4.4226 6.02332 4.38286 6.18812 4.35742" stroke="#0583F2" stroke-width="0.328125"/>
</g>
<defs>
<clipPath id="clip0_4455_8914">
<rect width="8" height="8" fill="white"/>
</clipPath>
</defs>
</svg>
