<svg width="5" height="7" viewBox="0 0 5 7" fill="none" xmlns="http://www.w3.org/2000/svg">
<path d="M2.49978 0.214844C1.17344 0.214844 0.0937506 1.29454 0.09375 2.62088C0.0937492 4.95466 2.36414 6.7289 2.36414 6.7289C2.4029 6.75982 2.45101 6.77666 2.50059 6.77666C2.55017 6.77666 2.59829 6.75982 2.63704 6.7289C2.63704 6.7289 4.90744 4.95466 4.90743 2.62088C4.90743 1.29454 3.82613 0.214844 2.49978 0.214844ZM2.49978 0.652451C3.58969 0.652451 4.46982 1.53098 4.46983 2.62088C4.46983 4.53011 2.741 6.03854 2.5014 6.24285C2.26295 6.03956 0.531357 4.53085 0.531358 2.62088C0.531358 1.53098 1.40988 0.652451 2.49978 0.652451Z" fill="#0583F2"/>
<path d="M2.49946 1.52734C1.89799 1.52734 1.40625 2.01909 1.40625 2.62056C1.40625 3.22203 1.89799 3.71538 2.49946 3.71538C3.10093 3.71538 3.59429 3.22203 3.59429 2.62056C3.59429 2.01909 3.10093 1.52734 2.49946 1.52734ZM2.49946 1.96495C2.86449 1.96495 3.15668 2.25553 3.15668 2.62056C3.15668 2.98558 2.86449 3.27777 2.49946 3.27777C2.13443 3.27777 1.84386 2.98558 1.84386 2.62056C1.84386 2.25553 2.13443 1.96495 2.49946 1.96495Z" fill="#0583F2"/>
</svg>
