<svg width="8" height="11" viewBox="0 0 8 11" fill="none" xmlns="http://www.w3.org/2000/svg">
<path fill-rule="evenodd" clip-rule="evenodd" d="M4.63584 0.570703C4.39834 0.503953 4.08259 0.501953 3.76734 0.501953C3.37109 0.501953 3.12484 0.604453 2.96484 0.741953C2.80209 0.881453 2.70034 1.08145 2.64134 1.32695C2.58209 1.5742 2.57034 1.8502 2.57534 2.1207C2.57634 2.16495 2.57759 2.2087 2.57909 2.25195H7.25284C7.39084 2.25195 7.50434 2.36445 7.48859 2.50145C7.32809 3.90345 5.82859 5.00195 4.00284 5.00195C2.17684 5.00195 0.677592 3.90345 0.517092 2.50145C0.501342 2.36445 0.614592 2.25195 0.752842 2.25195H2.07884C2.07734 2.21195 2.07634 2.17145 2.07559 2.1302C2.07009 1.84445 2.08134 1.5187 2.15509 1.2107C2.22934 0.901203 2.37084 0.592703 2.63909 0.362453C2.90959 0.129953 3.28109 0.00195313 3.76734 0.00195313H3.78534C4.07834 0.00195313 4.46034 0.0019531 4.77134 0.0894531C4.93309 0.134953 5.09934 0.210203 5.22634 0.341953C5.36009 0.479953 5.43209 0.661203 5.43209 0.876953C5.43209 0.943257 5.40575 1.00685 5.35887 1.05373C5.31198 1.10061 5.2484 1.12695 5.18209 1.12695C5.11579 1.12695 5.0522 1.10061 5.00532 1.05373C4.95843 1.00685 4.93209 0.943257 4.93209 0.876953C4.93209 0.780203 4.90334 0.726953 4.86709 0.689453C4.82434 0.645203 4.75134 0.603203 4.63584 0.570703ZM2.00284 9.50195V10.002H6.00284V9.50195H2.00284Z" fill="#0583F2"/>
<path fill-rule="evenodd" clip-rule="evenodd" d="M5.509 3.84391C5.8635 4.08791 6 4.44241 6 4.82966C6 5.21591 5.8645 5.57541 5.5125 5.82641C5.2655 6.00241 4.93 6.11191 4.5 6.15766V5.65441C4.844 5.61191 5.0735 5.52516 5.222 5.41941C5.41675 5.28041 5.5 5.08866 5.5 4.82941C5.5 4.57141 5.4175 4.38791 5.2255 4.25566C5.014 4.11016 4.638 4.00391 4 4.00391V3.50391C4.67475 3.50391 5.1735 3.61291 5.509 3.84391ZM3.5 5.68791V6.18841C3.258 6.19766 3.0455 6.22041 2.8735 6.27591C2.73875 6.31916 2.65075 6.37666 2.59525 6.44566C2.542 6.51166 2.5 6.61166 2.5 6.77791C2.5 6.94491 2.542 7.04541 2.5955 7.11191C2.651 7.18116 2.73925 7.23891 2.87375 7.28241C3.15375 7.37291 3.542 7.37641 3.9885 7.37641L3.99325 7.37591C4.0045 7.37516 4.02 7.37391 4.039 7.37341C4.077 7.37166 4.12975 7.37091 4.19275 7.37366C4.35358 7.38019 4.51256 7.41052 4.6645 7.46366C4.8415 7.52766 5.0315 7.63816 5.17675 7.82766C5.32375 8.01941 5.40925 8.27216 5.40925 8.59216C5.40925 8.91191 5.32375 9.16291 5.17325 9.35041C5.0245 9.53566 4.83075 9.63666 4.65225 9.69066C4.60214 9.70575 4.55123 9.71802 4.49975 9.72741V9.21441C4.50225 9.21367 4.50475 9.21292 4.50725 9.21216C4.6185 9.17841 4.71475 9.12316 4.78325 9.03766C4.85025 8.95416 4.9095 8.81941 4.9095 8.59216C4.9095 8.36516 4.85025 8.22366 4.77975 8.13166C4.70775 8.03766 4.60775 7.97491 4.49475 7.93416C4.38991 7.89799 4.28032 7.87744 4.1695 7.87316C4.12393 7.87103 4.07827 7.87145 4.03275 7.87441L4.027 7.87491H4.0265L4.014 7.87641H3.97325C3.556 7.87641 3.08575 7.87641 2.72 7.75816C2.5265 7.69566 2.34125 7.59416 2.20525 7.42466C2.06725 7.25266 2 7.03491 2 6.77791C2 6.52116 2.0675 6.30391 2.2055 6.13216C2.3415 5.96341 2.52675 5.86216 2.72025 5.79991C2.95175 5.72541 3.22475 5.69791 3.5 5.68791Z" fill="#0583F2"/>
<path fill-rule="evenodd" clip-rule="evenodd" d="M3.78125 8.00231V9.62731H4.28125V8.00231H3.78125ZM3.78125 7.00231H4.28125V4.03906H3.78125V7.00231Z" fill="#0583F2"/>
</svg>
