<svg width="42" height="55" viewBox="0 0 42 55" fill="none" xmlns="http://www.w3.org/2000/svg">
<path fill-rule="evenodd" clip-rule="evenodd" d="M21 0C32.598 0 42 9.40202 42 21C42 22.4157 41.8599 23.7986 41.5929 25.1358C39.7394 39.1032 21.1104 55 21.1104 55C21.1104 55 5.25689 41.4717 1.34456 28.4096C0.475507 26.1054 0 23.6083 0 21C0 9.40202 9.40202 0 21 0Z" fill="#F65751"/>
<path d="M29 21C29 16.5817 25.4183 13 21 13C16.5817 13 13 16.5817 13 21C13 25.4183 16.5817 29 21 29C25.4183 29 29 25.4183 29 21Z" fill="#BE2E28"/>
</svg>
