<svg width="25" height="25" viewBox="0 0 25 25" fill="none" xmlns="http://www.w3.org/2000/svg">
<path d="M21.9383 4.6639C21.4094 4.13473 20.7814 3.71496 20.0902 3.42856C19.399 3.14216 18.6581 2.99475 17.9099 2.99475C17.1618 2.99475 16.4209 3.14216 15.7297 3.42856C15.0385 3.71496 14.4105 4.13473 13.8816 4.6639L12.7839 5.7616L11.6862 4.6639C10.6178 3.59552 9.16879 2.9953 7.65787 2.9953C6.14695 2.9953 4.69791 3.59552 3.62953 4.6639C2.56115 5.73228 1.96094 7.18132 1.96094 8.69224C1.96094 10.2032 2.56115 11.6522 3.62953 12.7206L4.72723 13.8183L12.7839 21.875L20.8406 13.8183L21.9383 12.7206C22.4675 12.1917 22.8872 11.5637 23.1736 10.8725C23.46 10.1813 23.6074 9.44042 23.6074 8.69224C23.6074 7.94406 23.46 7.20321 23.1736 6.51201C22.8872 5.82082 22.4675 5.19282 21.9383 4.6639V4.6639Z" fill="#F99D1C" stroke="#F99D1C" stroke-width="1.51683" stroke-linecap="round" stroke-linejoin="round"/>
</svg>
