<svg width="41" height="41" viewBox="0 0 41 41" fill="none" xmlns="http://www.w3.org/2000/svg">
<g filter="url(#filter0_d_2540_5684)">
<circle cx="20.5" cy="18.5" r="16.5" fill="#F7F7F7"/>
</g>
<path d="M29.0591 11.4774C28.5514 10.9694 27.9485 10.5664 27.2849 10.2915C26.6214 10.0165 25.9102 9.875 25.1919 9.875C24.4737 9.875 23.7624 10.0165 23.0989 10.2915C22.4353 10.5664 21.8325 10.9694 21.3247 11.4774L20.2709 12.5312L19.2171 11.4774C18.1915 10.4517 16.8004 9.87553 15.3499 9.87553C13.8994 9.87553 12.5084 10.4517 11.4827 11.4774C10.4571 12.503 9.88086 13.8941 9.88086 15.3446C9.88086 16.7951 10.4571 18.1861 11.4827 19.2118L12.5365 20.2656L20.2709 28L28.0053 20.2656L29.0591 19.2118C29.5671 18.704 29.9701 18.1012 30.245 17.4376C30.52 16.7741 30.6615 16.0628 30.6615 15.3446C30.6615 14.6263 30.52 13.9151 30.245 13.2516C29.9701 12.588 29.5671 11.9851 29.0591 11.4774V11.4774Z" fill="#F99D1C" stroke="#F99D1C" stroke-linecap="round" stroke-linejoin="round"/>
<defs>
<filter id="filter0_d_2540_5684" x="0" y="0" width="41" height="41" filterUnits="userSpaceOnUse" color-interpolation-filters="sRGB">
<feFlood flood-opacity="0" result="BackgroundImageFix"/>
<feColorMatrix in="SourceAlpha" type="matrix" values="0 0 0 0 0 0 0 0 0 0 0 0 0 0 0 0 0 0 127 0" result="hardAlpha"/>
<feOffset dy="2"/>
<feGaussianBlur stdDeviation="2"/>
<feComposite in2="hardAlpha" operator="out"/>
<feColorMatrix type="matrix" values="0 0 0 0 0 0 0 0 0 0 0 0 0 0 0 0 0 0 0.25 0"/>
<feBlend mode="normal" in2="BackgroundImageFix" result="effect1_dropShadow_2540_5684"/>
<feBlend mode="normal" in="SourceGraphic" in2="effect1_dropShadow_2540_5684" result="shape"/>
</filter>
</defs>
</svg>
