<svg width="48" height="45" viewBox="0 0 48 45" fill="none" xmlns="http://www.w3.org/2000/svg">
<rect width="48" height="45" rx="10" fill="#FEDDA1"/>
<path d="M34.9375 23C34.9375 23.3481 34.7992 23.6819 34.5531 23.9281C34.3069 24.1742 33.9731 24.3125 33.625 24.3125H25.3125V32.625C25.3125 32.9731 25.1742 33.3069 24.9281 33.5531C24.6819 33.7992 24.3481 33.9375 24 33.9375C23.6519 33.9375 23.3181 33.7992 23.0719 33.5531C22.8258 33.3069 22.6875 32.9731 22.6875 32.625V24.3125H14.375C14.0269 24.3125 13.6931 24.1742 13.4469 23.9281C13.2008 23.6819 13.0625 23.3481 13.0625 23C13.0625 22.6519 13.2008 22.3181 13.4469 22.0719C13.6931 21.8258 14.0269 21.6875 14.375 21.6875H22.6875V13.375C22.6875 13.0269 22.8258 12.6931 23.0719 12.4469C23.3181 12.2008 23.6519 12.0625 24 12.0625C24.3481 12.0625 24.6819 12.2008 24.9281 12.4469C25.1742 12.6931 25.3125 13.0269 25.3125 13.375V21.6875H33.625C33.9731 21.6875 34.3069 21.8258 34.5531 22.0719C34.7992 22.3181 34.9375 22.6519 34.9375 23Z" fill="#F99D1C"/>
</svg>
