<svg width="44" height="44" viewBox="0 0 44 44" fill="none" xmlns="http://www.w3.org/2000/svg">
<rect width="44" height="44" rx="10" fill="#FFE5CC"/>
<path d="M32.9375 22C32.9375 22.3481 32.7992 22.6819 32.5531 22.9281C32.3069 23.1742 31.9731 23.3125 31.625 23.3125H23.3125V31.625C23.3125 31.9731 23.1742 32.3069 22.9281 32.5531C22.6819 32.7992 22.3481 32.9375 22 32.9375C21.6519 32.9375 21.3181 32.7992 21.0719 32.5531C20.8258 32.3069 20.6875 31.9731 20.6875 31.625V23.3125H12.375C12.0269 23.3125 11.6931 23.1742 11.4469 22.9281C11.2008 22.6819 11.0625 22.3481 11.0625 22C11.0625 21.6519 11.2008 21.3181 11.4469 21.0719C11.6931 20.8258 12.0269 20.6875 12.375 20.6875H20.6875V12.375C20.6875 12.0269 20.8258 11.6931 21.0719 11.4469C21.3181 11.2008 21.6519 11.0625 22 11.0625C22.3481 11.0625 22.6819 11.2008 22.9281 11.4469C23.1742 11.6931 23.3125 12.0269 23.3125 12.375V20.6875H31.625C31.9731 20.6875 32.3069 20.8258 32.5531 21.0719C32.7992 21.3181 32.9375 21.6519 32.9375 22Z" fill="#F99D1C"/>
</svg>
