<svg width="41" height="41" viewBox="0 0 41 41" fill="none" xmlns="http://www.w3.org/2000/svg">
<g filter="url(#filter0_d_1811_4104)">
<circle cx="20.5" cy="18.5" r="16.5" fill="#F7F7F7"/>
</g>
<path d="M20.1425 7.48535C18.0407 7.48535 15.9861 8.10368 14.2385 9.26216C12.4909 10.4206 11.1289 12.0672 10.3246 13.9937C9.52023 15.9202 9.30978 18.04 9.71982 20.0851C10.1299 22.1303 11.142 24.0088 12.6282 25.4833C14.1144 26.9577 16.0079 27.9619 18.0693 28.3687C20.1307 28.7755 22.2674 28.5667 24.2092 27.7687C26.151 26.9707 27.8107 25.6194 28.9784 23.8856C30.1461 22.1519 30.7694 20.1135 30.7694 18.0283C30.7694 15.2321 29.6498 12.5505 27.6568 10.5733C25.6639 8.59612 22.9609 7.48535 20.1425 7.48535ZM20.1425 27.0651C18.341 27.0651 16.5799 26.5351 15.082 25.5421C13.584 24.5492 12.4165 23.1378 11.7271 21.4865C11.0377 19.8353 10.8573 18.0183 11.2088 16.2653C11.5602 14.5123 12.4278 12.9021 13.7016 11.6383C14.9755 10.3745 16.5986 9.51381 18.3655 9.16513C20.1324 8.81644 21.9639 8.9954 23.6283 9.67937C25.2927 10.3633 26.7153 11.5216 27.7161 13.0077C28.717 14.4938 29.2513 16.241 29.2513 18.0283C29.2513 20.425 28.2916 22.7236 26.5834 24.4183C24.8751 26.113 22.5583 27.0651 20.1425 27.0651Z" fill="#F99D1C"/>
<path d="M19.3906 12.0234H20.9088V20.3072H19.3906V12.0234Z" fill="#F99D1C"/>
<path d="M20.1425 22.5713C19.9173 22.5713 19.6972 22.6381 19.5099 22.7632C19.3227 22.8883 19.1768 23.0661 19.0906 23.2742C19.0044 23.4822 18.9819 23.7111 19.0258 23.932C19.0697 24.1529 19.1782 24.3558 19.3374 24.515C19.4966 24.6742 19.6995 24.7827 19.9204 24.8266C20.1412 24.8705 20.3702 24.848 20.5782 24.7618C20.7863 24.6756 20.9641 24.5297 21.0892 24.3425C21.2143 24.1552 21.2811 23.9351 21.2811 23.7099C21.2811 23.4079 21.1611 23.1183 20.9476 22.9048C20.7341 22.6912 20.4445 22.5713 20.1425 22.5713Z" fill="#F99D1C"/>
<defs>
<filter id="filter0_d_1811_4104" x="0" y="0" width="41" height="41" filterUnits="userSpaceOnUse" color-interpolation-filters="sRGB">
<feFlood flood-opacity="0" result="BackgroundImageFix"/>
<feColorMatrix in="SourceAlpha" type="matrix" values="0 0 0 0 0 0 0 0 0 0 0 0 0 0 0 0 0 0 127 0" result="hardAlpha"/>
<feOffset dy="2"/>
<feGaussianBlur stdDeviation="2"/>
<feComposite in2="hardAlpha" operator="out"/>
<feColorMatrix type="matrix" values="0 0 0 0 0 0 0 0 0 0 0 0 0 0 0 0 0 0 0.25 0"/>
<feBlend mode="normal" in2="BackgroundImageFix" result="effect1_dropShadow_1811_4104"/>
<feBlend mode="normal" in="SourceGraphic" in2="effect1_dropShadow_1811_4104" result="shape"/>
</filter>
</defs>
</svg>
