<svg width="26" height="25" viewBox="0 0 26 25" fill="none" xmlns="http://www.w3.org/2000/svg">
<path d="M12.5988 1.53955C10.4183 1.53955 8.28685 2.18102 6.47387 3.38285C4.66089 4.58468 3.24784 6.29289 2.41342 8.29145C1.579 10.29 1.36067 12.4892 1.78606 14.6109C2.21144 16.7325 3.26143 18.6814 4.80325 20.211C6.34506 21.7407 8.30945 22.7824 10.448 23.2044C12.5866 23.6264 14.8032 23.4098 16.8177 22.582C18.8322 21.7542 20.554 20.3523 21.7654 18.5536C22.9768 16.7549 23.6234 14.6403 23.6234 12.4771C23.6234 9.57625 22.4619 6.79425 20.3943 4.74307C18.3268 2.69189 15.5227 1.53955 12.5988 1.53955V1.53955ZM12.5988 21.8521C10.7298 21.8521 8.90285 21.3022 7.34886 20.2721C5.79488 19.2419 4.58369 17.7778 3.86847 16.0647C3.15325 14.3517 2.96612 12.4667 3.33073 10.6481C3.69535 8.82951 4.59534 7.15904 5.9169 5.84793C7.23845 4.53681 8.92222 3.64393 10.7553 3.28219C12.5883 2.92045 14.4883 3.10611 16.215 3.81568C17.9417 4.52525 19.4175 5.72687 20.4559 7.26858C21.4942 8.81029 22.0484 10.6229 22.0484 12.4771C22.0484 14.9635 21.0528 17.348 19.2807 19.1062C17.5085 20.8643 15.105 21.8521 12.5988 21.8521Z" fill="#4D4D4D"/>
<path d="M11.8203 6.24854H13.3953V14.8423H11.8203V6.24854Z" fill="#4D4D4D"/>
<path d="M12.5914 17.1904C12.3577 17.1904 12.1294 17.2597 11.9351 17.3895C11.7409 17.5193 11.5895 17.7038 11.5001 17.9196C11.4107 18.1354 11.3873 18.3729 11.4329 18.6021C11.4784 18.8312 11.5909 19.0417 11.7561 19.2069C11.9213 19.3721 12.1318 19.4846 12.3609 19.5301C12.59 19.5757 12.8275 19.5523 13.0434 19.4629C13.2592 19.3735 13.4437 19.2221 13.5735 19.0279C13.7033 18.8336 13.7726 18.6053 13.7726 18.3716C13.7726 18.0584 13.6481 17.7579 13.4266 17.5364C13.2051 17.3149 12.9046 17.1904 12.5914 17.1904Z" fill="#4D4D4D"/>
</svg>
