<svg width="148" height="148" viewBox="0 0 148 148" fill="none" xmlns="http://www.w3.org/2000/svg">
<circle cx="74" cy="74" r="74" fill="#F7F7F7" fill-opacity="0.5"/>
<path d="M73.6425 40.7461C66.9547 40.7461 60.417 42.7136 54.8562 46.3998C49.2955 50.0861 44.9614 55.3254 42.4021 61.4554C39.8428 67.5854 39.1731 74.3306 40.4779 80.8381C41.7826 87.3457 45.0031 93.3232 49.7321 98.0149C54.4612 102.707 60.4863 105.902 67.0457 107.196C73.605 108.49 80.4039 107.826 86.5827 105.287C92.7615 102.748 98.0426 98.4481 101.758 92.9312C105.474 87.4144 107.457 80.9284 107.457 74.2934C107.457 65.3961 103.894 56.8632 97.5529 50.5719C91.2114 44.2805 82.6106 40.7461 73.6425 40.7461ZM73.6425 103.048C67.9101 103.048 62.3064 101.362 57.54 98.2021C52.7737 95.0425 49.0587 90.5516 46.865 85.2974C44.6713 80.0431 44.0973 74.2615 45.2157 68.6836C46.334 63.1057 49.0945 57.9821 53.1479 53.9607C57.2014 49.9392 62.3658 47.2006 67.9881 46.0911C73.6104 44.9816 79.438 45.551 84.7341 47.7274C90.0302 49.9038 94.5568 53.5894 97.7416 58.3181C100.926 63.0468 102.626 68.6062 102.626 74.2934C102.626 81.9196 99.5726 89.2335 94.1371 94.6261C88.7016 100.019 81.3295 103.048 73.6425 103.048Z" fill="#4D4D4D" fill-opacity="0.5"/>
<path d="M71.2344 55.1699H76.065V81.5285H71.2344V55.1699Z" fill="#4D4D4D" fill-opacity="0.5"/>
<path d="M73.6425 88.75C72.9259 88.75 72.2255 88.9625 71.6297 89.3606C71.0339 89.7587 70.5695 90.3245 70.2953 90.9865C70.0211 91.6485 69.9494 92.377 70.0891 93.0798C70.2289 93.7826 70.574 94.4281 71.0807 94.9348C71.5874 95.4415 72.2329 95.7865 72.9357 95.9263C73.6385 96.0661 74.3669 95.9944 75.0289 95.7201C75.691 95.4459 76.2568 94.9816 76.6549 94.3858C77.053 93.79 77.2655 93.0895 77.2655 92.373C77.2655 91.4121 76.8838 90.4906 76.2043 89.8111C75.5249 89.1317 74.6034 88.75 73.6425 88.75Z" fill="#4D4D4D" fill-opacity="0.5"/>
</svg>
