<svg width="26" height="31" viewBox="0 0 26 31" fill="none" xmlns="http://www.w3.org/2000/svg">
<path d="M24.7399 23.6279C24.2863 24.6791 23.7493 25.6466 23.1269 26.5364C22.2789 27.7491 21.5845 28.5885 21.0493 29.0548C20.2197 29.82 19.3308 30.2118 18.379 30.2341C17.6957 30.2341 16.8717 30.0392 15.9124 29.6436C14.9501 29.2497 14.0656 29.0548 13.257 29.0548C12.4089 29.0548 11.4993 29.2497 10.5263 29.6436C9.55191 30.0392 8.76693 30.2452 8.16676 30.2658C7.25402 30.3045 6.34424 29.9016 5.43611 29.0548C4.8565 28.5477 4.13154 27.6784 3.26303 26.4472C2.33121 25.1323 1.56514 23.6075 0.964967 21.8691C0.322212 19.9915 0 18.1732 0 16.4129C0 14.3965 0.434434 12.6574 1.30459 11.2001C1.98846 10.0295 2.89824 9.10603 4.03691 8.42816C5.17558 7.75026 6.4059 7.4048 7.73086 7.3827C8.45584 7.3827 9.40653 7.60763 10.588 8.04965C11.7661 8.49314 12.5225 8.71806 12.8542 8.71806C13.1021 8.71806 13.9425 8.45507 15.3671 7.93078C16.7143 7.44456 17.8513 7.24323 18.7827 7.32253C21.3067 7.52683 23.203 8.52472 24.4639 10.3225C22.2067 11.6943 21.09 13.6156 21.1123 16.0803C21.1326 18.0001 21.8271 19.5977 23.1919 20.8662C23.8102 21.455 24.5011 21.91 25.2695 22.2331C25.103 22.7179 24.9269 23.1822 24.7399 23.6279ZM18.9512 0.782108C18.9512 2.28685 18.4031 3.69183 17.3105 4.99227C15.9921 6.53822 14.3973 7.43156 12.6679 7.2906C12.6459 7.11008 12.6331 6.92007 12.6331 6.72042C12.6331 5.27587 13.2601 3.7299 14.3736 2.46588C14.9295 1.82587 15.6365 1.29372 16.4939 0.869212C17.3494 0.451037 18.1587 0.219778 18.9197 0.180176C18.942 0.381337 18.9512 0.582511 18.9512 0.782088V0.782108Z" fill="black"/>
</svg>
