<svg width="20" height="20" viewBox="0 0 20 20" fill="none" xmlns="http://www.w3.org/2000/svg">
<path d="M12.2601 4.22643L7.16627 9.30514C7.10581 9.3656 7.06308 9.4311 7.03809 9.50164C7.0127 9.57218 7 9.64775 7 9.72837C7 9.80898 7.0127 9.88456 7.03809 9.95509C7.06308 10.0256 7.10581 10.0911 7.16627 10.1516L12.2601 15.2454C12.4012 15.3865 12.5775 15.457 12.7891 15.457C13.0007 15.457 13.1821 15.3815 13.3333 15.2303C13.4844 15.0792 13.56 14.9028 13.56 14.7013C13.56 14.4997 13.4844 14.3234 13.3333 14.1722L8.8894 9.72837L13.3333 5.28449C13.4743 5.14342 13.5449 4.9697 13.5449 4.76332C13.5449 4.55655 13.4693 4.37758 13.3182 4.22643C13.167 4.07528 12.9907 3.9997 12.7891 3.9997C12.5876 3.9997 12.4112 4.07528 12.2601 4.22643Z" fill="#4D4D4D"/>
</svg>
