<svg width="18" height="20" viewBox="0 0 18 20" fill="none" xmlns="http://www.w3.org/2000/svg">
<path d="M7.97462 5.29869L14.9525 12.7381C15.1772 12.9777 15.7062 12.8721 16.1341 12.5023L16.233 12.4168C16.6608 12.047 16.8255 11.553 16.6008 11.3134L9.62291 3.87399C9.39819 3.6344 8.86917 3.73997 8.44132 4.10979L8.34242 4.19527C7.91457 4.56508 7.7499 5.0591 7.97462 5.29869Z" fill="#676767" fill-opacity="0.7"/>
<path d="M8.23356 3.36408L0.859678 10.4427C0.622201 10.6707 0.75971 11.1723 1.16681 11.5631L1.26092 11.6534C1.66802 12.0442 2.19056 12.1762 2.42803 11.9482L9.80191 4.86964C10.0394 4.64167 9.90188 4.14006 9.49478 3.74925L9.40068 3.65892C8.99357 3.26812 8.47104 3.13611 8.23356 3.36408Z" fill="#676767" fill-opacity="0.7"/>
</svg>
