<svg width="17" height="20" viewBox="0 0 17 20" fill="none" xmlns="http://www.w3.org/2000/svg">
<path d="M9.03319 14.7013L2.05533 7.26193C1.83061 7.02235 1.30159 7.12792 0.873743 7.49773L0.774846 7.58321C0.346994 7.95303 0.182326 8.44704 0.407049 8.68663L7.3849 16.126C7.60963 16.3656 8.13864 16.26 8.5665 15.8902L8.66539 15.8047C9.09324 15.4349 9.25791 14.9409 9.03319 14.7013Z" fill="#676767" fill-opacity="0.7"/>
<path d="M8.77425 16.6359L16.1481 9.5573C16.3856 9.32934 16.2481 8.82772 15.841 8.43692L15.7469 8.34659C15.3398 7.95579 14.8173 7.82378 14.5798 8.05175L7.2059 15.1304C6.96842 15.3583 7.10593 15.8599 7.51304 16.2507L7.60714 16.3411C8.01424 16.7319 8.53678 16.8639 8.77425 16.6359Z" fill="#676767" fill-opacity="0.7"/>
</svg>
