<svg width="32" height="32" viewBox="0 0 32 32" fill="none" xmlns="http://www.w3.org/2000/svg">
<path d="M12.9864 3C12.1537 3 11.3921 3.47078 11.0182 4.2167L10.1525 5.94359H7.67139C5.64374 5.94359 4 7.59143 4 9.62418V21.403C4 23.4357 5.64374 25.0835 7.67139 25.0835H15.1537C14.9159 24.6171 14.7218 24.1245 14.577 23.6113H7.67139C6.45479 23.6113 5.46856 22.6226 5.46856 21.403V9.62418C5.46856 8.40454 6.45479 7.41583 7.67139 7.41583H10.6053C10.8828 7.41583 11.1367 7.2589 11.2614 7.01025L12.3304 4.87781C12.455 4.62916 12.7089 4.47224 12.9864 4.47224H18.5144C18.7926 4.47224 19.0468 4.6298 19.1712 4.87921L20.2331 7.00884C20.3575 7.25827 20.6117 7.41583 20.8898 7.41583H23.8255C25.0422 7.41583 26.0283 8.40454 26.0283 9.62418V14.1921C26.5539 14.4621 27.046 14.7881 27.4968 15.1621V9.62418C27.4968 7.59145 25.8532 5.94359 23.8255 5.94359H21.3437L20.4848 4.22093C20.1116 3.47268 19.3489 3 18.5144 3H12.9864Z" fill="#676767" fill-opacity="0.7"/>
<path d="M15.7414 8.89453C18.4967 8.89453 20.8088 10.7962 21.4433 13.3616C20.9483 13.4171 20.4667 13.5174 20.0028 13.6584C19.5066 11.764 17.7868 10.3668 15.7414 10.3668C13.3082 10.3668 11.3357 12.3442 11.3357 14.7834C11.3357 16.834 12.7295 18.5581 14.6191 19.0556C14.4785 19.5207 14.3785 20.0034 14.3232 20.4997C11.7641 19.8637 9.86719 17.5456 9.86719 14.7834C9.86719 11.5311 12.4972 8.89453 15.7414 8.89453Z" fill="#676767" fill-opacity="0.7"/>
<path d="M28.9591 21.3946C28.9591 25.0536 26.0004 28.0197 22.3506 28.0197C18.701 28.0197 15.7422 25.0536 15.7422 21.3946C15.7422 17.7356 18.701 14.7695 22.3506 14.7695C26.0004 14.7695 28.9591 17.7356 28.9591 21.3946ZM23.0849 18.4501C23.0849 18.0436 22.7563 17.714 22.3506 17.714C21.9452 17.714 21.6164 18.0436 21.6164 18.4501V20.6585H19.4135C19.0081 20.6585 18.6792 20.9881 18.6792 21.3946C18.6792 21.8011 19.0081 22.1307 19.4135 22.1307H21.6164V24.3391C21.6164 24.7456 21.9452 25.0752 22.3506 25.0752C22.7563 25.0752 23.0849 24.7456 23.0849 24.3391V22.1307H25.2878C25.6934 22.1307 26.022 21.8011 26.022 21.3946C26.022 20.9881 25.6934 20.6585 25.2878 20.6585H23.0849V18.4501Z" fill="#676767" fill-opacity="0.7"/>
</svg>
