<svg width="25" height="26" viewBox="0 0 25 26" fill="none" xmlns="http://www.w3.org/2000/svg">
<path d="M8.98643 0C8.15369 0 7.39213 0.470777 7.01819 1.2167L6.15249 2.94359H3.67139C1.64374 2.94359 0 4.59143 0 6.62418V18.403C0 20.4357 1.64374 22.0835 3.67139 22.0835H11.1537C10.9159 21.6171 10.7218 21.1245 10.577 20.6113H3.67139C2.4548 20.6113 1.46856 19.6226 1.46856 18.403V6.62418C1.46856 5.40454 2.4548 4.41583 3.67139 4.41583H6.60526C6.88285 4.41583 7.1367 4.2589 7.26135 4.01025L8.33036 1.87781C8.45501 1.62916 8.70886 1.47224 8.98643 1.47224H14.5144C14.7926 1.47224 15.0468 1.6298 15.1712 1.87921L16.2331 4.00884C16.3575 4.25827 16.6117 4.41583 16.8898 4.41583H19.8255C21.0422 4.41583 22.0283 5.40454 22.0283 6.62418V11.1921C22.5539 11.4621 23.046 11.7881 23.4968 12.1621V6.62418C23.4968 4.59145 21.8532 2.94359 19.8255 2.94359H17.3437L16.4848 1.22093C16.1116 0.472676 15.3489 0 14.5144 0H8.98643Z" fill="#4D4D4D"/>
<path d="M11.7414 5.89453C14.4967 5.89453 16.8088 7.79616 17.4433 10.3616C16.9483 10.4171 16.4667 10.5174 16.0028 10.6584C15.5066 8.76404 13.7868 7.36677 11.7414 7.36677C9.30822 7.36677 7.33574 9.3442 7.33574 11.7834C7.33574 13.834 8.72954 15.5581 10.6191 16.0556C10.4785 16.5207 10.3785 17.0034 10.3232 17.4997C7.76409 16.8637 5.86719 14.5456 5.86719 11.7834C5.86719 8.5311 8.49717 5.89453 11.7414 5.89453Z" fill="#4D4D4D"/>
<path d="M24.9592 18.3946C24.9592 22.0536 22.0004 25.0197 18.3506 25.0197C14.701 25.0197 11.7422 22.0536 11.7422 18.3946C11.7422 14.7356 14.701 11.7695 18.3506 11.7695C22.0004 11.7695 24.9592 14.7356 24.9592 18.3946ZM19.0849 15.4501C19.0849 15.0436 18.7563 14.714 18.3506 14.714C17.9452 14.714 17.6164 15.0436 17.6164 15.4501V17.6585H15.4135C15.0081 17.6585 14.6792 17.9881 14.6792 18.3946C14.6792 18.8011 15.0081 19.1307 15.4135 19.1307H17.6164V21.3391C17.6164 21.7456 17.9452 22.0752 18.3506 22.0752C18.7563 22.0752 19.0849 21.7456 19.0849 21.3391V19.1307H21.2878C21.6934 19.1307 22.022 18.8011 22.022 18.3946C22.022 17.9881 21.6934 17.6585 21.2878 17.6585H19.0849V15.4501Z" fill="#4D4D4D"/>
</svg>
