<svg width="22" height="22" viewBox="0 0 22 22" fill="none" xmlns="http://www.w3.org/2000/svg">
<g clip-path="url(#clip0_1756_4045)">
<path d="M14.0901 12.2533C14.8491 12.2533 15.5171 11.8384 15.8611 11.2109L19.4842 4.64292C19.5695 4.48952 19.6132 4.31651 19.6111 4.14101C19.609 3.96551 19.5611 3.7936 19.4722 3.6423C19.3832 3.49099 19.2563 3.36553 19.104 3.27833C18.9517 3.19113 18.7792 3.14522 18.6037 3.14513H3.62583L2.67454 1.12109H-0.634766V3.14513H1.38927L5.03254 10.8264L3.66632 13.2957C2.92754 14.6518 3.89908 16.3014 5.43735 16.3014H17.5816V14.2773H5.43735L6.55057 12.2533H14.0901ZM4.58725 5.16917H16.8833L14.0901 10.2293H6.98574L4.58725 5.16917ZM5.43735 17.3134C4.32413 17.3134 3.42343 18.2242 3.42343 19.3374C3.42343 20.4507 4.32413 21.3615 5.43735 21.3615C6.55057 21.3615 7.46139 20.4507 7.46139 19.3374C7.46139 18.2242 6.55057 17.3134 5.43735 17.3134ZM15.5575 17.3134C14.4443 17.3134 13.5436 18.2242 13.5436 19.3374C13.5436 20.4507 14.4443 21.3615 15.5575 21.3615C16.6708 21.3615 17.5816 20.4507 17.5816 19.3374C17.5816 18.2242 16.6708 17.3134 15.5575 17.3134Z" fill="#4D4D4D"/>
</g>
<defs>
<clipPath id="clip0_1756_4045">
<rect width="21.12" height="21.12" fill="white" transform="translate(0.248047 0.242188)"/>
</clipPath>
</defs>
</svg>
