<svg width="148" height="148" viewBox="0 0 148 148" fill="none" xmlns="http://www.w3.org/2000/svg">
<circle cx="74" cy="74" r="74" fill="#F7F7F7" fill-opacity="0.5"/>
<g clip-path="url(#clip0_1850_13476)">
<path d="M85.5415 78.8584C88.3131 78.8584 90.7521 77.3433 92.0085 75.0522L105.238 51.069C105.549 50.5089 105.709 49.8771 105.702 49.2363C105.694 48.5954 105.519 47.9677 105.194 47.4152C104.869 46.8627 104.406 46.4046 103.85 46.0862C103.294 45.7678 102.664 45.6001 102.023 45.5998H47.3311L43.8574 38.209H31.7734V45.5998H39.1642L52.4677 73.6479L47.4789 82.6647C44.7813 87.6165 48.3288 93.64 53.9459 93.64H98.2907V86.2492H53.9459L58.0108 78.8584H85.5415ZM50.8417 52.9906H95.7408L85.5415 71.4676H59.5998L50.8417 52.9906ZM53.9459 97.3354C49.8809 97.3354 46.592 100.661 46.592 104.726C46.592 108.791 49.8809 112.117 53.9459 112.117C58.0108 112.117 61.3367 108.791 61.3367 104.726C61.3367 100.661 58.0108 97.3354 53.9459 97.3354ZM90.8999 97.3354C86.8349 97.3354 83.546 100.661 83.546 104.726C83.546 108.791 86.8349 112.117 90.8999 112.117C94.9648 112.117 98.2907 108.791 98.2907 104.726C98.2907 100.661 94.9648 97.3354 90.8999 97.3354Z" fill="#4D4D4D" fill-opacity="0.5"/>
</g>
<defs>
<clipPath id="clip0_1850_13476">
<rect width="77.12" height="77.12" fill="white" transform="translate(35 35)"/>
</clipPath>
</defs>
</svg>
