<svg width="33" height="33" viewBox="0 0 33 33" fill="none" xmlns="http://www.w3.org/2000/svg">
<path d="M9.62471 24.7502C9.3528 24.7501 9.08702 24.6695 8.86095 24.5184C8.63489 24.3673 8.4587 24.1526 8.35465 23.9013C8.2506 23.6501 8.22337 23.3737 8.2764 23.107C8.32944 22.8403 8.46034 22.5954 8.65258 22.4031L22.4026 8.65307C22.6619 8.4026 23.0092 8.26401 23.3698 8.26714C23.7303 8.27027 24.0751 8.41488 24.3301 8.66982C24.585 8.92475 24.7296 9.26962 24.7328 9.63014C24.7359 9.99066 24.5973 10.338 24.3468 10.5973L10.5968 24.3473C10.4693 24.4752 10.3178 24.5766 10.151 24.6457C9.98414 24.7149 9.80529 24.7504 9.62471 24.7502Z" fill="#4D4D4D"/>
<path d="M23.3757 24.7502C23.1951 24.7504 23.0163 24.7149 22.8494 24.6457C22.6826 24.5766 22.5311 24.4752 22.4036 24.3473L8.65356 10.5973C8.40309 10.338 8.2645 9.99066 8.26763 9.63014C8.27076 9.26962 8.41537 8.92475 8.67031 8.66982C8.92524 8.41488 9.27011 8.27027 9.63063 8.26714C9.99115 8.26401 10.3385 8.4026 10.5978 8.65307L24.3478 22.4031C24.54 22.5954 24.671 22.8403 24.724 23.107C24.777 23.3737 24.7498 23.6501 24.6457 23.9013C24.5417 24.1526 24.3655 24.3673 24.1394 24.5184C23.9134 24.6695 23.6476 24.7501 23.3757 24.7502Z" fill="#4D4D4D"/>
</svg>
