<svg width="24" height="24" viewBox="0 0 24 24" fill="none" xmlns="http://www.w3.org/2000/svg">
<g clip-path="url(#clip0_4720_9270)">
<path d="M12.6875 5.8125V12C12.6875 12.1823 12.6151 12.3572 12.4861 12.4861C12.3572 12.6151 12.1823 12.6875 12 12.6875C11.8177 12.6875 11.6428 12.6151 11.5139 12.4861C11.3849 12.3572 11.3125 12.1823 11.3125 12V5.8125C11.3125 5.63016 11.3849 5.4553 11.5139 5.32636C11.6428 5.19743 11.8177 5.125 12 5.125C12.1823 5.125 12.3572 5.19743 12.4861 5.32636C12.6151 5.4553 12.6875 5.63016 12.6875 5.8125ZM13.375 1.75625C13.3871 1.57449 13.3265 1.39537 13.2066 1.25822C13.0868 1.12107 12.9174 1.0371 12.7356 1.02475C12.4918 1.00825 12.2466 1 12 1C9.08362 1.00328 6.28763 2.16325 4.22544 4.22544C2.16325 6.28763 1.00328 9.08362 1 12C1.00328 14.9164 2.16325 17.7124 4.22544 19.7746C6.28763 21.8367 9.08362 22.9967 12 23C12.2457 23 12.4904 22.9918 12.7343 22.9753C12.8244 22.9693 12.9124 22.9457 12.9934 22.9057C13.0744 22.8657 13.1467 22.8102 13.2062 22.7422C13.2657 22.6743 13.3112 22.5953 13.3402 22.5098C13.3691 22.4243 13.381 22.3339 13.375 22.2437C13.3606 22.0625 13.2758 21.894 13.1389 21.7743C13.002 21.6546 12.8237 21.5931 12.6421 21.603C12.4304 21.6181 12.2173 21.625 12.0014 21.625C9.44956 21.6221 7.00309 20.6071 5.19869 18.8027C3.39428 16.9983 2.37929 14.5518 2.37637 12C2.37929 9.44818 3.39428 7.00172 5.19869 5.19731C7.00309 3.39291 9.44956 2.37791 12.0014 2.375C12.2173 2.375 12.4304 2.375 12.6421 2.397H12.6889C12.8632 2.39705 13.031 2.33092 13.1583 2.21197C13.2857 2.09302 13.3631 1.93013 13.375 1.75625ZM16.2983 20.6157C15.9231 20.8025 15.5364 20.965 15.1405 21.1025C14.9683 21.1619 14.8266 21.2872 14.7467 21.4509C14.6668 21.6146 14.6551 21.8033 14.7142 21.9756C14.7609 22.111 14.8487 22.2284 14.9653 22.3114C15.0819 22.3945 15.2215 22.4391 15.3646 22.439C15.4408 22.4387 15.5165 22.4262 15.5887 22.4019C16.041 22.2472 16.4829 22.0634 16.9115 21.8519C16.9923 21.8115 17.0644 21.7557 17.1237 21.6875C17.1829 21.6193 17.2281 21.5401 17.2567 21.4544C17.2853 21.3687 17.2967 21.2782 17.2904 21.1881C17.284 21.098 17.2599 21.01 17.2195 20.9293C17.1797 20.8479 17.1242 20.7753 17.0562 20.7155C16.9882 20.6557 16.909 20.6099 16.8233 20.5808C16.7376 20.5517 16.647 20.5398 16.5566 20.5458C16.4663 20.5518 16.378 20.5755 16.2969 20.6157H16.2983ZM19.2353 5.65162C19.2997 5.72538 19.3792 5.78452 19.4683 5.82507C19.5575 5.86562 19.6543 5.88665 19.7522 5.88675C19.9192 5.88689 20.0805 5.82629 20.206 5.71625C20.2739 5.65669 20.3295 5.58433 20.3694 5.50329C20.4094 5.42226 20.433 5.33414 20.4388 5.24398C20.4447 5.15383 20.4328 5.0634 20.4037 4.97786C20.3746 4.89233 20.3289 4.81337 20.2692 4.7455C19.9533 4.38482 19.6138 4.04537 19.2531 3.72938C19.1163 3.61165 18.9387 3.55245 18.7586 3.56454C18.5786 3.57663 18.4105 3.65905 18.2906 3.794C18.1727 3.93063 18.1133 4.10813 18.1251 4.2882C18.137 4.46827 18.2191 4.63647 18.3539 4.7565C18.6671 5.03511 18.9615 5.33413 19.2353 5.65162ZM15.1034 2.8865C15.5009 3.02146 15.8891 3.18269 16.2653 3.36913C16.3598 3.41547 16.4638 3.43946 16.5691 3.43925C16.6972 3.43925 16.8228 3.40346 16.9316 3.33592C17.0404 3.26838 17.1283 3.17177 17.1851 3.057C17.2252 2.97602 17.2488 2.88795 17.2548 2.79781C17.2608 2.70768 17.249 2.61725 17.22 2.53169C17.191 2.44614 17.1454 2.36713 17.0859 2.29919C17.0264 2.23126 16.954 2.17572 16.873 2.13575C16.4435 1.92391 16.0008 1.74019 15.5475 1.58575C15.462 1.55654 15.3716 1.54446 15.2814 1.55021C15.1913 1.55596 15.1031 1.57943 15.022 1.61927C14.9409 1.65912 14.8685 1.71455 14.8088 1.78241C14.7492 1.85027 14.7035 1.92922 14.6744 2.01475C14.6158 2.18724 14.6281 2.37594 14.7085 2.53939C14.7889 2.70284 14.931 2.82768 15.1034 2.8865ZM21.9963 14.6386C21.8236 14.5806 21.6349 14.5935 21.4717 14.6744C21.3085 14.7554 21.1842 14.8978 21.1259 15.0704C20.9915 15.4675 20.8316 15.8556 20.6474 16.2323C20.6074 16.3134 20.5839 16.4016 20.5781 16.4919C20.5723 16.5821 20.5844 16.6726 20.6137 16.7582C20.6429 16.8438 20.6888 16.9228 20.7486 16.9906C20.8084 17.0584 20.881 17.1138 20.9622 17.1535C21.0561 17.199 21.1591 17.2225 21.2634 17.2222C21.3921 17.2226 21.5183 17.1869 21.6277 17.1191C21.7371 17.0512 21.8252 16.9541 21.8821 16.8386C22.0938 16.4077 22.2775 15.9635 22.4321 15.509C22.4608 15.4232 22.4722 15.3327 22.4658 15.2425C22.4594 15.1523 22.4352 15.0642 22.3947 14.9834C22.3543 14.9025 22.2982 14.8305 22.2298 14.7713C22.1615 14.7122 22.0821 14.6671 21.9963 14.6386ZM19.2586 18.325C18.9831 18.6413 18.6873 18.9394 18.3731 19.2174C18.3056 19.2773 18.2505 19.35 18.211 19.4312C18.1716 19.5124 18.1485 19.6006 18.1431 19.6908C18.1378 19.7809 18.1502 19.8713 18.1798 19.9566C18.2093 20.0419 18.2554 20.1206 18.3154 20.1881C18.3799 20.2608 18.4591 20.3189 18.5477 20.3588C18.6364 20.3986 18.7325 20.4192 18.8296 20.4191C18.9976 20.4197 19.1597 20.358 19.2847 20.2459C19.6437 19.9293 19.9813 19.5894 20.2954 19.2284C20.3548 19.1603 20.4003 19.0812 20.4292 18.9956C20.4581 18.91 20.4698 18.8195 20.4636 18.7293C20.4575 18.6392 20.4337 18.5511 20.3935 18.4701C20.3533 18.3892 20.2975 18.317 20.2294 18.2576C20.1612 18.1982 20.0821 18.1529 19.9964 18.1241C19.9107 18.0953 19.8202 18.0838 19.73 18.09C19.6399 18.0963 19.5518 18.1203 19.4709 18.1606C19.39 18.2009 19.3179 18.2568 19.2586 18.325ZM22.9711 11.2644C22.9588 11.0831 22.8752 10.9142 22.7386 10.7944C22.6021 10.6746 22.4237 10.6137 22.2424 10.625C22.0606 10.6374 21.8912 10.7213 21.7713 10.8585C21.6515 10.9956 21.5909 11.1747 21.603 11.3565C21.6181 11.5669 21.625 11.7828 21.625 12C21.625 12.2172 21.625 12.4125 21.6058 12.6078C21.5998 12.6979 21.6116 12.7883 21.6406 12.8738C21.6695 12.9593 21.7151 13.0383 21.7746 13.1062C21.8341 13.1742 21.9064 13.2297 21.9874 13.2697C22.0683 13.3097 22.1564 13.3333 22.2465 13.3392H22.2919C22.4666 13.3396 22.6349 13.2735 22.7626 13.1542C22.8903 13.0349 22.9678 12.8715 22.9794 12.6971C22.9931 12.4675 23 12.2338 23 12C23 11.7662 22.9918 11.5036 22.9753 11.2603L22.9711 11.2644ZM21.1094 8.89937C21.1557 9.03545 21.2434 9.15359 21.3603 9.2372C21.4772 9.32081 21.6174 9.36568 21.7611 9.3655C21.8364 9.36514 21.9112 9.3526 21.9825 9.32837C22.068 9.29926 22.147 9.25357 22.2148 9.19392C22.2827 9.13426 22.3381 9.06182 22.378 8.98073C22.4178 8.89964 22.4413 8.81149 22.447 8.72133C22.4528 8.63116 22.4407 8.54075 22.4115 8.45525C22.257 8.00199 22.0733 7.55923 21.8615 7.12975C21.7805 6.96638 21.638 6.84186 21.4652 6.78358C21.2925 6.72531 21.1036 6.73805 20.9403 6.819C20.7772 6.89996 20.653 7.04226 20.5947 7.2147C20.5365 7.38714 20.549 7.57564 20.6295 7.73887C20.816 8.11331 20.9777 8.4996 21.1135 8.89525L21.1094 8.89937Z" fill="#4D4D4D"/>
</g>
<defs>
<clipPath id="clip0_4720_9270">
<rect width="22" height="22" fill="white" transform="translate(1 1)"/>
</clipPath>
</defs>
</svg>
