<svg width="48" height="45" viewBox="0 0 48 45" fill="none" xmlns="http://www.w3.org/2000/svg">
<rect width="48" height="45" rx="10" fill="#F5E8D0"/>
<g clip-path="url(#clip0_1959_1475)">
<path d="M22.3851 8.9668C20.2764 8.9668 18.5824 10.719 18.5824 12.8373V13.3079H14.3081C13.7148 13.3079 13.2312 13.7914 13.2312 14.3848V15.4617H12.1543V17.6156H14.3081V33.7694C14.3081 35.5409 15.7674 37.0002 17.5389 37.0002H30.462C32.2335 37.0002 33.6928 35.5409 33.6928 33.7694V17.6156H35.8466V15.4617H34.7697V14.3848C34.7697 13.7914 34.2861 13.3079 33.6928 13.3079H29.4184V12.8362C29.4184 10.719 27.7244 8.9668 25.6158 8.9668H22.3851ZM22.3851 11.1874H25.6158C26.4817 11.1874 27.1978 11.8939 27.1978 12.8362V13.3079H20.802V12.8362C20.802 11.8939 21.5181 11.1885 22.384 11.1885L22.3851 11.1874ZM16.462 17.6156H21.9812C22.1148 17.6296 22.2472 17.649 22.3851 17.649H25.6158C25.7537 17.649 25.8851 17.6296 26.0197 17.6156H31.5389V33.7694C31.5389 34.3757 31.0683 34.8463 30.462 34.8463H17.5389C16.9326 34.8463 16.462 34.3757 16.462 33.7694V17.6156ZM18.6158 19.7694V32.6925H20.7697V19.7694H18.6158ZM22.9235 19.7694V32.6925H25.0774V19.7694H22.9235ZM27.2312 19.7694V32.6925H29.3851V19.7694H27.2312Z" fill="#F99D1C"/>
</g>
<defs>
<clipPath id="clip0_1959_1475">
<rect width="28" height="28" fill="white" transform="translate(10 9)"/>
</clipPath>
</defs>
</svg>
