<svg width="30" height="31" viewBox="0 0 30 31" fill="none" xmlns="http://www.w3.org/2000/svg">
<path d="M15 30.2683C23.2842 30.2683 30 23.5328 30 15.2242C30 6.91563 23.2842 0.180176 15 0.180176C6.71572 0.180176 0 6.91563 0 15.2242C0 23.5328 6.71572 30.2683 15 30.2683Z" fill="#1977F3"/>
<path d="M20.8396 19.5739L21.5041 15.2242H17.3443V12.402C17.3443 11.213 17.9244 10.0516 19.7891 10.0516H21.6813V6.34924C21.6813 6.34924 19.9642 6.05518 18.3231 6.05518C14.8974 6.05518 12.6572 8.13693 12.6572 11.9091V15.2242H8.84766V19.5739H12.6572V30.0863C13.4208 30.2069 14.2034 30.2683 15.0008 30.2683C15.7981 30.2683 16.5807 30.2048 17.3443 30.0863V19.5739H20.8396Z" fill="white"/>
</svg>
