<svg width="21" height="21" viewBox="0 0 21 21" fill="none" xmlns="http://www.w3.org/2000/svg">
<g clip-path="url(#clip0_4720_9559)">
<path d="M14.9586 17.6209C15.0436 17.6209 15.1125 17.5532 15.1125 17.4696C15.1125 17.3861 15.0436 17.3184 14.9586 17.3184C14.8736 17.3184 14.8047 17.3861 14.8047 17.4696C14.8047 17.5532 14.8736 17.6209 14.9586 17.6209Z" fill="#4D4D4D"/>
<path d="M20.0363 19.134H19.4211L19.298 16.5926L19.1746 14.052L19.0516 11.511L18.9289 8.9703L18.8058 6.4293H18.7491C18.8969 6.26231 18.979 6.04727 18.9801 5.82424C18.9801 5.55354 18.8606 5.30022 18.6608 5.12599C18.6683 5.07283 18.6723 5.01968 18.6723 4.96718C18.6723 4.27024 18.0764 3.6934 17.3732 3.73277C17.3304 3.63976 17.2788 3.55108 17.219 3.46798C17.2236 3.42696 17.2259 3.38594 17.2259 3.34362C17.2259 2.36219 16.4164 1.56387 15.4215 1.56387C15.3493 1.56391 15.2772 1.56895 15.2056 1.57896C15.038 1.29647 14.7995 1.0627 14.5137 0.900848C14.2278 0.738996 13.9046 0.654683 13.5762 0.656272C13.1395 0.656818 12.7164 0.80846 12.3788 1.08546C12.0076 0.805109 11.5545 0.654334 11.0893 0.656272C10.6713 0.656309 10.2624 0.778327 9.91266 1.00737C9.26494 0.539131 8.30452 0.554881 7.66664 1.06052C6.94083 0.588678 5.96466 0.529616 5.18273 0.921397C4.78246 0.745786 4.34999 0.655493 3.91289 0.656272C2.1758 0.656272 0.762562 2.04818 0.762562 3.75935C0.762562 5.47052 2.1758 6.86276 3.91289 6.86276C4.94747 6.86276 5.89805 6.37155 6.48933 5.54008C6.89994 5.51168 7.29695 5.38115 7.64431 5.16037C7.99168 4.93959 8.27839 4.63553 8.47842 4.27582C8.82674 4.34483 9.18769 4.30897 9.51562 4.17279C9.71667 4.38929 9.96023 4.56196 10.2311 4.68002C10.5019 4.79808 10.7942 4.85897 11.0896 4.8589C11.3886 4.85969 11.6844 4.79768 11.9578 4.67689C12.2313 4.55609 12.4764 4.37921 12.6771 4.15769C13.061 4.37088 13.5087 4.43912 13.9388 4.34998C14.0392 4.49533 14.1593 4.62462 14.2954 4.73322C14.4588 5.46265 15.117 5.99651 15.8839 5.99651C16.1165 5.99651 16.3436 5.94794 16.5533 5.85344C16.7226 6.01718 16.9335 6.12907 17.1652 6.17665C17.2029 6.26983 17.2561 6.35449 17.3204 6.4293H16.9605L16.8374 8.9703L16.714 11.511L16.591 14.052L16.4683 16.5926L16.3452 19.134V13.084H12.6538L8.96241 10.059V13.084L5.271 10.059V13.084L1.57959 10.059V19.1336H0.964031C0.883145 19.1333 0.8054 19.1649 0.747745 19.2217C0.69009 19.2784 0.657202 19.3556 0.65625 19.4365V20.0412C0.65625 20.2076 0.794391 20.3438 0.964031 20.3438H20.0363C20.1171 20.3441 20.1948 20.3125 20.2524 20.2558C20.3099 20.1992 20.3428 20.122 20.3438 20.0412V19.4365C20.3428 19.3557 20.3099 19.2786 20.2524 19.2219C20.1948 19.1652 20.1171 19.1336 20.0363 19.134ZM16.9132 5.26118L16.7318 4.96455L16.446 5.16307C16.2809 5.27822 16.0845 5.33995 15.8832 5.33993C15.3956 5.33993 14.9815 4.9803 14.9202 4.50387L14.9008 4.35555L14.7765 4.27287C14.6093 4.15967 14.4752 4.00422 14.3876 3.82235L14.26 3.56051L13.9847 3.65632C13.5335 3.81316 13.1385 3.72063 12.8057 3.45944L12.5258 3.23862L12.3293 3.53721C12.1942 3.7424 12.01 3.91068 11.7935 4.02681C11.577 4.14294 11.335 4.20326 11.0893 4.20232C10.8511 4.2027 10.6162 4.14579 10.4046 4.03637C10.1929 3.92695 10.0107 3.76824 9.87328 3.57363L9.69839 3.32458L9.43688 3.48012C9.12483 3.66583 8.78752 3.7121 8.41181 3.57724L8.11552 3.47093L7.99706 3.7623C7.71947 4.4448 7.05698 4.88744 6.30886 4.89007L6.12839 4.89073L6.03225 5.0433C5.57288 5.77108 4.78045 6.20585 3.91289 6.20585C2.53772 6.20585 1.41881 5.10794 1.41881 3.75869C1.41881 2.4101 2.53739 1.31252 3.91289 1.31252C4.30927 1.31252 4.69055 1.40341 5.04591 1.58224L5.20636 1.66296L5.36091 1.57141C6.02011 1.18062 6.89916 1.25313 7.48125 1.73744L7.72209 1.9376L7.93341 1.7066C8.04533 1.5823 8.18219 1.48296 8.33506 1.41506C8.48793 1.34716 8.65339 1.31223 8.82066 1.31252C9.13878 1.31122 9.44442 1.43619 9.6705 1.66001L9.88608 1.87296L10.1154 1.67477C10.3861 1.44105 10.7317 1.31248 11.0893 1.31252C11.4945 1.31252 11.8732 1.47133 12.1547 1.76008L12.4041 2.01537L12.6377 1.74532C12.7539 1.61005 12.8979 1.50139 13.0598 1.42671C13.2217 1.35203 13.3979 1.31308 13.5762 1.31252C14.0831 1.31252 14.5327 1.6121 14.7217 2.07541L14.8316 2.34546L15.1128 2.26769C15.2309 2.23488 15.329 2.21979 15.4215 2.21979C16.0548 2.21979 16.5697 2.72379 16.5697 3.34329C16.5697 3.3971 16.5608 3.44862 16.551 3.51129L16.5283 3.66026L16.6264 3.77477C16.7311 3.89651 16.801 4.03169 16.8345 4.1764L16.9132 4.51765L17.2482 4.41691C17.3152 4.39657 17.37 4.38738 17.4208 4.38738C17.7486 4.38738 18.0157 4.64726 18.0157 4.96685C18.0157 5.02755 18.0036 5.09055 17.9783 5.16044L17.8733 5.44887L18.1542 5.57257C18.2037 5.59364 18.2461 5.62863 18.2761 5.67331C18.3062 5.71798 18.3226 5.77041 18.3235 5.82424C18.3235 5.97715 18.1945 6.10118 18.0364 6.10118C17.9658 6.10246 17.8973 6.07693 17.8448 6.02975C17.7922 5.98256 17.7595 5.91722 17.7532 5.84688L17.7283 5.54599L17.4031 5.54632C17.3041 5.54362 17.2073 5.5161 17.1218 5.46628C17.0362 5.41646 16.9644 5.34593 16.9132 5.26118ZM17.2302 11.0188L17.3056 9.46249H18.4597L18.5348 11.0188H17.2302ZM16.9844 16.1005L17.0595 14.5442H18.7057L18.7812 16.1005H16.9844ZM15.6476 20.0905H13.3507V19.8214H15.6476V20.0905ZM15.6886 16.109V18.4781H15.5859V16.109H15.6886ZM13.7402 18.9699V16.2727H15.2578V18.9699H13.7402ZM13.6582 19.657V19.298H15.3398V19.657H13.6582ZM5.42423 16.2603H8.80819V17.3194H5.42423V16.2603ZM5.11678 17.3191H2.23552V16.2599H5.11678V17.3191ZM9.11564 16.2603H12.3457V17.3194H9.11564V16.2603ZM9.11564 15.9577V14.8989H12.3457V15.9577H9.11564ZM8.80819 15.9577H5.42423V14.8989H8.80819V15.9577ZM5.11678 15.9577H2.23552V14.8989H5.11678V15.9577Z" fill="#4D4D4D"/>
<path d="M7.38939 2.8213C7.35225 2.79042 7.312 2.76348 7.2693 2.74091C7.22648 2.71526 7.18132 2.69372 7.13444 2.6766C7.07888 2.65485 7.02158 2.63784 6.96316 2.62574C6.92194 2.44574 6.82899 2.28173 6.69573 2.1539C6.61202 2.0698 6.51502 2.00007 6.40863 1.94751C6.30221 1.89337 6.1896 1.85238 6.07328 1.82544C5.63917 1.72602 5.15716 1.84743 4.85594 2.11879C4.85233 2.11747 4.85003 2.11518 4.84708 2.11419C4.7899 2.09103 4.73054 2.07366 4.66989 2.06235C4.54911 2.04146 4.42551 2.04313 4.30534 2.06727C4.07402 2.11977 3.88075 2.26152 3.8125 2.43608C3.95991 2.31642 4.14505 2.25304 4.33487 2.25726C4.4238 2.25758 4.50813 2.27661 4.58327 2.3068C4.62691 2.32419 4.63872 2.33076 4.69023 2.3593C4.71911 2.37636 4.74864 2.40196 4.77456 2.42591L4.88809 2.52993L5.02952 2.41246C5.27955 2.2041 5.64344 2.12338 5.965 2.19294C6.00339 2.20016 6.04605 2.21263 6.0805 2.22313C6.11036 2.23232 6.15203 2.24807 6.20125 2.27202C6.26195 2.30385 6.33873 2.34716 6.39714 2.3954C6.51986 2.49318 6.60812 2.6241 6.66227 2.76847L6.70623 2.88397L6.8155 2.88332C6.8913 2.88299 6.97366 2.88397 7.04453 2.89546C7.1118 2.90235 7.20597 2.93451 7.27389 2.96141C7.42089 3.02474 7.55411 3.12416 7.6578 3.25804C7.63548 3.09791 7.53705 2.94008 7.38939 2.8213ZM16.3945 3.71708C16.3734 3.68649 16.3496 3.65793 16.3232 3.63177C16.2927 3.59961 16.2593 3.57029 16.2235 3.54416C16.2533 3.41005 16.243 3.27012 16.1936 3.14188C16.164 3.05891 16.1205 2.98157 16.065 2.91318C16.039 2.87952 16.0109 2.84762 15.9807 2.81769C15.9481 2.78521 15.9136 2.75475 15.8773 2.72647C15.6148 2.52468 15.25 2.45774 14.9586 2.54797L14.954 2.54207C14.9227 2.5086 14.8881 2.47847 14.8506 2.45216C14.7753 2.40058 14.6911 2.36332 14.6022 2.34224C14.429 2.30615 14.2528 2.34224 14.1504 2.43936C14.2879 2.40372 14.4337 2.41815 14.5615 2.48005C14.6216 2.50761 14.6728 2.54699 14.7138 2.5903C14.7381 2.61557 14.7437 2.62377 14.7696 2.65888C14.7837 2.67955 14.7952 2.70613 14.805 2.73008L14.849 2.83574L14.9822 2.79997C15.2181 2.73632 15.4905 2.7944 15.6857 2.94107C15.7093 2.95813 15.7343 2.97946 15.7543 2.99718C15.7717 3.0126 15.7946 3.03655 15.8202 3.06772C15.8514 3.10808 15.8891 3.16124 15.9131 3.2121C15.9646 3.31644 15.983 3.43227 15.9735 3.54679L15.9663 3.63866L16.0407 3.67213C16.0919 3.69543 16.1477 3.72135 16.1917 3.75121C16.3434 3.85287 16.4505 4.0088 16.4909 4.18696C16.528 4.07244 16.5119 3.93529 16.4499 3.80896C16.4344 3.77662 16.4159 3.74585 16.3945 3.71708Z" fill="#4D4D4D"/>
</g>
<defs>
<clipPath id="clip0_4720_9559">
<rect width="21" height="21" fill="white"/>
</clipPath>
</defs>
</svg>
