<svg width="30" height="30" viewBox="0 0 30 30" fill="none" xmlns="http://www.w3.org/2000/svg">
<g clip-path="url(#clip0_1756_3436)">
<path d="M29.9822 15.2807C29.9822 14.0516 29.8802 13.1547 29.6593 12.2246H15.2969V17.7721H23.7273C23.5574 19.1507 22.6396 21.2269 20.5999 22.622L20.5713 22.8077L25.1124 26.2455L25.427 26.2762C28.3165 23.6685 29.9822 19.8317 29.9822 15.2807Z" fill="#4285F4"/>
<path d="M15.2984 29.8968C19.4286 29.8968 22.8959 28.568 25.4285 26.2759L20.6014 22.6218C19.3097 23.5021 17.5759 24.1166 15.2984 24.1166C11.2531 24.1166 7.81979 21.509 6.59589 17.9048L6.4165 17.9197L1.69456 21.4907L1.63281 21.6585C4.14833 26.5416 9.31541 29.8968 15.2984 29.8968Z" fill="#34A853"/>
<path d="M6.59475 17.905C6.27181 16.9749 6.08492 15.9782 6.08492 14.9485C6.08492 13.9187 6.27181 12.9221 6.57776 11.992L6.56921 11.7939L1.7881 8.16553L1.63167 8.23824C0.5949 10.2646 0 12.5401 0 14.9485C0 17.3569 0.5949 19.6323 1.63167 21.6587L6.59475 17.905Z" fill="#FBBC05"/>
<path d="M15.2984 5.78004C18.1708 5.78004 20.1085 6.99252 21.2133 8.00576L25.5305 3.8866C22.8791 1.47824 19.4286 0 15.2984 0C9.31542 0 4.14834 3.35507 1.63281 8.2382L6.57891 11.992C7.8198 8.38774 11.2532 5.78004 15.2984 5.78004Z" fill="#EB4335"/>
</g>
<defs>
<clipPath id="clip0_1756_3436">
<rect width="30" height="30" fill="white"/>
</clipPath>
</defs>
</svg>
