<svg width="148" height="148" viewBox="0 0 148 148" fill="none" xmlns="http://www.w3.org/2000/svg">
<circle cx="74" cy="74" r="74" fill="#F7F7F7" fill-opacity="0.5"/>
<path d="M74.3467 98.8493L73.9252 99.2727L73.4614 98.8493C53.4366 80.6011 40.1991 68.5344 40.1991 56.2983C40.1991 47.8305 46.5227 41.4796 54.9542 41.4796C61.4465 41.4796 67.7701 45.7135 70.0045 51.4716H77.8458C80.0802 45.7135 86.4038 41.4796 92.8961 41.4796C101.328 41.4796 107.651 47.8305 107.651 56.2983C107.651 68.5344 94.4137 80.6011 74.3467 98.8493ZM92.8961 33.0117C85.5606 33.0117 78.5203 36.4412 73.9252 41.8183C69.33 36.4412 62.2897 33.0117 54.9542 33.0117C41.9697 33.0117 31.7676 43.2155 31.7676 56.2983C31.7676 72.2602 46.1012 85.3431 67.8123 105.116L73.9252 110.704L80.038 105.116C101.749 85.3431 116.083 72.2602 116.083 56.2983C116.083 43.2155 105.881 33.0117 92.8961 33.0117Z" fill="#4D4D4D" fill-opacity="0.5"/>
</svg>
