<svg width="86" height="78" viewBox="0 0 86 78" fill="none" xmlns="http://www.w3.org/2000/svg">
<path d="M43.3467 65.8493L42.9252 66.2727L42.4614 65.8493C22.4366 47.6011 9.19909 35.5344 9.19909 23.2983C9.19909 14.8305 15.5227 8.47958 23.9542 8.47958C30.4465 8.47958 36.7701 12.7135 39.0045 18.4716H46.8458C49.0802 12.7135 55.4038 8.47958 61.8961 8.47958C70.3276 8.47958 76.6512 14.8305 76.6512 23.2983C76.6512 35.5344 63.4137 47.6011 43.3467 65.8493ZM61.8961 0.0117188C54.5606 0.0117188 47.5203 3.4412 42.9252 8.81829C38.33 3.4412 31.2897 0.0117188 23.9542 0.0117188C10.9697 0.0117188 0.767578 10.2155 0.767578 23.2983C0.767578 39.2602 15.1012 52.3431 36.8123 72.1155L42.9252 77.7043L49.038 72.1155C70.7492 52.3431 85.0827 39.2602 85.0827 23.2983C85.0827 10.2155 74.8806 0.0117188 61.8961 0.0117188Z" fill="#4D4D4D" fill-opacity="0.5"/>
</svg>
