<svg width="22" height="24" viewBox="0 0 22 24" fill="none" xmlns="http://www.w3.org/2000/svg">
<path d="M19.11 4.49938C18.6541 4.04338 18.1128 3.68165 17.517 3.43486C16.9213 3.18806 16.2827 3.06104 15.6378 3.06104C14.9929 3.06104 14.3543 3.18806 13.7586 3.43486C13.1628 3.68165 12.6215 4.04338 12.1656 4.49938L11.2194 5.44529L10.2733 4.49938C9.35239 3.57873 8.1034 3.06151 6.80107 3.06151C5.49874 3.06151 4.24975 3.57873 3.32886 4.49938C2.40797 5.42003 1.89063 6.6687 1.89062 7.9707C1.89062 9.27269 2.40797 10.5214 3.32886 11.442L4.27502 12.3879L11.2194 19.3306L18.1639 12.3879L19.11 11.442C19.5661 10.9862 19.9279 10.4451 20.1748 9.84945C20.4217 9.25383 20.5487 8.61542 20.5487 7.9707C20.5487 7.32597 20.4217 6.68756 20.1748 6.09194C19.9279 5.49632 19.5661 4.95516 19.11 4.49938Z" fill="#F99D1C" stroke="#F99D1C" stroke-width="2" stroke-linecap="round" stroke-linejoin="round"/>
</svg>
