<svg width="19" height="18" viewBox="0 0 19 18" fill="none" xmlns="http://www.w3.org/2000/svg">
<path d="M9.49498 14.616L9.40098 14.71L9.29758 14.616C4.83258 10.5646 1.88098 7.88562 1.88098 5.16902C1.88098 3.28902 3.29098 1.87902 5.17098 1.87902C6.61858 1.87902 8.02858 2.81902 8.52678 4.09742H10.2752C10.7734 2.81902 12.1834 1.87902 13.631 1.87902C15.511 1.87902 16.921 3.28902 16.921 5.16902C16.921 7.88562 13.9694 10.5646 9.49498 14.616ZM13.631 -0.000976562C11.9954 -0.000976562 10.4256 0.760423 9.40098 1.95422C8.37638 0.760423 6.80658 -0.000976562 5.17098 -0.000976562C2.27578 -0.000976562 0.000976562 2.26442 0.000976562 5.16902C0.000976562 8.71282 3.19698 11.6174 8.03798 16.0072L9.40098 17.248L10.764 16.0072C15.605 11.6174 18.801 8.71282 18.801 5.16902C18.801 2.26442 16.5262 -0.000976562 13.631 -0.000976562Z" fill="#4D4D4D"/>
</svg>
