<svg width="24" height="22" viewBox="0 0 24 22" fill="none" xmlns="http://www.w3.org/2000/svg">
<path d="M21.0374 3.60465C20.5289 3.09593 19.9252 2.69237 19.2607 2.41704C18.5962 2.14171 17.884 2 17.1647 2C16.4454 2 15.7332 2.14171 15.0687 2.41704C14.4043 2.69237 13.8005 3.09593 13.292 3.60465L12.2368 4.65992L11.1815 3.60465C10.1544 2.57755 8.76135 2.00053 7.30882 2.00053C5.85628 2.00053 4.46324 2.57755 3.43614 3.60465C2.40905 4.63174 1.83203 6.02478 1.83203 7.47732C1.83203 8.92985 2.40905 10.3229 3.43614 11.35L4.49142 12.4053L12.2368 20.1506L19.9821 12.4053L21.0374 11.35C21.5461 10.8415 21.9497 10.2378 22.225 9.57329C22.5003 8.90881 22.642 8.19659 22.642 7.47732C22.642 6.75805 22.5003 6.04583 22.225 5.38134C21.9497 4.71685 21.5461 4.11313 21.0374 3.60465V3.60465Z" stroke="#F99D1C" stroke-width="2.07335" stroke-linecap="round" stroke-linejoin="round"/>
</svg>
