<svg width="24" height="22" viewBox="0 0 24 22" fill="none" xmlns="http://www.w3.org/2000/svg">
<path d="M20.7935 3.66269C20.2838 3.15291 19.6786 2.74851 19.0126 2.4726C18.3465 2.1967 17.6326 2.05469 16.9117 2.05469C16.1907 2.05469 15.4768 2.1967 14.8108 2.4726C14.1447 2.74851 13.5396 3.15291 13.0299 3.66269L11.9722 4.72018L10.9144 3.66269C9.88489 2.63345 8.48857 2.05522 7.03262 2.05522C5.57668 2.05522 4.18036 2.63345 3.15085 3.66269C2.12134 4.69194 1.54297 6.08789 1.54297 7.54347C1.54297 8.99904 2.12134 10.395 3.15085 11.4242L4.20861 12.4817L11.9722 20.2433L19.7357 12.4817L20.7935 11.4242C21.3034 10.9147 21.7079 10.3097 21.9838 9.64383C22.2598 8.97795 22.4019 8.26424 22.4019 7.54347C22.4019 6.82269 22.2598 6.10898 21.9838 5.4431C21.7079 4.77723 21.3034 4.17224 20.7935 3.66269Z" fill="#F99D1C" stroke="#F99D1C" stroke-width="2.34238" stroke-linecap="round" stroke-linejoin="round"/>
</svg>
