<svg width="17" height="23" viewBox="0 0 17 23" fill="none" xmlns="http://www.w3.org/2000/svg">
<path d="M8.49002 5.39355C7.87209 5.39355 7.26804 5.57753 6.75425 5.9222C6.24047 6.26688 5.84002 6.75678 5.60355 7.32996C5.36708 7.90313 5.3052 8.53384 5.42576 9.14232C5.54631 9.7508 5.84387 10.3097 6.28081 10.7484C6.71775 11.1871 7.27444 11.4859 7.8805 11.6069C8.48655 11.7279 9.11474 11.6658 9.68563 11.4284C10.2565 11.191 10.7445 10.7889 11.0878 10.2731C11.4311 9.75723 11.6143 9.15076 11.6143 8.53036C11.6134 7.69872 11.2839 6.90141 10.6982 6.31335C10.1125 5.72529 9.31834 5.3945 8.49002 5.39355V5.39355ZM8.49002 10.0988C8.18105 10.0988 7.87903 10.0068 7.62214 9.83444C7.36524 9.6621 7.16502 9.41715 7.04678 9.13056C6.92855 8.84398 6.89761 8.52862 6.95789 8.22438C7.01816 7.92014 7.16694 7.64068 7.38541 7.42133C7.60388 7.20199 7.88223 7.05261 8.18526 6.99209C8.48829 6.93158 8.80238 6.96264 9.08783 7.08135C9.37327 7.20006 9.61725 7.40108 9.7889 7.659C9.96055 7.91693 10.0522 8.22016 10.0522 8.53036C10.0517 8.94618 9.88695 9.34483 9.59409 9.63886C9.30124 9.93289 8.90418 10.0983 8.49002 10.0988V10.0988Z" fill="#4D4D4D"/>
<path d="M14.4932 2.49598C13.0088 1.00601 11.0274 0.120914 8.9312 0.0115041C6.83504 -0.0979055 4.77281 0.576133 3.14253 1.90353C1.51226 3.23092 0.429494 5.11758 0.103224 7.19936C-0.223046 9.28115 0.230305 11.4105 1.37578 13.1764L7.27812 22.2738C7.40946 22.4762 7.58906 22.6426 7.80061 22.7577C8.01217 22.8728 8.249 22.9331 8.48964 22.9331C8.73027 22.9331 8.9671 22.8728 9.17866 22.7577C9.39022 22.6426 9.56981 22.4762 9.70116 22.2738L15.6037 13.1764C16.6666 11.5383 17.1363 9.58307 16.9341 7.63857C16.7319 5.69407 15.8702 3.87843 14.4932 2.49598V2.49598ZM14.2948 12.3203L8.48966 21.2676L2.68447 12.3203C0.907526 9.58151 1.28864 5.91634 3.59066 3.60499C4.234 2.95906 4.99776 2.44667 5.83834 2.0971C6.67891 1.74752 7.57983 1.56759 8.48966 1.56759C9.39949 1.56759 10.3004 1.74752 11.141 2.0971C11.9816 2.44667 12.7453 2.95906 13.3887 3.60499C15.6907 5.91634 16.0717 9.58151 14.2948 12.3203Z" fill="#4D4D4D"/>
</svg>
