<svg width="148" height="148" viewBox="0 0 148 148" fill="none" xmlns="http://www.w3.org/2000/svg">
<circle cx="74" cy="74" r="74" fill="#F7F7F7" fill-opacity="0.5"/>
<path d="M73.7645 55.6387C71.7436 55.6387 69.7682 56.2403 68.0879 57.3675C66.4076 58.4948 65.098 60.0969 64.3246 61.9714C63.5513 63.8459 63.349 65.9086 63.7432 67.8986C64.1375 69.8885 65.1106 71.7164 66.5396 73.1511C67.9685 74.5858 69.7891 75.5628 71.7711 75.9587C73.7532 76.3545 75.8076 76.1513 77.6746 75.3749C79.5416 74.5984 81.1374 73.2836 82.2602 71.5966C83.3829 69.9096 83.9821 67.9262 83.9821 65.8972C83.979 63.1774 82.9016 60.5699 80.9861 58.6468C79.0705 56.7236 76.4734 55.6418 73.7645 55.6387V55.6387ZM73.7645 71.0265C72.7541 71.0265 71.7663 70.7257 70.9262 70.1621C70.0861 69.5984 69.4312 68.7974 69.0446 67.8601C68.6579 66.9229 68.5567 65.8915 68.7539 64.8965C68.951 63.9016 69.4375 62.9876 70.152 62.2703C70.8665 61.5529 71.7768 61.0644 72.7678 60.8665C73.7588 60.6686 74.786 60.7702 75.7196 61.1584C76.6531 61.5466 77.451 62.204 78.0123 63.0475C78.5737 63.8911 78.8733 64.8827 78.8733 65.8972C78.8718 67.2571 78.333 68.5608 77.3753 69.5224C76.4175 70.484 75.119 71.0249 73.7645 71.0265V71.0265Z" fill="#A3A3A4"/>
<path d="M93.3984 46.1628C88.5439 41.29 82.0636 38.3954 75.2084 38.0376C68.3532 37.6798 61.6089 39.8842 56.2773 44.2253C50.9456 48.5663 47.4046 54.7364 46.3376 61.5446C45.2706 68.3529 46.7532 75.3166 50.4993 81.0918L69.8022 110.844C70.2318 111.506 70.8191 112.05 71.511 112.426C72.2028 112.803 72.9774 113 73.7643 113C74.5513 113 75.3258 112.803 76.0177 112.426C76.7096 112.05 77.2969 111.506 77.7265 110.844L97.03 81.0918C100.506 75.7345 102.042 69.3403 101.381 62.981C100.72 56.6218 97.9015 50.6839 93.3984 46.1628V46.1628ZM92.7494 78.292L73.7644 107.553L54.7792 78.292C48.968 69.3352 50.2143 57.3487 57.7428 49.7897C59.8468 47.6772 62.3446 46.0016 65.0936 44.8583C67.8426 43.715 70.7889 43.1266 73.7644 43.1266C76.7399 43.1266 79.6863 43.715 82.4353 44.8583C85.1842 46.0016 87.682 47.6772 89.786 49.7897C97.3145 57.3487 98.5607 69.3352 92.7494 78.292Z" fill="#A3A3A4"/>
</svg>
