<svg width="40" height="40" viewBox="0 0 40 40" fill="none" xmlns="http://www.w3.org/2000/svg">
<path d="M13.8333 26.3254C11.6874 26.3233 9.54093 26.3495 7.39572 26.3096C5.87569 26.2814 4.52408 25.743 3.4358 24.6607C2.96203 24.1895 2.48295 23.6904 2.14879 23.1204C1.69637 22.3486 1.38908 21.4907 1.36506 20.5724C1.34058 19.6367 1.34746 18.7105 1.67452 17.8017C2.31681 16.0168 3.50851 14.7952 5.24461 14.0538C5.99922 13.7316 6.77042 13.5993 7.57801 13.5998C9.16415 13.6008 10.7505 13.5834 12.3364 13.606C13.3859 13.6209 14.2983 13.9955 15.0448 14.7618C16.5676 16.3248 18.1016 17.8769 19.6328 19.4317C19.9894 19.7937 20.1693 19.7934 20.5231 19.4405C21.2687 18.697 22.008 17.9472 22.7588 17.209C23.6875 16.2957 24.6074 15.3721 25.5656 14.4904C26.1765 13.9282 26.9222 13.6055 27.771 13.6022C29.4904 13.5953 31.2103 13.5756 32.9292 13.6075C34.4567 13.6357 35.7504 14.2579 36.9041 15.2489C37.9463 16.1442 38.5513 17.287 38.8365 18.5837C39.1297 19.9171 39.0018 21.2486 38.4629 22.523C37.9237 23.7981 37.0607 24.7836 35.8556 25.4708C34.9825 25.9687 34.0544 26.3029 33.0452 26.3127C30.9927 26.3328 28.9399 26.3196 26.8872 26.3201C26.7423 26.3201 26.5973 26.3201 26.4016 26.3201C26.4016 26.4826 26.4016 26.6236 26.4016 26.7647C26.4016 28.7907 26.3956 30.8167 26.4037 32.8427C26.4091 34.2198 25.907 35.3979 25.1397 36.5232C24.1372 37.9934 22.6949 38.7321 21.0349 39.0061C19.6673 39.2318 18.2991 39.0133 17.0887 38.239C16.6711 37.9718 16.252 37.6908 15.8913 37.3542C14.757 36.2958 13.9802 34.7201 13.9216 33.0801C13.8416 30.8401 13.8469 28.9077 13.8416 26.7201C13.8413 26.5847 13.8627 26.4607 13.8333 26.3254Z" fill="#0583F2"/>
<path d="M25.3974 4.14262C25.856 4.92372 26.0624 5.77386 26.1466 6.65976C26.2318 7.55717 26.111 8.39802 25.8219 9.23573C25.6326 9.78434 25.2529 10.5811 24.8921 11.0916C24.2975 11.9333 23.7882 12.5557 23.1618 13.2463C22.4531 14.0277 21.873 14.7725 20.8901 15.6191C20.4058 16.0881 19.7009 16.0505 19.2507 15.5755C17.93 14.3474 16.6775 13.0336 15.5909 11.7642C14.6984 10.7215 14.1045 9.5657 13.9581 8.22257C13.7764 6.55646 14.1081 4.97497 15.168 3.56244C16.2604 2.10656 17.7025 1.31073 19.4437 1.13162C21.0728 0.964029 22.606 1.38543 23.9087 2.45105C24.4932 2.92917 25.0167 3.41223 25.3974 4.14262ZM18.1081 4.62411C17.8851 4.85036 17.6373 5.05726 17.4433 5.30608C16.4054 6.63724 16.5392 8.44647 17.7544 9.71606C18.97 10.9861 20.9954 10.9977 22.2391 9.83441C23.0355 9.0895 23.3591 8.18939 23.3252 7.1104C23.2874 5.90345 22.5349 4.862 21.539 4.35572C20.368 3.76046 19.2382 3.85241 18.1081 4.62411Z" fill="#F89D1C"/>
</svg>
