<svg width="16" height="18" viewBox="0 0 16 18" fill="none" xmlns="http://www.w3.org/2000/svg">
<path d="M8.16354 0.433594C8.39687 0.433594 8.49687 0.533594 8.49687 0.533594V6.80026C8.49687 6.83359 8.36354 6.93359 8.16354 6.93359H8.13021C7.93021 6.93359 7.83021 6.83359 7.79688 6.83359V0.533594C7.83021 0.500261 7.96354 0.433594 8.16354 0.433594Z" fill="#EB1D36" stroke="#EB1D36" stroke-width="0.479167" stroke-miterlimit="10"/>
<path d="M7.99427 16.7984C4.1276 16.7984 0.960938 13.6318 0.960938 9.7651C0.960938 6.99844 2.39427 4.59844 4.69427 3.43177C4.7276 3.43177 4.76094 3.39844 4.79427 3.39844C4.82761 3.39844 4.8276 3.39844 4.86094 3.39844C4.9276 3.43177 4.96094 3.4651 4.99427 3.53177C5.0276 3.59844 5.0276 3.6651 4.99427 3.69844C4.96094 3.7651 4.9276 3.79844 4.86094 3.83177C2.7276 4.89844 1.39427 7.1651 1.39427 9.73177C1.39427 13.3651 4.32761 16.2984 7.96094 16.2984C11.5943 16.2984 14.5276 13.3651 14.5276 9.73177C14.5276 7.1651 13.1943 4.93177 11.0943 3.83177C10.9943 3.7651 10.9276 3.63177 10.9943 3.53177C11.0609 3.43177 11.1943 3.3651 11.2943 3.43177C13.5609 4.59844 14.9943 6.99844 14.9943 9.73177C15.0276 13.6651 11.8609 16.7984 7.99427 16.7984Z" fill="#EB1D36" stroke="#EB1D36" stroke-width="0.479167" stroke-miterlimit="10"/>
</svg>
