<svg width="34" height="31" viewBox="0 0 34 31" fill="none" xmlns="http://www.w3.org/2000/svg">
<path d="M16.239 17.8902C17.254 17.8902 18.2461 17.6002 19.09 17.0568C19.9339 16.5134 20.5917 15.7411 20.9801 14.8375C21.3685 13.9339 21.4701 12.9396 21.2721 11.9804C21.0741 11.0211 20.5854 10.14 19.8677 9.44839C19.15 8.7568 18.2356 8.28583 17.2402 8.09502C16.2447 7.90421 15.2129 8.00214 14.2752 8.37642C13.3375 8.75071 12.536 9.38453 11.9722 10.1977C11.4083 11.011 11.1073 11.967 11.1073 12.9451C11.1089 14.2561 11.6501 15.513 12.6122 16.4401C13.5742 17.3671 14.8785 17.8886 16.239 17.8902ZM16.239 9.97804C16.848 9.97804 17.4433 10.1521 17.9496 10.4781C18.456 10.8041 18.8506 11.2675 19.0837 11.8097C19.3167 12.3518 19.3777 12.9484 19.2589 13.5239C19.1401 14.0995 18.8468 14.6282 18.4162 15.0431C17.9856 15.4581 17.437 15.7407 16.8397 15.8551C16.2424 15.9696 15.6233 15.9109 15.0607 15.6863C14.4981 15.4617 14.0172 15.0814 13.6789 14.5935C13.3406 14.1056 13.16 13.5319 13.16 12.9451C13.16 12.1582 13.4844 11.4035 14.0618 10.8471C14.6393 10.2906 15.4224 9.97804 16.239 9.97804ZM7.00195 28.7694V24.8133C7.00358 23.5023 7.54477 22.2454 8.50679 21.3183C9.46882 20.3913 10.7731 19.8698 12.1337 19.8682H20.3444C21.7049 19.8698 23.0092 20.3913 23.9712 21.3183C24.9333 22.2454 25.4745 23.5023 25.4761 24.8133V28.7694C25.4761 29.0317 25.368 29.2833 25.1755 29.4687C24.983 29.6542 24.722 29.7584 24.4497 29.7584C24.1775 29.7584 23.9165 29.6542 23.724 29.4687C23.5315 29.2833 23.4234 29.0317 23.4234 28.7694V24.8133C23.4234 24.0264 23.099 23.2717 22.5216 22.7153C21.9442 22.1589 21.161 21.8463 20.3444 21.8463H12.1337C11.317 21.8463 10.5339 22.1589 9.95646 22.7153C9.37903 23.2717 9.05463 24.0264 9.05463 24.8133V28.7694C9.05463 29.0317 8.9465 29.2833 8.75403 29.4687C8.56155 29.6542 8.3005 29.7584 8.02829 29.7584C7.75609 29.7584 7.49504 29.6542 7.30256 29.4687C7.11009 29.2833 7.00195 29.0317 7.00195 28.7694Z" fill="#4D4D4D"/>
</svg>
