<svg width="24" height="23" viewBox="0 0 24 23" fill="none" xmlns="http://www.w3.org/2000/svg">
<path d="M10.1889 0.785156C8.88107 0.807187 7.69982 1.58719 7.16545 2.79328L13.5639 4.72594C13.8451 3.04828 12.8373 1.42172 11.2154 0.928125C10.9248 0.84 10.6201 0.791719 10.3154 0.785156H10.1889ZM6.9217 3.60141C6.63576 5.28375 7.64357 6.915 9.27013 7.40719C10.9014 7.89937 12.6404 7.09312 13.3248 5.53219L6.9217 3.60141ZM19.367 5.6775C18.1811 5.68219 16.9201 6.25406 15.9686 7.59937L10.1186 15.8916C8.54826 18.1134 9.23263 20.4384 10.7795 21.5353C12.3311 22.6369 14.7451 22.5103 16.3154 20.2884L22.1608 12.0009C23.7311 9.77437 23.0467 7.45406 21.4998 6.3525C20.9186 5.94 20.2201 5.70094 19.4842 5.6775H19.367ZM19.2826 6.48844C19.3436 6.48844 19.4045 6.48844 19.4608 6.49312C20.0279 6.51656 20.5623 6.71812 21.0123 7.04156C22.217 7.89469 22.8217 9.59625 21.467 11.5134L18.4436 15.8025C16.7654 15.3525 14.6092 13.8197 13.6295 12.3806L16.6623 8.08687C17.4545 6.96656 18.3967 6.50719 19.2826 6.48844ZM4.2756 10.0603C3.82466 10.065 3.37982 10.1587 2.96638 10.3416C1.41435 11.0212 0.606696 12.7556 1.08013 14.3869L7.20763 11.7103C6.59357 10.6744 5.47795 10.0462 4.2756 10.0603ZM7.54045 12.4791L1.41388 15.1603C2.27873 16.6322 4.09982 17.2228 5.66076 16.5431C7.21701 15.8587 8.02326 14.115 7.54045 12.4791Z" fill="#4D4D4D"/>
</svg>
