<svg width="20" height="20" viewBox="0 0 20 20" fill="none" xmlns="http://www.w3.org/2000/svg">
<path d="M19.4848 9.99935C19.4848 10.2964 19.3667 10.5813 19.1563 10.7913C18.946 11.0013 18.6607 11.1193 18.3633 11.1193H11.2604V18.2127C11.2604 18.5097 11.1422 18.7946 10.9319 19.0046C10.7216 19.2147 10.4363 19.3327 10.1389 19.3327C9.84145 19.3327 9.55619 19.2147 9.34586 19.0046C9.13554 18.7946 9.01738 18.5097 9.01738 18.2127V11.1193H1.91448C1.61704 11.1193 1.33178 11.0013 1.12145 10.7913C0.911128 10.5813 0.792969 10.2964 0.792969 9.99935C0.792969 9.70231 0.911128 9.41743 1.12145 9.20739C1.33178 8.99735 1.61704 8.87935 1.91448 8.87935H9.01738V1.78602C9.01738 1.48897 9.13554 1.2041 9.34586 0.994056C9.55619 0.784015 9.84145 0.666016 10.1389 0.666016C10.4363 0.666016 10.7216 0.784015 10.9319 0.994056C11.1422 1.2041 11.2604 1.48897 11.2604 1.78602V8.87935H18.3633C18.6607 8.87935 18.946 8.99735 19.1563 9.20739C19.3667 9.41743 19.4848 9.70231 19.4848 9.99935Z" fill="#4D4D4D"/>
</svg>
