<svg width="21" height="21" viewBox="0 0 21 21" fill="none" xmlns="http://www.w3.org/2000/svg">
<path d="M0.312384 0.312464C0.180074 0.444743 0.099628 0.620112 0.0856733 0.806684C0.0717187 0.993256 0.125182 1.17864 0.236342 1.32913L0.312384 1.41663L4.51447 5.61976C2.46554 7.05583 1.00289 9.18231 0.394676 11.6093C0.347779 11.8091 0.381382 12.0194 0.488223 12.1946C0.595063 12.3698 0.766561 12.4959 0.965651 12.5458C1.16474 12.5956 1.37543 12.565 1.5522 12.4608C1.72896 12.3565 1.85759 12.1868 1.9103 11.9885C2.45082 9.83434 3.78207 7.96241 5.63947 6.74476L7.52488 8.63017C6.77175 9.41714 6.35675 10.4678 6.36876 11.557C6.38078 12.6462 6.81885 13.6874 7.58916 14.4576C8.35946 15.2277 9.40074 15.6656 10.49 15.6774C11.5792 15.6893 12.6297 15.2741 13.4165 14.5208L19.5822 20.6875C19.7216 20.8272 19.9087 20.9091 20.106 20.9165C20.3033 20.9239 20.496 20.8564 20.6456 20.7275C20.7951 20.5985 20.8902 20.4178 20.9119 20.2216C20.9336 20.0253 20.8801 19.8282 20.7624 19.6698L20.6863 19.5823L14.3186 13.2135L14.3197 13.2114L7.08009 5.97601L7.08218 5.97392L5.90197 4.79684L1.41655 0.312464C1.27007 0.166161 1.0715 0.0839844 0.864467 0.0839844C0.657435 0.0839844 0.458869 0.166161 0.312384 0.312464ZM10.4999 3.72913C9.45822 3.72913 8.4478 3.8833 7.49051 4.17184L8.77905 5.45934C11.0077 5.01804 13.3208 5.45005 15.24 6.66603C17.1591 7.88202 18.5377 9.78899 19.0905 11.9927C19.1445 12.1895 19.2733 12.3573 19.4494 12.4604C19.6256 12.5634 19.8351 12.5935 20.0331 12.5441C20.2311 12.4947 20.4019 12.3698 20.509 12.1961C20.6161 12.0224 20.6509 11.8136 20.6061 11.6145C20.0413 9.3619 18.74 7.36252 16.909 5.93389C15.0781 4.50526 12.8223 3.72927 10.4999 3.72913ZM10.703 7.38538L14.6624 11.3437C14.6112 10.3103 14.1775 9.33279 13.4458 8.60124C12.7141 7.86969 11.7365 7.43633 10.703 7.38538Z" fill="#4D4D4D"/>
</svg>
