<svg width="21" height="13" viewBox="0 0 21 13" fill="none" xmlns="http://www.w3.org/2000/svg">
<path d="M2.11256 7.87292C2.0193 8.12752 1.83044 8.33572 1.58612 8.45329C1.34179 8.57086 1.06125 8.58853 0.8041 8.50254C0.546952 8.41656 0.333467 8.23369 0.209004 7.9928C0.0845407 7.75191 0.0589098 7.47199 0.137557 7.2125C0.174603 7.09779 0.21772 6.98305 0.266724 6.87292C0.350057 6.675 0.472974 6.40208 0.641724 6.07917C0.985474 5.43333 1.52089 4.57292 2.31047 3.7125C3.90422 1.97292 6.51464 0.25 10.5001 0.25C14.4855 0.25 17.0959 1.97292 18.6896 3.7125C19.5403 4.64578 20.2303 5.71376 20.7313 6.87292L20.8271 7.10833C20.8334 7.125 20.8542 7.23333 20.8751 7.3375L20.9167 7.54167C20.9167 7.54167 21.0917 8.23542 20.2042 8.52917C19.9429 8.61645 19.6576 8.59662 19.4108 8.47401C19.164 8.3514 18.9759 8.13602 18.8876 7.875V7.86875L18.8751 7.83542C18.7704 7.56779 18.6508 7.30627 18.5167 7.05208C18.1463 6.35316 17.6884 5.7042 17.1542 5.12083C15.8834 3.73542 13.8063 2.33333 10.5001 2.33333C7.19381 2.33333 5.11672 3.73542 3.84589 5.12083C3.15785 5.87514 2.59832 6.73731 2.18964 7.67292C2.16778 7.72668 2.14695 7.78086 2.12714 7.83542L2.11256 7.87292ZM6.33339 8.58333C6.33339 7.47826 6.77238 6.41846 7.55378 5.63705C8.33518 4.85565 9.39499 4.41667 10.5001 4.41667C11.6051 4.41667 12.6649 4.85565 13.4463 5.63705C14.2277 6.41846 14.6667 7.47826 14.6667 8.58333C14.6667 9.6884 14.2277 10.7482 13.4463 11.5296C12.6649 12.311 11.6051 12.75 10.5001 12.75C9.39499 12.75 8.33518 12.311 7.55378 11.5296C6.77238 10.7482 6.33339 9.6884 6.33339 8.58333Z" fill="#4D4D4D"/>
</svg>
