<svg width="18" height="10" viewBox="0 0 18 10" fill="none" xmlns="http://www.w3.org/2000/svg">
<path d="M2.29002 6.09833C2.21542 6.30201 2.06433 6.46858 1.86887 6.56263C1.67341 6.65669 1.44897 6.67082 1.24326 6.60203C1.03754 6.53324 0.866749 6.38695 0.767179 6.19424C0.667608 6.00153 0.647103 5.77759 0.710021 5.57C0.739658 5.47823 0.774151 5.38644 0.813355 5.29833C0.880021 5.14 0.978355 4.92167 1.11335 4.66333C1.38835 4.14667 1.81669 3.45833 2.44835 2.77C3.72335 1.37833 5.81169 0 9.00002 0C12.1884 0 14.2767 1.37833 15.5517 2.77C16.2322 3.51663 16.7842 4.37101 17.185 5.29833L17.2617 5.48667C17.2667 5.5 17.2834 5.58667 17.3 5.67L17.3334 5.83333C17.3334 5.83333 17.4734 6.38833 16.7634 6.62333C16.5543 6.69316 16.326 6.67729 16.1286 6.57921C15.9312 6.48112 15.7807 6.30881 15.71 6.1V6.095L15.7 6.06833C15.6163 5.85423 15.5206 5.64501 15.4134 5.44167C15.117 4.88253 14.7507 4.36336 14.3234 3.89667C13.3067 2.78833 11.645 1.66667 9.00002 1.66667C6.35502 1.66667 4.69335 2.78833 3.67669 3.89667C3.12625 4.50012 2.67863 5.18985 2.35169 5.93833C2.3342 5.98135 2.31753 6.02469 2.30169 6.06833L2.29002 6.09833ZM5.66669 6.66667C5.66669 5.78261 6.01788 4.93477 6.643 4.30964C7.26812 3.68452 8.11597 3.33333 9.00002 3.33333C9.88408 3.33333 10.7319 3.68452 11.357 4.30964C11.9822 4.93477 12.3334 5.78261 12.3334 6.66667C12.3334 7.55072 11.9822 8.39857 11.357 9.02369C10.7319 9.64881 9.88408 10 9.00002 10C8.11597 10 7.26812 9.64881 6.643 9.02369C6.01788 8.39857 5.66669 7.55072 5.66669 6.66667Z" fill="#4D4D4D"/>
</svg>
