<svg width="30" height="37" viewBox="0 0 28 33" fill="none" xmlns="http://www.w3.org/2000/svg">
<path d="M25.6697 7.04835C26.6768 8.76343 27.1299 10.6301 27.3148 12.5753C27.502 14.5458 27.2366 16.3921 26.6018 18.2315C26.1861 19.4361 25.3524 21.1855 24.5603 22.3066C23.2546 24.1547 22.1363 25.5213 20.7609 27.0377C19.2048 28.7535 17.9312 30.3889 15.773 32.2479C14.7094 33.2775 13.1616 33.1949 12.1732 32.152C9.27325 29.4554 6.52312 26.5706 4.13727 23.7833C2.17746 21.4938 0.873545 18.956 0.551922 16.0069C0.152963 12.3485 0.881394 8.87597 3.20856 5.77441C5.60716 2.57767 8.77365 0.830239 12.5969 0.436951C16.1741 0.0689735 19.5406 0.994251 22.4009 3.33408C23.6843 4.38391 24.8338 5.44459 25.6697 7.04835ZM9.66431 8.10557C9.17474 8.60235 8.63068 9.05666 8.20468 9.60301C5.92568 12.5259 6.21934 16.4985 8.8876 19.2862C11.5569 22.075 16.004 22.1003 18.7349 19.546C20.4837 17.9104 21.1941 15.934 21.1199 13.5648C21.0368 10.9147 19.3845 8.62792 17.1976 7.51625C14.6265 6.20923 12.1457 6.41112 9.66431 8.10557Z" fill="#F89D1C"/>
</svg>
