<svg width="11" height="11" viewBox="0 0 11 11" fill="none" xmlns="http://www.w3.org/2000/svg">
<path d="M5.5 0.679688C4.54818 0.679687 3.61773 0.961936 2.82632 1.49074C2.03491 2.01954 1.41808 2.77116 1.05383 3.65053C0.689585 4.5299 0.594282 5.49753 0.779973 6.43106C0.965664 7.3646 1.42401 8.2221 2.09705 8.89514C2.77009 9.56818 3.6276 10.0265 4.56113 10.2122C5.49466 10.3979 6.4623 10.3026 7.34167 9.93836C8.22103 9.57412 8.97264 8.95728 9.50145 8.16587C10.0303 7.37446 10.3125 6.44401 10.3125 5.49219C10.3125 4.21584 9.80547 2.99176 8.90295 2.08924C8.00043 1.18672 6.77636 0.679688 5.5 0.679688ZM5.5 9.61719C4.68415 9.61719 3.88663 9.37527 3.20827 8.922C2.52992 8.46874 2.00121 7.82451 1.689 7.07076C1.37679 6.31701 1.2951 5.48761 1.45426 4.68744C1.61343 3.88727 2.00629 3.15226 2.58319 2.57537C3.16008 1.99848 3.89508 1.60561 4.69525 1.44645C5.49543 1.28728 6.32482 1.36897 7.07857 1.68118C7.83231 1.9934 8.47655 2.52211 8.92981 3.20046C9.38307 3.87881 9.625 4.67634 9.625 5.49219C9.625 6.58621 9.1904 7.63542 8.41682 8.40901C7.64323 9.1826 6.59402 9.61719 5.5 9.61719Z" fill="#EB1D36"/>
<path d="M5.15625 2.75H5.84375V6.53125H5.15625V2.75Z" fill="#EB1D36"/>
<path d="M5.5 7.5625C5.39802 7.5625 5.29833 7.59298 5.21353 7.65009C5.12874 7.7072 5.06265 7.78837 5.02362 7.88334C4.9846 7.97831 4.97439 8.08281 4.99428 8.18362C5.01418 8.28444 5.06329 8.37705 5.1354 8.44973C5.20751 8.52242 5.29939 8.57192 5.39941 8.59197C5.49943 8.61203 5.6031 8.60173 5.69732 8.5624C5.79154 8.52306 5.87207 8.45644 5.92873 8.37098C5.98538 8.28551 6.01562 8.18502 6.01562 8.08223C6.01562 7.94439 5.9613 7.81219 5.8646 7.71473C5.7679 7.61726 5.63675 7.5625 5.5 7.5625Z" fill="#EB1D36"/>
</svg>
