<svg width="12" height="12" viewBox="0 0 12 12" fill="none" xmlns="http://www.w3.org/2000/svg">
<circle cx="6" cy="6" r="6" fill="#E5E5E5"/>
<g clip-path="url(#clip0_4720_24079)">
<path d="M9.125 6C9.125 6.09946 9.08549 6.19484 9.01516 6.26516C8.94484 6.33549 8.84946 6.375 8.75 6.375H6.375V8.75C6.375 8.84946 6.33549 8.94484 6.26516 9.01516C6.19484 9.08549 6.09946 9.125 6 9.125C5.90054 9.125 5.80516 9.08549 5.73483 9.01516C5.66451 8.94484 5.625 8.84946 5.625 8.75V6.375H3.25C3.15054 6.375 3.05516 6.33549 2.98483 6.26516C2.91451 6.19484 2.875 6.09946 2.875 6C2.875 5.90054 2.91451 5.80516 2.98483 5.73483C3.05516 5.66451 3.15054 5.625 3.25 5.625H5.625V3.25C5.625 3.15054 5.66451 3.05516 5.73483 2.98483C5.80516 2.91451 5.90054 2.875 6 2.875C6.09946 2.875 6.19484 2.91451 6.26516 2.98483C6.33549 3.05516 6.375 3.15054 6.375 3.25V5.625H8.75C8.84946 5.625 8.94484 5.66451 9.01516 5.73483C9.08549 5.80516 9.125 5.90054 9.125 6Z" fill="#676767" fill-opacity="0.7"/>
</g>
<defs>
<clipPath id="clip0_4720_24079">
<rect width="8" height="8" fill="white" transform="translate(2 2)"/>
</clipPath>
</defs>
</svg>
