<svg width="33" height="32" viewBox="0 0 33 32" fill="none" xmlns="http://www.w3.org/2000/svg">
<circle cx="16.1875" cy="16" r="16" fill="#0583F2"/>
<path d="M25.5625 16C25.5625 16.2984 25.444 16.5845 25.233 16.7955C25.022 17.0065 24.7359 17.125 24.4375 17.125H17.3125V24.25C17.3125 24.5484 17.194 24.8345 16.983 25.0455C16.772 25.2565 16.4859 25.375 16.1875 25.375C15.8891 25.375 15.603 25.2565 15.392 25.0455C15.181 24.8345 15.0625 24.5484 15.0625 24.25V17.125H7.9375C7.63913 17.125 7.35298 17.0065 7.142 16.7955C6.93103 16.5845 6.8125 16.2984 6.8125 16C6.8125 15.7016 6.93103 15.4155 7.142 15.2045C7.35298 14.9935 7.63913 14.875 7.9375 14.875H15.0625V7.75C15.0625 7.45163 15.181 7.16548 15.392 6.9545C15.603 6.74353 15.8891 6.625 16.1875 6.625C16.4859 6.625 16.772 6.74353 16.983 6.9545C17.194 7.16548 17.3125 7.45163 17.3125 7.75V14.875H24.4375C24.7359 14.875 25.022 14.9935 25.233 15.2045C25.444 15.4155 25.5625 15.7016 25.5625 16Z" fill="#F5F5F5"/>
</svg>
