<svg width="17" height="17" viewBox="0 0 17 17" fill="none" xmlns="http://www.w3.org/2000/svg">
<path d="M5.00229 13.2702C4.85349 13.2702 4.70805 13.226 4.58434 13.1433C4.46063 13.0606 4.36421 12.9431 4.30727 12.8057C4.25033 12.6682 4.23543 12.5169 4.26445 12.371C4.29347 12.225 4.36511 12.091 4.47031 11.9857L11.9948 4.46122C12.1367 4.32416 12.3268 4.24831 12.5241 4.25003C12.7214 4.25174 12.9101 4.33088 13.0496 4.47039C13.1891 4.6099 13.2683 4.79862 13.27 4.99591C13.2717 5.1932 13.1959 5.38328 13.0588 5.52519L5.53428 13.0497C5.46449 13.1197 5.38158 13.1752 5.29028 13.213C5.19899 13.2509 5.10112 13.2703 5.00229 13.2702Z" fill="#676767" fill-opacity="0.7"/>
<path d="M12.5177 13.2702C12.4189 13.2703 12.321 13.2509 12.2297 13.213C12.1384 13.1752 12.0555 13.1197 11.9857 13.0497L4.46122 5.52519C4.32416 5.38328 4.24831 5.1932 4.25003 4.99591C4.25174 4.79862 4.33088 4.6099 4.47039 4.47039C4.6099 4.33088 4.79862 4.25174 4.99591 4.25003C5.1932 4.24831 5.38328 4.32416 5.52519 4.46122L13.0497 11.9857C13.1549 12.091 13.2266 12.225 13.2556 12.371C13.2846 12.5169 13.2697 12.6682 13.2128 12.8057C13.1558 12.9431 13.0594 13.0606 12.9357 13.1433C12.812 13.226 12.6665 13.2702 12.5177 13.2702Z" fill="#676767" fill-opacity="0.7"/>
</svg>
