<svg width="9" height="9" viewBox="0 0 9 9" fill="none" xmlns="http://www.w3.org/2000/svg">
<path d="M4.5 0.554688C3.72124 0.554687 2.95996 0.785618 2.31244 1.21828C1.66493 1.65093 1.16025 2.26589 0.862226 2.98537C0.564206 3.70486 0.48623 4.49656 0.63816 5.26036C0.790089 6.02416 1.1651 6.72575 1.71577 7.27642C2.26644 7.82709 2.96803 8.2021 3.73183 8.35403C4.49563 8.50596 5.28733 8.42799 6.00682 8.12997C6.7263 7.83195 7.34125 7.32727 7.77391 6.67975C8.20657 6.03223 8.4375 5.27095 8.4375 4.49219C8.4375 3.4479 8.02266 2.44638 7.28423 1.70796C6.54581 0.96953 5.54429 0.554688 4.5 0.554688ZM4.5 7.86719C3.83249 7.86719 3.17997 7.66925 2.62495 7.2984C2.06994 6.92755 1.63735 6.40045 1.38191 5.78375C1.12646 5.16705 1.05963 4.48845 1.18985 3.83376C1.32008 3.17907 1.64151 2.57771 2.11352 2.1057C2.58552 1.6337 3.18689 1.31226 3.84157 1.18204C4.49626 1.05181 5.17486 1.11865 5.79156 1.37409C6.40826 1.62954 6.93536 2.06212 7.30621 2.61714C7.67706 3.17216 7.875 3.82468 7.875 4.49219C7.875 5.3873 7.51942 6.24574 6.88649 6.87868C6.25355 7.51161 5.39511 7.86719 4.5 7.86719Z" fill="#EB1D36"/>
<path d="M4.21875 2.25H4.78125V5.34375H4.21875V2.25Z" fill="#EB1D36"/>
<path d="M4.5 6.1875C4.41656 6.1875 4.335 6.21244 4.26562 6.25916C4.19624 6.30589 4.14217 6.3723 4.11024 6.45C4.07831 6.5277 4.06995 6.6132 4.08623 6.69569C4.10251 6.77818 4.14269 6.85395 4.20169 6.91342C4.26069 6.97289 4.33586 7.01339 4.4177 7.0298C4.49953 7.0462 4.58436 7.03778 4.66144 7.0056C4.73853 6.97341 4.80442 6.91891 4.85078 6.84898C4.89713 6.77905 4.92187 6.69684 4.92187 6.61273C4.92187 6.49995 4.87743 6.39179 4.79831 6.31205C4.71919 6.2323 4.61189 6.1875 4.5 6.1875Z" fill="#EB1D36"/>
</svg>
