<svg width="28" height="25" viewBox="0 0 28 25" fill="none" xmlns="http://www.w3.org/2000/svg">
<path d="M26.9516 4.71466H9.14211M5.90402 4.71466H1.04688M26.9516 20.9051H9.14211M5.90402 20.9051H1.04688M18.8564 12.8099H1.04688M26.9516 12.8099H22.0945M7.52307 1.47656C7.95246 1.47656 8.36427 1.64714 8.6679 1.95077C8.97154 2.2544 9.14211 2.66621 9.14211 3.09561V6.33371C9.14211 6.7631 8.97154 7.17491 8.6679 7.47854C8.36427 7.78217 7.95246 7.95275 7.52307 7.95275C7.09367 7.95275 6.68186 7.78217 6.37823 7.47854C6.0746 7.17491 5.90402 6.7631 5.90402 6.33371V3.09561C5.90402 2.66621 6.0746 2.2544 6.37823 1.95077C6.68186 1.64714 7.09367 1.47656 7.52307 1.47656ZM7.52307 17.667C7.95246 17.667 8.36427 17.8376 8.6679 18.1412C8.97154 18.4449 9.14211 18.8567 9.14211 19.2861V22.5242C9.14211 22.9536 8.97154 23.3654 8.6679 23.669C8.36427 23.9727 7.95246 24.1432 7.52307 24.1432C7.09367 24.1432 6.68186 23.9727 6.37823 23.669C6.0746 23.3654 5.90402 22.9536 5.90402 22.5242V19.2861C5.90402 18.8567 6.0746 18.4449 6.37823 18.1412C6.68186 17.8376 7.09367 17.667 7.52307 17.667ZM20.4754 9.5718C20.9048 9.5718 21.3167 9.74238 21.6203 10.046C21.9239 10.3496 22.0945 10.7614 22.0945 11.1908V14.4289C22.0945 14.8583 21.9239 15.2702 21.6203 15.5738C21.3167 15.8774 20.9048 16.048 20.4754 16.048C20.046 16.048 19.6342 15.8774 19.3306 15.5738C19.027 15.2702 18.8564 14.8583 18.8564 14.4289V11.1908C18.8564 10.7614 19.027 10.3496 19.3306 10.046C19.6342 9.74238 20.046 9.5718 20.4754 9.5718Z" stroke="#4D4D4D" stroke-width="1.41667" stroke-linecap="round" stroke-linejoin="round"/>
</svg>
