<svg width="13" height="13" viewBox="0 0 13 13" fill="none" xmlns="http://www.w3.org/2000/svg">
<circle cx="6.5" cy="6.5" r="6.5" fill="#0583F2"/>
<g clip-path="url(#clip0_4720_24104)">
<path d="M10.0156 6.5C10.0156 6.61189 9.97118 6.71919 9.89206 6.79831C9.81294 6.87743 9.70564 6.92188 9.59375 6.92188H6.92188V9.59375C6.92188 9.70564 6.87743 9.81294 6.79831 9.89206C6.71919 9.97118 6.61189 10.0156 6.5 10.0156C6.38811 10.0156 6.28081 9.97118 6.20169 9.89206C6.12257 9.81294 6.07812 9.70564 6.07812 9.59375V6.92188H3.40625C3.29436 6.92188 3.18706 6.87743 3.10794 6.79831C3.02882 6.71919 2.98438 6.61189 2.98438 6.5C2.98438 6.38811 3.02882 6.28081 3.10794 6.20169C3.18706 6.12257 3.29436 6.07812 3.40625 6.07812H6.07812V3.40625C6.07812 3.29436 6.12257 3.18706 6.20169 3.10794C6.28081 3.02882 6.38811 2.98438 6.5 2.98438C6.61189 2.98438 6.71919 3.02882 6.79831 3.10794C6.87743 3.18706 6.92188 3.29436 6.92188 3.40625V6.07812H9.59375C9.70564 6.07812 9.81294 6.12257 9.89206 6.20169C9.97118 6.28081 10.0156 6.38811 10.0156 6.5Z" fill="#F5F5F5"/>
</g>
<defs>
<clipPath id="clip0_4720_24104">
<rect width="9" height="9" fill="white" transform="translate(2 2)"/>
</clipPath>
</defs>
</svg>
